<svg width="100" height="100" viewBox="0 0 100 100" fill="none" xmlns="http://www.w3.org/2000/svg">
<circle cx="50" cy="50" r="49" fill="#FFFAE8" stroke="#FFDC60" stroke-width="2"/>
<path d="M65.9389 45.3904C65.8889 45.2529 65.8697 45.1062 65.8826 44.9605C65.8954 44.8148 65.9401 44.6737 66.0134 44.5471C66.0868 44.4205 66.187 44.3116 66.307 44.228C66.4612 44.1208 66.6452 44.0645 66.833 44.067C67.1443 44.0712 67.4415 44.1972 67.661 44.418L68.293 45.05C68.4805 45.2375 68.7348 45.3428 69 45.3428C69.2652 45.3428 69.5195 45.2375 69.707 45.05L65.9389 45.3904ZM65.9389 45.3904C65.989 45.5278 66.0685 45.6526 66.172 45.756L65.9389 45.3904ZM72.1007 41.9523L69.3537 44.6963L69.3535 44.6965C69.2598 44.7902 69.1327 44.8428 69 44.8428C68.8674 44.8428 68.7403 44.7902 68.6466 44.6965L68.0156 44.0655C68.0154 44.0653 68.0152 44.0651 68.015 44.0649C67.7034 43.7517 67.2816 43.573 66.8398 43.5671L66.8397 43.5671C66.5476 43.5632 66.2615 43.6507 66.0216 43.8175L66.0212 43.8178C65.8412 43.9432 65.6909 44.1065 65.5809 44.2963L65.5807 44.2966C65.4709 44.4862 65.4038 44.6978 65.3846 44.9164L72.1007 41.9523ZM72.1007 41.9523C72.3478 41.6896 72.6774 41.5192 73.0347 41.4692L73.0349 41.4692C73.3957 41.4189 73.7628 41.4946 74.0742 41.6835L74.0878 41.6917L74.1008 41.7008C74.2807 41.8261 74.4311 41.9894 74.5411 42.1793C74.6511 42.3691 74.7182 42.5808 74.7375 42.7994C74.7375 42.7995 74.7375 42.7996 74.7375 42.7998L74.45 42.825V43.3705V43.3707L72.1007 41.9523ZM74.7035 40.8989L74.7283 40.9157C75.0098 41.1231 75.2448 41.3875 75.418 41.6917C75.5977 42.0075 75.7064 42.3587 75.7365 42.7209L75.7365 42.7209C75.7667 43.083 75.7175 43.4473 75.5925 43.7884L75.5924 43.7885C75.4674 44.1296 75.2695 44.4395 75.0125 44.6964L75.0125 44.6965L70.7695 48.9394C70.7695 48.9394 70.7695 48.9394 70.7695 48.9395C70.3006 49.4081 69.6649 49.6714 69.002 49.6714C68.3391 49.6714 67.7034 49.4081 67.2345 48.9394L65.1136 46.8175L65.1135 46.8174C64.8565 46.5605 64.6586 46.2506 64.5336 45.9095L64.5336 45.9094C64.4085 45.5683 64.3593 45.204 64.3895 44.8419L64.3895 44.8419C64.4197 44.4797 64.5283 44.1285 64.7081 43.8127C64.8869 43.4984 65.1318 43.2267 65.4258 43.0163C65.9131 42.6861 66.4989 42.5328 67.0856 42.5823C67.6742 42.6318 68.2277 42.8822 68.6535 43.2915L69.0069 43.6312L69.3536 43.2846L71.3996 41.2386L71.3996 41.2386L71.404 41.2341C71.8273 40.8 72.3897 40.5286 72.9929 40.4674L72.993 40.4674C73.5961 40.406 74.2016 40.5588 74.7035 40.8989ZM76.0619 43.9605C76.212 43.5511 76.271 43.1139 76.2348 42.6794L75.366 45.05C75.6744 44.7417 75.9119 44.3699 76.0619 43.9605ZM74.45 42.8249V42.4291L74.2086 42.6704C74.186 42.5866 74.1524 42.5057 74.1085 42.4301L74.45 42.8249Z" stroke="#333333"/>
<mask id="path-3-outside-1_10_1779" maskUnits="userSpaceOnUse" x="19" y="19" width="62" height="62" fill="black">
<rect fill="white" x="19" y="19" width="62" height="62"/>
<path d="M78 70H77V52.13C77.9497 51.2012 78.7042 50.0921 79.2194 48.8677C79.7346 47.6433 79.9999 46.3283 79.9999 45C79.9999 43.6717 79.7346 42.3567 79.2194 41.1323C78.7042 39.9079 77.9497 38.7988 77 37.87V37C77 35.6739 76.4732 34.4021 75.5355 33.4645C74.5979 32.5268 73.3261 32 72 32H63.65C63.367 31.4035 62.9211 30.8991 62.3637 30.5452C61.8064 30.1913 61.1602 30.0023 60.5 30H60V28C59.9964 26.7829 59.5482 25.6091 58.7398 24.6993C57.9313 23.7896 56.8182 23.2066 55.61 23.06C55.2281 22.1528 54.5869 21.3785 53.7669 20.8342C52.9468 20.2899 51.9843 19.9997 51 20H41C40.7348 20 40.4804 20.1054 40.2929 20.2929C40.1054 20.4804 40 20.7348 40 21V23C40.0043 23.8766 40.2425 24.7362 40.69 25.49C40.2441 26.2518 40.0061 27.1173 40 28V30H39.5C38.8398 30.0023 38.1936 30.1913 37.6363 30.5452C37.0789 30.8991 36.633 31.4035 36.35 32H28C26.6739 32 25.4022 32.5268 24.4645 33.4645C23.5268 34.4021 23 35.6739 23 37V70H22C21.47 70.0016 20.9623 70.2128 20.5875 70.5875C20.2128 70.9623 20.0016 71.4701 20 72V75C20 76.3261 20.5268 77.5979 21.4645 78.5355C22.4021 79.4732 23.6739 80 25 80H75C76.3261 80 77.5979 79.4732 78.5355 78.5355C79.4732 77.5979 80 76.3261 80 75V72C79.9984 71.4701 79.7872 70.9623 79.4125 70.5875C79.0377 70.2128 78.5299 70.0016 78 70ZM78 45C78 46.5823 77.5308 48.129 76.6518 49.4446C75.7727 50.7602 74.5233 51.7855 73.0615 52.391C71.5997 52.9965 69.9911 53.155 68.4393 52.8463C66.8874 52.5376 65.462 51.7757 64.3431 50.6569C63.2243 49.538 62.4624 48.1126 62.1537 46.5607C61.845 45.0089 62.0035 43.4003 62.609 41.9385C63.2145 40.4767 64.2398 39.2273 65.5554 38.3482C66.871 37.4692 68.4177 37 70 37C72.1208 37.0029 74.154 37.8467 75.6536 39.3464C77.1533 40.846 77.9971 42.8792 78 45ZM63.95 34H72C72.6727 34.0016 73.3253 34.2293 73.8531 34.6464C74.3808 35.0635 74.753 35.6459 74.91 36.3C73.5105 35.5019 71.9374 35.0575 70.3272 35.0052C68.717 34.9529 67.1183 35.2944 65.67 36H62.94C63.4909 35.465 63.8465 34.7609 63.95 34ZM60 32H60.5C60.8978 32 61.2794 32.158 61.5607 32.4393C61.842 32.7206 62 33.1022 62 33.5C62 33.8978 61.842 34.2794 61.5607 34.5607C61.2794 34.842 60.8978 35 60.5 35H60V32ZM59.8 38H62.87C61.4883 39.4042 60.5526 41.1855 60.1803 43.1201C59.8081 45.0546 60.016 47.0559 60.778 48.8726C61.5399 50.6893 62.8219 52.2402 64.4627 53.3304C66.1035 54.4207 68.03 55.0015 70 55C70.34 55 70.67 54.98 71 54.95V66H66V61.42C66.0077 59.0046 65.3393 56.6352 64.0705 54.5799C62.8016 52.5246 60.9828 50.8654 58.82 49.79L56.98 48.87C56.9635 48.7291 56.9165 48.5934 56.8422 48.4726C56.768 48.3517 56.6682 48.2484 56.55 48.17L54 46.46V45.16C55.4684 44.5166 56.7612 43.5307 57.7703 42.285C58.7794 41.0393 59.4754 39.5699 59.8 38ZM40 59V61H36.03C36.0952 59.0302 36.6919 57.1147 37.7569 55.4563C38.822 53.798 40.3158 52.4586 42.08 51.58L43.56 50.84L45.05 55.32C45.1012 55.4687 45.1867 55.6033 45.2996 55.7128C45.4126 55.8222 45.5497 55.9035 45.7 55.95C45.797 55.9812 45.8981 55.998 46 56C46.216 55.998 46.426 55.928 46.6 55.8L50 53.25L53.4 55.8C53.574 55.928 53.784 55.998 54 56C54.1019 55.998 54.203 55.9812 54.3 55.95C54.4512 55.9054 54.5893 55.8247 54.7025 55.715C54.8158 55.6053 54.9007 55.4697 54.95 55.32L56.44 50.84L57.92 51.57C59.6838 52.4518 61.1769 53.7933 62.2417 55.4531C63.3065 57.1128 63.9036 59.0292 63.97 61H60V59H58V66H42V59H40ZM40 63V66H36V63H40ZM52 46.72L50 50.06L48 46.72V45.8C49.32 46.0667 50.68 46.0667 52 45.8V46.72ZM53.32 48.41L54.81 49.41L53.49 53.37L51.32 51.74L53.32 48.41ZM48.68 51.74L46.51 53.37L45.19 49.41L46.68 48.41L48.68 51.74ZM60 63H64V66H60V63ZM56 25.18C56.5827 25.3876 57.0874 25.7696 57.4452 26.2742C57.8031 26.7788 57.9968 27.3814 58 28V28.59L56 26.59V25.18ZM42 22H51C51.7949 22.0024 52.5566 22.3192 53.1187 22.8813C53.6808 23.4434 53.9976 24.2051 54 25V26H45C44.2051 25.9976 43.4434 25.6808 42.8813 25.1187C42.3192 24.5566 42.0024 23.7949 42 23V22ZM42 28C41.9994 27.6937 42.0501 27.3895 42.15 27.1C42.56 27.3766 43.008 27.5921 43.48 27.74L42 28.92V28ZM42 31.48L46.35 28H54.59L58 31.41V36C57.9971 38.1208 57.1533 40.154 55.6536 41.6536C54.154 43.1533 52.1208 43.9971 50 44C47.8788 43.9984 45.8448 43.155 44.3449 41.6551C42.845 40.1552 42.0016 38.1212 42 36V31.48ZM40.2 38C40.5259 39.5694 41.2224 41.0381 42.2314 42.2836C43.2403 43.5292 44.5324 44.5154 46 45.16V46.46L43.45 48.17C43.3318 48.2484 43.232 48.3517 43.1578 48.4726C43.0835 48.5934 43.0365 48.7291 43.02 48.87L41.18 49.79C39.0172 50.8654 37.1984 52.5246 35.9295 54.5799C34.6607 56.6352 33.9923 59.0046 34 61.42V66H29V38H40.2ZM39.5 32H40V35H39.5C39.1022 35 38.7206 34.842 38.4393 34.5607C38.158 34.2794 38 33.8978 38 33.5C38 33.1022 38.158 32.7206 38.4393 32.4393C38.7206 32.158 39.1022 32 39.5 32ZM25 37C25.0024 36.2051 25.3192 35.4434 25.8813 34.8813C26.4434 34.3192 27.2051 34.0024 28 34H36.05C36.1535 34.7609 36.5091 35.465 37.06 36H28C27.7348 36 27.4804 36.1054 27.2929 36.2929C27.1054 36.4804 27 36.7348 27 37V67C27 67.2652 27.1054 67.5196 27.2929 67.7071C27.4804 67.8946 27.7348 68 28 68H72C72.2652 68 72.5196 67.8946 72.7071 67.7071C72.8946 67.5196 73 67.2652 73 67V54.54C73.6965 54.3156 74.367 54.0172 75 53.65V70H25V37ZM54 72V74H46V72H54ZM78 75C77.9976 75.7949 77.6808 76.5566 77.1187 77.1187C76.5566 77.6808 75.7949 77.9976 75 78H25C24.2051 77.9976 23.4434 77.6808 22.8813 77.1187C22.3192 76.5566 22.0024 75.7949 22 75V72H44V74C44.0016 74.5299 44.2128 75.0377 44.5875 75.4125C44.9623 75.7872 45.4701 75.9984 46 76H54C54.5299 75.9984 55.0377 75.7872 55.4125 75.4125C55.7872 75.0377 55.9984 74.5299 56 74V72H78V75Z"/>
</mask>
<path d="M78 70H77V52.13C77.9497 51.2012 78.7042 50.0921 79.2194 48.8677C79.7346 47.6433 79.9999 46.3283 79.9999 45C79.9999 43.6717 79.7346 42.3567 79.2194 41.1323C78.7042 39.9079 77.9497 38.7988 77 37.87V37C77 35.6739 76.4732 34.4021 75.5355 33.4645C74.5979 32.5268 73.3261 32 72 32H63.65C63.367 31.4035 62.9211 30.8991 62.3637 30.5452C61.8064 30.1913 61.1602 30.0023 60.5 30H60V28C59.9964 26.7829 59.5482 25.6091 58.7398 24.6993C57.9313 23.7896 56.8182 23.2066 55.61 23.06C55.2281 22.1528 54.5869 21.3785 53.7669 20.8342C52.9468 20.2899 51.9843 19.9997 51 20H41C40.7348 20 40.4804 20.1054 40.2929 20.2929C40.1054 20.4804 40 20.7348 40 21V23C40.0043 23.8766 40.2425 24.7362 40.69 25.49C40.2441 26.2518 40.0061 27.1173 40 28V30H39.5C38.8398 30.0023 38.1936 30.1913 37.6363 30.5452C37.0789 30.8991 36.633 31.4035 36.35 32H28C26.6739 32 25.4022 32.5268 24.4645 33.4645C23.5268 34.4021 23 35.6739 23 37V70H22C21.47 70.0016 20.9623 70.2128 20.5875 70.5875C20.2128 70.9623 20.0016 71.4701 20 72V75C20 76.3261 20.5268 77.5979 21.4645 78.5355C22.4021 79.4732 23.6739 80 25 80H75C76.3261 80 77.5979 79.4732 78.5355 78.5355C79.4732 77.5979 80 76.3261 80 75V72C79.9984 71.4701 79.7872 70.9623 79.4125 70.5875C79.0377 70.2128 78.5299 70.0016 78 70ZM78 45C78 46.5823 77.5308 48.129 76.6518 49.4446C75.7727 50.7602 74.5233 51.7855 73.0615 52.391C71.5997 52.9965 69.9911 53.155 68.4393 52.8463C66.8874 52.5376 65.462 51.7757 64.3431 50.6569C63.2243 49.538 62.4624 48.1126 62.1537 46.5607C61.845 45.0089 62.0035 43.4003 62.609 41.9385C63.2145 40.4767 64.2398 39.2273 65.5554 38.3482C66.871 37.4692 68.4177 37 70 37C72.1208 37.0029 74.154 37.8467 75.6536 39.3464C77.1533 40.846 77.9971 42.8792 78 45ZM63.95 34H72C72.6727 34.0016 73.3253 34.2293 73.8531 34.6464C74.3808 35.0635 74.753 35.6459 74.91 36.3C73.5105 35.5019 71.9374 35.0575 70.3272 35.0052C68.717 34.9529 67.1183 35.2944 65.67 36H62.94C63.4909 35.465 63.8465 34.7609 63.95 34ZM60 32H60.5C60.8978 32 61.2794 32.158 61.5607 32.4393C61.842 32.7206 62 33.1022 62 33.5C62 33.8978 61.842 34.2794 61.5607 34.5607C61.2794 34.842 60.8978 35 60.5 35H60V32ZM59.8 38H62.87C61.4883 39.4042 60.5526 41.1855 60.1803 43.1201C59.8081 45.0546 60.016 47.0559 60.778 48.8726C61.5399 50.6893 62.8219 52.2402 64.4627 53.3304C66.1035 54.4207 68.03 55.0015 70 55C70.34 55 70.67 54.98 71 54.95V66H66V61.42C66.0077 59.0046 65.3393 56.6352 64.0705 54.5799C62.8016 52.5246 60.9828 50.8654 58.82 49.79L56.98 48.87C56.9635 48.7291 56.9165 48.5934 56.8422 48.4726C56.768 48.3517 56.6682 48.2484 56.55 48.17L54 46.46V45.16C55.4684 44.5166 56.7612 43.5307 57.7703 42.285C58.7794 41.0393 59.4754 39.5699 59.8 38ZM40 59V61H36.03C36.0952 59.0302 36.6919 57.1147 37.7569 55.4563C38.822 53.798 40.3158 52.4586 42.08 51.58L43.56 50.84L45.05 55.32C45.1012 55.4687 45.1867 55.6033 45.2996 55.7128C45.4126 55.8222 45.5497 55.9035 45.7 55.95C45.797 55.9812 45.8981 55.998 46 56C46.216 55.998 46.426 55.928 46.6 55.8L50 53.25L53.4 55.8C53.574 55.928 53.784 55.998 54 56C54.1019 55.998 54.203 55.9812 54.3 55.95C54.4512 55.9054 54.5893 55.8247 54.7025 55.715C54.8158 55.6053 54.9007 55.4697 54.95 55.32L56.44 50.84L57.92 51.57C59.6838 52.4518 61.1769 53.7933 62.2417 55.4531C63.3065 57.1128 63.9036 59.0292 63.97 61H60V59H58V66H42V59H40ZM40 63V66H36V63H40ZM52 46.72L50 50.06L48 46.72V45.8C49.32 46.0667 50.68 46.0667 52 45.8V46.72ZM53.32 48.41L54.81 49.41L53.49 53.37L51.32 51.74L53.32 48.41ZM48.68 51.74L46.51 53.37L45.19 49.41L46.68 48.41L48.68 51.74ZM60 63H64V66H60V63ZM56 25.18C56.5827 25.3876 57.0874 25.7696 57.4452 26.2742C57.8031 26.7788 57.9968 27.3814 58 28V28.59L56 26.59V25.18ZM42 22H51C51.7949 22.0024 52.5566 22.3192 53.1187 22.8813C53.6808 23.4434 53.9976 24.2051 54 25V26H45C44.2051 25.9976 43.4434 25.6808 42.8813 25.1187C42.3192 24.5566 42.0024 23.7949 42 23V22ZM42 28C41.9994 27.6937 42.0501 27.3895 42.15 27.1C42.56 27.3766 43.008 27.5921 43.48 27.74L42 28.92V28ZM42 31.48L46.35 28H54.59L58 31.41V36C57.9971 38.1208 57.1533 40.154 55.6536 41.6536C54.154 43.1533 52.1208 43.9971 50 44C47.8788 43.9984 45.8448 43.155 44.3449 41.6551C42.845 40.1552 42.0016 38.1212 42 36V31.48ZM40.2 38C40.5259 39.5694 41.2224 41.0381 42.2314 42.2836C43.2403 43.5292 44.5324 44.5154 46 45.16V46.46L43.45 48.17C43.3318 48.2484 43.232 48.3517 43.1578 48.4726C43.0835 48.5934 43.0365 48.7291 43.02 48.87L41.18 49.79C39.0172 50.8654 37.1984 52.5246 35.9295 54.5799C34.6607 56.6352 33.9923 59.0046 34 61.42V66H29V38H40.2ZM39.5 32H40V35H39.5C39.1022 35 38.7206 34.842 38.4393 34.5607C38.158 34.2794 38 33.8978 38 33.5C38 33.1022 38.158 32.7206 38.4393 32.4393C38.7206 32.158 39.1022 32 39.5 32ZM25 37C25.0024 36.2051 25.3192 35.4434 25.8813 34.8813C26.4434 34.3192 27.2051 34.0024 28 34H36.05C36.1535 34.7609 36.5091 35.465 37.06 36H28C27.7348 36 27.4804 36.1054 27.2929 36.2929C27.1054 36.4804 27 36.7348 27 37V67C27 67.2652 27.1054 67.5196 27.2929 67.7071C27.4804 67.8946 27.7348 68 28 68H72C72.2652 68 72.5196 67.8946 72.7071 67.7071C72.8946 67.5196 73 67.2652 73 67V54.54C73.6965 54.3156 74.367 54.0172 75 53.65V70H25V37ZM54 72V74H46V72H54ZM78 75C77.9976 75.7949 77.6808 76.5566 77.1187 77.1187C76.5566 77.6808 75.7949 77.9976 75 78H25C24.2051 77.9976 23.4434 77.6808 22.8813 77.1187C22.3192 76.5566 22.0024 75.7949 22 75V72H44V74C44.0016 74.5299 44.2128 75.0377 44.5875 75.4125C44.9623 75.7872 45.4701 75.9984 46 76H54C54.5299 75.9984 55.0377 75.7872 55.4125 75.4125C55.7872 75.0377 55.9984 74.5299 56 74V72H78V75Z" fill="#333333"/>
<path d="M78 70H77V52.13C77.9497 51.2012 78.7042 50.0921 79.2194 48.8677C79.7346 47.6433 79.9999 46.3283 79.9999 45C79.9999 43.6717 79.7346 42.3567 79.2194 41.1323C78.7042 39.9079 77.9497 38.7988 77 37.87V37C77 35.6739 76.4732 34.4021 75.5355 33.4645C74.5979 32.5268 73.3261 32 72 32H63.65C63.367 31.4035 62.9211 30.8991 62.3637 30.5452C61.8064 30.1913 61.1602 30.0023 60.5 30H60V28C59.9964 26.7829 59.5482 25.6091 58.7398 24.6993C57.9313 23.7896 56.8182 23.2066 55.61 23.06C55.2281 22.1528 54.5869 21.3785 53.7669 20.8342C52.9468 20.2899 51.9843 19.9997 51 20H41C40.7348 20 40.4804 20.1054 40.2929 20.2929C40.1054 20.4804 40 20.7348 40 21V23C40.0043 23.8766 40.2425 24.7362 40.69 25.49C40.2441 26.2518 40.0061 27.1173 40 28V30H39.5C38.8398 30.0023 38.1936 30.1913 37.6363 30.5452C37.0789 30.8991 36.633 31.4035 36.35 32H28C26.6739 32 25.4022 32.5268 24.4645 33.4645C23.5268 34.4021 23 35.6739 23 37V70H22C21.47 70.0016 20.9623 70.2128 20.5875 70.5875C20.2128 70.9623 20.0016 71.4701 20 72V75C20 76.3261 20.5268 77.5979 21.4645 78.5355C22.4021 79.4732 23.6739 80 25 80H75C76.3261 80 77.5979 79.4732 78.5355 78.5355C79.4732 77.5979 80 76.3261 80 75V72C79.9984 71.4701 79.7872 70.9623 79.4125 70.5875C79.0377 70.2128 78.5299 70.0016 78 70ZM78 45C78 46.5823 77.5308 48.129 76.6518 49.4446C75.7727 50.7602 74.5233 51.7855 73.0615 52.391C71.5997 52.9965 69.9911 53.155 68.4393 52.8463C66.8874 52.5376 65.462 51.7757 64.3431 50.6569C63.2243 49.538 62.4624 48.1126 62.1537 46.5607C61.845 45.0089 62.0035 43.4003 62.609 41.9385C63.2145 40.4767 64.2398 39.2273 65.5554 38.3482C66.871 37.4692 68.4177 37 70 37C72.1208 37.0029 74.154 37.8467 75.6536 39.3464C77.1533 40.846 77.9971 42.8792 78 45ZM63.95 34H72C72.6727 34.0016 73.3253 34.2293 73.8531 34.6464C74.3808 35.0635 74.753 35.6459 74.91 36.3C73.5105 35.5019 71.9374 35.0575 70.3272 35.0052C68.717 34.9529 67.1183 35.2944 65.67 36H62.94C63.4909 35.465 63.8465 34.7609 63.95 34ZM60 32H60.5C60.8978 32 61.2794 32.158 61.5607 32.4393C61.842 32.7206 62 33.1022 62 33.5C62 33.8978 61.842 34.2794 61.5607 34.5607C61.2794 34.842 60.8978 35 60.5 35H60V32ZM59.8 38H62.87C61.4883 39.4042 60.5526 41.1855 60.1803 43.1201C59.8081 45.0546 60.016 47.0559 60.778 48.8726C61.5399 50.6893 62.8219 52.2402 64.4627 53.3304C66.1035 54.4207 68.03 55.0015 70 55C70.34 55 70.67 54.98 71 54.95V66H66V61.42C66.0077 59.0046 65.3393 56.6352 64.0705 54.5799C62.8016 52.5246 60.9828 50.8654 58.82 49.79L56.98 48.87C56.9635 48.7291 56.9165 48.5934 56.8422 48.4726C56.768 48.3517 56.6682 48.2484 56.55 48.17L54 46.46V45.16C55.4684 44.5166 56.7612 43.5307 57.7703 42.285C58.7794 41.0393 59.4754 39.5699 59.8 38ZM40 59V61H36.03C36.0952 59.0302 36.6919 57.1147 37.7569 55.4563C38.822 53.798 40.3158 52.4586 42.08 51.58L43.56 50.84L45.05 55.32C45.1012 55.4687 45.1867 55.6033 45.2996 55.7128C45.4126 55.8222 45.5497 55.9035 45.7 55.95C45.797 55.9812 45.8981 55.998 46 56C46.216 55.998 46.426 55.928 46.6 55.8L50 53.25L53.4 55.8C53.574 55.928 53.784 55.998 54 56C54.1019 55.998 54.203 55.9812 54.3 55.95C54.4512 55.9054 54.5893 55.8247 54.7025 55.715C54.8158 55.6053 54.9007 55.4697 54.95 55.32L56.44 50.84L57.92 51.57C59.6838 52.4518 61.1769 53.7933 62.2417 55.4531C63.3065 57.1128 63.9036 59.0292 63.97 61H60V59H58V66H42V59H40ZM40 63V66H36V63H40ZM52 46.72L50 50.06L48 46.72V45.8C49.32 46.0667 50.68 46.0667 52 45.8V46.72ZM53.32 48.41L54.81 49.41L53.49 53.37L51.32 51.74L53.32 48.41ZM48.68 51.74L46.51 53.37L45.19 49.41L46.68 48.41L48.68 51.74ZM60 63H64V66H60V63ZM56 25.18C56.5827 25.3876 57.0874 25.7696 57.4452 26.2742C57.8031 26.7788 57.9968 27.3814 58 28V28.59L56 26.59V25.18ZM42 22H51C51.7949 22.0024 52.5566 22.3192 53.1187 22.8813C53.6808 23.4434 53.9976 24.2051 54 25V26H45C44.2051 25.9976 43.4434 25.6808 42.8813 25.1187C42.3192 24.5566 42.0024 23.7949 42 23V22ZM42 28C41.9994 27.6937 42.0501 27.3895 42.15 27.1C42.56 27.3766 43.008 27.5921 43.48 27.74L42 28.92V28ZM42 31.48L46.35 28H54.59L58 31.41V36C57.9971 38.1208 57.1533 40.154 55.6536 41.6536C54.154 43.1533 52.1208 43.9971 50 44C47.8788 43.9984 45.8448 43.155 44.3449 41.6551C42.845 40.1552 42.0016 38.1212 42 36V31.48ZM40.2 38C40.5259 39.5694 41.2224 41.0381 42.2314 42.2836C43.2403 43.5292 44.5324 44.5154 46 45.16V46.46L43.45 48.17C43.3318 48.2484 43.232 48.3517 43.1578 48.4726C43.0835 48.5934 43.0365 48.7291 43.02 48.87L41.18 49.79C39.0172 50.8654 37.1984 52.5246 35.9295 54.5799C34.6607 56.6352 33.9923 59.0046 34 61.42V66H29V38H40.2ZM39.5 32H40V35H39.5C39.1022 35 38.7206 34.842 38.4393 34.5607C38.158 34.2794 38 33.8978 38 33.5C38 33.1022 38.158 32.7206 38.4393 32.4393C38.7206 32.158 39.1022 32 39.5 32ZM25 37C25.0024 36.2051 25.3192 35.4434 25.8813 34.8813C26.4434 34.3192 27.2051 34.0024 28 34H36.05C36.1535 34.7609 36.5091 35.465 37.06 36H28C27.7348 36 27.4804 36.1054 27.2929 36.2929C27.1054 36.4804 27 36.7348 27 37V67C27 67.2652 27.1054 67.5196 27.2929 67.7071C27.4804 67.8946 27.7348 68 28 68H72C72.2652 68 72.5196 67.8946 72.7071 67.7071C72.8946 67.5196 73 67.2652 73 67V54.54C73.6965 54.3156 74.367 54.0172 75 53.65V70H25V37ZM54 72V74H46V72H54ZM78 75C77.9976 75.7949 77.6808 76.5566 77.1187 77.1187C76.5566 77.6808 75.7949 77.9976 75 78H25C24.2051 77.9976 23.4434 77.6808 22.8813 77.1187C22.3192 76.5566 22.0024 75.7949 22 75V72H44V74C44.0016 74.5299 44.2128 75.0377 44.5875 75.4125C44.9623 75.7872 45.4701 75.9984 46 76H54C54.5299 75.9984 55.0377 75.7872 55.4125 75.4125C55.7872 75.0377 55.9984 74.5299 56 74V72H78V75Z" stroke="black" stroke-width="0.4" mask="url(#path-3-outside-1_10_1779)"/>
<path d="M54 35C55.1046 35 56 34.1046 56 33C56 31.8954 55.1046 31 54 31C52.8954 31 52 31.8954 52 33C52 34.1046 52.8954 35 54 35Z" fill="#333333"/>
<path d="M46 35C47.1046 35 48 34.1046 48 33C48 31.8954 47.1046 31 46 31C44.8954 31 44 31.8954 44 33C44 34.1046 44.8954 35 46 35Z" fill="#333333"/>
<path d="M53 37H47C46.7348 37 46.4804 37.1054 46.2929 37.2929C46.1054 37.4804 46 37.7348 46 38C46 39.0609 46.4214 40.0783 47.1716 40.8284C47.9217 41.5786 48.9391 42 50 42C51.0609 42 52.0783 41.5786 52.8284 40.8284C53.5786 40.0783 54 39.0609 54 38C54 37.7348 53.8946 37.4804 53.7071 37.2929C53.5196 37.1054 53.2652 37 53 37ZM50 40C49.6491 39.9998 49.3044 39.9073 49.0006 39.7318C48.6968 39.5563 48.4444 39.3039 48.269 39H51.731C51.5556 39.3039 51.3032 39.5563 50.9994 39.7318C50.6956 39.9073 50.3509 39.9998 50 40Z" fill="#333333"/>
<path d="M51 56H49V58H51V56Z" fill="#333333"/>
<path d="M51 60H49V62H51V60Z" fill="#333333"/>
</svg>
