<svg width="100" height="100" viewBox="0 0 100 100" fill="none" xmlns="http://www.w3.org/2000/svg">
<circle cx="50" cy="50" r="49" fill="#FFFAE8" stroke="#FFDC60" stroke-width="2"/>
<path d="M45.3334 22C40.2719 21.9999 36.1145 25.6207 35.2399 30.3982H25.7352C23.6503 30.3982 22.0001 32.0812 22.0001 34.1333V68.6648C22.0001 70.7497 23.6831 72.3982 25.7352 72.3982H41.4342L40.8089 76.1333H37.8668C36.622 76.1333 36.622 78 37.8668 78H60.2667C61.5115 78 61.5115 76.1333 60.2667 76.1333H57.3264L56.7011 72.3982H72.3982C74.4504 72.3982 76.1334 70.753 76.1334 68.6648V48.8114C76.4371 48.3313 76.6873 47.7683 76.8425 47.1891L77.8068 43.5797C78.6057 40.5986 76.8534 37.5296 73.8456 36.7237C74.022 36.0654 73.9548 35.4121 73.6889 34.8351C75.1132 34.3196 76.1334 32.945 76.1334 31.337V25.7352C76.1334 23.683 74.4832 22 72.3982 22H63.0594C61.0074 22 59.3334 23.6575 59.3334 25.7352V30.4H55.4324C54.5595 25.6217 50.3955 22.0002 45.3334 22ZM64.0001 27.6C64.5156 27.6 64.9334 28.0178 64.9334 28.5333C64.9334 29.0488 64.5156 29.4667 64.0001 29.4667C63.4846 29.4667 63.0667 29.0488 63.0667 28.5333C63.0667 28.0178 63.4846 27.6 64.0001 27.6ZM67.7334 27.6C68.2489 27.6 68.6667 28.0178 68.6667 28.5333C68.6667 29.0488 68.2489 29.4667 67.7334 29.4667C67.218 29.4667 66.8001 29.0488 66.8001 28.5333C66.8001 28.0178 67.218 27.6 67.7334 27.6ZM71.4667 27.6C71.9822 27.6 72.4001 28.0178 72.4001 28.5333C72.4001 29.0488 71.9822 29.4667 71.4667 29.4667C70.9513 29.4667 70.5334 29.0488 70.5334 28.5333C70.5334 28.0178 70.9513 27.6 71.4667 27.6ZM25.7352 32.2667H35.0631V33.6976C33.9517 34.343 33.1964 35.5502 33.1964 36.9333C33.1964 39.0024 34.8808 40.6685 36.9316 40.6685H37.7847C38.4383 41.988 39.4114 43.0981 40.6667 43.9351V44.3982C40.6315 44.3995 40.592 44.4021 40.5592 44.4091C40.4618 44.4197 40.3661 44.4488 40.273 44.4911L36.4777 46.2685L35.0595 46.9357C33.9876 47.4502 32.9258 47.9262 32.0188 48.6383C31.1118 49.3504 30.3897 50.3024 30.1649 51.7172L27.9227 64.0018H23.8686V34.1351C23.8686 33.1104 24.685 32.2675 25.7352 32.2667ZM55.5983 32.2667H59.3334V37.8685C59.3405 38.6952 60.3385 39.1058 60.9248 38.5229L64.3865 35.0667H68.51C68.4853 35.1379 68.4579 35.1994 68.437 35.2763L66.749 41.5872C66.7419 41.6119 66.5818 42.1414 66.2951 42.8213C66.0246 43.4638 65.6352 44.1928 65.2998 44.5768C64.6044 44.5779 63.8958 44.8329 63.3402 45.3224L58.843 48.8297C57.8698 48.153 56.6103 47.4104 55.6165 46.932L50.3938 44.4893C50.2704 44.4318 50.1363 44.4018 50.0001 44.4018L50.0019 43.9333C51.2349 43.1331 52.2232 41.99 52.8766 40.6685H53.7279C55.7784 40.6685 57.4667 39.0024 57.4667 36.9333C57.4667 35.5533 56.7056 34.3459 55.5983 33.6995V32.2667ZM42.0923 32.5674C43.0828 32.9428 44.0674 33.2018 45.3334 33.2018C46.3547 33.2018 47.5204 33.0011 48.5673 32.5693C49.2537 33.806 50.4651 34.6716 51.8631 34.97V36.9917C51.8631 40.5899 48.9372 43.4667 45.3334 43.4667C41.6936 43.4667 38.8001 40.5461 38.8001 36.9917V34.97C40.179 34.69 41.453 33.7701 42.0923 32.5674ZM36.9298 35.0648L36.9334 36.9917C36.9334 37.6139 36.9983 38.2162 37.1285 38.8H36.9316C35.8897 38.8 35.0649 37.9516 35.0649 36.9315C35.0649 35.9114 35.8878 35.0648 36.9298 35.0648ZM53.7298 35.0648C54.7709 35.0659 55.6001 35.912 55.6001 36.9315C55.6001 37.9516 54.7699 38.7982 53.7279 38.7982H53.5311C53.6602 38.2156 53.7298 37.613 53.7298 36.9917V35.0648ZM71.0219 35.0758C71.1414 35.061 71.265 35.0642 71.3865 35.0995C71.8723 35.2296 72.1862 35.7292 72.0482 36.2443L71.3246 38.944C71.2314 39.2869 71.3422 39.653 71.6071 39.8883C71.6071 39.8883 71.8487 40.1235 72.0464 40.5682C72.2732 41.0856 72.4664 41.8845 72.1576 43.0364C71.8359 44.2399 73.6426 44.723 73.9641 43.5195C74.38 41.9669 74.1438 40.6974 73.7709 39.8463C73.5518 39.3462 73.3513 39.0976 73.2514 38.9531L73.3644 38.5302C75.3778 39.0697 76.5352 41.1091 76.0022 43.0984L75.0378 46.7096C74.5865 48.3939 73.154 49.4803 71.4649 49.6609C71.3845 49.5533 71.291 49.4396 71.1933 49.3419L67.2321 45.3807C67.193 45.3416 67.1545 45.304 67.1136 45.2677C67.501 44.7031 67.7863 44.098 68.0178 43.5487C68.3525 42.7541 68.5519 42.0849 68.5519 42.0849L70.2436 35.763C70.3469 35.3767 70.6641 35.1234 71.0219 35.0758ZM42.5334 44.8612C43.4117 45.1709 44.3488 45.3388 45.3334 45.3388C46.3178 45.3388 47.2566 45.1712 48.1334 44.863V45.8838C47.3846 46.6348 46.6303 47.3844 45.8803 48.1351H44.7847L42.5334 45.8747V44.8612ZM65.2706 46.4453C65.5144 46.4385 65.7416 46.5277 65.916 46.7023L69.8844 50.6708C70.2157 51.0021 70.2555 51.584 69.8535 52.0015L62.5673 58.9578C61.5418 59.9823 60.5903 60.3115 59.7417 60.2685C58.8672 60.224 57.9714 59.7723 57.1313 58.9323C56.2578 58.066 54.9282 59.3536 55.8079 60.2539C56.0375 60.4835 56.2831 60.7035 56.5334 60.8974C56.5307 61.9352 56.5313 62.967 56.5315 64.0018H48.9336L47.262 53.1318L48.1407 52.2695L48.4013 52.5302C48.7966 52.9252 49.448 52.887 49.7941 52.4482L53.3907 47.9547L54.8089 48.6182C55.8244 49.1074 57.5735 50.1603 58.2743 50.7255C58.6101 50.9978 59.0891 51.0043 59.4318 50.7401L64.5305 46.7607C64.7676 46.5525 65.0267 46.4511 65.2706 46.4453ZM40.4717 46.4635L43.0803 49.0703L41.6785 50.4721L39.0115 47.1471L40.4717 46.4635ZM50.2006 46.4635L51.6516 47.1417L48.9884 50.4721L47.5865 49.0703L50.2006 46.4635ZM37.2761 47.9583L40.8709 52.45C41.2166 52.8833 41.8618 52.9214 42.2563 52.532L42.5389 52.2495L43.4066 53.1172L41.7313 64.0036H38.2186L38.749 62.4341C38.9632 61.83 38.5123 61.2022 37.8285 61.1982C37.4112 61.2338 37.0928 61.4924 36.979 61.8508L36.248 64.0036H29.8222L32.0043 52.0271C32.1376 51.1778 32.5232 50.6204 33.1764 50.1075C33.8277 49.5962 34.7736 49.1469 35.8597 48.6219L37.2761 47.9583ZM44.7847 50.0036H45.8803L46.8246 50.9497L45.3371 52.4081L43.8587 50.9297L44.7847 50.0036ZM74.2667 50.6398V64.0036H58.3983V61.9018C58.8016 62.0302 59.2181 62.11 59.6469 62.1315C61.0905 62.2049 62.5594 61.6125 63.8834 60.2885L71.1933 53.3031C71.6954 52.7807 71.9658 52.1279 72.0045 51.4711C72.8248 51.337 73.5807 51.0639 74.2667 50.6398ZM45.0654 54.6138C45.2397 54.666 45.4253 54.666 45.5996 54.6138L47.1345 64.6107L45.3298 66.4153L43.5233 64.6107L45.0654 54.6138ZM36.0001 55.6036C34.7553 55.6036 34.7553 57.4703 36.0001 57.4703H39.7334C40.9782 57.4703 40.9782 55.6036 39.7334 55.6036H36.0001Z" fill="#333333"/>
</svg>
