<svg width="100" height="100" viewBox="0 0 100 100" fill="none" xmlns="http://www.w3.org/2000/svg">
<circle cx="50" cy="50" r="49" fill="#FFFAE8" stroke="#FFDC60" stroke-width="2"/>
<path d="M50.3223 31.0002C46.1603 31.0002 42.7629 34.3848 42.7629 38.5043C42.7629 40.7625 43.8061 42.7718 45.4129 44.1453C44.1664 44.9131 43.0436 45.9052 42.1248 47.0786C40.1263 49.6306 38.9022 52.9309 38.9018 56.2653V57.9221H40.5751H61.0917C60.8416 58.1934 60.564 58.4371 60.3364 58.7278C58.3379 61.2799 57.1399 64.5803 57.1395 67.9146V69.5713H58.8128H80V67.9146C79.9996 64.5803 78.7755 61.2799 76.777 58.7278C75.8579 57.5539 74.7285 56.555 73.4759 55.7881C75.0893 54.4144 76.1324 52.4118 76.1324 50.1535C76.1323 46.034 72.7155 42.6497 68.5534 42.6497C64.3914 42.6497 61.0006 46.034 61.0005 50.1535C61.0005 52.4085 62.0348 54.4081 63.6376 55.7816C62.9667 56.1923 62.3436 56.6711 61.7623 57.2127V56.2648C61.7619 52.9305 60.5378 49.6301 58.5393 47.0781C57.6204 45.9042 56.4907 44.9117 55.2382 44.1448C56.8517 42.7714 57.9013 40.7621 57.9012 38.5038C57.9012 34.3843 54.4843 31 50.3223 31L50.3223 31.0002ZM50.3223 34.2882C52.6843 34.2882 54.5805 36.1701 54.5806 38.5043C54.5806 40.7856 52.7656 42.6002 50.4786 42.6818C50.4257 42.6809 50.3755 42.6655 50.3223 42.6655C50.2694 42.6655 50.2188 42.6737 50.1661 42.6818C47.8801 42.5944 46.0901 40.7856 46.0901 38.5043C46.0901 36.1701 47.9603 34.2882 50.3223 34.2882H50.3223ZM31.4205 42.6497C27.2585 42.6497 23.8416 46.034 23.8416 50.1535C23.8415 52.4097 24.8873 54.4081 26.4981 55.7816C25.2441 56.5486 24.1233 57.5531 23.2035 58.7278C21.205 61.2798 20.0004 64.5803 20 67.9146V69.5713H21.6473H42.841V67.9146C42.8406 64.5803 41.6361 61.2798 39.6375 58.7278C38.7186 57.5538 37.5953 56.555 36.3429 55.7881C37.9555 54.4146 38.9995 52.411 38.9995 50.1535C38.9994 46.034 35.5826 42.6497 31.4205 42.6497ZM31.4205 45.9632C33.7825 45.9632 35.6527 47.8193 35.6527 50.1535C35.6528 52.4348 33.8627 54.2496 31.5768 54.3313C31.5239 54.3303 31.4737 54.315 31.4205 54.315C31.3673 54.315 31.3172 54.3231 31.2643 54.3313C28.9783 54.2438 27.1883 52.4348 27.1883 50.1535C27.1883 47.8193 29.0585 45.9632 31.4205 45.9632ZM68.5534 45.9632C70.9155 45.9632 72.8117 47.8193 72.8117 50.1535C72.8117 52.4352 70.9973 54.2502 68.7097 54.3313C68.6571 54.3303 68.6064 54.315 68.5535 54.315C68.5002 54.315 68.4501 54.3231 68.3972 54.3313C66.1112 54.2438 64.3212 52.4348 64.3212 50.1535C64.3213 47.8193 66.1915 45.9632 68.5535 45.9632H68.5534ZM50.2377 45.9795C50.2664 45.9799 50.2935 45.9861 50.3223 45.9861C50.3513 45.9861 50.378 45.9799 50.407 45.9795C50.6927 45.9842 50.9715 46.0441 51.2534 46.0919L50.3419 47.6008L49.4629 46.0857C49.7207 46.0453 49.9761 45.9852 50.2377 45.973L50.2377 45.9795ZM46.4286 47.4686L48.8443 51.6978C48.8741 51.7489 48.9067 51.7982 48.9419 51.8458C48.9942 51.9054 49.0508 51.9611 49.1112 52.0127C49.1279 52.0374 49.1453 52.0618 49.1634 52.0856C49.1868 52.1024 49.2107 52.1187 49.235 52.1343C49.252 52.1509 49.2694 52.1669 49.2871 52.1827C49.3191 52.2 49.3517 52.2163 49.3848 52.2314C49.4018 52.248 49.4192 52.2643 49.4369 52.2801C49.4689 52.2974 49.5015 52.3134 49.5346 52.3286C49.5496 52.3369 49.5648 52.3452 49.5802 52.353C49.6122 52.3703 49.6447 52.3863 49.6778 52.4015C49.6952 52.4017 49.7126 52.4017 49.73 52.4015C49.7855 52.4206 49.842 52.4369 49.8992 52.4502C49.9337 52.4594 49.9685 52.4674 50.0035 52.4744C50.0508 52.4845 50.0986 52.4926 50.1467 52.4986C50.1727 52.4992 50.1988 52.4992 50.2249 52.4986C50.2812 52.5014 50.3377 52.5014 50.3941 52.4986C50.451 52.4934 50.5075 52.4853 50.5634 52.4744C50.6741 52.4609 50.7832 52.4365 50.889 52.4015C50.9131 52.3939 50.937 52.3859 50.9607 52.3772C50.9849 52.3617 51.0088 52.3454 51.0323 52.3286C51.0834 52.3067 51.1333 52.2824 51.182 52.2556C51.2061 52.2481 51.2299 52.2401 51.2536 52.2314C51.3053 52.2009 51.3553 52.1677 51.4033 52.1318C51.4214 52.108 51.4388 52.0837 51.4555 52.0589C51.5575 51.9651 51.6472 51.8589 51.7225 51.743L51.7484 51.6701L54.2877 47.5054C54.8625 47.9606 55.4163 48.4749 55.909 49.1043C57.0867 50.6082 57.493 52.6526 57.8233 54.6099H42.841C43.1713 52.6526 43.5776 50.6082 44.7553 49.1043C45.2635 48.4556 45.8372 47.9317 46.4286 47.4669V47.4686ZM31.3163 57.6223C31.3519 57.6227 31.3848 57.6386 31.4205 57.6386C31.4562 57.6386 31.4892 57.6223 31.5247 57.6223C31.8062 57.6278 32.0804 57.6952 32.3582 57.7471L31.4466 59.2557L30.5676 57.7342C30.8175 57.6937 31.0635 57.6347 31.3164 57.6218L31.3163 57.6223ZM68.4493 57.6223C68.4849 57.6227 68.5177 57.6386 68.5535 57.6386C68.5891 57.6386 68.6221 57.6223 68.6577 57.6223C68.9423 57.6278 69.2234 57.6952 69.5041 57.7471L68.5795 59.275L67.694 57.7342C67.9453 57.6937 68.1944 57.6347 68.4493 57.6218L68.4493 57.6223ZM27.5138 59.1114L29.9164 63.2632L29.9425 63.3361C29.9592 63.3609 29.9766 63.3852 29.9946 63.409C30.0092 63.4337 30.0244 63.4581 30.0402 63.482C30.0569 63.5067 30.0743 63.531 30.0923 63.5549C30.1071 63.5714 30.1223 63.5877 30.1379 63.6036C30.1631 63.6287 30.1892 63.653 30.216 63.6765C30.2309 63.693 30.2461 63.709 30.2616 63.7249C30.2872 63.7418 30.3133 63.7581 30.3398 63.7736C30.3546 63.7901 30.3698 63.8062 30.3854 63.8221C30.411 63.839 30.437 63.8553 30.4635 63.8707C30.487 63.8876 30.5108 63.9039 30.5351 63.9194C30.5586 63.9362 30.5824 63.9523 30.6067 63.9679C30.6326 63.9766 30.6586 63.9846 30.6849 63.9921C30.7314 64.0187 30.7792 64.043 30.8281 64.065C30.8604 64.0741 30.893 64.0824 30.9258 64.0895C30.943 64.0979 30.9603 64.1059 30.9778 64.1137C31.0338 64.1247 31.0903 64.1327 31.1471 64.1379C31.2866 64.1638 31.4288 64.1722 31.5704 64.1624C31.5944 64.1548 31.6183 64.1466 31.642 64.1379C31.9512 64.0956 32.2422 63.9684 32.4819 63.7704C32.4977 63.7465 32.5129 63.7222 32.5275 63.6975C32.5518 63.6819 32.5757 63.6656 32.5991 63.6488C32.6171 63.625 32.6345 63.6006 32.6512 63.5759C32.6857 63.5359 32.7183 63.4944 32.7488 63.4513C32.7665 63.4355 32.7839 63.4192 32.8009 63.4026C32.8075 63.3946 32.814 63.3866 32.8204 63.3784L35.3793 59.1299C35.956 59.5859 36.5129 60.1043 37.0071 60.7353C38.1848 62.2392 38.5976 64.2837 38.9278 66.2408H23.9132C24.2434 64.2837 24.6563 62.2392 25.834 60.7353C26.3429 60.0849 26.9178 59.5564 27.5138 59.0914V59.1114ZM64.6663 59.1114L67.0819 63.3406C67.1321 63.4183 67.1887 63.4917 67.2512 63.5601C67.2596 63.5764 67.2682 63.5927 67.2771 63.6088C67.3002 63.6338 67.3241 63.6581 67.3487 63.6817C67.3657 63.6982 67.3831 63.7143 67.4009 63.7301C67.4243 63.7469 67.4482 63.7632 67.4725 63.7788C67.4895 63.7954 67.5069 63.8114 67.5246 63.8272C67.5566 63.8445 67.5892 63.8608 67.6223 63.8759C67.6371 63.8924 67.6523 63.9087 67.6679 63.9246C67.6999 63.9419 67.7324 63.9579 67.7655 63.9731C67.7828 63.9815 67.8002 63.9895 67.8177 63.9973C67.8497 64.0145 67.8823 64.0308 67.9153 64.046C67.9326 64.0544 67.95 64.0624 67.9675 64.0702C67.9998 64.0793 68.0323 64.0876 68.0651 64.0947C68.0888 64.1033 68.1127 64.1113 68.1367 64.1189C68.1454 64.119 68.154 64.119 68.1627 64.1189C68.1863 64.1275 68.2102 64.1356 68.2342 64.1431C68.2516 64.1434 68.269 64.1434 68.2864 64.1431C68.4568 64.1695 68.6304 64.1695 68.8008 64.1431C69.0485 64.1052 69.2844 64.0127 69.491 63.872C69.5427 63.8412 69.5927 63.8075 69.6407 63.7714C69.7222 63.6994 69.7964 63.6197 69.8621 63.5334C69.8967 63.4923 69.9293 63.4495 69.9598 63.4053C69.9598 63.3972 69.9598 63.3892 69.9598 63.3811L69.9857 63.3082L72.525 59.1371C73.099 59.5923 73.6476 60.1139 74.1398 60.7424C75.3175 62.2464 75.7303 64.2907 76.0605 66.2479H61.0721C61.4023 64.2907 61.8152 62.2464 62.9929 60.7424C63.5022 60.0921 64.0733 59.5634 64.6663 59.0983L64.6663 59.1114Z" fill="#333333"/>
</svg>
