<svg width="459" height="259" viewBox="0 0 459 259" fill="none" xmlns="http://www.w3.org/2000/svg">
<g filter="url(#filter0_d_10_1252)">
<rect x="65" y="47" width="310" height="110" rx="15" fill="white"/>
</g>
<rect x="85" y="57" width="90" height="90" rx="9" fill="#E0FFF0"/>
<mask id="path-3-outside-1_10_1252" maskUnits="userSpaceOnUse" x="102" y="74" width="56" height="56" fill="black">
<rect fill="white" x="102" y="74" width="56" height="56"/>
<path d="M-nan -nanL154.192 75H105.808C105.063 75.0009 104.35 75.297 103.823 75.8234C103.297 76.3498 103.001 77.0635 103 77.808V115.824C103.001 116.568 103.297 117.282 103.823 117.809C104.35 118.335 105.063 118.631 105.808 118.632H121.046C123.086 118.632 124.665 120.42 124.412 122.444V122.444C124.253 123.712 123.387 124.766 122.224 125.293C121.122 125.793 120.055 126.371 119.033 127.021C118.84 127.15 118.694 127.337 118.615 127.555C118.537 127.774 118.531 128.011 118.598 128.233C118.665 128.455 118.802 128.649 118.988 128.787C119.174 128.925 119.4 129 119.632 129H140.368C140.6 129 140.825 128.925 141.011 128.787C141.198 128.649 141.334 128.455 141.401 128.233C141.469 128.011 141.463 127.774 141.384 127.555C141.306 127.337 141.16 127.15 140.967 127.021C139.944 126.371 138.878 125.793 137.776 125.293C136.612 124.766 135.747 123.712 135.588 122.444V122.444C135.335 120.42 136.913 118.632 138.953 118.632H154.192C154.936 118.631 155.65 118.335 156.176 117.809C156.703 117.282 156.999 116.568 157 115.824V77.808C156.999 77.0635 156.703 76.3498 156.176 75.8234C155.65 75.297 154.936 75.0009 154.192 75L-nan -nanL-nan -nanZM-nan -nanL105.808 77.16H154.192C154.364 77.1602 154.528 77.2285 154.65 77.35C154.771 77.4715 154.84 77.6362 154.84 77.808V98.832C154.84 103.803 150.81 107.832 145.84 107.832H114.16C109.189 107.832 105.16 103.803 105.16 98.832V77.808C105.16 77.6362 105.228 77.4715 105.35 77.35C105.471 77.2285 105.636 77.1602 105.808 77.16L-nan -nanL-nan -nanZM124.816 126.84V126.84C124.666 126.84 124.628 126.639 124.769 126.587C126.349 126.008 128.183 125.544 130 125.544V125.544C131.289 125.544 131.112 126.84 129.823 126.84H124.816ZM133.179 120.586C133.374 122.146 131.922 123.426 130.35 123.388C130.117 123.383 129.883 123.383 129.65 123.388C128.078 123.426 126.626 122.147 126.821 120.587V120.587C126.961 119.47 127.91 118.632 129.035 118.632H130.965C132.09 118.632 133.039 119.47 133.179 120.586V120.586ZM154.84 115.824C154.84 115.996 154.771 116.161 154.65 116.282C154.528 116.404 154.364 116.472 154.192 116.472H105.808C105.636 116.472 105.471 116.404 105.35 116.282C105.228 116.161 105.16 115.996 105.16 115.824V115.824C105.16 112.603 107.771 109.992 110.992 109.992H149.008C152.229 109.992 154.84 112.603 154.84 115.824V115.824Z"/>
</mask>
<path d="M-nan -nanL154.192 75H105.808C105.063 75.0009 104.35 75.297 103.823 75.8234C103.297 76.3498 103.001 77.0635 103 77.808V115.824C103.001 116.568 103.297 117.282 103.823 117.809C104.35 118.335 105.063 118.631 105.808 118.632H121.046C123.086 118.632 124.665 120.42 124.412 122.444V122.444C124.253 123.712 123.387 124.766 122.224 125.293C121.122 125.793 120.055 126.371 119.033 127.021C118.84 127.15 118.694 127.337 118.615 127.555C118.537 127.774 118.531 128.011 118.598 128.233C118.665 128.455 118.802 128.649 118.988 128.787C119.174 128.925 119.4 129 119.632 129H140.368C140.6 129 140.825 128.925 141.011 128.787C141.198 128.649 141.334 128.455 141.401 128.233C141.469 128.011 141.463 127.774 141.384 127.555C141.306 127.337 141.16 127.15 140.967 127.021C139.944 126.371 138.878 125.793 137.776 125.293C136.612 124.766 135.747 123.712 135.588 122.444V122.444C135.335 120.42 136.913 118.632 138.953 118.632H154.192C154.936 118.631 155.65 118.335 156.176 117.809C156.703 117.282 156.999 116.568 157 115.824V77.808C156.999 77.0635 156.703 76.3498 156.176 75.8234C155.65 75.297 154.936 75.0009 154.192 75L-nan -nanL-nan -nanZM-nan -nanL105.808 77.16H154.192C154.364 77.1602 154.528 77.2285 154.65 77.35C154.771 77.4715 154.84 77.6362 154.84 77.808V98.832C154.84 103.803 150.81 107.832 145.84 107.832H114.16C109.189 107.832 105.16 103.803 105.16 98.832V77.808C105.16 77.6362 105.228 77.4715 105.35 77.35C105.471 77.2285 105.636 77.1602 105.808 77.16L-nan -nanL-nan -nanZM124.816 126.84V126.84C124.666 126.84 124.628 126.639 124.769 126.587C126.349 126.008 128.183 125.544 130 125.544V125.544C131.289 125.544 131.112 126.84 129.823 126.84H124.816ZM133.179 120.586C133.374 122.146 131.922 123.426 130.35 123.388C130.117 123.383 129.883 123.383 129.65 123.388C128.078 123.426 126.626 122.147 126.821 120.587V120.587C126.961 119.47 127.91 118.632 129.035 118.632H130.965C132.09 118.632 133.039 119.47 133.179 120.586V120.586ZM154.84 115.824C154.84 115.996 154.771 116.161 154.65 116.282C154.528 116.404 154.364 116.472 154.192 116.472H105.808C105.636 116.472 105.471 116.404 105.35 116.282C105.228 116.161 105.16 115.996 105.16 115.824V115.824C105.16 112.603 107.771 109.992 110.992 109.992H149.008C152.229 109.992 154.84 112.603 154.84 115.824V115.824Z" fill="#58D498"/>
<path d="M105.808 75V74.595L105.807 74.595L105.808 75ZM103 77.808L102.595 77.8075V77.808H103ZM103 115.824H102.595L102.595 115.824L103 115.824ZM105.808 118.632L105.807 119.037H105.808V118.632ZM119.033 127.021L118.815 126.68L118.808 126.684L119.033 127.021ZM119.632 129L119.632 129.405H119.632V129ZM140.368 129V129.405H140.368L140.368 129ZM140.967 127.021L141.192 126.684L141.184 126.68L140.967 127.021ZM154.192 118.632V119.037H154.192L154.192 118.632ZM157 115.824L157.405 115.824V115.824H157ZM157 77.808H157.405V77.8075L157 77.808ZM154.192 77.16L154.192 76.755H154.192V77.16ZM154.84 77.808H155.245V77.8076L154.84 77.808ZM105.16 77.808L104.755 77.8076V77.808H105.16ZM154.192 116.472V116.877H154.192L154.192 116.472ZM105.808 116.472L105.807 116.877H105.808V116.472ZM129.65 123.388L129.64 122.983L129.65 123.388ZM130.35 123.388L130.36 122.983L130.35 123.388ZM124.769 126.587L124.63 126.207L124.769 126.587ZM137.776 125.293L137.943 124.924L137.776 125.293ZM154.192 74.595H105.808V75.405H154.192V74.595ZM105.807 74.595C104.956 74.596 104.139 74.9348 103.537 75.537L104.11 76.1098C104.56 75.6592 105.171 75.4057 105.808 75.405L105.807 74.595ZM103.537 75.537C102.935 76.1393 102.596 76.9558 102.595 77.8075L103.405 77.8085C103.406 77.1713 103.659 76.5603 104.11 76.1098L103.537 75.537ZM102.595 77.808V115.824H103.405V77.808H102.595ZM102.595 115.824C102.596 116.676 102.935 117.493 103.537 118.095L104.11 117.522C103.659 117.072 103.406 116.461 103.405 115.824L102.595 115.824ZM103.537 118.095C104.139 118.697 104.956 119.036 105.807 119.037L105.808 118.227C105.171 118.226 104.56 117.973 104.11 117.522L103.537 118.095ZM105.808 119.037H121.046V118.227H105.808V119.037ZM122.057 124.924C120.937 125.432 119.854 126.019 118.815 126.68L119.25 127.363C120.257 126.723 121.306 126.154 122.391 125.662L122.057 124.924ZM118.808 126.684C118.543 126.861 118.342 127.119 118.234 127.419L118.997 127.692C119.045 127.556 119.137 127.439 119.257 127.358L118.808 126.684ZM118.234 127.419C118.127 127.719 118.118 128.045 118.211 128.35L118.986 128.116C118.944 127.977 118.948 127.828 118.997 127.692L118.234 127.419ZM118.211 128.35C118.303 128.655 118.491 128.923 118.747 129.113L119.23 128.462C119.113 128.376 119.028 128.254 118.986 128.116L118.211 128.35ZM118.747 129.113C119.003 129.302 119.313 129.405 119.632 129.405L119.632 128.595C119.487 128.595 119.346 128.548 119.23 128.462L118.747 129.113ZM119.632 129.405H140.368V128.595H119.632V129.405ZM140.368 129.405C140.687 129.405 140.997 129.302 141.253 129.113L140.77 128.462C140.654 128.548 140.513 128.595 140.368 128.595L140.368 129.405ZM141.253 129.113C141.509 128.923 141.697 128.655 141.789 128.35L141.014 128.116C140.972 128.254 140.886 128.376 140.77 128.462L141.253 129.113ZM141.789 128.35C141.881 128.045 141.873 127.719 141.766 127.419L141.003 127.692C141.052 127.828 141.056 127.977 141.014 128.116L141.789 128.35ZM141.766 127.419C141.658 127.119 141.457 126.861 141.192 126.684L140.742 127.358C140.863 127.439 140.954 127.556 141.003 127.692L141.766 127.419ZM141.184 126.68C140.146 126.019 139.063 125.432 137.943 124.924L137.609 125.662C138.693 126.154 139.743 126.723 140.749 127.363L141.184 126.68ZM138.953 119.037H154.192V118.227H138.953V119.037ZM154.192 119.037C155.044 119.036 155.861 118.697 156.463 118.095L155.89 117.522C155.44 117.973 154.829 118.226 154.191 118.227L154.192 119.037ZM156.463 118.095C157.065 117.493 157.404 116.676 157.405 115.824L156.595 115.824C156.594 116.461 156.341 117.072 155.89 117.522L156.463 118.095ZM157.405 115.824V77.808H156.595V115.824H157.405ZM157.405 77.8075C157.404 76.9558 157.065 76.1393 156.463 75.537L155.89 76.1098C156.341 76.5603 156.594 77.1713 156.595 77.8085L157.405 77.8075ZM156.463 75.537C155.861 74.9348 155.044 74.596 154.192 74.595L154.191 75.405C154.829 75.4057 155.44 75.6592 155.89 76.1098L156.463 75.537ZM105.808 77.565H154.192V76.755H105.808V77.565ZM154.191 77.565C154.256 77.5651 154.318 77.5907 154.364 77.6364L154.936 77.0636C154.739 76.8663 154.471 76.7553 154.192 76.755L154.191 77.565ZM154.364 77.6364C154.409 77.682 154.435 77.7439 154.435 77.8084L155.245 77.8076C155.245 77.5285 155.134 77.2609 154.936 77.0636L154.364 77.6364ZM154.435 77.808V98.832H155.245V77.808H154.435ZM145.84 107.427H114.16V108.237H145.84V107.427ZM105.565 98.832V77.808H104.755V98.832H105.565ZM105.565 77.8084C105.565 77.7439 105.591 77.682 105.636 77.6364L105.063 77.0636C104.866 77.2609 104.755 77.5285 104.755 77.8076L105.565 77.8084ZM105.636 77.6364C105.682 77.5907 105.744 77.5651 105.808 77.565L105.807 76.755C105.528 76.7553 105.261 76.8663 105.063 77.0636L105.636 77.6364ZM124.908 126.967C126.463 126.398 128.247 125.949 130 125.949V125.139C128.118 125.139 126.235 125.619 124.63 126.207L124.908 126.967ZM129.823 126.435H124.816V127.245H129.823V126.435ZM130.36 122.983C130.12 122.978 129.88 122.978 129.64 122.983L129.66 123.793C129.887 123.788 130.114 123.788 130.341 123.793L130.36 122.983ZM129.035 119.037H130.965V118.227H129.035V119.037ZM154.435 115.824C154.435 115.888 154.409 115.95 154.364 115.996L154.936 116.568C155.134 116.371 155.245 116.103 155.245 115.824L154.435 115.824ZM154.364 115.996C154.318 116.041 154.256 116.067 154.191 116.067L154.192 116.877C154.471 116.877 154.739 116.766 154.936 116.568L154.364 115.996ZM154.192 116.067H105.808V116.877H154.192V116.067ZM105.808 116.067C105.744 116.067 105.682 116.041 105.636 115.996L105.063 116.568C105.261 116.766 105.528 116.877 105.807 116.877L105.808 116.067ZM105.636 115.996C105.591 115.95 105.565 115.888 105.565 115.824L104.755 115.824C104.755 116.103 104.866 116.371 105.063 116.568L105.636 115.996ZM110.992 110.397H149.008V109.587H110.992V110.397ZM149.008 110.397C152.005 110.397 154.435 112.827 154.435 115.824H155.245C155.245 112.379 152.452 109.587 149.008 109.587V110.397ZM129.64 122.983C128.253 123.017 127.066 121.893 127.223 120.637L126.419 120.537C126.186 122.401 127.903 123.836 129.66 123.793L129.64 122.983ZM130.341 123.793C132.097 123.835 133.814 122.4 133.581 120.536L132.777 120.637C132.934 121.892 131.748 123.017 130.36 122.983L130.341 123.793ZM130 125.949C130.26 125.949 130.387 126.015 130.437 126.057C130.479 126.092 130.48 126.117 130.477 126.137C130.471 126.183 130.355 126.435 129.823 126.435V127.245C130.58 127.245 131.198 126.849 131.28 126.247C131.321 125.943 131.206 125.644 130.958 125.436C130.719 125.235 130.385 125.139 130 125.139V125.949ZM114.16 107.427C109.413 107.427 105.565 103.579 105.565 98.832H104.755C104.755 104.026 108.966 108.237 114.16 108.237V107.427ZM105.565 115.824C105.565 112.827 107.995 110.397 110.992 110.397V109.587C107.547 109.587 104.755 112.379 104.755 115.824H105.565ZM124.816 126.435C124.954 126.435 125.06 126.542 125.081 126.659C125.092 126.714 125.086 126.778 125.053 126.839C125.018 126.904 124.963 126.947 124.908 126.967L124.63 126.207C124.038 126.424 124.241 127.245 124.816 127.245V126.435ZM127.223 120.637C127.337 119.723 128.114 119.037 129.035 119.037V118.227C127.706 118.227 126.584 119.217 126.419 120.537L127.223 120.637ZM137.943 124.924C136.891 124.447 136.129 123.504 135.99 122.394L135.186 122.494C135.364 123.919 136.334 125.084 137.609 125.662L137.943 124.924ZM154.435 98.832C154.435 103.579 150.587 107.427 145.84 107.427V108.237C151.034 108.237 155.245 104.026 155.245 98.832H154.435ZM124.01 122.394C123.871 123.504 123.109 124.447 122.057 124.924L122.391 125.662C123.666 125.084 124.635 123.919 124.813 122.494L124.01 122.394ZM121.046 119.037C122.843 119.037 124.233 120.611 124.01 122.394L124.813 122.494C125.097 120.228 123.33 118.227 121.046 118.227V119.037ZM130.965 119.037C131.886 119.037 132.663 119.723 132.777 120.637L133.581 120.536C133.416 119.217 132.294 118.227 130.965 118.227V119.037ZM135.99 122.394C135.767 120.611 137.157 119.037 138.953 119.037V118.227C136.67 118.227 134.903 120.228 135.186 122.494L135.99 122.394Z" fill="#58D498" mask="url(#path-3-outside-1_10_1252)"/>
<path d="M128.272 114.515H131.728C132.068 114.515 132.394 114.379 132.635 114.139C132.875 113.898 133.01 113.572 133.01 113.232C133.01 112.892 132.875 112.566 132.635 112.325C132.394 112.085 132.068 111.95 131.728 111.95H128.272C127.932 111.95 127.605 112.085 127.365 112.325C127.124 112.566 126.989 112.892 126.989 113.232C126.989 113.572 127.124 113.898 127.365 114.139C127.605 114.379 127.932 114.515 128.272 114.515Z" fill="#58D498" stroke="#58D498" stroke-width="0.405"/>
<mask id="path-6-outside-2_10_1252" maskUnits="userSpaceOnUse" x="110.208" y="79.832" width="40" height="25" fill="black">
<rect fill="white" x="110.208" y="79.832" width="40" height="25"/>
<path d="M-nan -nanL114.016 102H132.625C134.791 102 136.829 102.984 138.904 103.606C139.025 103.642 139.147 103.675 139.269 103.706C140.484 104.007 141.753 104.017 142.972 103.735C144.191 103.452 145.326 102.886 146.284 102.081C147.243 101.276 147.997 100.256 148.486 99.1036C148.975 97.9515 149.184 96.7001 149.097 95.4517C149.009 94.2033 148.628 92.9932 147.984 91.9202C147.34 90.8473 146.451 89.9419 145.39 89.278V89.278C143.597 88.1561 141.88 86.4785 141.88 84.3634V83.64C141.879 82.8956 141.583 82.1818 141.057 81.6554C140.53 81.129 139.816 80.8329 139.072 80.832H114.016C113.271 80.8329 112.558 81.129 112.031 81.6554C111.505 82.1818 111.209 82.8956 111.208 83.64V99.192C111.209 99.9365 111.505 100.65 112.031 101.177C112.558 101.703 113.271 101.999 114.016 102L-nan -nanL-nan -nanZM-nan -nanL113.368 99.192V95.034C113.368 92.7376 115.229 90.876 117.526 90.876H130.336C132.224 90.876 133.467 93.3393 133.279 95.218V95.218V95.218C133.065 97.3589 131.59 99.84 129.439 99.84H114.016C113.844 99.8399 113.679 99.7715 113.558 99.65C113.436 99.5286 113.368 99.3638 113.368 99.192L-nan -nanL-nan -nanZM113.368 88.014C113.368 87.6263 113.682 87.312 114.07 87.312H139.233C139.502 87.312 139.72 87.5302 139.72 87.7994V87.7994C139.72 88.0342 139.552 88.234 139.324 88.2888C138.998 88.3668 138.677 88.4656 138.364 88.5845C138.148 88.6665 137.921 88.716 137.689 88.716H114.07C113.682 88.716 113.368 88.4017 113.368 88.014V88.014ZM146.956 96.006C146.956 97.1488 146.617 98.2659 145.982 99.2161C145.347 100.166 144.445 100.907 143.389 101.344C142.333 101.782 141.171 101.896 140.051 101.673C138.93 101.45 137.9 100.9 137.092 100.092C136.284 99.2836 135.734 98.2541 135.511 97.1333C135.288 96.0124 135.402 94.8507 135.84 93.7949C136.277 92.7391 137.018 91.8367 137.968 91.2018C138.918 90.5669 140.035 90.228 141.178 90.228C142.71 90.2298 144.178 90.8391 145.262 91.9223C146.345 93.0055 146.954 94.4741 146.956 96.006ZM-nan -nanL114.016 82.992H139.072C139.244 82.9922 139.408 83.0605 139.53 83.182C139.651 83.3035 139.72 83.4682 139.72 83.64V83.64C139.72 84.4751 139.043 85.152 138.208 85.152H114.88C114.045 85.152 113.368 84.4751 113.368 83.64V83.64C113.368 83.4682 113.436 83.3035 113.558 83.182C113.679 83.0605 113.844 82.9922 114.016 82.992L-nan -nanL-nan -nanZ"/>
</mask>
<path d="M-nan -nanL114.016 102H132.625C134.791 102 136.829 102.984 138.904 103.606C139.025 103.642 139.147 103.675 139.269 103.706C140.484 104.007 141.753 104.017 142.972 103.735C144.191 103.452 145.326 102.886 146.284 102.081C147.243 101.276 147.997 100.256 148.486 99.1036C148.975 97.9515 149.184 96.7001 149.097 95.4517C149.009 94.2033 148.628 92.9932 147.984 91.9202C147.34 90.8473 146.451 89.9419 145.39 89.278V89.278C143.597 88.1561 141.88 86.4785 141.88 84.3634V83.64C141.879 82.8956 141.583 82.1818 141.057 81.6554C140.53 81.129 139.816 80.8329 139.072 80.832H114.016C113.271 80.8329 112.558 81.129 112.031 81.6554C111.505 82.1818 111.209 82.8956 111.208 83.64V99.192C111.209 99.9365 111.505 100.65 112.031 101.177C112.558 101.703 113.271 101.999 114.016 102L-nan -nanL-nan -nanZM-nan -nanL113.368 99.192V95.034C113.368 92.7376 115.229 90.876 117.526 90.876H130.336C132.224 90.876 133.467 93.3393 133.279 95.218V95.218V95.218C133.065 97.3589 131.59 99.84 129.439 99.84H114.016C113.844 99.8399 113.679 99.7715 113.558 99.65C113.436 99.5286 113.368 99.3638 113.368 99.192L-nan -nanL-nan -nanZM113.368 88.014C113.368 87.6263 113.682 87.312 114.07 87.312H139.233C139.502 87.312 139.72 87.5302 139.72 87.7994V87.7994C139.72 88.0342 139.552 88.234 139.324 88.2888C138.998 88.3668 138.677 88.4656 138.364 88.5845C138.148 88.6665 137.921 88.716 137.689 88.716H114.07C113.682 88.716 113.368 88.4017 113.368 88.014V88.014ZM146.956 96.006C146.956 97.1488 146.617 98.2659 145.982 99.2161C145.347 100.166 144.445 100.907 143.389 101.344C142.333 101.782 141.171 101.896 140.051 101.673C138.93 101.45 137.9 100.9 137.092 100.092C136.284 99.2836 135.734 98.2541 135.511 97.1333C135.288 96.0124 135.402 94.8507 135.84 93.7949C136.277 92.7391 137.018 91.8367 137.968 91.2018C138.918 90.5669 140.035 90.228 141.178 90.228C142.71 90.2298 144.178 90.8391 145.262 91.9223C146.345 93.0055 146.954 94.4741 146.956 96.006ZM-nan -nanL114.016 82.992H139.072C139.244 82.9922 139.408 83.0605 139.53 83.182C139.651 83.3035 139.72 83.4682 139.72 83.64V83.64C139.72 84.4751 139.043 85.152 138.208 85.152H114.88C114.045 85.152 113.368 84.4751 113.368 83.64V83.64C113.368 83.4682 113.436 83.3035 113.558 83.182C113.679 83.0605 113.844 82.9922 114.016 82.992L-nan -nanL-nan -nanZ" fill="#58D498"/>
<path d="M139.269 103.706L139.367 103.313L139.269 103.706ZM141.88 83.64H142.285L142.285 83.6396L141.88 83.64ZM139.072 80.832L139.072 80.427H139.072V80.832ZM114.016 80.832V80.427L114.015 80.427L114.016 80.832ZM111.208 83.64L110.803 83.6396V83.64H111.208ZM111.208 99.192H110.803L110.803 99.1925L111.208 99.192ZM114.016 99.84L114.015 100.245H114.016V99.84ZM146.956 96.006H147.361V96.0056L146.956 96.006ZM141.178 90.228L141.178 89.823H141.178V90.228ZM139.072 82.992L139.072 82.587H139.072V82.992ZM138.364 88.5845L138.221 88.2058L138.364 88.5845ZM139.324 88.2888L139.229 87.8949L139.324 88.2888ZM138.904 103.606L138.788 103.994L138.904 103.606ZM114.016 102.405H132.625V101.595H114.016V102.405ZM138.788 103.994C138.915 104.032 139.043 104.067 139.172 104.099L139.367 103.313C139.25 103.284 139.135 103.252 139.02 103.218L138.788 103.994ZM139.172 104.099C140.448 104.416 141.782 104.426 143.063 104.129L142.88 103.34C141.723 103.608 140.52 103.599 139.367 103.313L139.172 104.099ZM143.063 104.129C144.345 103.833 145.538 103.237 146.545 102.391L146.024 101.771C145.115 102.534 144.037 103.072 142.88 103.34L143.063 104.129ZM146.545 102.391C147.552 101.545 148.345 100.473 148.859 99.2617L148.113 98.9454C147.649 100.039 146.933 101.007 146.024 101.771L146.545 102.391ZM148.859 99.2617C149.372 98.0509 149.592 96.7356 149.501 95.4235L148.693 95.4799C148.775 96.6646 148.577 97.8521 148.113 98.9454L148.859 99.2617ZM149.501 95.4235C149.409 94.1113 149.008 92.8395 148.331 91.7118L147.637 92.1287C148.248 93.1469 148.61 94.2952 148.693 95.4799L149.501 95.4235ZM148.331 91.7118C147.654 90.584 146.72 89.6325 145.605 88.9347L145.175 89.6214C146.182 90.2513 147.026 91.1105 147.637 92.1287L148.331 91.7118ZM142.285 84.3634V83.64H141.475V84.3634H142.285ZM142.285 83.6396C142.284 82.7879 141.945 81.9713 141.343 81.369L140.77 81.9418C141.221 82.3923 141.474 83.0033 141.475 83.6405L142.285 83.6396ZM141.343 81.369C140.741 80.7667 139.924 80.428 139.072 80.427L139.071 81.237C139.709 81.2377 140.32 81.4912 140.77 81.9418L141.343 81.369ZM139.072 80.427H114.016V81.237H139.072V80.427ZM114.015 80.427C113.164 80.428 112.347 80.7667 111.745 81.369L112.318 81.9418C112.768 81.4912 113.379 81.2377 114.016 81.237L114.015 80.427ZM111.745 81.369C111.143 81.9713 110.804 82.7879 110.803 83.6396L111.613 83.6405C111.614 83.0033 111.867 82.3924 112.318 81.9418L111.745 81.369ZM110.803 83.64V99.192H111.613V83.64H110.803ZM110.803 99.1925C110.804 100.044 111.143 100.861 111.745 101.463L112.318 100.89C111.867 100.44 111.614 99.8288 111.613 99.1916L110.803 99.1925ZM111.745 101.463C112.347 102.065 113.164 102.404 114.015 102.405L114.016 101.595C113.379 101.594 112.768 101.341 112.318 100.89L111.745 101.463ZM113.773 99.192V95.034H112.963V99.192H113.773ZM117.526 91.281H130.336V90.471H117.526V91.281ZM129.439 99.435H114.016V100.245H129.439V99.435ZM114.016 99.435C113.952 99.435 113.89 99.4093 113.844 99.3637L113.271 99.9364C113.469 100.134 113.736 100.245 114.015 100.245L114.016 99.435ZM113.844 99.3637C113.799 99.318 113.773 99.2562 113.773 99.1916L112.963 99.1924C112.963 99.4715 113.074 99.7391 113.271 99.9364L113.844 99.3637ZM114.07 87.717H139.233V86.907H114.07V87.717ZM139.229 87.8949C138.887 87.977 138.55 88.0808 138.221 88.2058L138.508 88.9631C138.805 88.8503 139.109 88.7566 139.418 88.6826L139.229 87.8949ZM137.689 88.311H114.07V89.121H137.689V88.311ZM146.551 96.006C146.551 97.0687 146.236 98.1075 145.645 98.9911L146.319 99.4411C146.998 98.4243 147.361 97.2289 147.361 96.006H146.551ZM145.645 98.9911C145.055 99.8747 144.216 100.563 143.234 100.97L143.544 101.718C144.674 101.25 145.639 100.458 146.319 99.4411L145.645 98.9911ZM143.234 100.97C142.252 101.377 141.172 101.483 140.13 101.276L139.972 102.07C141.171 102.309 142.414 102.186 143.544 101.718L143.234 100.97ZM140.13 101.276C139.087 101.068 138.13 100.557 137.379 99.8053L136.806 100.378C137.671 101.243 138.772 101.832 139.972 102.07L140.13 101.276ZM137.379 99.8053C136.627 99.0539 136.115 98.0965 135.908 97.0543L135.114 97.2123C135.352 98.4117 135.941 99.5134 136.806 100.378L137.379 99.8053ZM135.908 97.0543C135.701 96.012 135.807 94.9317 136.214 93.9499L135.466 93.6399C134.998 94.7697 134.875 96.0129 135.114 97.2123L135.908 97.0543ZM136.214 93.9499C136.621 92.9681 137.309 92.1289 138.193 91.5385L137.743 90.8651C136.726 91.5445 135.934 92.5101 135.466 93.6399L136.214 93.9499ZM138.193 91.5385C139.076 90.9482 140.115 90.633 141.178 90.633V89.823C139.955 89.823 138.76 90.1857 137.743 90.8651L138.193 91.5385ZM141.177 90.633C142.602 90.6347 143.968 91.2013 144.975 92.2087L145.548 91.6359C144.389 90.4769 142.817 89.8249 141.178 89.823L141.177 90.633ZM144.975 92.2087C145.983 93.216 146.549 94.5819 146.551 96.0065L147.361 96.0056C147.359 94.3664 146.707 92.795 145.548 91.6359L144.975 92.2087ZM114.016 83.397H139.072V82.587H114.016V83.397ZM139.071 83.397C139.136 83.3971 139.198 83.4228 139.244 83.4684L139.816 82.8956C139.619 82.6983 139.351 82.5873 139.072 82.587L139.071 83.397ZM139.244 83.4684C139.289 83.514 139.315 83.5759 139.315 83.6404L140.125 83.6396C140.125 83.3605 140.014 83.093 139.816 82.8956L139.244 83.4684ZM138.208 84.747H114.88V85.557H138.208V84.747ZM113.773 83.6404C113.773 83.5759 113.799 83.514 113.844 83.4684L113.271 82.8956C113.074 83.093 112.963 83.3605 112.963 83.6396L113.773 83.6404ZM113.844 83.4684C113.89 83.4228 113.952 83.3971 114.016 83.397L114.015 82.587C113.736 82.5873 113.469 82.6983 113.271 82.8956L113.844 83.4684ZM114.07 88.311C113.906 88.311 113.773 88.1781 113.773 88.014H112.963C112.963 88.6254 113.459 89.121 114.07 89.121V88.311ZM138.221 88.2058C138.042 88.2738 137.863 88.311 137.689 88.311V89.121C137.978 89.121 138.255 89.0592 138.508 88.9631L138.221 88.2058ZM139.315 87.7994C139.315 87.8346 139.288 87.8809 139.229 87.8949L139.418 88.6826C139.816 88.5872 140.125 88.2339 140.125 87.7994H139.315ZM139.233 87.717C139.278 87.717 139.315 87.7539 139.315 87.7994H140.125C140.125 87.3066 139.725 86.907 139.233 86.907V87.717ZM114.07 86.907C113.459 86.907 112.963 87.4027 112.963 88.014H113.773C113.773 87.85 113.906 87.717 114.07 87.717V86.907ZM130.336 91.281C131.087 91.281 131.759 91.7715 132.241 92.5547C132.721 93.3354 132.961 94.3328 132.876 95.1776L133.682 95.2583C133.786 94.2245 133.497 93.051 132.931 92.1303C132.366 91.2122 131.473 90.471 130.336 90.471V91.281ZM113.773 95.034C113.773 92.9613 115.453 91.281 117.526 91.281V90.471C115.006 90.471 112.963 92.514 112.963 95.034H113.773ZM145.605 88.9347C143.832 87.8251 142.285 86.2529 142.285 84.3634H141.475C141.475 86.7042 143.363 88.487 145.175 89.6214L145.605 88.9347ZM139.315 83.64C139.315 84.2514 138.819 84.747 138.208 84.747V85.557C139.267 85.557 140.125 84.6988 140.125 83.64H139.315ZM132.876 95.1776C132.776 96.18 132.378 97.2644 131.761 98.0892C131.144 98.9141 130.345 99.435 129.439 99.435V100.245C130.684 100.245 131.698 99.5254 132.41 98.5745C133.121 97.6235 133.568 96.3969 133.682 95.2583L132.876 95.1776ZM114.88 84.747C114.269 84.747 113.773 84.2514 113.773 83.64H112.963C112.963 84.6988 113.821 85.557 114.88 85.557V84.747ZM132.625 102.405C133.648 102.405 134.654 102.638 135.678 102.957C136.19 103.116 136.7 103.295 137.219 103.475C137.735 103.655 138.26 103.836 138.788 103.994L139.02 103.218C138.511 103.065 138.002 102.89 137.485 102.71C136.971 102.531 136.447 102.347 135.919 102.183C134.864 101.855 133.768 101.595 132.625 101.595V102.405Z" fill="#58D498" mask="url(#path-6-outside-2_10_1252)"/>
<path d="M124.598 92.6173H115.85C115.51 92.6173 115.184 92.7524 114.943 92.993C114.703 93.2335 114.568 93.5597 114.568 93.8998C114.568 94.24 114.703 94.5662 114.943 94.8067C115.184 95.0472 115.51 95.1823 115.85 95.1823H124.598C124.938 95.1823 125.265 95.0472 125.505 94.8067C125.746 94.5662 125.881 94.24 125.881 93.8998C125.881 93.5597 125.746 93.2335 125.505 92.993C125.265 92.7524 124.938 92.6173 124.598 92.6173Z" fill="#58D498" stroke="#58D498" stroke-width="0.405"/>
<path d="M138.527 95.0968C138.387 95.0018 138.229 94.9355 138.064 94.9015C137.898 94.8675 137.727 94.8667 137.56 94.8991C137.394 94.9316 137.236 94.9967 137.095 95.0906C136.954 95.1846 136.833 95.3055 136.739 95.4464C136.645 95.5874 136.58 95.7456 136.547 95.9118C136.515 96.0781 136.516 96.2492 136.55 96.4151C136.584 96.5811 136.65 96.7387 136.745 96.8788C136.84 97.0186 136.962 97.1383 137.104 97.2309L139.695 98.9584L139.695 98.9584C139.962 99.1364 140.286 99.2078 140.603 99.1586C140.92 99.1094 141.207 98.9431 141.408 98.6926L141.408 98.6925L144.863 94.3733C144.863 94.3732 144.863 94.3731 144.863 94.373C144.969 94.2417 145.049 94.0907 145.096 93.9287C145.144 93.7666 145.159 93.5967 145.141 93.4288C145.122 93.2608 145.071 93.0981 144.99 92.95C144.908 92.802 144.799 92.6714 144.667 92.5659C144.535 92.4603 144.383 92.3819 144.221 92.3351C144.059 92.2882 143.889 92.2739 143.721 92.293C143.553 92.312 143.391 92.3641 143.243 92.4461C143.095 92.528 142.965 92.6383 142.861 92.7705C142.86 92.7707 142.86 92.7708 142.86 92.7709L141.35 94.6582C140.665 95.5144 139.439 95.7048 138.527 95.0968Z" fill="#58D498" stroke="#58D498" stroke-width="0.405"/>
<defs>
<filter id="filter0_d_10_1252" x="0.121953" y="0.658539" width="458.293" height="258.293" filterUnits="userSpaceOnUse" color-interpolation-filters="sRGB">
<feFlood flood-opacity="0" result="BackgroundImageFix"/>
<feColorMatrix in="SourceAlpha" type="matrix" values="0 0 0 0 0 0 0 0 0 0 0 0 0 0 0 0 0 0 127 0" result="hardAlpha"/>
<feOffset dx="9.26829" dy="27.8049"/>
<feGaussianBlur stdDeviation="37.0732"/>
<feColorMatrix type="matrix" values="0 0 0 0 0 0 0 0 0 0 0 0 0 0 0 0 0 0 0.1 0"/>
<feBlend mode="normal" in2="BackgroundImageFix" result="effect1_dropShadow_10_1252"/>
<feBlend mode="normal" in="SourceGraphic" in2="effect1_dropShadow_10_1252" result="shape"/>
</filter>
</defs>
</svg>
