<svg width="90" height="90" viewBox="0 0 90 90" fill="none" xmlns="http://www.w3.org/2000/svg">
<rect width="90" height="90" rx="9" fill="#FFF9E6"/>
<path d="M70.9453 17.775H19.0547C18.331 17.775 17.775 18.4057 17.775 19.1442V70.8558C17.775 71.5942 18.331 72.225 19.0547 72.225H29.2852C30.0088 72.225 30.5648 71.5942 30.5648 70.8558C30.5648 70.1173 30.0088 69.4865 29.2852 69.4865H20.3344V28.7518H69.6656V69.4865H68.2395V64.7679C68.2395 62.4487 66.8755 60.3845 64.8229 59.6468L61.3877 58.4118C61.7427 57.9173 62.0408 57.3733 62.2719 56.791H65.2515C65.9752 56.791 66.5312 56.1602 66.5312 55.4217V52.1945C66.5312 45.9107 61.815 40.7667 55.9799 40.7667C50.1448 40.7667 45.4287 45.9107 45.4287 52.1945V55.4217C45.4287 56.1602 45.9847 56.791 46.7084 56.791H49.688C49.9191 57.3732 50.2172 57.9173 50.5721 58.4118L47.1369 59.6468C45.0844 60.3845 43.7203 62.4486 43.7203 64.7678V69.4864H39.0396C38.316 69.4864 37.76 70.1172 37.76 70.8556C37.76 71.5941 38.316 72.2249 39.0396 72.2249H45H66.9599H70.9453C71.669 72.2249 72.225 71.5941 72.225 70.8556V19.1442C72.225 18.4056 71.669 17.775 70.9453 17.775ZM63.9718 54.0524H62.8237C62.8251 53.994 62.8258 53.9353 62.8258 53.8763V52.4943H63.9718V54.0524ZM47.9881 54.0524V52.4943H49.134V53.8763C49.134 53.9353 49.1348 53.994 49.1362 54.0524H47.9881ZM55.9799 44.8928C53.0208 44.8928 50.5103 46.9312 49.5523 49.7558H48.3086C49.2833 46.1367 52.3631 43.5049 55.9799 43.5049C59.5967 43.5049 62.6766 46.1367 63.6513 49.7558H62.4075C61.4495 46.9312 58.939 44.8928 55.9799 44.8928ZM55.9799 53.5127C55.2562 53.5127 54.7002 54.1434 54.7002 54.8819V56.0643C54.7002 56.8028 55.2562 57.4336 55.9799 57.4336H58.7523C58.6272 57.5495 58.4962 57.6577 58.3596 57.7574C58.2855 57.7978 58.2152 57.8459 58.1498 57.901C57.5118 58.3108 56.7704 58.5458 55.9799 58.5458C55.1894 58.5458 54.4481 58.3108 53.8102 57.901C53.7448 57.846 53.6744 57.7979 53.6 57.7572C52.4545 56.9207 51.6934 55.4962 51.6934 53.8763V52.3009C51.6934 49.7087 53.6334 47.6314 55.9799 47.6314C58.3264 47.6314 60.2665 49.7087 60.2665 52.3009V53.8763C60.2665 54.1555 60.2432 54.429 60.1995 54.6951H57.2477C57.1633 54.0402 56.6417 53.5127 55.9799 53.5127ZM65.6801 69.4864H46.2797V64.7678C46.2797 63.6077 46.9609 62.5989 47.9527 62.2424L52.8713 60.4739C53.8041 60.9907 54.8605 61.2841 55.9799 61.2841C57.0993 61.2841 58.1557 60.9907 59.0886 60.4739L64.0072 62.2424C64.9989 62.5989 65.6801 63.6077 65.6801 64.7678V69.4864ZM69.6656 26.0134H20.3344V20.5134H69.6656V26.0134Z" fill="#FFDC60" stroke="#FFDC60" stroke-width="0.45"/>
<path d="M33.0126 70.8556C33.0126 71.2101 33.1437 71.5607 33.3814 71.8173L34.2923 69.4864C33.9482 69.4864 33.6178 69.6362 33.3808 69.8946L33.5466 70.0467L33.3816 69.8937C33.1437 70.1504 33.0126 70.5011 33.0126 70.8556Z" fill="#FFDC60" stroke="#FFDC60" stroke-width="0.45"/>
<path d="M41.422 22.3441H65.2511C65.6924 22.3441 66.0807 22.7382 66.0807 23.2634C66.0807 23.7886 65.6924 24.1826 65.2511 24.1826H41.422C40.9807 24.1826 40.5923 23.7886 40.5923 23.2634C40.5923 22.7382 40.9807 22.3441 41.422 22.3441Z" fill="#FFDC60" stroke="#FFDC60" stroke-width="0.45"/>
<path d="M28.9688 21.8941C29.312 21.8941 29.6431 22.045 29.8798 22.3019L28.9688 21.8941ZM28.9688 21.8941C28.6255 21.8941 28.2944 22.045 28.0577 22.3019L28.9688 21.8941ZM28.0576 22.3019C27.8215 22.558 27.6891 22.9083 27.6891 23.2634C27.6891 23.6184 27.8216 23.9687 28.0576 24.2247L28.0576 22.3019Z" fill="#FFDC60" stroke="#FFDC60" stroke-width="0.45"/>
<path d="M24.75 21.8941C25.0932 21.8941 25.4244 22.045 25.6611 22.3019L24.75 21.8941ZM24.75 21.8941C24.4068 21.8941 24.0756 22.045 23.8389 22.3019L24.75 21.8941ZM23.8389 22.3019C23.6028 22.558 23.4703 22.9083 23.4703 23.2634C23.4703 23.6184 23.6028 23.9687 23.8389 24.2247L23.8389 22.3019Z" fill="#FFDC60" stroke="#FFDC60" stroke-width="0.45"/>
<path d="M33.1875 21.8941C33.5307 21.8941 33.8619 22.045 34.0986 22.3019L33.1875 21.8941ZM33.1875 21.8941C32.8443 21.8941 32.5131 22.045 32.2764 22.3019L33.1875 21.8941ZM32.2764 22.3019C32.0403 22.558 31.9078 22.9083 31.9078 23.2634C31.9078 23.6184 32.0403 23.9687 32.2764 24.2247L32.2764 22.3019Z" fill="#FFDC60" stroke="#FFDC60" stroke-width="0.45"/>
<path d="M42.5578 45.6173V45.64C42.5467 46.8242 41.659 47.753 40.6071 47.753H27.9805C26.922 47.753 26.0297 46.8123 26.0297 45.6173V36.1503C26.0297 34.9553 26.922 34.0147 27.9805 34.0147H40.607C41.6655 34.0147 42.5578 34.9553 42.5578 36.1503V45.6173ZM40.6071 31.2762H27.9805C25.4764 31.2762 23.4703 33.4801 23.4703 36.1503V45.6173C23.4703 48.2875 25.4765 50.4914 27.9805 50.4914H40.607C43.1111 50.4914 45.1173 48.2875 45.1173 45.6173V36.1503C45.1173 33.4801 43.1111 31.2762 40.6071 31.2762Z" fill="#FFDC60" stroke="#FFDC60" stroke-width="0.45"/>
<path d="M37.5753 38.7766L37.5753 38.7766L33.5438 35.9731L33.5438 35.9731C32.8237 35.4724 31.9062 35.4372 31.1542 35.8832L31.1542 35.8832C30.4052 36.3276 29.9487 37.1721 29.9487 38.0808V43.6877C29.9487 44.5964 30.4052 45.4409 31.1542 45.8853L31.1542 45.8853C31.5044 46.0931 31.8917 46.1969 32.2791 46.1969C32.7213 46.1969 33.161 46.0616 33.5438 45.7954L33.5438 45.7954L37.5753 42.992C38.2467 42.5251 38.6411 41.735 38.6411 40.8843C38.6411 40.0336 38.2466 39.2434 37.5753 38.7766ZM35.9089 40.8844L32.5081 43.2488L32.5084 38.5195L35.9089 40.8844Z" fill="#FFDC60" stroke="#FFDC60" stroke-width="0.45"/>
<path d="M32.5013 58.7376H24.75C24.0263 58.7376 23.4703 59.3684 23.4703 60.1069C23.4703 60.8453 24.0263 61.4761 24.75 61.4761H32.5013C33.225 61.4761 33.781 60.8453 33.781 60.1069C33.781 59.3684 33.225 58.7376 32.5013 58.7376Z" fill="#FFDC60" stroke="#FFDC60" stroke-width="0.45"/>
<path d="M40.2332 58.7376H37.3113C36.5876 58.7376 36.0316 59.3684 36.0316 60.1069C36.0316 60.8453 36.5876 61.4761 37.3113 61.4761H40.2332C40.9569 61.4761 41.5129 60.8453 41.5129 60.1069C41.5129 59.3684 40.9569 58.7376 40.2332 58.7376Z" fill="#FFDC60" stroke="#FFDC60" stroke-width="0.45"/>
<path d="M35.865 53.2455H24.75C24.0263 53.2455 23.4703 53.8762 23.4703 54.6147C23.4703 55.3532 24.0263 55.9839 24.75 55.9839H35.865C36.5887 55.9839 37.1447 55.3532 37.1447 54.6147C37.1447 53.8762 36.5887 53.2455 35.865 53.2455Z" fill="#FFDC60" stroke="#FFDC60" stroke-width="0.45"/>
<path d="M40.2724 53.2455C40.6157 53.2455 40.9468 53.3965 41.1835 53.6532C41.4195 53.9093 41.552 54.2596 41.552 54.6147C41.552 54.9697 41.4196 55.32 41.1835 55.576C40.9469 55.8328 40.6157 55.9839 40.2724 55.9839C39.9278 55.9839 39.5978 55.8326 39.3613 55.5761L40.2724 53.2455ZM40.2724 53.2455C39.9279 53.2455 39.5979 53.3964 39.3613 53.6532L40.2724 53.2455ZM39.3612 53.6533C39.1251 53.9093 38.9927 54.2596 38.9927 54.6147C38.9927 54.9697 39.1252 55.32 39.3613 55.576L39.3612 53.6533Z" fill="#FFDC60" stroke="#FFDC60" stroke-width="0.45"/>
<path d="M40.2328 64.2301H24.75C24.0263 64.2301 23.4703 64.8608 23.4703 65.5993C23.4703 66.3378 24.0263 66.9685 24.75 66.9685H40.2328C40.9565 66.9685 41.5125 66.3378 41.5125 65.5993C41.5125 64.8608 40.9565 64.2301 40.2328 64.2301Z" fill="#FFDC60" stroke="#FFDC60" stroke-width="0.45"/>
</svg>
