<svg width="70" height="70" viewBox="0 0 70 70" fill="none" xmlns="http://www.w3.org/2000/svg">
<rect x="5.77628" y="8.54215" width="56.6642" height="56.6642" rx="14.471" fill="#58D498" stroke="white" stroke-width="0.490543"/>
<rect x="14.9662" y="0.300395" width="56.6642" height="56.6642" rx="14.471" transform="rotate(15 14.9662 0.300395)" fill="#FFDC60" stroke="white" stroke-width="0.490543"/>
<circle cx="33.9351" cy="36.7322" r="19.3244" fill="#FFFAE8" stroke="#FFDC60" stroke-width="2.19071"/>
<path d="M44.4677 24.7017H23.5757C22.6526 24.7017 21.9043 25.45 21.9043 26.373V41.4153C21.9043 42.3383 22.6526 43.0867 23.5757 43.0867H44.4677C45.3907 43.0867 46.1391 42.3383 46.1391 41.4153V26.373C46.1391 25.45 45.3907 24.7017 44.4677 24.7017Z" fill="#57B7EB"/>
<path d="M46.1391 38.9082V41.4153C46.1391 41.8586 45.963 42.2837 45.6495 42.5971C45.3361 42.9106 44.911 43.0867 44.4677 43.0867H23.5757C23.1324 43.0867 22.7073 42.9106 22.3938 42.5971C22.0804 42.2837 21.9043 41.8586 21.9043 41.4153V26.373C21.9043 25.9297 22.0804 25.5046 22.3938 25.1912C22.7073 24.8778 23.1324 24.7017 23.5757 24.7017H26.5005V32.2228C26.5005 33.9959 27.2049 35.6963 28.4587 36.9501C29.7124 38.2039 31.4129 38.9082 33.186 38.9082H46.1391Z" fill="#4891D3"/>
<path d="M43.632 48.9365H24.4114C24.4114 48.4932 24.5875 48.0681 24.9009 47.7547C25.2143 47.4412 25.6395 47.2651 26.0827 47.2651H41.9607C42.404 47.2651 42.8291 47.4412 43.1425 47.7547C43.456 48.0681 43.632 48.4932 43.632 48.9365Z" fill="#D0D8DA"/>
<path d="M43.632 48.9365H24.4114C24.4111 48.7169 24.4541 48.4995 24.538 48.2966C24.6219 48.0937 24.745 47.9093 24.9003 47.7541C25.0556 47.5988 25.2399 47.4757 25.4428 47.3918C25.6457 47.3079 25.8632 47.2648 26.0827 47.2651H26.5758C26.6603 47.5101 26.8194 47.7224 27.0307 47.8723C27.242 48.0221 27.495 48.1021 27.7541 48.1008H43.4064C43.5539 48.3547 43.6318 48.6429 43.632 48.9365Z" fill="#93999A"/>
<path d="M38.6179 43.0864H29.4254C29.4253 43.8687 29.2494 44.6409 28.9105 45.3459C28.5717 46.051 28.0786 46.6708 27.4678 47.1595L27.3362 47.2648H40.7071L40.5755 47.1595C39.9647 46.6708 39.4716 46.051 39.1327 45.3459C38.7939 44.6409 38.6179 43.8687 38.6179 43.0864Z" fill="#93999A"/>
<path d="M38.6179 43.0864H29.4254C29.4253 43.8687 29.2494 44.6409 28.9105 45.3459C28.5717 46.051 28.0786 46.6708 27.4678 47.1595L27.3362 47.2648L38.6179 43.0864Z" fill="#656B76"/>
<path d="M33.395 41.6244V39.5352L35.4842 40.5798L33.395 41.6244Z" fill="#F8664F"/>
<path d="M44.4677 26.373H23.5757V36.4012H44.4677V26.373Z" fill="#E9F1F2"/>
<path d="M27.9672 36.4012H23.5757V26.373H26.5006V32.2228C26.4978 33.7423 27.0154 35.2168 27.9672 36.4012Z" fill="#D0D8DA"/>
<path d="M39.0356 30.5515L37.3642 29.089V28.0444H34.0215V31.3872H37.3642V30.5515H39.0356Z" fill="#84D2F4"/>
<path d="M37.3642 30.5515V31.3872H34.0215V28.0444H34.8572V29.298C34.8572 29.6304 34.9892 29.9492 35.2243 30.1843C35.4594 30.4194 35.7783 30.5515 36.1107 30.5515H37.3642Z" fill="#57B7EB"/>
<path d="M39.4535 33.0586H41.1248C41.4573 33.0586 41.7761 33.1907 42.0112 33.4258C42.2463 33.6608 42.3784 33.9797 42.3784 34.3121V36.4013H38.2V34.3121C38.2 33.9797 38.332 33.6608 38.5671 33.4258C38.8022 33.1907 39.121 33.0586 39.4535 33.0586Z" fill="#F89C8D"/>
<path d="M42.3784 35.5656V36.4013H38.2V34.3121C38.2 33.9797 38.332 33.6608 38.5671 33.4258C38.8022 33.1907 39.121 33.0586 39.4535 33.0586H40.7947C40.6863 33.1817 40.5544 33.282 40.4066 33.3535C40.2589 33.4249 40.0984 33.4661 39.9345 33.4747C39.7707 33.4832 39.6067 33.459 39.4523 33.4033C39.298 33.3477 39.1563 33.2617 39.0356 33.1505V33.4764C39.0356 34.0305 39.2558 34.5619 39.6476 34.9537C40.0393 35.3455 40.5707 35.5656 41.1248 35.5656H42.3784Z" fill="#F8664F"/>
<path d="M40.2893 34.3117C40.0677 34.3117 39.8551 34.2237 39.6984 34.067C39.5417 33.9102 39.4536 33.6977 39.4536 33.4761V31.8047H41.125V33.4761C41.125 33.6977 41.0369 33.9102 40.8802 34.067C40.7235 34.2237 40.5109 34.3117 40.2893 34.3117Z" fill="#FCBC04"/>
<path d="M40.1639 33.4384C40.2686 33.5665 40.398 33.6721 40.5445 33.749C40.691 33.8258 40.8515 33.8722 41.0163 33.8855C40.9255 34.0459 40.7841 34.1717 40.6143 34.2434C40.4445 34.3151 40.2558 34.3286 40.0774 34.2819C39.8992 34.2352 39.7413 34.1308 39.6285 33.9851C39.5157 33.8393 39.4542 33.6604 39.4536 33.4761V31.8047H41.125V32.2225C41.1243 32.5036 41.0292 32.7763 40.8549 32.9968C40.6806 33.2173 40.4373 33.3728 40.1639 33.4384Z" fill="#E59730"/>
<path d="M39.0359 28.8799H40.2894C40.6218 28.8799 40.9407 29.012 41.1758 29.247C41.4109 29.4821 41.5429 29.801 41.5429 30.1334V30.5512H39.0359V28.8799Z" fill="#4891D3"/>
<path d="M40.2894 33.0583C39.957 33.0583 39.6381 32.9262 39.403 32.6912C39.168 32.4561 39.0359 32.1372 39.0359 31.8048V30.5513H41.5429V31.8048C41.5429 32.1372 41.4109 32.4561 41.1758 32.6912C40.9407 32.9262 40.6218 33.0583 40.2894 33.0583Z" fill="#F9E109"/>
<path d="M41.2254 32.6321C41.1096 32.7668 40.9659 32.8747 40.8043 32.9483C40.6427 33.0219 40.467 33.0594 40.2894 33.0583C39.957 33.0583 39.6381 32.9262 39.403 32.6912C39.168 32.4561 39.0359 32.1372 39.0359 31.8048V30.5513H39.8716V31.387C39.8716 31.7194 40.0036 32.0382 40.2387 32.2733C40.4738 32.5084 40.7927 32.6405 41.1251 32.6405C41.1587 32.6419 41.1924 32.6391 41.2254 32.6321Z" fill="#FCBC04"/>
<path d="M41.5429 30.1334V30.5512H39.0359V28.8799H39.4537V29.2977C39.4544 29.5191 39.5426 29.7313 39.6992 29.8879C39.8558 30.0445 40.068 30.1327 40.2894 30.1334H41.5429Z" fill="#2D72BC"/>
<path d="M24.8291 41.415C25.2906 41.415 25.6648 41.0409 25.6648 40.5793C25.6648 40.1178 25.2906 39.7437 24.8291 39.7437C24.3676 39.7437 23.9934 40.1178 23.9934 40.5793C23.9934 41.0409 24.3676 41.415 24.8291 41.415Z" fill="#F8664F"/>
<path d="M28.5896 34.7299C30.4357 34.7299 31.9323 33.2333 31.9323 31.3872C31.9323 29.541 30.4357 28.0444 28.5896 28.0444C26.7434 28.0444 25.2468 29.541 25.2468 31.3872C25.2468 33.2333 26.7434 34.7299 28.5896 34.7299Z" fill="#F89C8D"/>
<path d="M31.8195 32.2522C31.6763 32.7887 31.4017 33.2811 31.0205 33.6848C30.6393 34.0886 30.1635 34.3911 29.6361 34.5649C29.1087 34.7387 28.5463 34.7784 27.9998 34.6804C27.4532 34.5823 26.9396 34.3497 26.5055 34.0035C26.0714 33.6572 25.7303 33.2083 25.5132 32.6972C25.2961 32.1862 25.2097 31.629 25.2619 31.0762C25.314 30.5234 25.503 29.9922 25.8119 29.5307C26.1208 29.0693 26.5398 28.692 27.031 28.4331C26.955 28.7151 26.917 29.006 26.9182 29.298C26.9174 29.8741 27.0657 30.4406 27.3487 30.9424C27.6317 31.4442 28.0397 31.8642 28.5331 32.1616C29.0265 32.459 29.5885 32.6236 30.1644 32.6395C30.7403 32.6554 31.3104 32.5219 31.8195 32.2522Z" fill="#F8664F"/>
<path d="M27.3362 32.6403V30.1333L29.8432 31.3868L27.3362 32.6403Z" fill="#57B7EB"/>
<path d="M28.4309 32.0931L27.3362 32.6405V30.9106C27.5967 31.39 27.973 31.7965 28.4309 32.0931Z" fill="#4891D3"/>
<path d="M28.4309 32.0931L27.3362 32.6405V30.9106C27.5967 31.39 27.973 31.7965 28.4309 32.0931Z" fill="#4891D3"/>
<path d="M26.8012 34.2073C26.3516 33.9235 25.9764 33.5364 25.7069 33.0782C25.4374 32.6199 25.2814 32.1039 25.2519 31.5731C25.2225 31.0423 25.3205 30.5121 25.5376 30.0269C25.7548 29.5417 26.0849 29.1154 26.5003 28.7837V32.2225C26.4994 32.8955 26.6008 33.5648 26.8012 34.2073Z" fill="#CC5144"/>
<path d="M26.8012 34.2073C26.3516 33.9235 25.9764 33.5364 25.7069 33.0782C25.4374 32.6199 25.2814 32.1039 25.2519 31.5731C25.2225 31.0423 25.3205 30.5121 25.5376 30.0269C25.7548 29.5417 26.0849 29.1154 26.5003 28.7837V32.2225C26.4994 32.8955 26.6008 33.5648 26.8012 34.2073Z" fill="#CC5144"/>
<path d="M36.9467 41.8328C36.8516 41.8339 36.759 41.8027 36.6842 41.7442C36.6093 41.6857 36.5566 41.6033 36.5348 41.5109C36.513 41.4184 36.5234 41.3212 36.5643 41.2354C36.6051 41.1496 36.6739 41.0803 36.7595 41.0389L37.6837 40.5793L36.7599 40.1196C36.6607 40.0701 36.5853 39.9832 36.5502 39.878C36.515 39.7729 36.5231 39.6581 36.5727 39.5589C36.6222 39.4597 36.7091 39.3843 36.8143 39.3492C36.9195 39.314 37.0342 39.3221 37.1334 39.3717L38.8048 40.2074C38.8743 40.242 38.9328 40.2954 38.9737 40.3614C39.0146 40.4275 39.0362 40.5037 39.0362 40.5813C39.0362 40.659 39.0146 40.7352 38.9737 40.8013C38.9328 40.8673 38.8743 40.9207 38.8048 40.9553L37.1334 41.791C37.0752 41.8192 37.0113 41.8335 36.9467 41.8328Z" fill="#D0D8DA"/>
<path d="M39.0358 41.8332C38.9249 41.8332 38.8187 41.7892 38.7403 41.7108C38.662 41.6325 38.6179 41.5262 38.6179 41.4154V39.744C38.6179 39.6332 38.662 39.5269 38.7403 39.4486C38.8187 39.3702 38.9249 39.3262 39.0358 39.3262C39.1466 39.3262 39.2529 39.3702 39.3312 39.4486C39.4096 39.5269 39.4536 39.6332 39.4536 39.744V41.4154C39.4536 41.5262 39.4096 41.6325 39.3312 41.7108C39.2529 41.7892 39.1466 41.8332 39.0358 41.8332Z" fill="#D0D8DA"/>
<path d="M31.0967 41.8328C31.0322 41.8334 30.9684 41.8191 30.9104 41.791L29.239 40.9553C29.1695 40.9207 29.111 40.8673 29.0701 40.8013C29.0292 40.7352 29.0076 40.659 29.0076 40.5813C29.0076 40.5037 29.0292 40.4275 29.0701 40.3614C29.111 40.2954 29.1695 40.242 29.239 40.2074L30.9104 39.3717C31.0096 39.3221 31.1243 39.314 31.2295 39.3492C31.2816 39.3666 31.3297 39.394 31.3712 39.43C31.4126 39.466 31.4466 39.5098 31.4711 39.5589C31.4956 39.608 31.5103 39.6615 31.5141 39.7162C31.518 39.771 31.511 39.826 31.4936 39.878C31.4763 39.9301 31.4488 39.9782 31.4128 40.0197C31.3768 40.0611 31.333 40.0951 31.2839 40.1196L30.3597 40.5793L31.2835 41.0389C31.369 41.0803 31.4379 41.1496 31.4787 41.2353C31.5195 41.3211 31.5299 41.4182 31.5082 41.5107C31.4864 41.6031 31.4338 41.6854 31.359 41.7439C31.2842 41.8025 31.1917 41.8338 31.0967 41.8328Z" fill="#D0D8DA"/>
<path d="M29.0074 41.8332C28.8966 41.8332 28.7903 41.7892 28.712 41.7108C28.6336 41.6325 28.5896 41.5262 28.5896 41.4154V39.744C28.5896 39.6332 28.6336 39.5269 28.712 39.4486C28.7903 39.3702 28.8966 39.3262 29.0074 39.3262C29.1183 39.3262 29.2246 39.3702 29.3029 39.4486C29.3812 39.5269 29.4253 39.6332 29.4253 39.744V41.4154C29.4253 41.5262 29.3812 41.6325 29.3029 41.7108C29.2246 41.7892 29.1183 41.8332 29.0074 41.8332Z" fill="#D0D8DA"/>
<path d="M44.0499 38.4905H23.9935C23.8827 38.4905 23.7764 38.4464 23.6981 38.3681C23.6197 38.2897 23.5757 38.1834 23.5757 38.0726C23.5757 37.9618 23.6197 37.8555 23.6981 37.7772C23.7764 37.6988 23.8827 37.6548 23.9935 37.6548H44.0499C44.1607 37.6548 44.267 37.6988 44.3453 37.7772C44.4237 37.8555 44.4677 37.9618 44.4677 38.0726C44.4677 38.1834 44.4237 38.2897 44.3453 38.3681C44.267 38.4464 44.1607 38.4905 44.0499 38.4905Z" fill="#F8664F"/>
<path d="M41.5428 40.9975C41.432 40.9975 41.3257 40.9535 41.2474 40.8751C41.169 40.7968 41.125 40.6905 41.125 40.5797V39.744C41.125 39.6332 41.169 39.5269 41.2474 39.4486C41.3257 39.3702 41.432 39.3262 41.5428 39.3262H42.7964C42.9072 39.3262 43.0135 39.3702 43.0918 39.4486C43.1702 39.5269 43.2142 39.6332 43.2142 39.744C43.2142 39.8548 43.1702 39.9611 43.0918 40.0395C43.0135 40.1178 42.9072 40.1619 42.7964 40.1619H41.9607V40.5797C41.9607 40.6905 41.9166 40.7968 41.8383 40.8751C41.76 40.9535 41.6537 40.9975 41.5428 40.9975Z" fill="#D0D8DA"/>
<path d="M44.0498 41.833H42.7963C42.6854 41.833 42.5791 41.7889 42.5008 41.7106C42.4225 41.6323 42.3784 41.526 42.3784 41.4151C42.3784 41.3043 42.4225 41.198 42.5008 41.1197C42.5791 41.0413 42.6854 40.9973 42.7963 40.9973H43.6319V40.5795C43.6319 40.4687 43.676 40.3624 43.7543 40.284C43.8327 40.2057 43.939 40.1616 44.0498 40.1616C44.1606 40.1616 44.2669 40.2057 44.3452 40.284C44.4236 40.3624 44.4676 40.4687 44.4676 40.5795V41.4151C44.4676 41.526 44.4236 41.6323 44.3452 41.7106C44.2669 41.7889 44.1606 41.833 44.0498 41.833Z" fill="#D0D8DA"/>
<path d="M35.2754 36.401H34.4397V35.1474C34.4397 35.0366 34.4837 34.9304 34.5621 34.852L35.6427 33.7715L36.2335 34.3623L35.2754 35.3204V36.401Z" fill="#93999A"/>
<path d="M35.6424 34.3629C35.7991 34.5195 36.0116 34.6076 36.2332 34.6076C36.4548 34.6076 36.6673 34.5195 36.824 34.3629L37.1195 34.0675C37.2761 33.9107 37.3641 33.6982 37.3641 33.4766C37.3641 33.255 37.2761 33.0425 37.1195 32.8858C36.9627 32.7292 36.7502 32.6411 36.5286 32.6411C36.3071 32.6411 36.0945 32.7292 35.9378 32.8858L35.6424 33.1812C35.4857 33.3379 35.3977 33.5505 35.3977 33.772C35.3977 33.9936 35.4857 34.2061 35.6424 34.3629Z" fill="#F9E109"/>
<path d="M37.1178 34.0656L36.8253 34.3623C36.6814 34.5022 36.4919 34.5858 36.2915 34.5975C36.0911 34.6092 35.8931 34.5484 35.7339 34.4261C35.5746 34.3039 35.4646 34.1284 35.4242 33.9318C35.3837 33.7351 35.4153 33.5305 35.5133 33.3553C35.5476 33.4186 35.5913 33.4764 35.6429 33.5266C35.7205 33.6043 35.8126 33.6659 35.9141 33.708C36.0155 33.75 36.1243 33.7717 36.2341 33.7717C36.3439 33.7717 36.4527 33.75 36.5541 33.708C36.6556 33.6659 36.7478 33.6043 36.8253 33.5266L37.1178 33.2299C37.1694 33.1797 37.2131 33.1219 37.2474 33.0586C37.3422 33.2165 37.381 33.4019 37.3575 33.5846C37.334 33.7673 37.2495 33.9368 37.1178 34.0656Z" fill="#FCBC04"/>
<path d="M30.8545 38.4905H23.9935C23.8827 38.4905 23.7764 38.4464 23.6981 38.3681C23.6197 38.2897 23.5757 38.1834 23.5757 38.0726C23.5757 37.9618 23.6197 37.8555 23.6981 37.7772C23.7764 37.6988 23.8827 37.6548 23.9935 37.6548H29.2834C29.7678 38.0016 30.2961 38.2825 30.8545 38.4905Z" fill="#CC5144"/>
<path d="M30.8545 38.4905H23.9935C23.8827 38.4905 23.7764 38.4464 23.6981 38.3681C23.6197 38.2897 23.5757 38.1834 23.5757 38.0726C23.5757 37.9618 23.6197 37.8555 23.6981 37.7772C23.7764 37.6988 23.8827 37.6548 23.9935 37.6548H29.2834C29.7678 38.0016 30.2961 38.2825 30.8545 38.4905Z" fill="#CC5144"/>
<path d="M26.0826 38.9082C25.9718 38.9082 25.8655 38.8641 25.7872 38.7858C25.7088 38.7074 25.6648 38.6011 25.6648 38.4903V37.6547C25.6648 37.5438 25.7088 37.4375 25.7872 37.3592C25.8655 37.2809 25.9718 37.2368 26.0826 37.2368C26.1934 37.2368 26.2997 37.2809 26.3781 37.3592C26.4564 37.4375 26.5005 37.5438 26.5005 37.6547V38.4903C26.5005 38.6011 26.4564 38.7074 26.3781 38.7858C26.2997 38.8641 26.1934 38.9082 26.0826 38.9082Z" fill="#F8664F"/>
</svg>
