<svg width="64" height="85" viewBox="0 0 64 85" fill="none" xmlns="http://www.w3.org/2000/svg">
<path d="M26.2857 14.8553C26.2836 16.4585 25.86 18.033 25.0577 19.421C24.2554 20.809 23.1024 21.9618 21.7143 22.7638V25.4838L26.88 27.3695C27.8264 27.2485 28.7109 26.8334 29.4087 26.1827C30.1065 25.5321 30.5824 24.6788 30.7693 23.7431C30.9561 22.8075 30.8446 21.8369 30.4502 20.9681C30.0559 20.0993 29.3988 19.3763 28.5714 18.901C28.4362 18.8228 28.3186 18.7175 28.2262 18.5916C28.1337 18.4657 28.0684 18.322 28.0343 18.1695C27.9959 18.0206 27.9893 17.8653 28.0149 17.7138C28.0405 17.5621 28.0977 17.4175 28.1829 17.2895C28.4314 16.9043 28.5661 16.4566 28.5714 15.9981C28.5696 15.3925 28.3282 14.8122 27.9 14.3838C27.4717 13.9556 26.8913 13.7142 26.2857 13.7124V14.8553Z" fill="#333333"/>
<path d="M13.9313 30.3752L17.1428 34.661L20.3542 30.3752C18.261 31.0152 16.0245 31.0152 13.9313 30.3752Z" fill="#333333"/>
<path d="M20.1827 27.3581C19.9611 27.2793 19.7695 27.1336 19.6343 26.9412C19.4992 26.7487 19.4272 26.519 19.4284 26.2838V23.7009C17.9304 24.0972 16.3551 24.0972 14.857 23.7009V26.2838C14.8583 26.519 14.7863 26.7487 14.6512 26.9412C14.516 27.1336 14.3243 27.2793 14.1027 27.3581L13.3141 27.6438C14.4986 28.2522 15.8111 28.5695 17.1427 28.5695C18.4744 28.5695 19.7868 28.2522 20.9713 27.6438L20.1827 27.3581Z" fill="#333333"/>
<path d="M7.40556 27.3695L12.5713 25.4838V22.7638C11.1832 21.9618 10.0301 20.809 9.22785 19.421C8.42556 18.033 8.00214 16.4585 7.99985 14.8553V13.7124C7.39425 13.7142 6.81387 13.9556 6.38561 14.3838C5.95735 14.8122 5.71595 15.3925 5.71415 15.9981C5.71946 16.4566 5.85415 16.9043 6.10272 17.2895C6.18788 17.4175 6.24513 17.5621 6.27073 17.7138C6.29633 17.8653 6.2897 18.0206 6.25129 18.1695C6.21721 18.322 6.15188 18.4657 6.05943 18.5916C5.96697 18.7175 5.84939 18.8228 5.71415 18.901C4.88687 19.3763 4.22969 20.0993 3.83536 20.9681C3.44102 21.8369 3.3294 22.8075 3.51627 23.7431C3.70314 24.6788 4.17906 25.5321 4.87688 26.1827C5.5747 26.8334 6.45919 27.2485 7.40556 27.3695Z" fill="#333333"/>
<path d="M23.6001 17.1409H10.6859C11.1565 18.4776 12.0304 19.6353 13.187 20.4542C14.3436 21.2732 15.7259 21.713 17.143 21.713C18.5601 21.713 19.9424 21.2732 21.099 20.4542C22.2556 19.6353 23.1295 18.4776 23.6001 17.1409Z" fill="#333333"/>
<path d="M64 49.1409H0V51.4266H64V49.1409Z" fill="#333333"/>
<path d="M60.5713 53.7124H3.42847V59.4267H60.5713V53.7124Z" fill="#333333"/>
<path d="M10.2855 6.85518C11.721 6.80958 13.1291 6.45073 14.4113 5.80376C15.9724 5.0281 17.6855 4.60661 19.4284 4.56947C20.9233 4.49507 22.3915 4.98456 23.5427 5.9409C23.9754 6.30764 24.4822 6.57667 25.0284 6.72947C24.7284 4.84981 23.7671 3.13907 22.3177 1.9053C20.8682 0.671539 19.0258 -0.00411826 17.1223 1.8887e-05C15.2188 0.0041446 13.3795 0.687802 11.9354 1.92786C10.4913 3.16787 9.53732 4.88284 9.24554 6.76376C9.58863 6.82616 9.93674 6.85678 10.2855 6.85518Z" fill="#333333"/>
<path d="M12.5715 46.8551H15.8058C15.5674 46.1876 15.1288 45.6099 14.55 45.2009C13.9712 44.7919 13.2803 44.5713 12.5715 44.5693V46.8551Z" fill="#333333"/>
<path d="M36.7773 46.8551H39.0288L42.0802 28.5693H41.7602C41.2192 28.5675 40.6953 28.7587 40.2826 29.1086C39.8699 29.4584 39.5955 29.944 39.5088 30.4779L36.7773 46.8551Z" fill="#FFDC60"/>
<path d="M51.4286 38.8551C52.0598 38.8551 52.5714 38.3434 52.5714 37.7122C52.5714 37.081 52.0598 36.5693 51.4286 36.5693C50.7974 36.5693 50.2857 37.081 50.2857 37.7122C50.2857 38.3434 50.7974 38.8551 51.4286 38.8551Z" fill="#58D498"/>
<path d="M57.4974 46.8551C57.7682 46.8557 58.0301 46.7592 58.2356 46.5829C58.4412 46.4068 58.5767 46.1627 58.6175 45.8951L61.2917 29.8951C61.3183 29.7314 61.3089 29.5639 61.2642 29.4042C61.2195 29.2444 61.1405 29.0964 61.0329 28.9703C60.9252 28.8442 60.7914 28.7429 60.6408 28.6737C60.49 28.6045 60.3261 28.5689 60.1603 28.5693H44.4003L41.3489 46.8551H57.4974ZM51.4289 34.2836C52.1069 34.2836 52.7699 34.4848 53.3337 34.8615C53.8974 35.2381 54.337 35.7737 54.5964 36.4002C54.856 37.0266 54.9238 37.716 54.7915 38.3811C54.6593 39.0461 54.3328 39.6571 53.8532 40.1365C53.3738 40.6161 52.7628 40.9426 52.0978 41.0749C51.4326 41.2072 50.7433 41.1393 50.1168 40.8797C49.4904 40.6203 48.9548 40.1809 48.5781 39.617C48.2013 39.0532 48.0003 38.3903 48.0003 37.7122C48.0003 36.8029 48.3616 35.9308 49.0045 35.2879C49.6475 34.6449 50.5195 34.2836 51.4289 34.2836Z" fill="#FFDC60"/>
<path d="M25.1429 45.7122C25.1429 46.0153 25.2633 46.306 25.4776 46.5203C25.6919 46.7346 25.9827 46.8551 26.2857 46.8551H34.4572L34.8457 44.5693H25.1429V45.7122Z" fill="#333333"/>
<path d="M24 8.7979C23.3361 8.56213 22.7177 8.21425 22.1714 7.76933C21.7976 7.44293 21.3626 7.19402 20.8918 7.03699C20.4209 6.88008 19.9235 6.81825 19.4286 6.85505C17.9931 6.90065 16.585 7.2595 15.3028 7.90648C13.7417 8.68213 12.0286 9.10362 10.2857 9.14076V14.855H24V8.7979ZM14.8571 12.5693H12.5714V10.2836H14.8571V12.5693ZM21.7143 12.5693H19.4286V10.2836H21.7143V12.5693Z" fill="#333333"/>
<path d="M10.2857 46.8551V44.5694H7.99999C7.69691 44.5694 7.40616 44.449 7.19188 44.2346C6.97759 44.0203 6.85713 43.7296 6.85713 43.4265V36.5694H9.14285V42.2836H12.5714C13.8878 42.2871 15.1628 42.7432 16.1826 43.5756C17.2024 44.4081 17.9046 45.566 18.1714 46.8551H23.0628C22.9298 46.4886 22.8602 46.1022 22.8571 45.7122V43.4265C22.8571 43.1234 22.9776 42.8327 23.1919 42.6184C23.4062 42.4041 23.6969 42.2836 24 42.2836H25.1428V36.5694H27.4286V42.2836H32V37.2551C31.9998 35.6138 31.4939 34.0126 30.5512 32.669C29.6084 31.3255 28.2747 30.305 26.7314 29.7465L26.4571 29.6436C26.4292 29.6415 26.402 29.6337 26.3771 29.6208L24.3314 28.8779L18.0571 37.2551C17.9507 37.397 17.8127 37.5122 17.6539 37.5915C17.4953 37.671 17.3202 37.7122 17.1428 37.7122C16.9655 37.7122 16.7904 37.671 16.6318 37.5915C16.473 37.5122 16.335 37.397 16.2286 37.2551L9.95428 28.8779L7.90856 29.6208C7.88011 29.6351 7.84891 29.643 7.81713 29.6436L7.55428 29.7465C6.01097 30.305 4.67723 31.3255 3.73452 32.669C2.79181 34.0126 2.28592 35.6138 2.28571 37.2551V43.4265C2.28841 44.335 2.65052 45.2055 3.29291 45.8479C3.93531 46.4903 4.8058 46.8523 5.71428 46.8551H10.2857Z" fill="#333333"/>
<path d="M24.5542 73.9014C24.5272 76.037 26.4575 77.2289 27.9117 77.9374C29.4058 78.6645 29.9076 79.1307 29.9019 79.7808C29.8905 80.7759 28.7101 81.215 27.6052 81.2322C25.6777 81.2621 24.5571 80.7118 23.6661 80.2955L22.9718 83.5446C23.8657 83.9566 25.5208 84.3159 27.2373 84.3315C31.2663 84.3315 33.9023 82.3427 33.9166 79.259C33.9323 75.3456 28.5033 75.1289 28.5404 73.3796C28.5532 72.8493 29.0593 72.2833 30.1685 72.1393C30.7174 72.0666 32.2329 72.011 33.9508 72.8022L34.6251 69.6586C33.7013 69.3222 32.5137 69 31.0353 69C27.243 69 24.5756 71.0159 24.5542 73.9014ZM41.1048 69.2708C40.3691 69.2708 39.749 69.7 39.4724 70.3586L33.717 84.1006H37.743L38.5443 81.8865H43.4642L43.929 84.1006H47.4775L44.3809 69.2708H41.1048ZM41.6679 73.277L42.8298 78.8456H39.6477L41.6679 73.277ZM19.6728 69.2708L16.4993 84.1006H20.3357L23.5078 69.2708H19.6728ZM13.9972 69.2708L10.0039 79.3645L8.38866 70.782C8.19905 69.824 7.45057 69.2708 6.61941 69.2708H0.0913034L6.10352e-05 69.7014C1.34018 69.9922 2.86279 70.4613 3.78519 70.9631C4.34976 71.2696 4.51086 71.5376 4.69619 72.2662L7.75566 84.1006H11.8102L18.0261 69.2708H13.9972Z" fill="#58D498"/>
</svg>
