<svg width="75" height="66" viewBox="0 0 75 66" fill="none" xmlns="http://www.w3.org/2000/svg">
<path d="M40.793 50.6937C36.5892 48.5968 27.3639 45.5002 27.3639 45.5002V42.4546L27.621 42.2611C29.4118 40.8907 30.609 38.8859 30.9662 36.6594L31.0186 36.336H31.2695C31.9459 36.3356 32.6068 36.1337 33.1679 35.756C33.729 35.3783 34.1649 34.8419 34.4198 34.2154C34.7242 33.6662 34.8836 33.0485 34.8829 32.4206C34.8831 31.988 34.8009 31.5593 34.6407 31.1574C34.5603 30.7181 34.3163 30.3256 33.958 30.059L33.1068 29.5423L33.3189 28.6187C34.8555 21.916 29.6631 15.8799 22.6921 15.7126C22.5223 15.7102 22.3538 15.7076 22.1878 15.7114C22.0205 15.7076 21.8533 15.7102 21.6836 15.7126C14.7113 15.8799 9.51888 21.916 11.0566 28.6187L11.2689 29.5423L10.4176 30.0591C10.0589 30.3255 9.81451 30.718 9.73358 31.1575C9.57405 31.5595 9.4919 31.9881 9.49146 32.4206C9.49141 33.0485 9.65073 33.666 9.95448 34.2155C10.2099 34.842 10.646 35.3782 11.2073 35.7559C11.7686 36.1335 12.4296 36.3355 13.1061 36.3361H13.357L13.4082 36.6594C13.7654 38.8862 14.9631 40.8912 16.7545 42.2612L17.0116 42.4547V45.5002C17.0116 45.5002 7.78643 48.5968 3.58264 50.6937C2.95218 51.0081 2.40471 51.4667 1.98464 52.0323C1.56457 52.5979 1.28373 53.2545 1.16491 53.9489C0.444785 58.1527 0.317383 65.2448 0.317383 65.2448H44.0582C44.0582 65.2448 43.9309 58.1528 43.2107 53.949C43.0916 53.2546 42.8107 52.5981 42.3907 52.0326C41.9706 51.467 41.4233 51.0083 40.793 50.6937Z" fill="#333333"/>
<path d="M53.9581 39.7499C53.3705 40.0607 52.7048 40.1932 52.0429 40.1309C51.2495 40.1357 50.4595 40.0277 49.6965 39.8101C49.0393 39.6268 48.3986 39.3886 47.7813 39.0981L46.7986 41.7353C47.3025 41.9702 47.8179 42.1794 48.3429 42.362C49.222 42.6532 50.1357 42.8268 51.0603 42.8785V45.6059H53.9482V42.8133C54.6064 42.7184 55.2448 42.5169 55.8383 42.2167C56.3142 41.9709 56.7381 41.6355 57.0867 41.229C57.3975 40.8633 57.6311 40.4387 57.7736 39.9805C57.9086 39.5402 57.9779 39.0824 57.9791 38.6218C57.9976 38.0409 57.8872 37.4631 57.6557 36.9299C57.4242 36.3968 57.0775 35.9216 56.6405 35.5384C56.189 35.1446 55.6885 34.8109 55.1514 34.5457C54.5443 34.2405 53.9198 33.9709 53.2813 33.7385C52.8401 33.5881 52.4591 33.4427 52.1482 33.3123C51.872 33.2042 51.6067 33.0699 51.356 32.9113C51.1641 32.7973 51.0038 32.637 50.8898 32.445C50.785 32.2513 50.7331 32.0334 50.7394 31.8133C50.7355 31.6258 50.7773 31.4402 50.8612 31.2725C50.945 31.1048 51.0684 30.96 51.2207 30.8506C51.6956 30.5657 52.2482 30.4377 52.8 30.4846C53.5051 30.4806 54.2083 30.558 54.8957 30.7153C55.4952 30.8467 56.0823 31.0296 56.6505 31.2617L57.3625 28.5142C56.9206 28.3265 56.4646 28.1739 55.9987 28.058C55.326 27.8859 54.6401 27.7702 53.9481 27.7121V25.3306H51.0602V27.8023C50.4531 27.9053 49.866 28.1032 49.3205 28.3889C48.8749 28.6198 48.4799 28.9375 48.1587 29.3232C47.8376 29.7089 47.5968 30.1549 47.4504 30.635C47.3049 31.1059 47.2322 31.5962 47.2348 32.089C47.2133 32.6339 47.319 33.1763 47.5435 33.6732C47.768 34.1701 48.1052 34.6079 48.5283 34.9518C48.9259 35.2778 49.3641 35.5508 49.8319 35.764C50.3132 35.9897 50.8096 36.1902 51.3109 36.3707C51.8323 36.5562 52.2886 36.7266 52.6847 36.8871C53.0294 37.0198 53.3602 37.186 53.6724 37.3834C53.9073 37.5261 54.1103 37.7155 54.269 37.94C54.4094 38.1634 54.4809 38.4232 54.4746 38.687C54.4841 38.8932 54.4419 39.0985 54.3517 39.2842C54.2615 39.4699 54.1262 39.63 53.9581 39.7499Z" fill="#FFDC60"/>
<path d="M66.0411 17.1583L61.8446 13.9746L64.5019 2.74893C64.5698 2.46356 64.5723 2.16649 64.509 1.88005C64.4457 1.5936 64.3183 1.32522 64.1364 1.09507C63.9545 0.864921 63.7228 0.678982 63.4587 0.551222C63.1946 0.423463 62.9051 0.357203 62.6117 0.357422H42.1659C41.8726 0.357203 41.583 0.423463 41.3189 0.551222C41.0548 0.678982 40.8232 0.864921 40.6412 1.09507C40.4593 1.32522 40.332 1.5936 40.2687 1.88005C40.2054 2.16649 40.2078 2.46356 40.2758 2.74893L42.933 13.9796L38.7366 17.1583C37.6712 17.9663 36.6796 18.8673 35.7735 19.8506C36.4921 21.2271 36.9719 22.7156 37.1923 24.2526C38.2794 22.7299 39.5912 21.3809 41.083 20.2517L44.5424 17.6295C44.8036 17.756 45.0896 17.8228 45.3797 17.8251H49.3455C49.8602 17.8242 50.3535 17.6191 50.7171 17.2548C51.0807 16.8906 51.2849 16.3969 51.2849 15.8823C51.2849 15.3676 51.0807 14.874 50.7171 14.5097C50.3535 14.1455 49.8602 13.9404 49.3455 13.9395H46.9139L44.6176 4.24302H60.16L57.8638 13.9395H56.119C55.8636 13.939 55.6106 13.9889 55.3745 14.0864C55.1384 14.1838 54.9238 14.3268 54.743 14.5073C54.5623 14.6877 54.4188 14.9021 54.321 15.138C54.2231 15.3739 54.1728 15.6268 54.1728 15.8823C54.1728 16.1377 54.2231 16.3906 54.321 16.6265C54.4188 16.8625 54.5623 17.0768 54.743 17.2572C54.9238 17.4377 55.1384 17.5807 55.3745 17.6782C55.6106 17.7756 55.8636 17.8255 56.119 17.8251H59.398C59.6881 17.8228 59.9741 17.756 60.2352 17.6295L63.6947 20.2517C66.1061 22.0861 68.0387 24.4759 69.3281 27.2178C70.6174 29.9596 71.2252 32.9724 71.0999 35.9997C71.006 38.9406 70.1922 41.8135 68.7299 44.3668C67.2675 46.9201 65.2011 49.0757 62.712 50.6446C59.7958 52.4958 56.4287 53.5135 52.9754 53.5877C52.5843 53.5977 52.1933 53.5977 51.8022 53.5877C50.1141 53.5444 48.4388 53.2814 46.8186 52.8055C46.8537 52.971 46.8888 53.1415 46.9189 53.3119C47.1094 54.4049 47.2548 55.6633 47.3751 56.9418C48.7946 57.2512 50.2397 57.4274 51.6919 57.4683C51.9225 57.4733 52.1582 57.4783 52.3888 57.4783C52.6194 57.4783 52.8551 57.4733 53.0807 57.4683C57.2335 57.3635 61.2805 56.1369 64.7927 53.9186C67.8146 52.0173 70.3238 49.4035 72.1001 46.3064C73.8764 43.2093 74.8654 39.7236 74.9804 36.1551C75.1319 32.5026 74.3981 28.8676 72.8416 25.5599C71.2851 22.2521 68.952 19.3697 66.0411 17.1583Z" fill="#58D498"/>
</svg>
