<svg width="72" height="72" viewBox="0 0 72 72" fill="none" xmlns="http://www.w3.org/2000/svg">
<path d="M23.625 64.125H18L15.75 50.625L13.5 64.125H7.875V43.875H23.625V64.125Z" fill="#58D498"/>
<path d="M18 64.125H22.5C23.6935 64.125 24.8381 64.5991 25.6819 65.4431C26.5259 66.2869 27 67.4315 27 68.625H18V64.125Z" fill="#FFDC60"/>
<path d="M13.5 68.625H4.5C4.5 67.4315 4.97411 66.2869 5.81802 65.4431C6.66193 64.5991 7.80652 64.125 9 64.125H13.5V68.625Z" fill="#FFDC60"/>
<path d="M34.3913 31.1738L30.9713 32.8838C29.8559 33.4457 28.5839 33.6161 27.36 33.3675L23.625 32.625V43.875H3.375V32.625C3.375 30.8348 4.08616 29.1179 5.35203 27.8521C6.6179 26.5861 8.33479 25.875 10.125 25.875H12.375L15.75 30.375L19.125 25.875H21.0263C22.7453 25.8739 24.4485 26.2024 26.0437 26.8425L29.25 28.125L33.0188 27.045L34.3913 31.1738Z" fill="#58D498"/>
<path d="M10.125 10.125H16.875C18.0685 10.125 19.2131 10.5991 20.0569 11.4431C20.9009 12.2869 21.375 13.4315 21.375 14.625H10.125V10.125Z" fill="#58D498"/>
<path d="M14.6475 27C15.4662 27.6166 16.4396 27.9944 17.46 28.0912L15.75 30.375L12.375 25.875V24.75C13.3409 25.4745 14.5144 25.869 15.7219 25.8751C16.9295 25.8812 18.1068 25.4986 19.08 24.7838C18.5614 25.4692 17.8917 26.0258 17.1228 26.4102C16.3541 26.7945 15.507 26.9964 14.6475 27Z" fill="#FFDC60"/>
<path d="M14.1638 17.5388C13.9523 17.7451 13.7845 17.9918 13.6704 18.2644C13.5564 18.5369 13.4984 18.8296 13.5 19.125C13.5 20.6169 14.0927 22.0476 15.1476 23.1024C16.2024 24.1573 17.6331 24.75 19.125 24.75C18.1536 25.4846 16.9678 25.8798 15.75 25.875C14.2581 25.875 12.8274 25.2823 11.7726 24.2274C10.7176 23.1726 10.125 21.7419 10.125 20.25V14.625H21.375V16.875H15.75C15.4546 16.8734 15.1618 16.9314 14.8894 17.0454C14.6168 17.1595 14.3701 17.3273 14.1638 17.5388Z" fill="#FFDC60"/>
<path d="M20.25 32.625L15.75 30.375L19.125 25.875H21.375L20.25 32.625Z" fill="#A8DBA8"/>
<path d="M11.25 32.625L15.75 30.375L12.375 25.875H10.125L11.25 32.625Z" fill="#A8DBA8"/>
<path d="M36.7426 30.0038L34.3914 31.1738L33.0189 27.045L33.7389 26.8425C34.0278 27.3499 34.5004 27.7272 35.0592 27.8968C35.6179 28.0663 36.2204 28.0151 36.7426 27.7538C37.0294 27.6137 37.2739 27.4002 37.4514 27.135C37.5661 27.2876 37.6536 27.4589 37.7101 27.6413C37.8628 28.0854 37.8489 28.57 37.6708 29.0046C37.4929 29.4391 37.163 29.7943 36.7426 30.0038Z" fill="#FFDC60"/>
<path d="M7.875 43.875V46.125C7.8741 46.5578 7.74838 46.9811 7.51292 47.3444C7.27747 47.7075 6.94226 47.9951 6.5475 48.1725C6.68327 47.884 6.75248 47.5688 6.75 47.25C6.74822 46.6539 6.5106 46.0826 6.08903 45.6609C5.66745 45.2394 5.09619 45.0018 4.5 45H3.375V43.875H7.875Z" fill="#FFDC60"/>
<path d="M54 52.875H63C64.4919 52.875 65.9226 53.4677 66.9774 54.5226C68.0323 55.5774 68.625 57.0081 68.625 58.5V68.625H48.375V58.5C48.375 57.0081 48.9677 55.5774 50.0226 54.5226C51.0774 53.4677 52.5081 52.875 54 52.875Z" fill="#A8DBA8"/>
<path d="M61.7434 58.5877L58.5 60.75L55.2566 58.5877C54.178 57.8686 53.2936 56.8944 52.6818 55.7514C52.0702 54.6084 51.75 53.3321 51.75 52.0358V45C51.75 43.2098 52.4611 41.4929 53.7271 40.2271C54.9929 38.9611 56.7098 38.25 58.5 38.25C60.2902 38.25 62.0071 38.9611 63.2729 40.2271C64.5389 41.4929 65.25 43.2098 65.25 45V52.0358C65.25 53.3321 64.9298 54.6084 64.3182 55.7514C63.7064 56.8944 62.822 57.8686 61.7434 58.5877Z" fill="#58D498"/>
<path d="M33.75 52.875H42.75C44.2419 52.875 45.6726 53.4677 46.7274 54.5226C47.7823 55.5774 48.375 57.0081 48.375 58.5V68.625H28.125V58.5C28.125 57.0081 28.7177 55.5774 29.7726 54.5226C30.8274 53.4677 32.2581 52.875 33.75 52.875Z" fill="#58D498"/>
<path d="M42.75 42.75V48.375C42.75 48.5556 42.7388 48.7359 42.7163 48.915C42.0405 49.2983 41.2769 49.4999 40.5 49.5H37.3275C37.7418 50.0699 38.2849 50.5341 38.9123 50.8546C39.5398 51.1752 40.2342 51.3432 40.9387 51.345C41.1878 51.3459 41.4364 51.3233 41.6812 51.2775C41.0857 51.9795 40.2891 52.4819 39.399 52.7169C38.5089 52.952 37.568 52.9084 36.7035 52.592C35.8389 52.2756 35.0922 51.7016 34.5641 50.9475C34.036 50.1936 33.7518 49.2956 33.75 48.375V42.75H42.75Z" fill="#FFDC60"/>
<path d="M31.5 39.375H40.5C41.6935 39.375 42.8381 39.8491 43.6819 40.6931C44.5259 41.5369 45 42.6815 45 43.875C45 45.0685 44.5259 46.2131 43.6819 47.0569C42.8381 47.9009 41.6935 48.375 40.5 48.375H36C34.8065 48.375 33.6619 47.9009 32.8181 47.0569C31.9741 46.2131 31.5 45.0685 31.5 43.875V39.375Z" fill="#58D498"/>
<path d="M63 3.375H37.125C36.5283 3.375 35.956 3.61205 35.534 4.03401C35.112 4.45597 34.875 5.02827 34.875 5.625V13.5L27 21.375L34.875 20.25V23.625C34.875 24.2217 35.112 24.794 35.534 25.216C35.956 25.638 36.5283 25.875 37.125 25.875H63C63.5967 25.875 64.169 25.638 64.591 25.216C65.013 24.794 65.25 24.2217 65.25 23.625V5.625C65.25 5.02827 65.013 4.45597 64.591 4.03401C64.169 3.61205 63.5967 3.375 63 3.375Z" fill="#FFDC60"/>
<path d="M52.875 61.875C52.5767 61.875 52.2905 61.9936 52.0795 62.2045C51.8686 62.4155 51.75 62.7017 51.75 63V68.625C51.75 68.9233 51.8686 69.2095 52.0795 69.4205C52.2905 69.6314 52.5767 69.75 52.875 69.75C53.1733 69.75 53.4595 69.6314 53.6705 69.4205C53.8814 69.2095 54 68.9233 54 68.625V63C54 62.7017 53.8814 62.4155 53.6705 62.2045C53.4595 61.9936 53.1733 61.875 52.875 61.875Z" fill="#333333"/>
<path d="M64.125 61.875C63.8267 61.875 63.5405 61.9936 63.3295 62.2045C63.1186 62.4155 63 62.7017 63 63V68.625C63 68.9233 63.1186 69.2095 63.3295 69.4205C63.5405 69.6314 63.8267 69.75 64.125 69.75C64.4233 69.75 64.7095 69.6314 64.9205 69.4205C65.1314 69.2095 65.25 68.9233 65.25 68.625V63C65.25 62.7017 65.1314 62.4155 64.9205 62.2045C64.7095 61.9936 64.4233 61.875 64.125 61.875Z" fill="#333333"/>
<path d="M28.125 69.75C28.4233 69.75 28.7095 69.6314 28.9205 69.4205C29.1314 69.2095 29.25 68.9233 29.25 68.625V58.5C29.25 57.3065 29.7241 56.1619 30.5681 55.3181C31.4119 54.4741 32.5565 54 33.75 54H42.75C43.9435 54 45.0881 54.4741 45.9319 55.3181C46.7759 56.1619 47.25 57.3065 47.25 58.5V68.625C47.25 68.9233 47.3686 69.2095 47.5795 69.4205C47.7905 69.6314 48.0766 69.75 48.375 69.75C48.6734 69.75 48.9595 69.6314 49.1705 69.4205C49.3814 69.2095 49.5 68.9233 49.5 68.625V58.5C49.5005 57.8367 49.6489 57.1818 49.9349 56.5833C50.2209 55.9848 50.6369 55.4578 51.1526 55.0406C51.7969 56.8725 53.0184 58.4455 54.6334 59.5238L57.8756 61.686C58.0605 61.8093 58.2778 61.8751 58.5 61.8751C58.7222 61.8751 58.9395 61.8093 59.1244 61.686L62.3677 59.5238C63.988 58.4422 65.2121 56.8626 65.8552 55.0238C66.3704 55.4446 66.7853 55.9749 67.0698 56.5763C67.3543 57.1776 67.5014 57.8348 67.5 58.5V68.625C67.5 68.9233 67.6186 69.2095 67.8295 69.4205C68.0405 69.6314 68.3267 69.75 68.625 69.75C68.9233 69.75 69.2095 69.6314 69.4205 69.4205C69.6314 69.2095 69.75 68.9233 69.75 68.625V58.5C69.7506 57.3099 69.4349 56.141 68.835 55.1131C68.2353 54.0852 67.3731 53.2351 66.3367 52.65C66.3514 52.4464 66.375 52.2439 66.375 52.038V45C66.375 42.9114 65.5453 40.9084 64.0684 39.4316C62.5916 37.9547 60.5886 37.125 58.5 37.125C56.4114 37.125 54.4084 37.9547 52.9316 39.4316C51.4547 40.9084 50.625 42.9114 50.625 45V52.0358C50.625 52.2416 50.6486 52.4441 50.6632 52.6478C49.7442 53.1667 48.9603 53.8947 48.375 54.7729C47.7597 53.8438 46.9241 53.0817 45.9425 52.5542C44.9611 52.0268 43.8642 51.7505 42.75 51.75H42.7207C43.4653 50.7821 43.8708 49.5962 43.875 48.375V48.3457C44.8192 47.6399 45.5168 46.6543 45.8687 45.5292C46.2206 44.404 46.2088 43.1965 45.8351 42.0785C45.4614 40.9605 44.7446 39.9887 43.7868 39.3013C42.829 38.6141 41.6789 38.2462 40.5 38.25H31.5C31.2017 38.25 30.9155 38.3686 30.7045 38.5795C30.4936 38.7905 30.375 39.0766 30.375 39.375V43.875C30.3775 44.7436 30.5821 45.5998 30.9726 46.3758C31.3632 47.1517 31.9289 47.8261 32.625 48.3457V48.375C32.6292 49.5962 33.0347 50.7821 33.7792 51.75H33.75C31.9604 51.7518 30.2445 52.4635 28.979 53.729C27.7135 54.9945 27.0018 56.7104 27 58.5V65.2849C26.4193 64.4975 25.6439 63.8746 24.75 63.477V33.9975L27.1372 34.4745C28.6092 34.7669 30.1366 34.5623 31.4797 33.8929L37.2409 31.0129C37.682 30.7885 38.0616 30.4599 38.3467 30.0555C38.5938 29.7165 38.7698 29.3312 38.8643 28.9226C38.8643 28.9114 38.8643 28.899 38.8643 28.8877C38.9003 28.7223 38.9229 28.5541 38.9317 28.3849C38.9476 28.0137 38.8958 27.6428 38.7788 27.2902C38.7439 27.1879 38.6932 27.0968 38.6494 27H63C63.8951 27 64.7535 26.6444 65.3865 26.0115C66.0194 25.3785 66.375 24.5201 66.375 23.625V5.625C66.375 4.72989 66.0194 3.87145 65.3865 3.23852C64.7535 2.60558 63.8951 2.25 63 2.25H37.125C36.2299 2.25 35.3715 2.60558 34.7385 3.23852C34.1056 3.87145 33.75 4.72989 33.75 5.625V13.0343L26.2046 20.5796C26.0362 20.7463 25.9247 20.962 25.8861 21.1959C25.8475 21.4297 25.8838 21.6698 25.9896 21.8817C26.0955 22.0938 26.2657 22.2669 26.4757 22.3765C26.6859 22.4862 26.9253 22.5266 27.1597 22.4921L33.75 21.5471V23.625C33.7492 24.2952 33.949 24.9504 34.3237 25.506L32.8826 25.9177L32.7071 25.9673L29.3108 26.937L26.4566 25.7962C24.8678 25.1642 23.1799 24.8173 21.4706 24.7714C21.4391 24.7625 21.4073 24.7554 21.375 24.75H20.7675C21.8823 23.5162 22.4995 21.9128 22.5 20.25V14.625C22.4982 13.1337 21.905 11.7041 20.8505 10.6495C19.7959 9.59499 18.3663 9.00179 16.875 9H10.125C9.82663 9 9.54048 9.11853 9.3295 9.3295C9.11853 9.54048 9 9.82663 9 10.125V20.25C9.00045 21.9128 9.61778 23.5162 10.7325 24.75H10.125C8.03715 24.7524 6.0355 25.5828 4.55916 27.0592C3.08284 28.5355 2.25238 30.5371 2.25 32.625V46.125C2.25 47.0201 2.60558 47.8785 3.23852 48.5115C3.87145 49.1444 4.72989 49.5 5.625 49.5C6.00912 49.4963 6.38971 49.4262 6.75 49.293V63.477C5.74803 63.9143 4.8952 64.6341 4.29581 65.5484C3.69642 66.4626 3.37644 67.5317 3.375 68.625C3.375 68.9233 3.49353 69.2095 3.7045 69.4205C3.91548 69.6314 4.20163 69.75 4.5 69.75H13.5C13.7984 69.75 14.0845 69.6314 14.2955 69.4205C14.5064 69.2095 14.625 68.9233 14.625 68.625V64.2184L15.75 57.4684L16.875 64.2184V68.625C16.875 68.9233 16.9936 69.2095 17.2045 69.4205C17.4155 69.6314 17.7016 69.75 18 69.75H28.125ZM35.64 27.4691C35.8446 27.4227 36.0592 27.4509 36.2448 27.5487C36.4304 27.6464 36.5751 27.8073 36.6525 28.0024C36.7144 28.1906 36.7065 28.3947 36.6306 28.5776C36.5546 28.7605 36.4155 28.9101 36.2385 28.9991L35.0539 29.592L34.4587 27.8078L35.64 27.4691ZM30.1826 19.7843L35.6704 14.2954C35.8814 14.0844 35.9999 13.7984 36 13.5V5.625C36 5.32663 36.1186 5.04048 36.3295 4.8295C36.5405 4.61853 36.8266 4.5 37.125 4.5H63C63.2984 4.5 63.5845 4.61853 63.7955 4.8295C64.0064 5.04048 64.125 5.32663 64.125 5.625V23.625C64.125 23.9233 64.0064 24.2095 63.7955 24.4205C63.5845 24.6314 63.2984 24.75 63 24.75H37.125C36.8266 24.75 36.5405 24.6314 36.3295 24.4205C36.1186 24.2095 36 23.9233 36 23.625V20.25C36 19.9517 35.8814 19.6655 35.6705 19.4545C35.4595 19.2436 35.1734 19.125 34.875 19.125C34.8216 19.1249 34.7681 19.1286 34.7152 19.1362L30.1826 19.7843ZM28.8326 29.1701C29.0641 29.2623 29.3199 29.275 29.5594 29.2061L32.2897 28.4265L33.0165 30.609L30.4729 31.8802C29.5774 32.326 28.5595 32.4626 27.5783 32.2684L23.85 31.5225C23.6865 31.4891 23.5177 31.4926 23.3557 31.5325C23.1937 31.5725 23.0426 31.6479 22.9134 31.7535C22.7842 31.859 22.68 31.992 22.6086 32.1426C22.537 32.2934 22.5 32.4582 22.5 32.625V42.75H16.875V32.1952L19.7471 33.6375C19.9045 33.7161 20.0782 33.7566 20.2542 33.756C20.4301 33.7553 20.6035 33.7132 20.7603 33.6333C20.917 33.5535 21.0529 33.4379 21.157 33.2961C21.2609 33.1542 21.3302 32.9898 21.3592 32.8162L22.3155 27.0788C23.4496 27.1955 24.562 27.4692 25.6208 27.8921L28.8326 29.1701ZM11.8125 27L14.0411 29.9722L12.1095 30.9375L11.4536 27H11.8125ZM11.25 15.75H20.25V20.25C20.25 21.4435 19.7759 22.5881 18.9319 23.4319C18.0881 24.2759 16.9435 24.75 15.75 24.75C14.5565 24.75 13.4119 24.2759 12.5681 23.4319C11.7241 22.5881 11.25 21.4435 11.25 20.25V15.75ZM19.6875 27H20.0464L19.3905 30.9375L17.4589 29.9722L19.6875 27ZM15.75 27C16.1565 26.9992 16.562 26.9615 16.9616 26.8875L15.75 28.4996L14.5384 26.8875C14.938 26.9615 15.3435 26.9992 15.75 27ZM11.25 11.25H16.875C17.5728 11.2509 18.2532 11.4676 18.823 11.8703C19.3929 12.2732 19.8241 12.8424 20.0576 13.5H11.25V11.25ZM9.18787 27.0945L10.1407 32.8106C10.1697 32.9842 10.239 33.1486 10.343 33.2904C10.4471 33.4323 10.5829 33.5478 10.7397 33.6277C10.8965 33.7076 11.0699 33.7497 11.2458 33.7503C11.4218 33.751 11.5955 33.7105 11.7529 33.6319L14.625 32.1952V42.75H9V34.875C9 34.5766 8.88147 34.2905 8.6705 34.0795C8.45952 33.8686 8.17337 33.75 7.875 33.75C7.57663 33.75 7.29048 33.8686 7.0795 34.0795C6.86853 34.2905 6.75 34.5766 6.75 34.875V42.75H4.5V32.625C4.50375 31.2984 4.97627 30.0158 5.83408 29.0037C6.69188 27.9918 7.87977 27.3156 9.18787 27.0945ZM5.625 47.25C5.32663 47.25 5.04048 47.1314 4.8295 46.9205C4.61853 46.7095 4.5 46.4234 4.5 46.125V45H6.75V46.125C6.75 46.4234 6.63147 46.7095 6.4205 46.9205C6.20952 47.1314 5.92337 47.25 5.625 47.25ZM12.375 67.5H5.81737C6.0509 66.8424 6.48214 66.2732 7.05194 65.8703C7.62173 65.4676 8.3022 65.2509 9 65.25H12.375V67.5ZM15.75 49.5C15.4838 49.5001 15.2264 49.5945 15.0233 49.7665C14.8202 49.9385 14.6846 50.1769 14.6407 50.4394L12.5471 63H9V45H22.5V63H18.9529L16.8593 50.4394C16.8154 50.1769 16.6798 49.9385 16.4767 49.7665C16.2736 49.5945 16.0162 49.5001 15.75 49.5ZM19.125 67.5V65.25H22.5C23.1978 65.2509 23.8782 65.4676 24.448 65.8703C25.0179 66.2732 25.4491 66.8424 25.6826 67.5H19.125ZM32.625 40.5H40.5C41.3951 40.5 42.2535 40.8556 42.8865 41.4885C43.5194 42.1215 43.875 42.9799 43.875 43.875C43.875 44.7701 43.5194 45.6285 42.8865 46.2615C42.2535 46.8944 41.3951 47.25 40.5 47.25H36C35.1049 47.25 34.2465 46.8944 33.6135 46.2615C32.9806 45.6285 32.625 44.7701 32.625 43.875V40.5ZM35.0527 49.4044C35.3652 49.4631 35.6821 49.495 36 49.5H40.5C40.8179 49.495 41.1348 49.4631 41.4473 49.4044C41.2334 50.0849 40.808 50.6795 40.233 51.1014C39.6579 51.5235 38.9632 51.7511 38.25 51.7511C37.5368 51.7511 36.8421 51.5235 36.267 51.1014C35.692 50.6795 35.2666 50.0849 35.0527 49.4044ZM64.125 52.0358C64.126 53.1471 63.8521 54.2415 63.3276 55.2214C62.8031 56.2013 62.0444 57.0361 61.119 57.6517L58.5 59.4L55.881 57.654C54.9554 57.0383 54.1964 56.203 53.6718 55.2226C53.1474 54.2424 52.8736 53.1476 52.875 52.0358V45C52.875 43.5081 53.4677 42.0774 54.5226 41.0226C55.5774 39.9677 57.0081 39.375 58.5 39.375C59.9919 39.375 61.4226 39.9677 62.4774 41.0226C63.5323 42.0774 64.125 43.5081 64.125 45V52.0358Z" fill="#333333"/>
<path d="M32.625 61.875C32.3267 61.875 32.0405 61.9936 31.8295 62.2045C31.6186 62.4155 31.5 62.7017 31.5 63V68.625C31.5 68.9233 31.6186 69.2095 31.8295 69.4205C32.0405 69.6314 32.3267 69.75 32.625 69.75C32.9233 69.75 33.2095 69.6314 33.4205 69.4205C33.6314 69.2095 33.75 68.9233 33.75 68.625V63C33.75 62.7017 33.6314 62.4155 33.4205 62.2045C33.2095 61.9936 32.9233 61.875 32.625 61.875Z" fill="#333333"/>
<path d="M43.875 61.875C43.5767 61.875 43.2905 61.9936 43.0795 62.2045C42.8686 62.4155 42.75 62.7017 42.75 63V68.625C42.75 68.9233 42.8686 69.2095 43.0795 69.4205C43.2905 69.6314 43.5767 69.75 43.875 69.75C44.1733 69.75 44.4595 69.6314 44.6705 69.4205C44.8814 69.2095 45 68.9233 45 68.625V63C45 62.7017 44.8814 62.4155 44.6705 62.2045C44.4595 61.9936 44.1733 61.875 43.875 61.875Z" fill="#333333"/>
<path d="M45 9H60.75C61.0483 9 61.3345 8.88147 61.5455 8.6705C61.7564 8.45952 61.875 8.17337 61.875 7.875C61.875 7.57663 61.7564 7.29048 61.5455 7.0795C61.3345 6.86853 61.0483 6.75 60.75 6.75H45C44.7017 6.75 44.4155 6.86853 44.2045 7.0795C43.9936 7.29048 43.875 7.57663 43.875 7.875C43.875 8.17337 43.9936 8.45952 44.2045 8.6705C44.4155 8.88147 44.7017 9 45 9Z" fill="#333333"/>
<path d="M40.5 13.5H56.25C56.5483 13.5 56.8345 13.3814 57.0455 13.1705C57.2564 12.9595 57.375 12.6733 57.375 12.375C57.375 12.0767 57.2564 11.7905 57.0455 11.5795C56.8345 11.3686 56.5483 11.25 56.25 11.25H40.5C40.2017 11.25 39.9155 11.3686 39.7045 11.5795C39.4936 11.7905 39.375 12.0767 39.375 12.375C39.375 12.6733 39.4936 12.9595 39.7045 13.1705C39.9155 13.3814 40.2017 13.5 40.5 13.5Z" fill="#333333"/>
<path d="M59.625 15.75H43.875C43.5767 15.75 43.2905 15.8686 43.0795 16.0795C42.8686 16.2905 42.75 16.5767 42.75 16.875C42.75 17.1733 42.8686 17.4595 43.0795 17.6705C43.2905 17.8814 43.5767 18 43.875 18H59.625C59.9233 18 60.2095 17.8814 60.4205 17.6705C60.6314 17.4595 60.75 17.1733 60.75 16.875C60.75 16.5767 60.6314 16.2905 60.4205 16.0795C60.2095 15.8686 59.9233 15.75 59.625 15.75Z" fill="#333333"/>
<path d="M40.5 22.5H57.375C57.6733 22.5 57.9595 22.3814 58.1705 22.1705C58.3814 21.9595 58.5 21.6733 58.5 21.375C58.5 21.0767 58.3814 20.7905 58.1705 20.5795C57.9595 20.3686 57.6733 20.25 57.375 20.25H40.5C40.2017 20.25 39.9155 20.3686 39.7045 20.5795C39.4936 20.7905 39.375 21.0767 39.375 21.375C39.375 21.6733 39.4936 21.9595 39.7045 22.1705C39.9155 22.3814 40.2017 22.5 40.5 22.5Z" fill="#333333"/>
</svg>
