<svg width="148" height="79" viewBox="0 0 148 79" fill="none" xmlns="http://www.w3.org/2000/svg">
<path d="M0 0H7.75371V9.8421H0V0Z" fill="#58D498"/>
<path d="M27.9139 0H35.6676V9.8421H27.9139V0Z" fill="#58D498"/>
<path d="M55.8261 0H63.5798V9.8421H55.8261V0Z" fill="#58D498"/>
<path d="M83.7398 0H91.4935V9.8421H83.7398V0Z" fill="#58D498"/>
<path d="M111.654 0H119.407V9.8421H111.654V0Z" fill="#58D498"/>
<path d="M139.568 0H147.321V9.8421H139.568V0Z" fill="#58D498"/>
<path d="M55.8261 0H63.5798V9.8421H55.8261V0Z" fill="#58D498"/>
<path d="M0 31.4951H7.75371V41.3372H0V31.4951Z" fill="#58D498"/>
<path d="M27.9139 31.4946H35.6676V41.3367H27.9139V31.4946Z" fill="#58D498"/>
<path d="M55.8261 31.4946H63.5798V41.3367H55.8261V31.4946Z" fill="#58D498"/>
<path d="M83.7398 31.4946H91.4935V41.3367H83.7398V31.4946Z" fill="#58D498"/>
<path d="M111.654 31.4946H119.407V41.3367H111.654V31.4946Z" fill="#58D498"/>
<path d="M139.568 31.4946H147.321V41.3367H139.568V31.4946Z" fill="#58D498"/>
<path d="M55.8261 31.4946H63.5798V41.3367H55.8261V31.4946Z" fill="#58D498"/>
<path d="M0 68.8949H7.75371V78.737H0V68.8949Z" fill="#58D498"/>
<path d="M27.9139 68.895H35.6676V78.7371H27.9139V68.895Z" fill="#58D498"/>
<path d="M55.8261 68.8951H63.5798V78.7372H55.8261V68.8951Z" fill="#58D498"/>
<path d="M83.7398 68.895H91.4935V78.7371H83.7398V68.895Z" fill="#58D498"/>
<path d="M111.654 68.895H119.407V78.7371H111.654V68.895Z" fill="#58D498"/>
<path d="M139.568 68.895H147.321V78.7371H139.568V68.895Z" fill="#58D498"/>
<path d="M55.8261 68.8951H63.5798V78.7372H55.8261V68.8951Z" fill="#58D498"/>
</svg>
