<svg width="198" height="47" viewBox="0 0 198 47" fill="none" xmlns="http://www.w3.org/2000/svg">
<path d="M127.125 43.2189C126 43.2189 125.25 42.4689 125.25 41.3439V16.9689C125.25 15.8439 126 15.0939 127.125 15.0939C128.25 15.0939 129 15.8439 129 16.9689V41.3439C129 42.4689 128.25 43.2189 127.125 43.2189Z" fill="#FFDC60"/>
<path d="M99 33.8438C98.625 33.8438 98.4375 33.8438 98.0625 33.6562L69.9375 18.6562C69.375 18.2812 69 17.7188 69 16.9688C69 16.2188 69.375 15.6563 69.9375 15.2813L98.0625 0.28125C98.625 -0.09375 99.1875 -0.09375 99.75 0.28125L127.875 15.2813C128.438 15.6563 128.812 16.2188 128.812 16.9688C128.812 17.7188 128.438 18.2812 127.875 18.6562L99.75 33.6562C99.5625 33.8438 99.375 33.8438 99 33.8438Z" fill="#FFDC60"/>
<path d="M101.625 36.8439C100.875 37.4064 99.9375 37.5939 99 37.5939C98.0625 37.5939 97.125 37.4064 96.375 36.8439L80.25 28.4064V35.7189C80.25 41.5314 89.4375 46.9689 99 46.9689C108.562 46.9689 117.75 41.5314 117.75 35.7189V28.4064L101.625 36.8439Z" fill="#FFDC60"/>
<line x1="149" y1="20.5" x2="198" y2="20.5" stroke="#333333" stroke-width="5"/>
<line y1="20.5" x2="49" y2="20.5" stroke="#333333" stroke-width="5"/>
</svg>
