<svg width="50" height="50" viewBox="0 0 50 50" fill="none" xmlns="http://www.w3.org/2000/svg">
<rect x="1" y="1" width="48" height="48" rx="14" stroke="#58D498" stroke-width="2"/>
<path d="M29.7753 14.9746H19.9069C17.1818 14.9746 14.9727 17.1837 14.9727 19.9088V29.7772C14.9727 32.5023 17.1818 34.7115 19.9069 34.7115H29.7753C32.5004 34.7115 34.7095 32.5023 34.7095 29.7772V19.9088C34.7095 17.1837 32.5004 14.9746 29.7753 14.9746Z" fill="white" stroke="#58D498" stroke-width="1.97368" stroke-linecap="round" stroke-linejoin="round"/>
<path d="M28.7895 24.2199C28.9113 25.0412 28.771 25.88 28.3886 26.617C28.0062 27.3539 27.4012 27.9516 26.6596 28.3249C25.9179 28.6981 25.0775 28.8281 24.2578 28.6962C23.438 28.5643 22.6808 28.1772 22.0937 27.5901C21.5066 27.0031 21.1195 26.2458 20.9876 25.4261C20.8557 24.6063 20.9857 23.7659 21.3589 23.0242C21.7322 22.2826 22.3299 21.6776 23.0668 21.2952C23.8038 20.9128 24.6426 20.7725 25.4639 20.8943C26.3016 21.0185 27.0772 21.4089 27.6761 22.0077C28.2749 22.6066 28.6653 23.3822 28.7895 24.2199Z" stroke="#58D498" stroke-width="1.97368" stroke-linecap="round" stroke-linejoin="round"/>
<path d="M30.2686 19.4141H30.2805" stroke="#58D498" stroke-width="1.97368" stroke-linecap="round" stroke-linejoin="round"/>
</svg>
