<svg width="50" height="50" viewBox="0 0 50 50" fill="none" xmlns="http://www.w3.org/2000/svg">
<rect x="1" y="1" width="48" height="48" rx="14" stroke="#58D498" stroke-width="2"/>
<path d="M29.5436 21.2334C31.1966 21.2334 32.7819 21.89 33.9508 23.0589C35.1196 24.2277 35.7762 25.813 35.7762 27.466V34.7374H31.6212V27.466C31.6212 26.915 31.4023 26.3866 31.0127 25.997C30.6231 25.6073 30.0946 25.3885 29.5436 25.3885C28.9926 25.3885 28.4642 25.6073 28.0746 25.997C27.685 26.3866 27.4661 26.915 27.4661 27.466V34.7374H23.311V27.466C23.311 25.813 23.9677 24.2277 25.1365 23.0589C26.3054 21.89 27.8906 21.2334 29.5436 21.2334Z" fill="#58D498"/>
<path d="M19.1551 22.2715H15V34.7367H19.1551V22.2715Z" fill="#58D498"/>
<path d="M17.0775 19.1551C18.2249 19.1551 19.1551 18.2249 19.1551 17.0775C19.1551 15.9301 18.2249 15 17.0775 15C15.9301 15 15 15.9301 15 17.0775C15 18.2249 15.9301 19.1551 17.0775 19.1551Z" fill="#58D498"/>
</svg>
