<svg width="209" height="54" viewBox="0 0 209 54" fill="none" xmlns="http://www.w3.org/2000/svg">
<rect width="54" height="54" rx="9" fill="#FFDC60"/>
<path d="M74.78 33.77L78.65 33.08C78.69 33.64 78.9 34.12 79.28 34.52C79.68 34.9 80.25 35.09 80.99 35.09C81.55 35.09 81.98 34.97 82.28 34.73C82.58 34.47 82.73 34.16 82.73 33.8C82.73 33.2 82.24 32.79 81.26 32.57L79.55 32.18C78.03 31.86 76.91 31.3 76.19 30.5C75.47 29.68 75.11 28.71 75.11 27.59C75.11 26.21 75.65 25.04 76.73 24.08C77.83 23.12 79.2 22.64 80.84 22.64C82.78 22.64 84.23 23.11 85.19 24.05C86.17 24.97 86.71 25.98 86.81 27.08L83.03 27.77C82.97 27.23 82.76 26.79 82.4 26.45C82.06 26.11 81.56 25.94 80.9 25.94C80.46 25.94 80.08 26.06 79.76 26.3C79.44 26.54 79.28 26.85 79.28 27.23C79.28 27.83 79.67 28.2 80.45 28.34L82.43 28.73C83.93 29.03 85.07 29.6 85.85 30.44C86.63 31.28 87.02 32.27 87.02 33.41C87.02 34.79 86.5 35.98 85.46 36.98C84.42 37.96 82.96 38.45 81.08 38.45C79.98 38.45 79 38.29 78.14 37.97C77.3 37.65 76.65 37.24 76.19 36.74C75.75 36.22 75.41 35.71 75.17 35.21C74.95 34.71 74.82 34.23 74.78 33.77ZM89.0553 33.89C89.0553 32.63 89.4653 31.62 90.2853 30.86C91.1053 30.08 92.1653 29.59 93.4653 29.39L96.9753 28.85C97.6953 28.75 98.0553 28.41 98.0553 27.83C98.0553 27.37 97.8553 26.99 97.4553 26.69C97.0753 26.37 96.5453 26.21 95.8653 26.21C95.1053 26.21 94.4953 26.43 94.0353 26.87C93.5953 27.29 93.3553 27.8 93.3153 28.4L89.3553 27.59C89.4553 26.35 90.0653 25.22 91.1853 24.2C92.3253 23.16 93.8953 22.64 95.8953 22.64C98.1553 22.64 99.8153 23.18 100.875 24.26C101.955 25.34 102.495 26.72 102.495 28.4V35.69C102.495 36.63 102.555 37.4 102.675 38H98.5653C98.4653 37.6 98.4153 37.04 98.4153 36.32C97.5553 37.72 96.1553 38.42 94.2153 38.42C92.6353 38.42 91.3753 37.98 90.4353 37.1C89.5153 36.2 89.0553 35.13 89.0553 33.89ZM95.3253 35.12C96.1053 35.12 96.7553 34.89 97.2753 34.43C97.7953 33.97 98.0553 33.21 98.0553 32.15V31.49L95.2353 31.94C94.1153 32.12 93.5553 32.67 93.5553 33.59C93.5553 34.01 93.6953 34.37 93.9753 34.67C94.2753 34.97 94.7253 35.12 95.3253 35.12ZM105.194 38.84L109.214 37.7C109.374 38.44 109.734 39.04 110.294 39.5C110.874 39.96 111.584 40.19 112.424 40.19C114.884 40.19 116.114 38.92 116.114 36.38V35.69C115.374 36.81 114.044 37.37 112.124 37.37C110.144 37.37 108.494 36.68 107.174 35.3C105.854 33.92 105.194 32.19 105.194 30.11C105.194 28.11 105.844 26.4 107.144 24.98C108.464 23.54 110.124 22.82 112.124 22.82C113.224 22.82 114.124 23.01 114.824 23.39C115.524 23.77 116.004 24.2 116.264 24.68V23.09H120.614V36.14C120.614 38.46 119.944 40.37 118.604 41.87C117.264 43.39 115.274 44.15 112.634 44.15C110.594 44.15 108.894 43.62 107.534 42.56C106.194 41.52 105.414 40.28 105.194 38.84ZM110.654 32.51C111.254 33.11 112.024 33.41 112.964 33.41C113.904 33.41 114.664 33.11 115.244 32.51C115.844 31.91 116.144 31.11 116.144 30.11C116.144 29.13 115.834 28.34 115.214 27.74C114.594 27.12 113.844 26.81 112.964 26.81C112.084 26.81 111.324 27.12 110.684 27.74C110.064 28.34 109.754 29.13 109.754 30.11C109.754 31.11 110.054 31.91 110.654 32.51ZM127.917 28.76H133.887C133.847 28.08 133.577 27.49 133.077 26.99C132.597 26.49 131.867 26.24 130.887 26.24C130.007 26.24 129.307 26.5 128.787 27.02C128.267 27.54 127.977 28.12 127.917 28.76ZM134.217 32.63L138.027 33.71C137.647 35.09 136.857 36.23 135.657 37.13C134.457 38.01 132.957 38.45 131.157 38.45C128.997 38.45 127.157 37.73 125.637 36.29C124.137 34.85 123.387 32.92 123.387 30.5C123.387 28.18 124.117 26.29 125.577 24.83C127.057 23.37 128.807 22.64 130.827 22.64C133.147 22.64 134.967 23.32 136.287 24.68C137.627 26.02 138.297 27.89 138.297 30.29C138.297 31.05 138.267 31.52 138.207 31.7H127.827C127.867 32.52 128.217 33.21 128.877 33.77C129.537 34.31 130.317 34.58 131.217 34.58C132.757 34.58 133.757 33.93 134.217 32.63ZM155.895 16.28V35.33C155.895 36.23 155.935 37.12 156.015 38H151.635C151.555 37.52 151.515 37.04 151.515 36.56C151.155 37.08 150.615 37.51 149.895 37.85C149.195 38.17 148.405 38.33 147.525 38.33C145.405 38.33 143.645 37.6 142.245 36.14C140.845 34.66 140.145 32.78 140.145 30.5C140.145 28.26 140.825 26.41 142.185 24.95C143.545 23.47 145.275 22.73 147.375 22.73C149.415 22.73 150.755 23.24 151.395 24.26V16.28H155.895ZM145.695 27.8C145.055 28.44 144.735 29.35 144.735 30.53C144.735 31.71 145.055 32.63 145.695 33.29C146.355 33.93 147.155 34.25 148.095 34.25C149.035 34.25 149.825 33.93 150.465 33.29C151.125 32.63 151.455 31.71 151.455 30.53C151.455 29.35 151.125 28.44 150.465 27.8C149.825 27.16 149.035 26.84 148.095 26.84C147.155 26.84 146.355 27.16 145.695 27.8ZM163.454 28.76H169.424C169.384 28.08 169.114 27.49 168.614 26.99C168.134 26.49 167.404 26.24 166.424 26.24C165.544 26.24 164.844 26.5 164.324 27.02C163.804 27.54 163.514 28.12 163.454 28.76ZM169.754 32.63L173.564 33.71C173.184 35.09 172.394 36.23 171.194 37.13C169.994 38.01 168.494 38.45 166.694 38.45C164.534 38.45 162.694 37.73 161.174 36.29C159.674 34.85 158.924 32.92 158.924 30.5C158.924 28.18 159.654 26.29 161.114 24.83C162.594 23.37 164.344 22.64 166.364 22.64C168.684 22.64 170.504 23.32 171.824 24.68C173.164 26.02 173.834 27.89 173.834 30.29C173.834 31.05 173.804 31.52 173.744 31.7H163.364C163.404 32.52 163.754 33.21 164.414 33.77C165.074 34.31 165.854 34.58 166.754 34.58C168.294 34.58 169.294 33.93 169.754 32.63ZM175.862 33.89C175.862 32.63 176.272 31.62 177.092 30.86C177.912 30.08 178.972 29.59 180.272 29.39L183.782 28.85C184.502 28.75 184.862 28.41 184.862 27.83C184.862 27.37 184.662 26.99 184.262 26.69C183.882 26.37 183.352 26.21 182.672 26.21C181.912 26.21 181.302 26.43 180.842 26.87C180.402 27.29 180.162 27.8 180.122 28.4L176.162 27.59C176.262 26.35 176.872 25.22 177.992 24.2C179.132 23.16 180.702 22.64 182.702 22.64C184.962 22.64 186.622 23.18 187.682 24.26C188.762 25.34 189.302 26.72 189.302 28.4V35.69C189.302 36.63 189.362 37.4 189.482 38H185.372C185.272 37.6 185.222 37.04 185.222 36.32C184.362 37.72 182.962 38.42 181.022 38.42C179.442 38.42 178.182 37.98 177.242 37.1C176.322 36.2 175.862 35.13 175.862 33.89ZM182.132 35.12C182.912 35.12 183.562 34.89 184.082 34.43C184.602 33.97 184.862 33.21 184.862 32.15V31.49L182.042 31.94C180.922 32.12 180.362 32.67 180.362 33.59C180.362 34.01 180.502 34.37 180.782 34.67C181.082 34.97 181.532 35.12 182.132 35.12ZM197.699 29.45V38H193.139V23.09H197.549V24.8C197.929 24.14 198.509 23.63 199.289 23.27C200.089 22.89 200.899 22.7 201.719 22.7C203.499 22.7 204.849 23.26 205.769 24.38C206.689 25.48 207.149 26.9 207.149 28.64V38H202.589V29.42C202.589 28.64 202.379 28.02 201.959 27.56C201.559 27.08 200.959 26.84 200.159 26.84C199.419 26.84 198.819 27.09 198.359 27.59C197.919 28.07 197.699 28.69 197.699 29.45Z" fill="#10098F" fill-opacity="0.98"/>
</svg>
