<svg width="129" height="43" viewBox="0 0 129 43" fill="none" xmlns="http://www.w3.org/2000/svg">
<path d="M125.069 25.8169L128.627 28.1889C127.472 29.8899 124.71 32.8081 119.935 32.8081C114.005 32.8081 109.589 28.2201 109.589 22.3838C109.589 16.1729 114.052 11.9595 119.436 11.9595C124.851 11.9595 127.504 16.2665 128.362 18.5917L128.83 19.7777L114.879 25.5516C115.94 27.6427 117.594 28.7039 119.935 28.7039C122.276 28.7039 123.899 27.5491 125.069 25.8169ZM114.13 22.0561L123.446 18.186C122.931 16.8907 121.402 15.97 119.576 15.97C117.251 15.97 114.021 18.0299 114.13 22.0561Z" fill="#FF302F"/>
<path d="M102.864 1.33252H107.359V31.8564H102.864V1.33252Z" fill="#20B15A"/>
<path d="M95.779 12.7712H100.117V31.3102C100.117 39.0036 95.5762 42.1715 90.208 42.1715C85.1519 42.1715 82.1088 38.7695 80.9697 36.0074L84.949 34.3532C85.6668 36.0542 87.399 38.0673 90.208 38.0673C93.6567 38.0673 95.779 35.9294 95.779 31.9344V30.4363H95.623C94.593 31.6847 92.6268 32.8083 90.1299 32.8083C84.9178 32.8083 80.1426 28.2672 80.1426 22.4152C80.1426 16.532 84.9178 11.9441 90.1299 11.9441C92.6112 11.9441 94.593 13.0521 95.623 14.2693H95.779V12.7712ZM96.0911 22.4152C96.0911 18.7324 93.6411 16.0483 90.5201 16.0483C87.3678 16.0483 84.7149 18.7324 84.7149 22.4152C84.7149 26.0512 87.3678 28.6885 90.5201 28.6885C93.6411 28.7041 96.0911 26.0512 96.0911 22.4152Z" fill="#3686F7"/>
<path d="M55.4697 22.3371C55.4697 28.3451 50.7881 32.7614 45.0454 32.7614C39.3027 32.7614 34.6211 28.3295 34.6211 22.3371C34.6211 16.2979 39.3027 11.8972 45.0454 11.8972C50.7881 11.8972 55.4697 16.2979 55.4697 22.3371ZM50.913 22.3371C50.913 18.5919 48.1977 16.017 45.0454 16.017C41.8931 16.017 39.1778 18.5919 39.1778 22.3371C39.1778 26.0512 41.8931 28.6573 45.0454 28.6573C48.1977 28.6573 50.913 26.0512 50.913 22.3371Z" fill="#FF302F"/>
<path d="M78.2383 22.384C78.2383 28.392 73.5567 32.8083 67.814 32.8083C62.0712 32.8083 57.3896 28.392 57.3896 22.384C57.3896 16.3448 62.0712 11.9597 67.814 11.9597C73.5567 11.9597 78.2383 16.3292 78.2383 22.384ZM73.6659 22.384C73.6659 18.6388 70.9506 16.0639 67.7983 16.0639C64.6461 16.0639 61.9308 18.6388 61.9308 22.384C61.9308 26.0981 64.6461 28.7041 67.7983 28.7041C70.9662 28.7041 73.6659 26.0825 73.6659 22.384Z" fill="#FFBA40"/>
<path d="M17.4869 28.236C10.9483 28.236 5.82981 22.9614 5.82981 16.4228C5.82981 9.88418 10.9483 4.60961 17.4869 4.60961C21.0137 4.60961 23.5886 5.99847 25.4924 7.77747L28.6291 4.64082C25.9762 2.09716 22.4338 0.162109 17.4869 0.162109C8.52952 0.162109 0.992188 7.46537 0.992188 16.4228C0.992188 25.3802 8.52952 32.6834 17.4869 32.6834C22.3246 32.6834 25.9762 31.0917 28.8319 28.1267C31.7657 25.1929 32.6708 21.0731 32.6708 17.7336C32.6708 16.6881 32.546 15.6113 32.4056 14.8154H17.4869V19.1537H28.1141C27.802 21.869 26.9437 23.726 25.6797 24.9901C24.1504 26.535 21.7316 28.236 17.4869 28.236Z" fill="#3686F7"/>
</svg>
