<svg width="185" height="41" viewBox="0 0 185 41" fill="none" xmlns="http://www.w3.org/2000/svg">
<path d="M65.3703 23.5998L64.2737 26.7031H64.1824C63.9996 26.0033 63.6646 24.9385 63.1163 23.6607L57.2377 8.9049H51.481V32.4229H55.2884V17.9105C55.2884 16.9978 55.2884 15.9633 55.2579 14.6855C55.2274 14.0466 55.1665 13.5598 55.1361 13.1947H55.2274C55.4102 14.1074 55.6234 14.7768 55.7757 15.2027L62.8422 32.362H65.5226L72.5281 15.0506C72.6804 14.6551 72.8327 13.8641 72.985 13.1947H73.0764C72.985 14.9289 72.9241 16.4805 72.8936 17.4237V32.3316H76.9446V8.84405H71.4011L65.3703 23.5998ZM80.7825 15.4765H84.7421V32.3316H80.7825V15.4765ZM82.7928 8.35726C82.1227 8.35726 81.5744 8.60065 81.1175 9.02659C80.6606 9.45253 80.417 10.0002 80.417 10.6695C80.417 11.3084 80.6606 11.8561 81.1175 12.282C81.5744 12.7079 82.1227 12.9209 82.7928 12.9209C83.4628 12.9209 84.0416 12.6775 84.468 12.282C84.9249 11.8561 85.1686 11.3084 85.1686 10.6695C85.1686 10.0306 84.9249 9.48296 84.468 9.02659C84.072 8.60065 83.4933 8.35726 82.7928 8.35726ZM98.7837 15.3244C98.0527 15.1723 97.2912 15.081 96.5602 15.081C94.7631 15.081 93.1183 15.4765 91.7477 16.2676C90.377 17.0586 89.2805 18.1539 88.5799 19.523C87.8489 20.9225 87.4834 22.535 87.4834 24.3909C87.4834 26.0033 87.8489 27.4333 88.5495 28.7415C89.25 30.0193 90.2247 31.0538 91.5345 31.7535C92.7833 32.4533 94.2453 32.8184 95.8901 32.8184C97.7785 32.8184 99.3929 32.4229 100.672 31.6927L100.703 31.6623V28.0113L100.55 28.133C99.9716 28.559 99.3015 28.9241 98.6314 29.137C97.9308 29.3804 97.2912 29.5021 96.7429 29.5021C95.1591 29.5021 93.9103 29.0458 93.027 28.0418C92.1132 27.0682 91.6563 25.7295 91.6563 24.0562C91.6563 22.322 92.1132 20.9529 93.0574 19.9489C94.0016 18.9449 95.2504 18.4277 96.7734 18.4277C98.0527 18.4277 99.3624 18.8536 100.55 19.7055L100.703 19.8272V15.9633L100.672 15.9329C100.154 15.7199 99.5756 15.4765 98.7837 15.3244ZM111.851 15.2027C110.876 15.2027 109.962 15.507 109.17 16.1459C108.5 16.6935 108.043 17.4845 107.647 18.4277H107.617V15.4765H103.657V32.3316H107.617V23.7215C107.617 22.2612 107.921 21.0442 108.591 20.1619C109.262 19.2492 110.114 18.7928 111.15 18.7928C111.516 18.7928 111.881 18.8841 112.338 18.9449C112.764 19.0666 113.069 19.1883 113.282 19.3404L113.434 19.4621V15.507L113.343 15.4765C113.069 15.294 112.521 15.2027 111.851 15.2027ZM122.633 15.1114C119.861 15.1114 117.638 15.9329 116.084 17.5454C114.5 19.1579 113.739 21.3788 113.739 24.1779C113.739 26.7944 114.531 28.9241 116.054 30.4757C117.577 31.9969 119.648 32.788 122.237 32.788C124.948 32.788 127.11 31.9665 128.664 30.3236C130.248 28.6807 131.009 26.4901 131.009 23.7824C131.009 21.105 130.278 18.9753 128.786 17.4237C127.354 15.8721 125.252 15.1114 122.633 15.1114ZM125.801 28.0722C125.07 29.0153 123.912 29.4717 122.481 29.4717C121.049 29.4717 119.892 29.0153 119.069 28.0113C118.247 27.0682 117.851 25.6991 117.851 23.9649C117.851 22.1699 118.277 20.8008 119.069 19.8272C119.892 18.8536 121.019 18.3668 122.45 18.3668C123.851 18.3668 124.948 18.8232 125.74 19.7664C126.532 20.7095 126.958 22.0786 126.958 23.8736C126.897 25.6991 126.562 27.129 125.801 28.0722ZM139.842 22.4741C138.593 21.9569 137.802 21.5614 137.436 21.2267C137.131 20.9225 136.979 20.4965 136.979 19.9489C136.979 19.4925 137.162 19.0362 137.619 18.7319C138.076 18.4277 138.593 18.2756 139.355 18.2756C140.025 18.2756 140.726 18.3973 141.396 18.5798C142.066 18.7624 142.675 19.0362 143.162 19.4013L143.315 19.523V15.8112L143.223 15.7808C142.766 15.5982 142.157 15.4157 141.426 15.2636C140.695 15.1419 140.025 15.081 139.477 15.081C137.588 15.081 136.035 15.5374 134.817 16.5414C133.598 17.4845 133.02 18.7624 133.02 20.2532C133.02 21.0442 133.141 21.7439 133.415 22.322C133.69 22.9001 134.086 23.4477 134.634 23.9041C135.182 24.33 135.974 24.8168 137.071 25.2732C137.984 25.6687 138.685 25.9729 139.111 26.2163C139.538 26.4597 139.812 26.7335 140.025 26.9465C140.177 27.1899 140.269 27.4941 140.269 27.8896C140.269 29.0153 139.416 29.563 137.68 29.563C137.01 29.563 136.309 29.4413 135.487 29.1675C134.664 28.8936 133.903 28.4981 133.263 28.0418L133.111 27.9201V31.784L133.202 31.8144C133.781 32.0882 134.482 32.2707 135.334 32.4837C136.187 32.6358 136.949 32.7575 137.619 32.7575C139.66 32.7575 141.335 32.3012 142.523 31.2972C143.741 30.3236 144.381 29.0762 144.381 27.4637C144.381 26.338 144.076 25.334 143.406 24.5734C142.523 23.8432 141.426 23.0826 139.842 22.4741ZM154.828 15.1114C152.056 15.1114 149.833 15.9329 148.279 17.5454C146.726 19.1579 145.934 21.3788 145.934 24.1779C145.934 26.7944 146.726 28.9241 148.249 30.4757C149.772 31.9969 151.843 32.788 154.432 32.788C157.143 32.788 159.306 31.9665 160.859 30.3236C162.443 28.6807 163.204 26.4901 163.204 23.7824C163.204 21.105 162.473 18.9753 160.981 17.4237C159.549 15.8721 157.448 15.1114 154.828 15.1114ZM157.965 28.0722C157.234 29.0153 156.077 29.4717 154.645 29.4717C153.183 29.4717 152.056 29.0153 151.234 28.0113C150.412 27.0682 150.016 25.6991 150.016 23.9649C150.016 22.1699 150.442 20.8008 151.234 19.8272C152.056 18.8536 153.183 18.3668 154.615 18.3668C155.986 18.3668 157.113 18.8232 157.904 19.7664C158.696 20.7095 159.123 22.0786 159.123 23.8736C159.123 25.6991 158.727 27.129 157.965 28.0722ZM184.373 18.7319V15.4765H180.383V10.487L180.261 10.5174L176.484 11.6431L176.393 11.6735V15.4765H170.423V13.3468C170.423 12.3733 170.667 11.6127 171.093 11.1259C171.52 10.6391 172.159 10.3957 172.951 10.3957C173.499 10.3957 174.078 10.5174 174.718 10.7912L174.87 10.8825V7.44453L174.779 7.41411C174.23 7.23156 173.499 7.10986 172.555 7.10986C171.367 7.10986 170.332 7.38368 169.387 7.84005C168.443 8.35726 167.743 9.05702 167.225 10.0002C166.707 10.9129 166.433 11.9473 166.433 13.1339V15.4765H163.661V18.7015H166.433V32.3316H170.423V18.7319H176.393V27.4029C176.393 30.9625 178.068 32.7575 181.419 32.7575C181.967 32.7575 182.546 32.6663 183.094 32.575C183.673 32.4533 184.099 32.3012 184.343 32.1795L184.373 32.149V28.8936L184.221 29.0153C183.977 29.1675 183.764 29.2892 183.399 29.3804C183.094 29.4717 182.82 29.5021 182.607 29.5021C181.815 29.5021 181.266 29.3196 180.87 28.8632C180.505 28.4373 180.322 27.7375 180.322 26.7031V18.7319H184.373Z" fill="#737373"/>
<path d="M0.432541 0.994873H19.1039V19.645H0.432541V0.994873Z" fill="#F25022"/>
<path d="M21.0527 0.994629H39.724V19.6447H21.0527V0.994629Z" fill="#7FBA00"/>
<path d="M0.432129 21.592H19.1034V40.2421H0.432129V21.592Z" fill="#00A4EF"/>
<path d="M21.0527 21.592H39.724V40.2421H21.0527V21.592Z" fill="#FFB900"/>
</svg>
