<svg width="114" height="114" viewBox="0 0 114 114" fill="none" xmlns="http://www.w3.org/2000/svg">
<circle cx="57" cy="57" r="54" fill="#58D498" stroke="#F2F2F2" stroke-width="6"/>
<path d="M54.375 71.7492V42.2426C54.375 41.693 53.932 41.25 53.3742 41.25H47.5008C46.943 41.25 46.5 41.693 46.5 42.2426V71.7492C46.5 72.2988 46.943 72.75 47.5008 72.75H53.3742C53.932 72.75 54.375 72.307 54.375 71.7492Z" fill="white"/>
<path d="M66.4992 41.25H60.6258C60.0762 41.25 59.625 41.693 59.625 42.2426V71.7492C59.625 72.2988 60.068 72.75 60.6258 72.75H66.4992C67.0488 72.75 67.5 72.307 67.5 71.7492V42.2426C67.5 41.693 67.057 41.25 66.4992 41.25Z" fill="white"/>
</svg>
