<svg width="386" height="229" viewBox="0 0 386 229" fill="none" xmlns="http://www.w3.org/2000/svg">
<g filter="url(#filter0_d_2_1309)">
<rect x="65" y="47" width="237" height="79.3433" rx="15" fill="white"/>
<rect x="76" y="50" width="73.3433" height="73.3433" rx="9" fill="#E0FFF0"/>
<mask id="path-3-outside-1_2_1309" maskUnits="userSpaceOnUse" x="89.6685" y="63.6686" width="46" height="46" fill="black">
<rect fill="white" x="89.6685" y="63.6686" width="46" height="46"/>
<path d="M-nan -nanL132.386 64.6686H92.9568C92.3501 64.6693 91.7684 64.9106 91.3395 65.3396C90.9105 65.7686 90.6692 66.3502 90.6685 66.9569V97.9371C90.6692 98.5438 90.9105 99.1254 91.3395 99.5544C91.7684 99.9834 92.3501 100.225 92.9568 100.225H105.375C107.038 100.225 108.324 101.682 108.117 103.332C107.988 104.365 107.283 105.224 106.335 105.654C105.436 106.061 104.567 106.532 103.734 107.062C103.577 107.167 103.458 107.32 103.394 107.497C103.33 107.675 103.325 107.869 103.38 108.049C103.435 108.23 103.546 108.389 103.698 108.501C103.85 108.614 104.033 108.675 104.222 108.675H121.121C121.309 108.675 121.493 108.614 121.645 108.501C121.797 108.389 121.908 108.23 121.963 108.049C122.018 107.869 122.013 107.675 121.949 107.497C121.885 107.32 121.766 107.167 121.609 107.062C120.776 106.532 119.907 106.061 119.008 105.654C118.06 105.224 117.355 104.365 117.225 103.332C117.019 101.682 118.305 100.225 119.968 100.225H132.386C132.993 100.225 133.574 99.9834 134.003 99.5544C134.432 99.1254 134.674 98.5438 134.674 97.9371V66.9569C134.674 66.3502 134.432 65.7686 134.003 65.3396C133.574 64.9106 132.993 64.6693 132.386 64.6686L-nan -nanZM-nan -nanL92.9568 66.4288H132.386C132.526 66.429 132.66 66.4846 132.759 66.5836C132.858 66.6826 132.914 66.8169 132.914 66.9569V82.4242C132.914 87.3948 128.885 91.4242 123.914 91.4242H101.429C96.4581 91.4242 92.4287 87.3948 92.4287 82.4242V66.9569C92.4288 66.8169 92.4845 66.6826 92.5835 66.5836C92.6825 66.4846 92.8168 66.429 92.9568 66.4288L-nan -nanZM108.447 106.914C108.325 106.914 108.294 106.75 108.409 106.708C109.696 106.236 111.191 105.858 112.671 105.858C113.722 105.858 113.578 106.914 112.527 106.914H108.447ZM115.262 101.818C115.421 103.089 114.238 104.132 112.957 104.101C112.767 104.097 112.576 104.097 112.386 104.101C111.105 104.132 109.922 103.09 110.081 101.818C110.195 100.908 110.968 100.225 111.885 100.225H113.458C114.375 100.225 115.148 100.908 115.262 101.818ZM132.914 97.9371C132.914 98.0771 132.858 98.2113 132.759 98.3103C132.66 98.4093 132.526 98.465 132.386 98.4652H92.9568C92.8168 98.465 92.6825 98.4093 92.5835 98.3103C92.4845 98.2113 92.4288 98.0771 92.4287 97.9371C92.4287 95.3123 94.5565 93.1844 97.1813 93.1844H128.162C130.786 93.1844 132.914 95.3123 132.914 97.9371Z"/>
</mask>
<path d="M-nan -nanL132.386 64.6686H92.9568C92.3501 64.6693 91.7684 64.9106 91.3395 65.3396C90.9105 65.7686 90.6692 66.3502 90.6685 66.9569V97.9371C90.6692 98.5438 90.9105 99.1254 91.3395 99.5544C91.7684 99.9834 92.3501 100.225 92.9568 100.225H105.375C107.038 100.225 108.324 101.682 108.117 103.332C107.988 104.365 107.283 105.224 106.335 105.654C105.436 106.061 104.567 106.532 103.734 107.062C103.577 107.167 103.458 107.32 103.394 107.497C103.33 107.675 103.325 107.869 103.38 108.049C103.435 108.23 103.546 108.389 103.698 108.501C103.85 108.614 104.033 108.675 104.222 108.675H121.121C121.309 108.675 121.493 108.614 121.645 108.501C121.797 108.389 121.908 108.23 121.963 108.049C122.018 107.869 122.013 107.675 121.949 107.497C121.885 107.32 121.766 107.167 121.609 107.062C120.776 106.532 119.907 106.061 119.008 105.654C118.06 105.224 117.355 104.365 117.225 103.332C117.019 101.682 118.305 100.225 119.968 100.225H132.386C132.993 100.225 133.574 99.9834 134.003 99.5544C134.432 99.1254 134.674 98.5438 134.674 97.9371V66.9569C134.674 66.3502 134.432 65.7686 134.003 65.3396C133.574 64.9106 132.993 64.6693 132.386 64.6686L-nan -nanZM-nan -nanL92.9568 66.4288H132.386C132.526 66.429 132.66 66.4846 132.759 66.5836C132.858 66.6826 132.914 66.8169 132.914 66.9569V82.4242C132.914 87.3948 128.885 91.4242 123.914 91.4242H101.429C96.4581 91.4242 92.4287 87.3948 92.4287 82.4242V66.9569C92.4288 66.8169 92.4845 66.6826 92.5835 66.5836C92.6825 66.4846 92.8168 66.429 92.9568 66.4288L-nan -nanZM108.447 106.914C108.325 106.914 108.294 106.75 108.409 106.708C109.696 106.236 111.191 105.858 112.671 105.858C113.722 105.858 113.578 106.914 112.527 106.914H108.447ZM115.262 101.818C115.421 103.089 114.238 104.132 112.957 104.101C112.767 104.097 112.576 104.097 112.386 104.101C111.105 104.132 109.922 103.09 110.081 101.818C110.195 100.908 110.968 100.225 111.885 100.225H113.458C114.375 100.225 115.148 100.908 115.262 101.818ZM132.914 97.9371C132.914 98.0771 132.858 98.2113 132.759 98.3103C132.66 98.4093 132.526 98.465 132.386 98.4652H92.9568C92.8168 98.465 92.6825 98.4093 92.5835 98.3103C92.4845 98.2113 92.4288 98.0771 92.4287 97.9371C92.4287 95.3123 94.5565 93.1844 97.1813 93.1844H128.162C130.786 93.1844 132.914 95.3123 132.914 97.9371Z" fill="#58D498"/>
<path d="M92.9568 64.6686V64.2636L92.9563 64.2636L92.9568 64.6686ZM90.6685 66.9569L90.2635 66.9564V66.9569H90.6685ZM90.6685 97.9371H90.2635L90.2635 97.9376L90.6685 97.9371ZM92.9568 100.225L92.9563 100.63H92.9568V100.225ZM103.734 107.062L103.517 106.72L103.509 106.725L103.734 107.062ZM104.222 108.675L104.222 109.08H104.222V108.675ZM121.121 108.675V109.08H121.121L121.121 108.675ZM121.609 107.062L121.834 106.725L121.826 106.721L121.609 107.062ZM132.386 100.225V100.63H132.387L132.386 100.225ZM134.674 97.9371L135.079 97.9376V97.9371H134.674ZM134.674 66.9569H135.079V66.9564L134.674 66.9569ZM132.386 66.4288L132.387 66.0238H132.386V66.4288ZM132.914 66.9569H133.319V66.9565L132.914 66.9569ZM92.4287 66.9569L92.0237 66.9565V66.9569H92.4287ZM132.386 98.4652V98.8702H132.387L132.386 98.4652ZM92.9568 98.4652L92.9564 98.8702H92.9568V98.4652ZM112.386 104.101L112.396 104.506L112.386 104.101ZM112.957 104.101L112.947 104.506L112.957 104.101ZM108.409 106.708L108.548 107.089L108.409 106.708ZM106.335 105.654L106.502 106.023L106.335 105.654ZM132.386 64.2636H92.9568V65.0736H132.386V64.2636ZM92.9563 64.2636C92.2424 64.2644 91.5579 64.5484 91.0531 65.0532L91.6258 65.626C91.979 65.2728 92.4578 65.0742 92.9572 65.0736L92.9563 64.2636ZM91.0531 65.0532C90.5483 65.558 90.2643 66.2425 90.2635 66.9564L91.0735 66.9574C91.074 66.4579 91.2727 65.9791 91.6258 65.626L91.0531 65.0532ZM90.2635 66.9569V97.9371H91.0735V66.9569H90.2635ZM90.2635 97.9376C90.2643 98.6515 90.5483 99.336 91.0531 99.8408L91.6258 99.268C91.2727 98.9149 91.074 98.4361 91.0735 97.9366L90.2635 97.9376ZM91.0531 99.8408C91.5579 100.346 92.2424 100.63 92.9563 100.63L92.9572 99.8204C92.4578 99.8198 91.979 99.6212 91.6258 99.268L91.0531 99.8408ZM92.9568 100.63H105.375V99.8204H92.9568V100.63ZM106.167 105.285C105.252 105.7 104.366 106.18 103.517 106.721L103.952 107.404C104.769 106.884 105.621 106.422 106.502 106.023L106.167 105.285ZM103.509 106.725C103.28 106.878 103.106 107.101 103.013 107.361L103.775 107.634C103.81 107.538 103.874 107.456 103.959 107.399L103.509 106.725ZM103.013 107.361C102.92 107.62 102.912 107.903 102.992 108.167L103.768 107.932C103.738 107.835 103.741 107.73 103.775 107.634L103.013 107.361ZM102.992 108.167C103.072 108.431 103.235 108.662 103.457 108.826L103.939 108.176C103.857 108.115 103.797 108.03 103.768 107.932L102.992 108.167ZM103.457 108.826C103.678 108.991 103.946 109.08 104.222 109.08L104.222 108.27C104.12 108.27 104.021 108.237 103.939 108.176L103.457 108.826ZM104.222 109.08H121.121V108.27H104.222V109.08ZM121.121 109.08C121.396 109.08 121.665 108.991 121.886 108.826L121.404 108.176C121.322 108.237 121.223 108.27 121.121 108.27L121.121 109.08ZM121.886 108.826C122.108 108.662 122.271 108.431 122.35 108.167L121.575 107.932C121.546 108.03 121.486 108.115 121.404 108.176L121.886 108.826ZM122.35 108.167C122.43 107.903 122.423 107.62 122.33 107.361L121.568 107.634C121.602 107.73 121.605 107.835 121.575 107.932L122.35 108.167ZM122.33 107.361C122.237 107.101 122.063 106.878 121.833 106.725L121.384 107.399C121.469 107.456 121.533 107.538 121.568 107.634L122.33 107.361ZM121.826 106.721C120.977 106.18 120.091 105.7 119.176 105.285L118.841 106.023C119.722 106.422 120.574 106.884 121.391 107.404L121.826 106.721ZM119.968 100.63H132.386V99.8204H119.968V100.63ZM132.387 100.63C133.101 100.63 133.785 100.346 134.29 99.8408L133.717 99.268C133.364 99.6212 132.885 99.8198 132.386 99.8204L132.387 100.63ZM134.29 99.8408C134.795 99.336 135.079 98.6515 135.079 97.9376L134.269 97.9366C134.269 98.4361 134.07 98.9149 133.717 99.268L134.29 99.8408ZM135.079 97.9371V66.9569H134.269V97.9371H135.079ZM135.079 66.9564C135.079 66.2425 134.795 65.558 134.29 65.0532L133.717 65.626C134.07 65.9791 134.269 66.4579 134.269 66.9574L135.079 66.9564ZM134.29 65.0532C133.785 64.5484 133.101 64.2644 132.387 64.2636L132.386 65.0736C132.885 65.0742 133.364 65.2728 133.717 65.626L134.29 65.0532ZM92.9568 66.8338H132.386V66.0238H92.9568V66.8338ZM132.386 66.8338C132.418 66.8339 132.45 66.8469 132.473 66.87L133.046 66.2973C132.871 66.1224 132.634 66.0241 132.387 66.0238L132.386 66.8338ZM132.473 66.87C132.496 66.8932 132.509 66.9246 132.509 66.9573L133.319 66.9565C133.319 66.7092 133.221 66.4721 133.046 66.2973L132.473 66.87ZM132.509 66.9569V82.4242H133.319V66.9569H132.509ZM123.914 91.0192H101.429V91.8292H123.914V91.0192ZM92.8337 82.4242V66.9569H92.0237V82.4242H92.8337ZM92.8337 66.9573C92.8337 66.9246 92.8467 66.8932 92.8699 66.87L92.2971 66.2973C92.1223 66.4721 92.0239 66.7092 92.0237 66.9565L92.8337 66.9573ZM92.8699 66.87C92.893 66.8469 92.9244 66.8339 92.9572 66.8338L92.9564 66.0238C92.7091 66.0241 92.472 66.1224 92.2971 66.2973L92.8699 66.87ZM108.548 107.089C109.811 106.626 111.255 106.263 112.671 106.263V105.453C111.126 105.453 109.582 105.847 108.269 106.328L108.548 107.089ZM112.527 106.509H108.447V107.319H112.527V106.509ZM112.967 103.696C112.77 103.692 112.573 103.692 112.376 103.696L112.396 104.506C112.58 104.502 112.764 104.502 112.947 104.506L112.967 103.696ZM111.885 100.63H113.458V99.8204H111.885V100.63ZM132.509 97.9367C132.509 97.9694 132.496 98.0008 132.473 98.024L133.046 98.5967C133.221 98.4219 133.319 98.1848 133.319 97.9375L132.509 97.9367ZM132.473 98.024C132.45 98.0471 132.418 98.0601 132.386 98.0602L132.387 98.8702C132.634 98.8699 132.871 98.7716 133.046 98.5967L132.473 98.024ZM132.386 98.0602H92.9568V98.8702H132.386V98.0602ZM92.9572 98.0602C92.9244 98.0601 92.893 98.0471 92.8699 98.024L92.2971 98.5967C92.472 98.7716 92.7091 98.8699 92.9564 98.8702L92.9572 98.0602ZM92.8699 98.024C92.8467 98.0008 92.8337 97.9694 92.8337 97.9367L92.0237 97.9375C92.0239 98.1848 92.1223 98.4219 92.2971 98.5967L92.8699 98.024ZM97.1813 93.5894H128.162V92.7794H97.1813V93.5894ZM128.162 93.5894C130.563 93.5894 132.509 95.536 132.509 97.9371H133.319C133.319 95.0886 131.01 92.7794 128.162 92.7794V93.5894ZM112.376 103.696C111.28 103.723 110.362 102.836 110.483 101.869L109.679 101.768C109.482 103.344 110.931 104.542 112.396 104.506L112.376 103.696ZM112.947 104.506C114.413 104.542 115.861 103.343 115.664 101.768L114.86 101.868C114.981 102.835 114.063 103.723 112.967 103.696L112.947 104.506ZM112.671 106.263C112.872 106.263 112.956 106.314 112.979 106.333C112.99 106.342 112.99 106.346 112.988 106.341C112.987 106.339 112.987 106.337 112.986 106.334C112.986 106.332 112.986 106.331 112.986 106.331C112.986 106.332 112.985 106.34 112.975 106.355C112.965 106.371 112.946 106.392 112.912 106.415C112.846 106.46 112.723 106.509 112.527 106.509V107.319C113.165 107.319 113.715 106.984 113.789 106.441C113.826 106.167 113.721 105.899 113.501 105.713C113.288 105.535 112.997 105.453 112.671 105.453V106.263ZM101.429 91.0192C96.6818 91.0192 92.8337 87.1711 92.8337 82.4242H92.0237C92.0237 87.6184 96.2345 91.8292 101.429 91.8292V91.0192ZM92.8337 97.9371C92.8337 95.536 94.7802 93.5894 97.1813 93.5894V92.7794C94.3329 92.7794 92.0237 95.0886 92.0237 97.9371H92.8337ZM108.447 106.509C108.599 106.509 108.713 106.626 108.737 106.753C108.761 106.881 108.694 107.035 108.548 107.089L108.269 106.328C107.703 106.535 107.9 107.319 108.447 107.319V106.509ZM110.483 101.869C110.571 101.161 111.172 100.63 111.885 100.63V99.8204C110.764 99.8204 109.818 100.655 109.679 101.768L110.483 101.869ZM119.176 105.285C118.339 104.906 117.737 104.158 117.627 103.282L116.824 103.382C116.972 104.573 117.781 105.542 118.841 106.023L119.176 105.285ZM132.509 82.4242C132.509 87.1711 128.661 91.0192 123.914 91.0192V91.8292C129.108 91.8292 133.319 87.6185 133.319 82.4242H132.509ZM107.716 103.282C107.606 104.158 107.004 104.906 106.167 105.285L106.502 106.023C107.561 105.542 108.37 104.573 108.519 103.382L107.716 103.282ZM105.375 100.63C106.794 100.63 107.892 101.874 107.716 103.282L108.519 103.382C108.756 101.491 107.281 99.8204 105.375 99.8204V100.63ZM113.458 100.63C114.171 100.63 114.772 101.161 114.86 101.868L115.664 101.768C115.525 100.655 114.579 99.8204 113.458 99.8204V100.63ZM117.627 103.282C117.451 101.874 118.549 100.63 119.968 100.63V99.8204C118.062 99.8204 116.587 101.491 116.824 103.382L117.627 103.282Z" fill="#58D498" mask="url(#path-3-outside-1_2_1309)"/>
<path d="M111.263 96.9075H114.079C114.366 96.9075 114.642 96.7934 114.845 96.5904C115.048 96.3874 115.162 96.112 115.162 95.8249C115.162 95.5378 115.048 95.2624 114.845 95.0594C114.642 94.8563 114.366 94.7423 114.079 94.7423H111.263C110.976 94.7423 110.7 94.8563 110.497 95.0594C110.294 95.2624 110.18 95.5378 110.18 95.8249C110.18 96.112 110.294 96.3874 110.497 96.5904C110.7 96.7934 110.976 96.9075 111.263 96.9075Z" fill="#58D498" stroke="#58D498" stroke-width="0.405"/>
<mask id="path-6-outside-2_2_1309" maskUnits="userSpaceOnUse" x="96.3574" y="68.4213" width="33" height="21" fill="black">
<rect fill="white" x="96.3574" y="68.4213" width="33" height="21"/>
<path d="M-nan -nanL99.6457 86.6716H114.502C116.466 86.6716 118.319 87.5885 120.225 88.0617C121.215 88.3074 122.249 88.3155 123.243 88.0853C124.236 87.8552 125.161 87.3932 125.942 86.7373C126.723 86.0814 127.338 85.2501 127.736 84.3112C128.134 83.3723 128.305 82.3526 128.234 81.3352C128.163 80.3178 127.852 79.3317 127.327 78.4573C126.802 77.5829 126.078 76.8451 125.213 76.3041C123.752 75.3898 122.353 74.0227 122.353 72.2991V71.7096C122.352 71.1029 122.111 70.5212 121.682 70.0922C121.253 69.6632 120.671 69.4219 120.065 69.4213H99.6457C99.039 69.4219 98.4574 69.6632 98.0284 70.0922C97.5994 70.5212 97.3581 71.1029 97.3574 71.7096V84.3833C97.3581 84.99 97.5994 85.5716 98.0284 86.0006C98.4574 86.4296 99.039 86.6709 99.6457 86.6716L-nan -nanZM-nan -nanL99.1177 84.3833V80.9948C99.1177 79.1234 100.635 77.6064 102.506 77.6064H112.945C114.484 77.6064 115.497 79.6138 115.344 81.1447C115.169 82.8894 113.967 84.9114 112.214 84.9114H99.6457C99.5057 84.9112 99.3715 84.8555 99.2725 84.7565C99.1735 84.6575 99.1178 84.5233 99.1177 84.3833L-nan -nanZM99.1177 75.2741C99.1177 74.9581 99.3738 74.702 99.6897 74.702H120.195C120.415 74.702 120.593 74.8798 120.593 75.0991C120.593 75.2905 120.456 75.4534 120.27 75.4979C120.004 75.5615 119.743 75.642 119.488 75.7389C119.312 75.8058 119.126 75.8461 118.938 75.8461H99.6897C99.3738 75.8461 99.1177 75.59 99.1177 75.2741ZM126.489 81.7869C126.489 82.7182 126.213 83.6286 125.696 84.4029C125.178 85.1773 124.443 85.7808 123.583 86.1372C122.722 86.4935 121.776 86.5868 120.862 86.4051C119.949 86.2234 119.11 85.775 118.451 85.1165C117.793 84.4579 117.344 83.6189 117.163 82.7056C116.981 81.7922 117.074 80.8454 117.431 79.985C117.787 79.1246 118.39 78.3892 119.165 77.8719C119.939 77.3545 120.849 77.0783 121.781 77.0783C123.029 77.0797 124.226 77.5763 125.109 78.459C125.991 79.3417 126.488 80.5386 126.489 81.7869ZM-nan -nanL99.6457 71.1815H120.065C120.205 71.1816 120.339 71.2373 120.438 71.3363C120.537 71.4353 120.592 71.5696 120.593 71.7096C120.593 72.3901 120.041 72.9417 119.36 72.9417H100.35C99.6693 72.9417 99.1177 72.3901 99.1177 71.7096C99.1178 71.5696 99.1735 71.4353 99.2725 71.3363C99.3715 71.2373 99.5057 71.1816 99.6457 71.1815L-nan -nanZ"/>
</mask>
<path d="M-nan -nanL99.6457 86.6716H114.502C116.466 86.6716 118.319 87.5885 120.225 88.0617C121.215 88.3074 122.249 88.3155 123.243 88.0853C124.236 87.8552 125.161 87.3932 125.942 86.7373C126.723 86.0814 127.338 85.2501 127.736 84.3112C128.134 83.3723 128.305 82.3526 128.234 81.3352C128.163 80.3178 127.852 79.3317 127.327 78.4573C126.802 77.5829 126.078 76.8451 125.213 76.3041C123.752 75.3898 122.353 74.0227 122.353 72.2991V71.7096C122.352 71.1029 122.111 70.5212 121.682 70.0922C121.253 69.6632 120.671 69.4219 120.065 69.4213H99.6457C99.039 69.4219 98.4574 69.6632 98.0284 70.0922C97.5994 70.5212 97.3581 71.1029 97.3574 71.7096V84.3833C97.3581 84.99 97.5994 85.5716 98.0284 86.0006C98.4574 86.4296 99.039 86.6709 99.6457 86.6716L-nan -nanZM-nan -nanL99.1177 84.3833V80.9948C99.1177 79.1234 100.635 77.6064 102.506 77.6064H112.945C114.484 77.6064 115.497 79.6138 115.344 81.1447C115.169 82.8894 113.967 84.9114 112.214 84.9114H99.6457C99.5057 84.9112 99.3715 84.8555 99.2725 84.7565C99.1735 84.6575 99.1178 84.5233 99.1177 84.3833L-nan -nanZM99.1177 75.2741C99.1177 74.9581 99.3738 74.702 99.6897 74.702H120.195C120.415 74.702 120.593 74.8798 120.593 75.0991C120.593 75.2905 120.456 75.4534 120.27 75.4979C120.004 75.5615 119.743 75.642 119.488 75.7389C119.312 75.8058 119.126 75.8461 118.938 75.8461H99.6897C99.3738 75.8461 99.1177 75.59 99.1177 75.2741ZM126.489 81.7869C126.489 82.7182 126.213 83.6286 125.696 84.4029C125.178 85.1773 124.443 85.7808 123.583 86.1372C122.722 86.4935 121.776 86.5868 120.862 86.4051C119.949 86.2234 119.11 85.775 118.451 85.1165C117.793 84.4579 117.344 83.6189 117.163 82.7056C116.981 81.7922 117.074 80.8454 117.431 79.985C117.787 79.1246 118.39 78.3892 119.165 77.8719C119.939 77.3545 120.849 77.0783 121.781 77.0783C123.029 77.0797 124.226 77.5763 125.109 78.459C125.991 79.3417 126.488 80.5386 126.489 81.7869ZM-nan -nanL99.6457 71.1815H120.065C120.205 71.1816 120.339 71.2373 120.438 71.3363C120.537 71.4353 120.592 71.5696 120.593 71.7096C120.593 72.3901 120.041 72.9417 119.36 72.9417H100.35C99.6693 72.9417 99.1177 72.3901 99.1177 71.7096C99.1178 71.5696 99.1735 71.4353 99.2725 71.3363C99.3715 71.2373 99.5057 71.1816 99.6457 71.1815L-nan -nanZ" fill="#58D498"/>
<path d="M122.353 71.7096H122.758L122.758 71.7091L122.353 71.7096ZM120.065 69.4213L120.065 69.0163H120.065V69.4213ZM99.6457 69.4213V69.0163L99.6453 69.0163L99.6457 69.4213ZM97.3574 71.7096L96.9524 71.7091V71.7096H97.3574ZM97.3574 84.3833H96.9524L96.9524 84.3837L97.3574 84.3833ZM99.6457 84.9114L99.6453 85.3164H99.6457V84.9114ZM126.489 81.7869H126.894V81.7865L126.489 81.7869ZM121.781 77.0783L121.781 76.6733H121.781V77.0783ZM120.065 71.1815L120.065 70.7765H120.065V71.1815ZM119.488 75.7389L119.632 76.1176L119.488 75.7389ZM120.27 75.4979L120.364 75.8918L120.27 75.4979ZM99.6457 87.0766H114.502V86.2666H99.6457V87.0766ZM120.128 88.4548C121.18 88.7159 122.278 88.7245 123.334 88.4799L123.151 87.6908C122.22 87.9065 121.251 87.8989 120.323 87.6686L120.128 88.4548ZM123.334 88.4799C124.39 88.2353 125.373 87.7445 126.203 87.0475L125.682 86.4272C124.95 87.042 124.083 87.475 123.151 87.6908L123.334 88.4799ZM126.203 87.0475C127.032 86.3504 127.686 85.467 128.109 84.4694L127.363 84.153C126.99 85.0331 126.414 85.8124 125.682 86.4272L126.203 87.0475ZM128.109 84.4694C128.532 83.4717 128.713 82.3881 128.638 81.307L127.83 81.3634C127.897 82.3171 127.737 83.273 127.363 84.153L128.109 84.4694ZM128.638 81.307C128.562 80.2259 128.232 79.178 127.675 78.2489L126.98 78.6658C127.472 79.4854 127.763 80.4098 127.83 81.3634L128.638 81.307ZM127.675 78.2489C127.117 77.3197 126.347 76.5357 125.428 75.9608L124.999 76.6475C125.809 77.1546 126.488 77.8462 126.98 78.6658L127.675 78.2489ZM122.758 72.2991V71.7096H121.948V72.2991H122.758ZM122.758 71.7091C122.757 70.9952 122.473 70.3107 121.968 69.8059L121.395 70.3786C121.749 70.7318 121.947 71.2106 121.948 71.71L122.758 71.7091ZM121.968 69.8059C121.463 69.301 120.779 69.0171 120.065 69.0163L120.064 69.8263C120.563 69.8268 121.042 70.0255 121.395 70.3786L121.968 69.8059ZM120.065 69.0163H99.6457V69.8263H120.065V69.0163ZM99.6453 69.0163C98.9313 69.0171 98.2469 69.301 97.742 69.8059L98.3148 70.3786C98.6679 70.0255 99.1467 69.8268 99.6462 69.8263L99.6453 69.0163ZM97.742 69.8059C97.2372 70.3107 96.9532 70.9952 96.9524 71.7091L97.7624 71.71C97.763 71.2106 97.9616 70.7318 98.3148 70.3786L97.742 69.8059ZM96.9524 71.7096V84.3833H97.7624V71.7096H96.9524ZM96.9524 84.3837C96.9532 85.0977 97.2372 85.7822 97.742 86.287L98.3148 85.7143C97.9616 85.3611 97.763 84.8823 97.7624 84.3828L96.9524 84.3837ZM97.742 86.287C98.2469 86.7918 98.9313 87.0758 99.6453 87.0766L99.6462 86.2666C99.1467 86.2661 98.6679 86.0674 98.3148 85.7143L97.742 86.287ZM99.5227 84.3833V80.9948H98.7127V84.3833H99.5227ZM102.506 78.0114H112.945V77.2014H102.506V78.0114ZM112.214 84.5064H99.6457V85.3164H112.214V84.5064ZM99.6461 84.5064C99.6134 84.5063 99.582 84.4933 99.5589 84.4702L98.9861 85.0429C99.161 85.2178 99.398 85.3161 99.6453 85.3164L99.6461 84.5064ZM99.5589 84.4702C99.5357 84.447 99.5227 84.4156 99.5227 84.3829L98.7127 84.3837C98.7129 84.631 98.8113 84.8681 98.9861 85.0429L99.5589 84.4702ZM99.6897 75.107H120.195V74.297H99.6897V75.107ZM120.175 75.1041C119.893 75.1717 119.615 75.2573 119.344 75.3603L119.632 76.1176C119.871 76.0268 120.115 75.9514 120.364 75.8918L120.175 75.1041ZM118.938 75.4411H99.6897V76.2511H118.938V75.4411ZM126.084 81.7869C126.084 82.6381 125.832 83.4702 125.359 84.1779L126.033 84.6279C126.594 83.787 126.894 82.7983 126.894 81.7869H126.084ZM125.359 84.1779C124.886 84.8856 124.214 85.4373 123.428 85.763L123.738 86.5113C124.672 86.1243 125.471 85.4689 126.033 84.6279L125.359 84.1779ZM123.428 85.763C122.641 86.0887 121.776 86.1739 120.941 86.0079L120.783 86.8023C121.775 86.9996 122.803 86.8984 123.738 86.5113L123.428 85.763ZM120.941 86.0079C120.106 85.8418 119.339 85.4319 118.738 84.8301L118.165 85.4028C118.88 86.118 119.791 86.605 120.783 86.8023L120.941 86.0079ZM118.738 84.8301C118.136 84.2282 117.726 83.4614 117.56 82.6265L116.765 82.7846C116.963 83.7765 117.45 84.6877 118.165 85.4028L118.738 84.8301ZM117.56 82.6265C117.394 81.7917 117.479 80.9264 117.805 80.14L117.056 79.83C116.669 80.7644 116.568 81.7926 116.765 82.7846L117.56 82.6265ZM117.805 80.14C118.13 79.3536 118.682 78.6815 119.39 78.2086L118.94 77.5351C118.099 78.097 117.443 78.8956 117.056 79.83L117.805 80.14ZM119.39 78.2086C120.097 77.7357 120.93 77.4833 121.781 77.4833V76.6733C120.769 76.6733 119.781 76.9732 118.94 77.5351L119.39 78.2086ZM121.78 77.4833C122.921 77.4846 124.015 77.9385 124.822 78.7454L125.395 78.1726C124.436 77.2141 123.137 76.6748 121.781 76.6733L121.78 77.4833ZM124.822 78.7454C125.629 79.5523 126.083 80.6463 126.084 81.7874L126.894 81.7865C126.893 80.4309 126.354 79.1312 125.395 78.1726L124.822 78.7454ZM99.6457 71.5865H120.065V70.7765H99.6457V71.5865ZM120.064 71.5865C120.097 71.5865 120.128 71.5996 120.151 71.6227L120.724 71.0499C120.549 70.8751 120.312 70.7768 120.065 70.7765L120.064 71.5865ZM120.151 71.6227C120.175 71.6459 120.188 71.6772 120.188 71.71L120.998 71.7092C120.997 71.4619 120.899 71.2248 120.724 71.0499L120.151 71.6227ZM119.36 72.5367H100.35V73.3467H119.36V72.5367ZM99.5227 71.71C99.5227 71.6772 99.5357 71.6459 99.5589 71.6227L98.9861 71.0499C98.8113 71.2248 98.7129 71.4619 98.7127 71.7092L99.5227 71.71ZM99.5589 71.6227C99.582 71.5996 99.6134 71.5865 99.6461 71.5865L99.6453 70.7765C99.398 70.7768 99.161 70.8751 98.9861 71.0499L99.5589 71.6227ZM99.6897 75.4411C99.5975 75.4411 99.5227 75.3663 99.5227 75.2741H98.7127C98.7127 75.8137 99.1501 76.2511 99.6897 76.2511V75.4411ZM119.344 75.3603C119.205 75.4131 119.068 75.4411 118.938 75.4411V76.2511C119.184 76.2511 119.419 76.1984 119.632 76.1176L119.344 75.3603ZM120.188 75.0991C120.188 75.0984 120.188 75.0972 120.188 75.0964C120.188 75.0957 120.188 75.096 120.188 75.0971C120.186 75.0994 120.181 75.1026 120.175 75.1041L120.364 75.8918C120.72 75.8065 120.998 75.4902 120.998 75.0991H120.188ZM120.195 75.107C120.195 75.107 120.195 75.107 120.195 75.107C120.195 75.1069 120.195 75.1069 120.194 75.1068C120.194 75.1067 120.193 75.1065 120.192 75.1062C120.191 75.1057 120.19 75.1051 120.19 75.1047C120.189 75.1043 120.189 75.1035 120.188 75.1023C120.188 75.1017 120.188 75.101 120.188 75.1003C120.188 75.1 120.188 75.0997 120.188 75.0995C120.188 75.0992 120.188 75.0991 120.188 75.0991H120.998C120.998 74.6561 120.638 74.297 120.195 74.297V75.107ZM99.6897 74.297C99.1501 74.297 98.7127 74.7344 98.7127 75.2741H99.5227C99.5227 75.1818 99.5975 75.107 99.6897 75.107V74.297ZM112.945 78.0114C113.522 78.0114 114.049 78.3879 114.434 79.0137C114.817 79.6369 115.008 80.4334 114.941 81.1044L115.747 81.1851C115.833 80.3251 115.594 79.3525 115.124 78.5892C114.656 77.8286 113.907 77.2014 112.945 77.2014V78.0114ZM99.5227 80.9948C99.5227 79.3471 100.858 78.0114 102.506 78.0114V77.2014C100.411 77.2014 98.7127 78.8998 98.7127 80.9948H99.5227ZM125.428 75.9608C123.987 75.0588 122.758 73.7971 122.758 72.2991H121.948C121.948 74.2484 123.518 75.7208 124.999 76.6475L125.428 75.9608ZM120.188 71.7096C120.188 72.1664 119.817 72.5367 119.36 72.5367V73.3467C120.265 73.3467 120.998 72.6138 120.998 71.7096H120.188ZM114.941 81.1044C114.86 81.9086 114.541 82.7792 114.047 83.4397C113.552 84.1003 112.921 84.5064 112.214 84.5064V85.3164C113.26 85.3164 114.107 84.7115 114.695 83.925C115.284 83.1383 115.653 82.1255 115.747 81.1851L114.941 81.1044ZM100.35 72.5367C99.893 72.5367 99.5227 72.1664 99.5227 71.7096H98.7127C98.7127 72.6138 99.4456 73.3467 100.35 73.3467V72.5367ZM114.502 87.0766C115.423 87.0766 116.332 87.2918 117.267 87.5766C118.181 87.8548 119.164 88.2155 120.128 88.4548L120.323 87.6686C119.381 87.4348 118.484 87.1003 117.503 86.8018C116.545 86.5099 115.545 86.2666 114.502 86.2666V87.0766Z" fill="#58D498" mask="url(#path-6-outside-2_2_1309)"/>
<path d="M108.27 78.9878H101.141C100.854 78.9878 100.578 79.1019 100.375 79.3049C100.172 79.5079 100.058 79.7833 100.058 80.0704C100.058 80.3576 100.172 80.6329 100.375 80.836C100.578 81.039 100.854 81.153 101.141 81.153H108.27C108.557 81.153 108.832 81.039 109.035 80.836C109.238 80.6329 109.352 80.3576 109.352 80.0704C109.352 79.7833 109.238 79.5079 109.035 79.3049C108.832 79.1019 108.557 78.9878 108.27 78.9878Z" fill="#58D498" stroke="#58D498" stroke-width="0.405"/>
<path d="M120.551 84.2241L120.551 84.2241C120.777 84.3743 121.05 84.4346 121.318 84.3931C121.586 84.3515 121.828 84.2112 121.997 83.9997L121.997 83.9997L124.813 80.4799C124.813 80.4798 124.813 80.4797 124.813 80.4795C124.903 80.3687 124.97 80.2413 125.01 80.1046L124.815 80.0476L125.01 80.1046C125.05 79.9678 125.063 79.8244 125.047 79.6826C125.032 79.5408 124.989 79.4035 124.92 79.2785C124.851 79.1535 124.759 79.0433 124.647 78.9542C124.536 78.8651 124.408 78.7989 124.271 78.7594C124.134 78.7198 123.991 78.7078 123.849 78.7238C123.707 78.7399 123.57 78.7839 123.445 78.8531C123.321 78.9223 123.211 79.0153 123.123 79.127C123.122 79.1271 123.122 79.1272 123.122 79.1273L121.892 80.6651C121.346 81.3477 120.368 81.4995 119.641 81.0149C119.523 80.9348 119.39 80.8788 119.25 80.8501L119.21 81.0485L119.25 80.8501C119.11 80.8214 118.966 80.8207 118.826 80.8481C118.685 80.8755 118.552 80.9304 118.433 81.0097C118.314 81.089 118.212 81.1911 118.132 81.3101C118.053 81.4291 117.998 81.5626 117.97 81.703C117.943 81.8433 117.944 81.9877 117.972 82.1278C118.001 82.2679 118.057 82.401 118.138 82.5192C118.218 82.6372 118.321 82.7382 118.44 82.8164L120.551 84.2241Z" fill="#58D498" stroke="#58D498" stroke-width="0.405"/>
</g>
<defs>
<filter id="filter0_d_2_1309" x="0.121953" y="0.658539" width="385.293" height="227.636" filterUnits="userSpaceOnUse" color-interpolation-filters="sRGB">
<feFlood flood-opacity="0" result="BackgroundImageFix"/>
<feColorMatrix in="SourceAlpha" type="matrix" values="0 0 0 0 0 0 0 0 0 0 0 0 0 0 0 0 0 0 127 0" result="hardAlpha"/>
<feOffset dx="9.26829" dy="27.8049"/>
<feGaussianBlur stdDeviation="37.0732"/>
<feColorMatrix type="matrix" values="0 0 0 0 0 0 0 0 0 0 0 0 0 0 0 0 0 0 0.1 0"/>
<feBlend mode="normal" in2="BackgroundImageFix" result="effect1_dropShadow_2_1309"/>
<feBlend mode="normal" in="SourceGraphic" in2="effect1_dropShadow_2_1309" result="shape"/>
</filter>
</defs>
</svg>
