<svg width="697" height="705" viewBox="0 0 697 705" fill="none" xmlns="http://www.w3.org/2000/svg">
<path d="M332 446H250C194.772 446 150 490.772 150 546V644H267C302.899 644 332 614.899 332 579V446Z" fill="#58D498"/>
<path d="M246 667C246 634.967 220.033 609 188 609H150V647C150 679.033 175.967 705 208 705H246V667Z" fill="#FFDC60"/>
<rect width="8.02058" height="8.02058" transform="matrix(-1 0 0 1 696.985 534.761)" fill="#58D498"/>
<rect width="8.02058" height="8.02058" transform="matrix(-1 0 0 1 668.111 534.761)" fill="#58D498"/>
<rect width="8.02058" height="8.02058" transform="matrix(-1 0 0 1 639.238 534.761)" fill="#58D498"/>
<rect width="8.02058" height="8.02058" transform="matrix(-1 0 0 1 610.363 534.761)" fill="#58D498"/>
<rect width="8.02058" height="8.02058" transform="matrix(-1 0 0 1 581.489 534.761)" fill="#58D498"/>
<rect width="8.02058" height="8.02058" transform="matrix(-1 0 0 1 552.614 534.761)" fill="#58D498"/>
<rect width="8.02058" height="8.02058" transform="matrix(-1 0 0 1 639.238 534.761)" fill="#58D498"/>
<rect width="8.02058" height="8.02058" transform="matrix(-1 0 0 1 696.985 560.427)" fill="#58D498"/>
<rect width="8.02058" height="8.02058" transform="matrix(-1 0 0 1 668.111 560.427)" fill="#58D498"/>
<rect width="8.02058" height="8.02058" transform="matrix(-1 0 0 1 639.238 560.427)" fill="#58D498"/>
<rect width="8.02058" height="8.02058" transform="matrix(-1 0 0 1 610.363 560.427)" fill="#58D498"/>
<rect width="8.02058" height="8.02058" transform="matrix(-1 0 0 1 581.489 560.427)" fill="#58D498"/>
<rect width="8.02058" height="8.02058" transform="matrix(-1 0 0 1 552.614 560.427)" fill="#58D498"/>
<rect width="8.02058" height="8.02058" transform="matrix(-1 0 0 1 639.238 560.427)" fill="#58D498"/>
<rect width="8.02058" height="8.02058" transform="matrix(-1 0 0 1 696.985 590.905)" fill="#58D498"/>
<rect width="8.02058" height="8.02058" transform="matrix(-1 0 0 1 668.111 590.905)" fill="#58D498"/>
<rect width="8.02058" height="8.02058" transform="matrix(-1 0 0 1 639.238 590.905)" fill="#58D498"/>
<rect width="8.02058" height="8.02058" transform="matrix(-1 0 0 1 610.363 590.905)" fill="#58D498"/>
<rect width="8.02058" height="8.02058" transform="matrix(-1 0 0 1 581.489 590.905)" fill="#58D498"/>
<rect width="8.02058" height="8.02058" transform="matrix(-1 0 0 1 552.614 590.905)" fill="#58D498"/>
<rect width="8.02058" height="8.02058" transform="matrix(-1 0 0 1 639.238 590.905)" fill="#58D498"/>
<rect width="8.02058" height="8.02058" transform="matrix(-1 0 0 1 696.985 619.779)" fill="#58D498"/>
<rect width="8.02058" height="8.02058" transform="matrix(-1 0 0 1 668.111 619.779)" fill="#58D498"/>
<rect width="8.02058" height="8.02058" transform="matrix(-1 0 0 1 639.238 619.779)" fill="#58D498"/>
<rect width="8.02058" height="8.02058" transform="matrix(-1 0 0 1 610.363 619.779)" fill="#58D498"/>
<rect width="8.02058" height="8.02058" transform="matrix(-1 0 0 1 581.489 619.779)" fill="#58D498"/>
<rect width="8.02058" height="8.02058" transform="matrix(-1 0 0 1 552.614 619.779)" fill="#58D498"/>
<rect width="8.02058" height="8.02058" transform="matrix(-1 0 0 1 639.238 619.779)" fill="#58D498"/>
<rect width="8.02058" height="8.02058" transform="matrix(-1 0 0 1 696.985 645.446)" fill="#58D498"/>
<rect width="8.02058" height="8.02058" transform="matrix(-1 0 0 1 668.111 645.445)" fill="#58D498"/>
<rect width="8.02058" height="8.02058" transform="matrix(-1 0 0 1 639.238 645.445)" fill="#58D498"/>
<rect width="8.02058" height="8.02058" transform="matrix(-1 0 0 1 610.363 645.445)" fill="#58D498"/>
<rect width="8.02058" height="8.02058" transform="matrix(-1 0 0 1 581.489 645.445)" fill="#58D498"/>
<rect width="8.02058" height="8.02058" transform="matrix(-1 0 0 1 552.614 645.445)" fill="#58D498"/>
<rect width="8.02058" height="8.02058" transform="matrix(-1 0 0 1 639.238 645.445)" fill="#58D498"/>
<rect width="8.02058" height="8.02058" transform="matrix(-1 0 0 1 696.985 675.924)" fill="#58D498"/>
<rect width="8.02058" height="8.02058" transform="matrix(-1 0 0 1 668.111 675.924)" fill="#58D498"/>
<rect width="8.02058" height="8.02058" transform="matrix(-1 0 0 1 639.238 675.924)" fill="#58D498"/>
<rect width="8.02058" height="8.02058" transform="matrix(-1 0 0 1 610.363 675.924)" fill="#58D498"/>
<rect width="8.02058" height="8.02058" transform="matrix(-1 0 0 1 581.489 675.924)" fill="#58D498"/>
<rect width="8.02058" height="8.02058" transform="matrix(-1 0 0 1 552.614 675.924)" fill="#58D498"/>
<rect width="8.02058" height="8.02058" transform="matrix(-1 0 0 1 639.238 675.924)" fill="#58D498"/>
<rect x="178" width="462" height="604" rx="100" fill="#FFDC60"/>
<g filter="url(#filter0_d_108_40)">
<rect x="55" y="95" width="220" height="75" rx="15" fill="white"/>
</g>
<path d="M82 132C88.6274 132 94 126.627 94 120C94 113.373 88.6274 108 82 108C75.3726 108 70 113.373 70 120C70 126.627 75.3726 132 82 132Z" fill="#58D498"/>
<path d="M75.5422 120.763L80.0677 125.288L88.4067 116.949L86.9829 115.475L80.0677 122.39L76.966 119.288L75.5422 120.763Z" fill="white"/>
<path d="M121.722 116.006L119.049 126H117.88L115.897 119.273C115.838 119.082 115.781 118.891 115.727 118.699C115.676 118.503 115.629 118.319 115.583 118.146C115.537 117.968 115.499 117.813 115.467 117.681C115.439 117.544 115.419 117.441 115.405 117.373C115.396 117.441 115.378 117.542 115.351 117.674C115.328 117.806 115.296 117.959 115.255 118.132C115.218 118.305 115.173 118.49 115.118 118.686C115.068 118.882 115.013 119.08 114.954 119.28L113.026 126H111.857L109.205 116.006H110.415L112.021 122.274C112.076 122.484 112.126 122.691 112.172 122.896C112.222 123.097 112.265 123.293 112.302 123.484C112.343 123.676 112.379 123.863 112.411 124.045C112.443 124.227 112.473 124.405 112.5 124.578C112.523 124.4 112.552 124.216 112.589 124.024C112.625 123.828 112.664 123.63 112.705 123.43C112.751 123.229 112.799 123.026 112.849 122.821C112.903 122.616 112.96 122.411 113.02 122.206L114.817 116.006H116.014L117.887 122.254C117.951 122.468 118.01 122.68 118.064 122.89C118.119 123.099 118.167 123.304 118.208 123.505C118.254 123.701 118.292 123.89 118.324 124.072C118.361 124.25 118.393 124.419 118.42 124.578C118.452 124.355 118.491 124.12 118.536 123.874C118.582 123.628 118.634 123.37 118.693 123.102C118.757 122.833 118.826 122.555 118.898 122.268L120.505 116.006H121.722ZM126.015 118.371C126.653 118.371 127.2 118.512 127.655 118.795C128.111 119.077 128.46 119.474 128.701 119.984C128.943 120.49 129.063 121.083 129.063 121.762V122.466H123.889C123.902 123.345 124.121 124.015 124.545 124.476C124.969 124.936 125.566 125.166 126.336 125.166C126.81 125.166 127.229 125.123 127.594 125.036C127.958 124.95 128.337 124.822 128.729 124.653V125.651C128.35 125.82 127.974 125.943 127.601 126.021C127.231 126.098 126.794 126.137 126.288 126.137C125.568 126.137 124.939 125.991 124.401 125.699C123.868 125.403 123.453 124.97 123.157 124.4C122.861 123.831 122.713 123.133 122.713 122.309C122.713 121.502 122.847 120.805 123.116 120.217C123.39 119.624 123.772 119.169 124.265 118.85C124.761 118.531 125.345 118.371 126.015 118.371ZM126.001 119.301C125.395 119.301 124.912 119.499 124.552 119.896C124.192 120.292 123.978 120.846 123.909 121.557H127.874C127.869 121.11 127.799 120.718 127.662 120.381C127.53 120.039 127.327 119.775 127.054 119.588C126.78 119.396 126.429 119.301 126.001 119.301ZM137.513 118.371C138.151 118.371 138.698 118.512 139.153 118.795C139.609 119.077 139.958 119.474 140.199 119.984C140.441 120.49 140.562 121.083 140.562 121.762V122.466H135.387C135.4 123.345 135.619 124.015 136.043 124.476C136.467 124.936 137.064 125.166 137.834 125.166C138.308 125.166 138.727 125.123 139.092 125.036C139.456 124.95 139.835 124.822 140.227 124.653V125.651C139.848 125.82 139.472 125.943 139.099 126.021C138.729 126.098 138.292 126.137 137.786 126.137C137.066 126.137 136.437 125.991 135.899 125.699C135.366 125.403 134.951 124.97 134.655 124.4C134.359 123.831 134.211 123.133 134.211 122.309C134.211 121.502 134.345 120.805 134.614 120.217C134.888 119.624 135.271 119.169 135.763 118.85C136.259 118.531 136.843 118.371 137.513 118.371ZM137.499 119.301C136.893 119.301 136.41 119.499 136.05 119.896C135.69 120.292 135.476 120.846 135.407 121.557H139.372C139.368 121.11 139.297 120.718 139.16 120.381C139.028 120.039 138.825 119.775 138.552 119.588C138.278 119.396 137.927 119.301 137.499 119.301ZM150.624 118.371C151.449 118.371 152.071 118.588 152.49 119.021C152.91 119.449 153.119 120.139 153.119 121.092V126H151.998V121.146C151.998 120.54 151.866 120.087 151.602 119.786C151.342 119.481 150.954 119.328 150.439 119.328C149.715 119.328 149.188 119.538 148.86 119.957C148.532 120.376 148.368 120.994 148.368 121.81V126H147.24V121.146C147.24 120.741 147.181 120.404 147.062 120.135C146.949 119.866 146.775 119.665 146.543 119.533C146.315 119.396 146.026 119.328 145.675 119.328C145.178 119.328 144.779 119.431 144.479 119.636C144.178 119.841 143.959 120.146 143.822 120.552C143.69 120.953 143.624 121.447 143.624 122.035V126H142.489V118.508H143.405L143.576 119.567H143.638C143.788 119.308 143.977 119.089 144.205 118.911C144.433 118.733 144.688 118.599 144.971 118.508C145.253 118.417 145.554 118.371 145.873 118.371C146.443 118.371 146.919 118.478 147.302 118.692C147.689 118.902 147.969 119.223 148.143 119.656H148.204C148.45 119.223 148.787 118.902 149.216 118.692C149.644 118.478 150.114 118.371 150.624 118.371ZM158.971 118.371C159.905 118.371 160.65 118.692 161.206 119.335C161.762 119.978 162.04 120.944 162.04 122.233C162.04 123.086 161.912 123.801 161.657 124.38C161.402 124.959 161.042 125.396 160.577 125.692C160.117 125.989 159.572 126.137 158.943 126.137C158.547 126.137 158.198 126.084 157.897 125.979C157.597 125.875 157.339 125.733 157.125 125.556C156.911 125.378 156.733 125.184 156.592 124.975H156.51C156.523 125.152 156.539 125.367 156.558 125.617C156.58 125.868 156.592 126.087 156.592 126.273V129.35H155.45V118.508H156.387L156.537 119.615H156.592C156.738 119.387 156.915 119.18 157.125 118.993C157.335 118.802 157.59 118.651 157.891 118.542C158.196 118.428 158.556 118.371 158.971 118.371ZM158.772 119.328C158.253 119.328 157.834 119.428 157.515 119.629C157.2 119.829 156.97 120.13 156.824 120.531C156.678 120.928 156.601 121.427 156.592 122.028V122.247C156.592 122.881 156.66 123.416 156.797 123.854C156.938 124.291 157.168 124.624 157.487 124.852C157.811 125.079 158.244 125.193 158.786 125.193C159.251 125.193 159.638 125.068 159.948 124.817C160.258 124.567 160.488 124.218 160.639 123.771C160.794 123.32 160.871 122.803 160.871 122.22C160.871 121.336 160.698 120.634 160.352 120.114C160.01 119.59 159.483 119.328 158.772 119.328ZM170.482 122.24C170.482 122.855 170.403 123.405 170.243 123.888C170.084 124.371 169.854 124.779 169.553 125.111C169.252 125.444 168.887 125.699 168.459 125.877C168.035 126.05 167.554 126.137 167.017 126.137C166.515 126.137 166.055 126.05 165.636 125.877C165.221 125.699 164.861 125.444 164.556 125.111C164.255 124.779 164.02 124.371 163.852 123.888C163.688 123.405 163.605 122.855 163.605 122.24C163.605 121.42 163.744 120.723 164.022 120.148C164.3 119.57 164.697 119.13 165.212 118.829C165.731 118.524 166.349 118.371 167.064 118.371C167.748 118.371 168.345 118.524 168.855 118.829C169.37 119.134 169.769 119.576 170.052 120.155C170.339 120.729 170.482 121.424 170.482 122.24ZM164.781 122.24C164.781 122.842 164.861 123.364 165.021 123.806C165.18 124.248 165.426 124.59 165.759 124.831C166.091 125.073 166.52 125.193 167.044 125.193C167.563 125.193 167.99 125.073 168.322 124.831C168.66 124.59 168.908 124.248 169.067 123.806C169.227 123.364 169.307 122.842 169.307 122.24C169.307 121.643 169.227 121.128 169.067 120.695C168.908 120.258 168.662 119.921 168.329 119.684C167.996 119.447 167.566 119.328 167.037 119.328C166.258 119.328 165.686 119.586 165.321 120.101C164.961 120.616 164.781 121.329 164.781 122.24ZM178.542 125.986L177.209 121.625C177.15 121.438 177.093 121.256 177.038 121.078C176.988 120.896 176.94 120.723 176.895 120.559C176.854 120.39 176.815 120.235 176.778 120.094C176.746 119.948 176.719 119.823 176.696 119.718H176.648C176.63 119.823 176.605 119.948 176.573 120.094C176.541 120.235 176.503 120.39 176.457 120.559C176.416 120.727 176.37 120.905 176.32 121.092C176.27 121.274 176.213 121.459 176.149 121.646L174.755 125.986H173.477L171.412 118.494H172.588L173.668 122.63C173.741 122.903 173.809 123.174 173.873 123.443C173.941 123.708 173.998 123.958 174.044 124.195C174.094 124.428 174.131 124.631 174.153 124.804H174.208C174.235 124.69 174.265 124.553 174.297 124.394C174.333 124.234 174.372 124.065 174.413 123.888C174.459 123.705 174.507 123.525 174.557 123.348C174.607 123.165 174.657 122.994 174.707 122.835L176.088 118.494H177.312L178.645 122.828C178.713 123.047 178.779 123.275 178.843 123.512C178.911 123.749 178.973 123.979 179.027 124.202C179.082 124.421 179.121 124.617 179.144 124.79H179.198C179.216 124.635 179.251 124.444 179.301 124.216C179.351 123.988 179.408 123.737 179.472 123.464C179.54 123.19 179.611 122.912 179.684 122.63L180.777 118.494H181.933L179.861 125.986H178.542ZM186.185 118.371C186.823 118.371 187.369 118.512 187.825 118.795C188.281 119.077 188.63 119.474 188.871 119.984C189.113 120.49 189.233 121.083 189.233 121.762V122.466H184.059C184.072 123.345 184.291 124.015 184.715 124.476C185.139 124.936 185.736 125.166 186.506 125.166C186.98 125.166 187.399 125.123 187.764 125.036C188.128 124.95 188.507 124.822 188.898 124.653V125.651C188.52 125.82 188.144 125.943 187.771 126.021C187.401 126.098 186.964 126.137 186.458 126.137C185.738 126.137 185.109 125.991 184.571 125.699C184.038 125.403 183.623 124.97 183.327 124.4C183.031 123.831 182.883 123.133 182.883 122.309C182.883 121.502 183.017 120.805 183.286 120.217C183.56 119.624 183.942 119.169 184.435 118.85C184.931 118.531 185.515 118.371 186.185 118.371ZM186.171 119.301C185.565 119.301 185.082 119.499 184.722 119.896C184.362 120.292 184.147 120.846 184.079 121.557H188.044C188.039 121.11 187.969 120.718 187.832 120.381C187.7 120.039 187.497 119.775 187.224 119.588C186.95 119.396 186.599 119.301 186.171 119.301ZM194.565 118.371C194.716 118.371 194.873 118.38 195.037 118.398C195.201 118.412 195.347 118.433 195.475 118.46L195.331 119.513C195.208 119.481 195.071 119.456 194.921 119.438C194.771 119.419 194.629 119.41 194.497 119.41C194.196 119.41 193.911 119.472 193.643 119.595C193.378 119.713 193.146 119.886 192.945 120.114C192.745 120.338 192.588 120.609 192.474 120.928C192.36 121.242 192.303 121.593 192.303 121.98V126H191.161V118.508H192.104L192.228 119.889H192.275C192.43 119.611 192.617 119.358 192.836 119.13C193.055 118.897 193.308 118.713 193.595 118.576C193.886 118.439 194.21 118.371 194.565 118.371ZM199.344 118.508H200.561L202.215 122.855C202.311 123.111 202.399 123.357 202.481 123.594C202.563 123.826 202.636 124.049 202.7 124.264C202.764 124.478 202.814 124.685 202.851 124.886H202.898C202.962 124.658 203.053 124.359 203.172 123.99C203.29 123.617 203.418 123.236 203.555 122.849L205.12 118.508H206.344L203.083 127.101C202.91 127.561 202.707 127.962 202.475 128.304C202.247 128.646 201.969 128.908 201.641 129.09C201.312 129.277 200.916 129.37 200.451 129.37C200.237 129.37 200.048 129.356 199.884 129.329C199.72 129.306 199.578 129.279 199.46 129.247V128.338C199.56 128.361 199.681 128.381 199.822 128.399C199.968 128.418 200.118 128.427 200.273 128.427C200.556 128.427 200.8 128.372 201.005 128.263C201.215 128.158 201.395 128.003 201.545 127.798C201.695 127.593 201.825 127.349 201.935 127.066L202.345 126.014L199.344 118.508ZM214 122.24C214 122.855 213.92 123.405 213.761 123.888C213.601 124.371 213.371 124.779 213.07 125.111C212.77 125.444 212.405 125.699 211.977 125.877C211.553 126.05 211.072 126.137 210.534 126.137C210.033 126.137 209.573 126.05 209.153 125.877C208.739 125.699 208.379 125.444 208.073 125.111C207.772 124.779 207.538 124.371 207.369 123.888C207.205 123.405 207.123 122.855 207.123 122.24C207.123 121.42 207.262 120.723 207.54 120.148C207.818 119.57 208.215 119.13 208.729 118.829C209.249 118.524 209.867 118.371 210.582 118.371C211.266 118.371 211.863 118.524 212.373 118.829C212.888 119.134 213.287 119.576 213.569 120.155C213.856 120.729 214 121.424 214 122.24ZM208.299 122.24C208.299 122.842 208.379 123.364 208.538 123.806C208.698 124.248 208.944 124.59 209.276 124.831C209.609 125.073 210.037 125.193 210.562 125.193C211.081 125.193 211.507 125.073 211.84 124.831C212.177 124.59 212.425 124.248 212.585 123.806C212.744 123.364 212.824 122.842 212.824 122.24C212.824 121.643 212.744 121.128 212.585 120.695C212.425 120.258 212.179 119.921 211.847 119.684C211.514 119.447 211.083 119.328 210.555 119.328C209.775 119.328 209.203 119.586 208.839 120.101C208.479 120.616 208.299 121.329 208.299 122.24ZM222.148 118.508V126H221.219L221.055 124.947H220.993C220.838 125.207 220.638 125.426 220.392 125.604C220.146 125.781 219.868 125.913 219.558 126C219.252 126.091 218.926 126.137 218.58 126.137C217.988 126.137 217.491 126.041 217.09 125.85C216.689 125.658 216.386 125.362 216.181 124.961C215.98 124.56 215.88 124.045 215.88 123.416V118.508H217.028V123.334C217.028 123.958 217.17 124.425 217.452 124.735C217.735 125.041 218.165 125.193 218.744 125.193C219.3 125.193 219.742 125.089 220.07 124.879C220.403 124.669 220.642 124.362 220.788 123.956C220.934 123.546 221.007 123.045 221.007 122.452V118.508H222.148ZM234.282 125.986L232.949 121.625C232.89 121.438 232.833 121.256 232.778 121.078C232.728 120.896 232.68 120.723 232.635 120.559C232.594 120.39 232.555 120.235 232.519 120.094C232.487 119.948 232.459 119.823 232.437 119.718H232.389C232.37 119.823 232.345 119.948 232.313 120.094C232.282 120.235 232.243 120.39 232.197 120.559C232.156 120.727 232.111 120.905 232.061 121.092C232.01 121.274 231.953 121.459 231.89 121.646L230.495 125.986H229.217L227.152 118.494H228.328L229.408 122.63C229.481 122.903 229.549 123.174 229.613 123.443C229.682 123.708 229.739 123.958 229.784 124.195C229.834 124.428 229.871 124.631 229.894 124.804H229.948C229.976 124.69 230.005 124.553 230.037 124.394C230.074 124.234 230.112 124.065 230.153 123.888C230.199 123.705 230.247 123.525 230.297 123.348C230.347 123.165 230.397 122.994 230.447 122.835L231.828 118.494H233.052L234.385 122.828C234.453 123.047 234.519 123.275 234.583 123.512C234.651 123.749 234.713 123.979 234.768 124.202C234.822 124.421 234.861 124.617 234.884 124.79H234.938C234.957 124.635 234.991 124.444 235.041 124.216C235.091 123.988 235.148 123.737 235.212 123.464C235.28 123.19 235.351 122.912 235.424 122.63L236.518 118.494H237.673L235.602 125.986H234.282ZM240.175 118.508V126H239.04V118.508H240.175ZM239.621 115.705C239.808 115.705 239.967 115.767 240.1 115.89C240.236 116.008 240.305 116.195 240.305 116.45C240.305 116.701 240.236 116.888 240.1 117.011C239.967 117.134 239.808 117.195 239.621 117.195C239.425 117.195 239.261 117.134 239.129 117.011C239.001 116.888 238.938 116.701 238.938 116.45C238.938 116.195 239.001 116.008 239.129 115.89C239.261 115.767 239.425 115.705 239.621 115.705ZM245.001 125.207C245.188 125.207 245.379 125.191 245.575 125.159C245.771 125.127 245.931 125.089 246.054 125.043V125.925C245.922 125.984 245.737 126.034 245.5 126.075C245.268 126.116 245.04 126.137 244.816 126.137C244.42 126.137 244.06 126.068 243.736 125.932C243.413 125.79 243.153 125.553 242.957 125.221C242.766 124.888 242.67 124.428 242.67 123.84V119.396H241.604V118.843L242.677 118.398L243.128 116.771H243.812V118.508H246.006V119.396H243.812V123.806C243.812 124.275 243.919 124.626 244.133 124.858C244.352 125.091 244.641 125.207 245.001 125.207ZM248.706 115.363V118.542C248.706 118.724 248.701 118.909 248.692 119.096C248.683 119.278 248.667 119.447 248.645 119.602H248.72C248.875 119.337 249.071 119.116 249.308 118.938C249.549 118.756 249.823 118.619 250.128 118.528C250.433 118.433 250.757 118.385 251.099 118.385C251.7 118.385 252.201 118.48 252.603 118.672C253.008 118.863 253.311 119.16 253.512 119.561C253.717 119.962 253.819 120.481 253.819 121.119V126H252.698V121.194C252.698 120.57 252.555 120.103 252.268 119.793C251.985 119.483 251.55 119.328 250.962 119.328C250.406 119.328 249.962 119.435 249.629 119.649C249.301 119.859 249.064 120.169 248.918 120.579C248.777 120.989 248.706 121.491 248.706 122.083V126H247.571V115.363H248.706ZM112.616 150.207C112.803 150.207 112.994 150.191 113.19 150.159C113.386 150.127 113.546 150.089 113.669 150.043V150.925C113.537 150.984 113.352 151.034 113.115 151.075C112.883 151.116 112.655 151.137 112.432 151.137C112.035 151.137 111.675 151.068 111.352 150.932C111.028 150.79 110.768 150.553 110.572 150.221C110.381 149.888 110.285 149.428 110.285 148.84V144.396H109.219V143.843L110.292 143.398L110.743 141.771H111.427V143.508H113.621V144.396H111.427V148.806C111.427 149.275 111.534 149.626 111.748 149.858C111.967 150.091 112.256 150.207 112.616 150.207ZM116.321 140.363V143.542C116.321 143.724 116.317 143.909 116.308 144.096C116.299 144.278 116.283 144.447 116.26 144.602H116.335C116.49 144.337 116.686 144.116 116.923 143.938C117.164 143.756 117.438 143.619 117.743 143.528C118.049 143.433 118.372 143.385 118.714 143.385C119.315 143.385 119.817 143.48 120.218 143.672C120.623 143.863 120.926 144.16 121.127 144.561C121.332 144.962 121.435 145.481 121.435 146.119V151H120.313V146.194C120.313 145.57 120.17 145.103 119.883 144.793C119.6 144.483 119.165 144.328 118.577 144.328C118.021 144.328 117.577 144.435 117.244 144.649C116.916 144.859 116.679 145.169 116.533 145.579C116.392 145.989 116.321 146.491 116.321 147.083V151H115.187V140.363H116.321ZM126.657 143.371C127.295 143.371 127.842 143.512 128.298 143.795C128.754 144.077 129.102 144.474 129.344 144.984C129.585 145.49 129.706 146.083 129.706 146.762V147.466H124.531C124.545 148.345 124.764 149.015 125.188 149.476C125.611 149.936 126.208 150.166 126.979 150.166C127.452 150.166 127.872 150.123 128.236 150.036C128.601 149.95 128.979 149.822 129.371 149.653V150.651C128.993 150.82 128.617 150.943 128.243 151.021C127.874 151.098 127.437 151.137 126.931 151.137C126.211 151.137 125.582 150.991 125.044 150.699C124.511 150.403 124.096 149.97 123.8 149.4C123.504 148.831 123.355 148.133 123.355 147.309C123.355 146.502 123.49 145.805 123.759 145.217C124.032 144.624 124.415 144.169 124.907 143.85C125.404 143.531 125.987 143.371 126.657 143.371ZM126.644 144.301C126.037 144.301 125.554 144.499 125.194 144.896C124.834 145.292 124.62 145.846 124.552 146.557H128.517C128.512 146.11 128.441 145.718 128.305 145.381C128.173 145.039 127.97 144.775 127.696 144.588C127.423 144.396 127.072 144.301 126.644 144.301ZM138.675 143.371C138.825 143.371 138.982 143.38 139.146 143.398C139.311 143.412 139.456 143.433 139.584 143.46L139.44 144.513C139.317 144.481 139.181 144.456 139.03 144.438C138.88 144.419 138.739 144.41 138.606 144.41C138.306 144.41 138.021 144.472 137.752 144.595C137.488 144.713 137.255 144.886 137.055 145.114C136.854 145.338 136.697 145.609 136.583 145.928C136.469 146.242 136.412 146.593 136.412 146.98V151H135.271V143.508H136.214L136.337 144.889H136.385C136.54 144.611 136.727 144.358 136.945 144.13C137.164 143.897 137.417 143.713 137.704 143.576C137.996 143.439 138.319 143.371 138.675 143.371ZM142.134 143.508V151H140.999V143.508H142.134ZM141.58 140.705C141.767 140.705 141.926 140.767 142.059 140.89C142.195 141.008 142.264 141.195 142.264 141.45C142.264 141.701 142.195 141.888 142.059 142.011C141.926 142.134 141.767 142.195 141.58 142.195C141.384 142.195 141.22 142.134 141.088 142.011C140.96 141.888 140.896 141.701 140.896 141.45C140.896 141.195 140.96 141.008 141.088 140.89C141.22 140.767 141.384 140.705 141.58 140.705ZM146.632 154.363C145.647 154.363 144.889 154.179 144.355 153.81C143.822 153.445 143.556 152.932 143.556 152.271C143.556 151.802 143.704 151.401 144 151.068C144.301 150.736 144.715 150.515 145.244 150.405C145.048 150.314 144.88 150.177 144.738 149.995C144.602 149.813 144.533 149.603 144.533 149.366C144.533 149.093 144.608 148.854 144.759 148.648C144.914 148.439 145.148 148.238 145.463 148.047C145.071 147.887 144.752 147.618 144.506 147.24C144.264 146.857 144.144 146.413 144.144 145.907C144.144 145.369 144.255 144.911 144.479 144.533C144.702 144.15 145.025 143.859 145.449 143.658C145.873 143.458 146.386 143.357 146.987 143.357C147.119 143.357 147.252 143.364 147.384 143.378C147.521 143.387 147.65 143.403 147.773 143.426C147.896 143.444 148.004 143.467 148.095 143.494H150.665V144.226L149.284 144.396C149.421 144.574 149.535 144.788 149.626 145.039C149.717 145.29 149.763 145.568 149.763 145.873C149.763 146.62 149.51 147.215 149.004 147.657C148.498 148.095 147.803 148.313 146.919 148.313C146.709 148.313 146.495 148.295 146.276 148.259C146.053 148.382 145.882 148.519 145.764 148.669C145.65 148.819 145.593 148.993 145.593 149.188C145.593 149.334 145.636 149.451 145.723 149.537C145.814 149.624 145.944 149.688 146.112 149.729C146.281 149.765 146.484 149.783 146.721 149.783H148.04C148.856 149.783 149.48 149.954 149.913 150.296C150.351 150.638 150.569 151.137 150.569 151.793C150.569 152.622 150.232 153.258 149.558 153.7C148.883 154.142 147.908 154.363 146.632 154.363ZM146.666 153.475C147.286 153.475 147.799 153.411 148.204 153.283C148.614 153.16 148.92 152.98 149.12 152.743C149.325 152.511 149.428 152.233 149.428 151.909C149.428 151.608 149.359 151.381 149.223 151.226C149.086 151.075 148.885 150.975 148.621 150.925C148.357 150.87 148.033 150.843 147.65 150.843H146.352C146.014 150.843 145.72 150.895 145.47 151C145.219 151.105 145.025 151.26 144.889 151.465C144.757 151.67 144.69 151.925 144.69 152.23C144.69 152.636 144.861 152.944 145.203 153.153C145.545 153.368 146.033 153.475 146.666 153.475ZM146.96 147.486C147.502 147.486 147.91 147.35 148.184 147.076C148.457 146.803 148.594 146.404 148.594 145.88C148.594 145.319 148.455 144.9 148.177 144.622C147.899 144.34 147.489 144.198 146.946 144.198C146.427 144.198 146.026 144.344 145.743 144.636C145.465 144.923 145.326 145.344 145.326 145.9C145.326 146.411 145.467 146.803 145.75 147.076C146.033 147.35 146.436 147.486 146.96 147.486ZM153.276 140.363V143.542C153.276 143.724 153.272 143.909 153.263 144.096C153.254 144.278 153.238 144.447 153.215 144.602H153.29C153.445 144.337 153.641 144.116 153.878 143.938C154.119 143.756 154.393 143.619 154.698 143.528C155.004 143.433 155.327 143.385 155.669 143.385C156.271 143.385 156.772 143.48 157.173 143.672C157.578 143.863 157.882 144.16 158.082 144.561C158.287 144.962 158.39 145.481 158.39 146.119V151H157.269V146.194C157.269 145.57 157.125 145.103 156.838 144.793C156.555 144.483 156.12 144.328 155.532 144.328C154.976 144.328 154.532 144.435 154.199 144.649C153.871 144.859 153.634 145.169 153.488 145.579C153.347 145.989 153.276 146.491 153.276 147.083V151H152.142V140.363H153.276ZM163.147 150.207C163.334 150.207 163.526 150.191 163.722 150.159C163.918 150.127 164.077 150.089 164.2 150.043V150.925C164.068 150.984 163.883 151.034 163.646 151.075C163.414 151.116 163.186 151.137 162.963 151.137C162.566 151.137 162.206 151.068 161.883 150.932C161.559 150.79 161.299 150.553 161.104 150.221C160.912 149.888 160.816 149.428 160.816 148.84V144.396H159.75V143.843L160.823 143.398L161.274 141.771H161.958V143.508H164.152V144.396H161.958V148.806C161.958 149.275 162.065 149.626 162.279 149.858C162.498 150.091 162.787 150.207 163.147 150.207ZM171.446 154.363C170.462 154.363 169.703 154.179 169.17 153.81C168.637 153.445 168.37 152.932 168.37 152.271C168.37 151.802 168.518 151.401 168.814 151.068C169.115 150.736 169.53 150.515 170.059 150.405C169.863 150.314 169.694 150.177 169.553 149.995C169.416 149.813 169.348 149.603 169.348 149.366C169.348 149.093 169.423 148.854 169.573 148.648C169.728 148.439 169.963 148.238 170.277 148.047C169.885 147.887 169.566 147.618 169.32 147.24C169.079 146.857 168.958 146.413 168.958 145.907C168.958 145.369 169.07 144.911 169.293 144.533C169.516 144.15 169.84 143.859 170.264 143.658C170.688 143.458 171.2 143.357 171.802 143.357C171.934 143.357 172.066 143.364 172.198 143.378C172.335 143.387 172.465 143.403 172.588 143.426C172.711 143.444 172.818 143.467 172.909 143.494H175.479V144.226L174.099 144.396C174.235 144.574 174.349 144.788 174.44 145.039C174.532 145.29 174.577 145.568 174.577 145.873C174.577 146.62 174.324 147.215 173.818 147.657C173.312 148.095 172.618 148.313 171.733 148.313C171.524 148.313 171.31 148.295 171.091 148.259C170.868 148.382 170.697 148.519 170.578 148.669C170.464 148.819 170.407 148.993 170.407 149.188C170.407 149.334 170.451 149.451 170.537 149.537C170.628 149.624 170.758 149.688 170.927 149.729C171.095 149.765 171.298 149.783 171.535 149.783H172.854C173.67 149.783 174.295 149.954 174.728 150.296C175.165 150.638 175.384 151.137 175.384 151.793C175.384 152.622 175.047 153.258 174.372 153.7C173.698 154.142 172.722 154.363 171.446 154.363ZM171.48 153.475C172.1 153.475 172.613 153.411 173.019 153.283C173.429 153.16 173.734 152.98 173.935 152.743C174.14 152.511 174.242 152.233 174.242 151.909C174.242 151.608 174.174 151.381 174.037 151.226C173.9 151.075 173.7 150.975 173.436 150.925C173.171 150.87 172.848 150.843 172.465 150.843H171.166C170.829 150.843 170.535 150.895 170.284 151C170.034 151.105 169.84 151.26 169.703 151.465C169.571 151.67 169.505 151.925 169.505 152.23C169.505 152.636 169.676 152.944 170.018 153.153C170.359 153.368 170.847 153.475 171.48 153.475ZM171.774 147.486C172.317 147.486 172.725 147.35 172.998 147.076C173.271 146.803 173.408 146.404 173.408 145.88C173.408 145.319 173.269 144.9 172.991 144.622C172.713 144.34 172.303 144.198 171.761 144.198C171.241 144.198 170.84 144.344 170.558 144.636C170.28 144.923 170.141 145.344 170.141 145.9C170.141 146.411 170.282 146.803 170.564 147.076C170.847 147.35 171.25 147.486 171.774 147.486ZM183.143 143.508V151H182.213L182.049 149.947H181.987C181.832 150.207 181.632 150.426 181.386 150.604C181.14 150.781 180.862 150.913 180.552 151C180.246 151.091 179.921 151.137 179.574 151.137C178.982 151.137 178.485 151.041 178.084 150.85C177.683 150.658 177.38 150.362 177.175 149.961C176.974 149.56 176.874 149.045 176.874 148.416V143.508H178.022V148.334C178.022 148.958 178.164 149.425 178.446 149.735C178.729 150.041 179.16 150.193 179.738 150.193C180.294 150.193 180.736 150.089 181.064 149.879C181.397 149.669 181.636 149.362 181.782 148.956C181.928 148.546 182.001 148.045 182.001 147.452V143.508H183.143ZM186.677 143.508V151H185.542V143.508H186.677ZM186.123 140.705C186.31 140.705 186.469 140.767 186.602 140.89C186.738 141.008 186.807 141.195 186.807 141.45C186.807 141.701 186.738 141.888 186.602 142.011C186.469 142.134 186.31 142.195 186.123 142.195C185.927 142.195 185.763 142.134 185.631 142.011C185.503 141.888 185.439 141.701 185.439 141.45C185.439 141.195 185.503 141.008 185.631 140.89C185.763 140.767 185.927 140.705 186.123 140.705ZM191.749 151.137C190.801 151.137 190.049 150.813 189.493 150.166C188.942 149.519 188.666 148.557 188.666 147.281C188.666 145.992 188.949 145.019 189.514 144.362C190.079 143.701 190.831 143.371 191.77 143.371C192.166 143.371 192.512 143.424 192.809 143.528C193.105 143.633 193.36 143.774 193.574 143.952C193.788 144.125 193.968 144.324 194.114 144.547H194.196C194.178 144.406 194.16 144.212 194.142 143.966C194.123 143.72 194.114 143.519 194.114 143.364V140.363H195.249V151H194.333L194.162 149.934H194.114C193.973 150.157 193.793 150.36 193.574 150.542C193.36 150.724 193.103 150.87 192.802 150.979C192.506 151.084 192.155 151.137 191.749 151.137ZM191.927 150.193C192.729 150.193 193.296 149.965 193.629 149.51C193.962 149.054 194.128 148.377 194.128 147.479V147.274C194.128 146.322 193.968 145.59 193.649 145.08C193.335 144.57 192.761 144.314 191.927 144.314C191.229 144.314 190.708 144.583 190.361 145.121C190.015 145.654 189.842 146.383 189.842 147.309C189.842 148.229 190.013 148.94 190.354 149.441C190.701 149.943 191.225 150.193 191.927 150.193ZM200.458 143.385C201.351 143.385 202.014 143.585 202.447 143.986C202.88 144.387 203.097 145.028 203.097 145.907V151H202.27L202.051 149.893H201.996C201.786 150.166 201.568 150.396 201.34 150.583C201.112 150.765 200.848 150.904 200.547 151C200.251 151.091 199.886 151.137 199.453 151.137C198.997 151.137 198.592 151.057 198.236 150.897C197.885 150.738 197.607 150.496 197.402 150.173C197.202 149.849 197.102 149.439 197.102 148.942C197.102 148.195 197.398 147.621 197.99 147.22C198.583 146.819 199.485 146.6 200.697 146.563L201.989 146.509V146.051C201.989 145.404 201.85 144.95 201.572 144.69C201.294 144.431 200.902 144.301 200.396 144.301C200.005 144.301 199.631 144.358 199.275 144.472C198.92 144.586 198.583 144.72 198.264 144.875L197.915 144.014C198.252 143.84 198.64 143.692 199.077 143.569C199.515 143.446 199.975 143.385 200.458 143.385ZM201.976 147.309L200.834 147.356C199.9 147.393 199.241 147.546 198.858 147.814C198.476 148.083 198.284 148.464 198.284 148.956C198.284 149.384 198.414 149.701 198.674 149.906C198.934 150.111 199.278 150.214 199.706 150.214C200.371 150.214 200.916 150.029 201.34 149.66C201.764 149.291 201.976 148.737 201.976 147.999V147.309ZM208.982 143.371C209.871 143.371 210.543 143.59 210.999 144.027C211.455 144.46 211.683 145.158 211.683 146.119V151H210.562V146.194C210.562 145.57 210.418 145.103 210.131 144.793C209.848 144.483 209.413 144.328 208.825 144.328C207.996 144.328 207.412 144.563 207.075 145.032C206.738 145.502 206.569 146.183 206.569 147.076V151H205.435V143.508H206.351L206.521 144.588H206.583C206.743 144.324 206.945 144.103 207.191 143.925C207.438 143.743 207.713 143.606 208.019 143.515C208.324 143.419 208.645 143.371 208.982 143.371ZM217.021 151.137C216.347 151.137 215.752 150.998 215.237 150.72C214.722 150.442 214.321 150.018 214.034 149.448C213.747 148.879 213.604 148.161 213.604 147.295C213.604 146.388 213.754 145.647 214.055 145.073C214.36 144.494 214.779 144.066 215.312 143.788C215.846 143.51 216.452 143.371 217.131 143.371C217.505 143.371 217.865 143.41 218.211 143.487C218.562 143.56 218.849 143.654 219.072 143.768L218.73 144.718C218.503 144.627 218.238 144.545 217.938 144.472C217.641 144.399 217.363 144.362 217.104 144.362C216.584 144.362 216.151 144.474 215.805 144.697C215.463 144.921 215.205 145.249 215.032 145.682C214.864 146.115 214.779 146.648 214.779 147.281C214.779 147.887 214.861 148.405 215.025 148.833C215.194 149.261 215.442 149.59 215.771 149.817C216.103 150.041 216.518 150.152 217.015 150.152C217.411 150.152 217.769 150.111 218.088 150.029C218.407 149.943 218.696 149.842 218.956 149.729V150.74C218.705 150.868 218.425 150.966 218.115 151.034C217.81 151.103 217.445 151.137 217.021 151.137ZM223.618 143.371C224.256 143.371 224.803 143.512 225.259 143.795C225.715 144.077 226.063 144.474 226.305 144.984C226.546 145.49 226.667 146.083 226.667 146.762V147.466H221.492C221.506 148.345 221.725 149.015 222.148 149.476C222.572 149.936 223.169 150.166 223.939 150.166C224.413 150.166 224.833 150.123 225.197 150.036C225.562 149.95 225.94 149.822 226.332 149.653V150.651C225.954 150.82 225.578 150.943 225.204 151.021C224.835 151.098 224.397 151.137 223.892 151.137C223.172 151.137 222.543 150.991 222.005 150.699C221.472 150.403 221.057 149.97 220.761 149.4C220.465 148.831 220.316 148.133 220.316 147.309C220.316 146.502 220.451 145.805 220.72 145.217C220.993 144.624 221.376 144.169 221.868 143.85C222.365 143.531 222.948 143.371 223.618 143.371ZM223.604 144.301C222.998 144.301 222.515 144.499 222.155 144.896C221.795 145.292 221.581 145.846 221.513 146.557H225.478C225.473 146.11 225.402 145.718 225.266 145.381C225.133 145.039 224.931 144.775 224.657 144.588C224.384 144.396 224.033 144.301 223.604 144.301Z" fill="#333333"/>
<g filter="url(#filter1_d_108_40)">
<rect x="55" y="297" width="220" height="75" rx="15" fill="white"/>
</g>
<path d="M83 334C89.6274 334 95 328.627 95 322C95 315.373 89.6274 310 83 310C76.3726 310 71 315.373 71 322C71 328.627 76.3726 334 83 334Z" fill="#58D498"/>
<path d="M76.5425 322.763L81.0679 327.288L89.4069 318.949L87.9832 317.475L81.0679 324.39L77.9662 321.288L76.5425 322.763Z" fill="white"/>
<path d="M113.917 323.017L116.576 318.006H117.827L114.498 324.124V328H113.336V324.179L110 318.006H111.271L113.917 323.017ZM125.49 324.24C125.49 324.855 125.41 325.405 125.251 325.888C125.091 326.371 124.861 326.779 124.561 327.111C124.26 327.444 123.895 327.699 123.467 327.877C123.043 328.05 122.562 328.137 122.024 328.137C121.523 328.137 121.063 328.05 120.644 327.877C120.229 327.699 119.869 327.444 119.563 327.111C119.263 326.779 119.028 326.371 118.859 325.888C118.695 325.405 118.613 324.855 118.613 324.24C118.613 323.42 118.752 322.723 119.03 322.148C119.308 321.57 119.705 321.13 120.22 320.829C120.739 320.524 121.357 320.371 122.072 320.371C122.756 320.371 123.353 320.524 123.863 320.829C124.378 321.134 124.777 321.576 125.06 322.155C125.347 322.729 125.49 323.424 125.49 324.24ZM119.789 324.24C119.789 324.842 119.869 325.364 120.028 325.806C120.188 326.248 120.434 326.59 120.767 326.831C121.099 327.073 121.528 327.193 122.052 327.193C122.571 327.193 122.997 327.073 123.33 326.831C123.667 326.59 123.916 326.248 124.075 325.806C124.235 325.364 124.314 324.842 124.314 324.24C124.314 323.643 124.235 323.128 124.075 322.695C123.916 322.258 123.67 321.921 123.337 321.684C123.004 321.447 122.574 321.328 122.045 321.328C121.266 321.328 120.694 321.586 120.329 322.101C119.969 322.616 119.789 323.329 119.789 324.24ZM133.639 320.508V328H132.709L132.545 326.947H132.483C132.328 327.207 132.128 327.426 131.882 327.604C131.636 327.781 131.358 327.913 131.048 328C130.743 328.091 130.417 328.137 130.07 328.137C129.478 328.137 128.981 328.041 128.58 327.85C128.179 327.658 127.876 327.362 127.671 326.961C127.47 326.56 127.37 326.045 127.37 325.416V320.508H128.519V325.334C128.519 325.958 128.66 326.425 128.942 326.735C129.225 327.041 129.656 327.193 130.234 327.193C130.79 327.193 131.232 327.089 131.561 326.879C131.893 326.669 132.132 326.362 132.278 325.956C132.424 325.546 132.497 325.045 132.497 324.452V320.508H133.639ZM147.81 320.371C148.634 320.371 149.257 320.588 149.676 321.021C150.095 321.449 150.305 322.139 150.305 323.092V328H149.184V323.146C149.184 322.54 149.051 322.087 148.787 321.786C148.527 321.481 148.14 321.328 147.625 321.328C146.9 321.328 146.374 321.538 146.046 321.957C145.718 322.376 145.554 322.994 145.554 323.81V328H144.426V323.146C144.426 322.741 144.367 322.404 144.248 322.135C144.134 321.866 143.961 321.665 143.729 321.533C143.501 321.396 143.211 321.328 142.86 321.328C142.364 321.328 141.965 321.431 141.664 321.636C141.363 321.841 141.145 322.146 141.008 322.552C140.876 322.953 140.81 323.447 140.81 324.035V328H139.675V320.508H140.591L140.762 321.567H140.823C140.974 321.308 141.163 321.089 141.391 320.911C141.618 320.733 141.874 320.599 142.156 320.508C142.439 320.417 142.74 320.371 143.059 320.371C143.628 320.371 144.104 320.478 144.487 320.692C144.875 320.902 145.155 321.223 145.328 321.656H145.39C145.636 321.223 145.973 320.902 146.401 320.692C146.83 320.478 147.299 320.371 147.81 320.371ZM155.438 320.385C156.332 320.385 156.995 320.585 157.428 320.986C157.861 321.387 158.077 322.028 158.077 322.907V328H157.25L157.031 326.893H156.977C156.767 327.166 156.548 327.396 156.32 327.583C156.092 327.765 155.828 327.904 155.527 328C155.231 328.091 154.867 328.137 154.434 328.137C153.978 328.137 153.572 328.057 153.217 327.897C152.866 327.738 152.588 327.496 152.383 327.173C152.182 326.849 152.082 326.439 152.082 325.942C152.082 325.195 152.378 324.621 152.971 324.22C153.563 323.819 154.465 323.6 155.678 323.563L156.97 323.509V323.051C156.97 322.404 156.831 321.95 156.553 321.69C156.275 321.431 155.883 321.301 155.377 321.301C154.985 321.301 154.611 321.358 154.256 321.472C153.9 321.586 153.563 321.72 153.244 321.875L152.896 321.014C153.233 320.84 153.62 320.692 154.058 320.569C154.495 320.446 154.955 320.385 155.438 320.385ZM156.956 324.309L155.814 324.356C154.88 324.393 154.222 324.546 153.839 324.814C153.456 325.083 153.265 325.464 153.265 325.956C153.265 326.384 153.395 326.701 153.654 326.906C153.914 327.111 154.258 327.214 154.687 327.214C155.352 327.214 155.896 327.029 156.32 326.66C156.744 326.291 156.956 325.737 156.956 324.999V324.309ZM161.543 317.363V322.887C161.543 323.069 161.536 323.292 161.522 323.557C161.509 323.816 161.497 324.047 161.488 324.247H161.536C161.632 324.129 161.771 323.953 161.953 323.721C162.14 323.488 162.297 323.301 162.425 323.16L164.913 320.508H166.246L163.231 323.707L166.465 328H165.098L162.452 324.452L161.543 325.286V328H160.415V317.363H161.543ZM170.655 320.371C171.293 320.371 171.84 320.512 172.296 320.795C172.752 321.077 173.1 321.474 173.342 321.984C173.583 322.49 173.704 323.083 173.704 323.762V324.466H168.529C168.543 325.345 168.762 326.015 169.186 326.476C169.609 326.936 170.206 327.166 170.977 327.166C171.451 327.166 171.87 327.123 172.234 327.036C172.599 326.95 172.977 326.822 173.369 326.653V327.651C172.991 327.82 172.615 327.943 172.241 328.021C171.872 328.098 171.435 328.137 170.929 328.137C170.209 328.137 169.58 327.991 169.042 327.699C168.509 327.403 168.094 326.97 167.798 326.4C167.502 325.831 167.354 325.133 167.354 324.309C167.354 323.502 167.488 322.805 167.757 322.217C168.03 321.624 168.413 321.169 168.905 320.85C169.402 320.531 169.985 320.371 170.655 320.371ZM170.642 321.301C170.035 321.301 169.552 321.499 169.192 321.896C168.832 322.292 168.618 322.846 168.55 323.557H172.515C172.51 323.11 172.439 322.718 172.303 322.381C172.171 322.039 171.968 321.775 171.694 321.588C171.421 321.396 171.07 321.301 170.642 321.301ZM181.688 327.207C181.875 327.207 182.067 327.191 182.263 327.159C182.459 327.127 182.618 327.089 182.741 327.043V327.925C182.609 327.984 182.424 328.034 182.188 328.075C181.955 328.116 181.727 328.137 181.504 328.137C181.107 328.137 180.747 328.068 180.424 327.932C180.1 327.79 179.84 327.553 179.645 327.221C179.453 326.888 179.357 326.428 179.357 325.84V321.396H178.291V320.843L179.364 320.398L179.815 318.771H180.499V320.508H182.693V321.396H180.499V325.806C180.499 326.275 180.606 326.626 180.82 326.858C181.039 327.091 181.328 327.207 181.688 327.207ZM185.394 317.363V320.542C185.394 320.724 185.389 320.909 185.38 321.096C185.371 321.278 185.355 321.447 185.332 321.602H185.407C185.562 321.337 185.758 321.116 185.995 320.938C186.237 320.756 186.51 320.619 186.815 320.528C187.121 320.433 187.444 320.385 187.786 320.385C188.388 320.385 188.889 320.48 189.29 320.672C189.696 320.863 189.999 321.16 190.199 321.561C190.404 321.962 190.507 322.481 190.507 323.119V328H189.386V323.194C189.386 322.57 189.242 322.103 188.955 321.793C188.673 321.483 188.237 321.328 187.649 321.328C187.093 321.328 186.649 321.435 186.316 321.649C185.988 321.859 185.751 322.169 185.605 322.579C185.464 322.989 185.394 323.491 185.394 324.083V328H184.259V317.363H185.394ZM195.729 320.371C196.368 320.371 196.914 320.512 197.37 320.795C197.826 321.077 198.174 321.474 198.416 321.984C198.658 322.49 198.778 323.083 198.778 323.762V324.466H193.604C193.617 325.345 193.836 326.015 194.26 326.476C194.684 326.936 195.281 327.166 196.051 327.166C196.525 327.166 196.944 327.123 197.309 327.036C197.673 326.95 198.051 326.822 198.443 326.653V327.651C198.065 327.82 197.689 327.943 197.315 328.021C196.946 328.098 196.509 328.137 196.003 328.137C195.283 328.137 194.654 327.991 194.116 327.699C193.583 327.403 193.168 326.97 192.872 326.4C192.576 325.831 192.428 325.133 192.428 324.309C192.428 323.502 192.562 322.805 192.831 322.217C193.104 321.624 193.487 321.169 193.979 320.85C194.476 320.531 195.06 320.371 195.729 320.371ZM195.716 321.301C195.11 321.301 194.627 321.499 194.267 321.896C193.907 322.292 193.692 322.846 193.624 323.557H197.589C197.584 323.11 197.514 322.718 197.377 322.381C197.245 322.039 197.042 321.775 196.769 321.588C196.495 321.396 196.144 321.301 195.716 321.301ZM212.478 320.371C213.302 320.371 213.924 320.588 214.344 321.021C214.763 321.449 214.973 322.139 214.973 323.092V328H213.852V323.146C213.852 322.54 213.719 322.087 213.455 321.786C213.195 321.481 212.808 321.328 212.293 321.328C211.568 321.328 211.042 321.538 210.714 321.957C210.386 322.376 210.222 322.994 210.222 323.81V328H209.094V323.146C209.094 322.741 209.035 322.404 208.916 322.135C208.802 321.866 208.629 321.665 208.396 321.533C208.169 321.396 207.879 321.328 207.528 321.328C207.032 321.328 206.633 321.431 206.332 321.636C206.031 321.841 205.812 322.146 205.676 322.552C205.544 322.953 205.478 323.447 205.478 324.035V328H204.343V320.508H205.259L205.43 321.567H205.491C205.642 321.308 205.831 321.089 206.059 320.911C206.286 320.733 206.542 320.599 206.824 320.508C207.107 320.417 207.408 320.371 207.727 320.371C208.296 320.371 208.772 320.478 209.155 320.692C209.543 320.902 209.823 321.223 209.996 321.656H210.058C210.304 321.223 210.641 320.902 211.069 320.692C211.498 320.478 211.967 320.371 212.478 320.371ZM220.106 320.385C221 320.385 221.663 320.585 222.096 320.986C222.529 321.387 222.745 322.028 222.745 322.907V328H221.918L221.699 326.893H221.645C221.435 327.166 221.216 327.396 220.988 327.583C220.76 327.765 220.496 327.904 220.195 328C219.899 328.091 219.535 328.137 219.102 328.137C218.646 328.137 218.24 328.057 217.885 327.897C217.534 327.738 217.256 327.496 217.051 327.173C216.85 326.849 216.75 326.439 216.75 325.942C216.75 325.195 217.046 324.621 217.639 324.22C218.231 323.819 219.133 323.6 220.346 323.563L221.638 323.509V323.051C221.638 322.404 221.499 321.95 221.221 321.69C220.943 321.431 220.551 321.301 220.045 321.301C219.653 321.301 219.279 321.358 218.924 321.472C218.568 321.586 218.231 321.72 217.912 321.875L217.563 321.014C217.901 320.84 218.288 320.692 218.726 320.569C219.163 320.446 219.623 320.385 220.106 320.385ZM221.624 324.309L220.482 324.356C219.548 324.393 218.89 324.546 218.507 324.814C218.124 325.083 217.933 325.464 217.933 325.956C217.933 326.384 218.062 326.701 218.322 326.906C218.582 327.111 218.926 327.214 219.354 327.214C220.02 327.214 220.564 327.029 220.988 326.66C221.412 326.291 221.624 325.737 221.624 324.999V324.309ZM227.175 331.363C226.19 331.363 225.432 331.179 224.898 330.81C224.365 330.445 224.099 329.932 224.099 329.271C224.099 328.802 224.247 328.401 224.543 328.068C224.844 327.736 225.258 327.515 225.787 327.405C225.591 327.314 225.423 327.177 225.281 326.995C225.145 326.813 225.076 326.603 225.076 326.366C225.076 326.093 225.151 325.854 225.302 325.648C225.457 325.439 225.691 325.238 226.006 325.047C225.614 324.887 225.295 324.618 225.049 324.24C224.807 323.857 224.687 323.413 224.687 322.907C224.687 322.369 224.798 321.911 225.021 321.533C225.245 321.15 225.568 320.859 225.992 320.658C226.416 320.458 226.929 320.357 227.53 320.357C227.662 320.357 227.795 320.364 227.927 320.378C228.063 320.387 228.193 320.403 228.316 320.426C228.439 320.444 228.547 320.467 228.638 320.494H231.208V321.226L229.827 321.396C229.964 321.574 230.078 321.788 230.169 322.039C230.26 322.29 230.306 322.568 230.306 322.873C230.306 323.62 230.053 324.215 229.547 324.657C229.041 325.095 228.346 325.313 227.462 325.313C227.252 325.313 227.038 325.295 226.819 325.259C226.596 325.382 226.425 325.519 226.307 325.669C226.193 325.819 226.136 325.993 226.136 326.188C226.136 326.334 226.179 326.451 226.266 326.537C226.357 326.624 226.487 326.688 226.655 326.729C226.824 326.765 227.027 326.783 227.264 326.783H228.583C229.399 326.783 230.023 326.954 230.456 327.296C230.894 327.638 231.112 328.137 231.112 328.793C231.112 329.622 230.775 330.258 230.101 330.7C229.426 331.142 228.451 331.363 227.175 331.363ZM227.209 330.475C227.829 330.475 228.341 330.411 228.747 330.283C229.157 330.16 229.463 329.98 229.663 329.743C229.868 329.511 229.971 329.233 229.971 328.909C229.971 328.608 229.902 328.381 229.766 328.226C229.629 328.075 229.428 327.975 229.164 327.925C228.9 327.87 228.576 327.843 228.193 327.843H226.895C226.557 327.843 226.263 327.895 226.013 328C225.762 328.105 225.568 328.26 225.432 328.465C225.299 328.67 225.233 328.925 225.233 329.23C225.233 329.636 225.404 329.944 225.746 330.153C226.088 330.368 226.576 330.475 227.209 330.475ZM227.503 324.486C228.045 324.486 228.453 324.35 228.727 324.076C229 323.803 229.137 323.404 229.137 322.88C229.137 322.319 228.998 321.9 228.72 321.622C228.442 321.34 228.032 321.198 227.489 321.198C226.97 321.198 226.569 321.344 226.286 321.636C226.008 321.923 225.869 322.344 225.869 322.9C225.869 323.411 226.01 323.803 226.293 324.076C226.576 324.35 226.979 324.486 227.503 324.486ZM233.819 320.508V328H232.685V320.508H233.819ZM233.266 317.705C233.452 317.705 233.612 317.767 233.744 317.89C233.881 318.008 233.949 318.195 233.949 318.45C233.949 318.701 233.881 318.888 233.744 319.011C233.612 319.134 233.452 319.195 233.266 319.195C233.07 319.195 232.906 319.134 232.773 319.011C232.646 318.888 232.582 318.701 232.582 318.45C232.582 318.195 232.646 318.008 232.773 317.89C232.906 317.767 233.07 317.705 233.266 317.705ZM239.227 328.137C238.552 328.137 237.957 327.998 237.442 327.72C236.927 327.442 236.526 327.018 236.239 326.448C235.952 325.879 235.809 325.161 235.809 324.295C235.809 323.388 235.959 322.647 236.26 322.073C236.565 321.494 236.984 321.066 237.518 320.788C238.051 320.51 238.657 320.371 239.336 320.371C239.71 320.371 240.07 320.41 240.416 320.487C240.767 320.56 241.054 320.654 241.277 320.768L240.936 321.718C240.708 321.627 240.443 321.545 240.143 321.472C239.846 321.399 239.568 321.362 239.309 321.362C238.789 321.362 238.356 321.474 238.01 321.697C237.668 321.921 237.41 322.249 237.237 322.682C237.069 323.115 236.984 323.648 236.984 324.281C236.984 324.887 237.066 325.405 237.23 325.833C237.399 326.261 237.647 326.59 237.976 326.817C238.308 327.041 238.723 327.152 239.22 327.152C239.616 327.152 239.974 327.111 240.293 327.029C240.612 326.943 240.901 326.842 241.161 326.729V327.74C240.91 327.868 240.63 327.966 240.32 328.034C240.015 328.103 239.65 328.137 239.227 328.137ZM112.331 342.363V345.542C112.331 345.724 112.326 345.909 112.317 346.096C112.308 346.278 112.292 346.447 112.27 346.602H112.345C112.5 346.337 112.696 346.116 112.933 345.938C113.174 345.756 113.448 345.619 113.753 345.528C114.058 345.433 114.382 345.385 114.724 345.385C115.325 345.385 115.826 345.48 116.228 345.672C116.633 345.863 116.936 346.16 117.137 346.561C117.342 346.962 117.444 347.481 117.444 348.119V353H116.323V348.194C116.323 347.57 116.18 347.103 115.893 346.793C115.61 346.483 115.175 346.328 114.587 346.328C114.031 346.328 113.587 346.435 113.254 346.649C112.926 346.859 112.689 347.169 112.543 347.579C112.402 347.989 112.331 348.491 112.331 349.083V353H111.196V342.363H112.331ZM122.585 345.385C123.478 345.385 124.141 345.585 124.574 345.986C125.007 346.387 125.224 347.028 125.224 347.907V353H124.396L124.178 351.893H124.123C123.913 352.166 123.695 352.396 123.467 352.583C123.239 352.765 122.975 352.904 122.674 353C122.378 353.091 122.013 353.137 121.58 353.137C121.124 353.137 120.719 353.057 120.363 352.897C120.012 352.738 119.734 352.496 119.529 352.173C119.329 351.849 119.229 351.439 119.229 350.942C119.229 350.195 119.525 349.621 120.117 349.22C120.71 348.819 121.612 348.6 122.824 348.563L124.116 348.509V348.051C124.116 347.404 123.977 346.95 123.699 346.69C123.421 346.431 123.029 346.301 122.523 346.301C122.132 346.301 121.758 346.358 121.402 346.472C121.047 346.586 120.71 346.72 120.391 346.875L120.042 346.014C120.379 345.84 120.767 345.692 121.204 345.569C121.642 345.446 122.102 345.385 122.585 345.385ZM124.103 349.309L122.961 349.356C122.027 349.393 121.368 349.546 120.985 349.814C120.603 350.083 120.411 350.464 120.411 350.956C120.411 351.384 120.541 351.701 120.801 351.906C121.061 352.111 121.405 352.214 121.833 352.214C122.498 352.214 123.043 352.029 123.467 351.66C123.891 351.291 124.103 350.737 124.103 349.999V349.309ZM131.082 345.371C132.016 345.371 132.761 345.692 133.317 346.335C133.873 346.978 134.151 347.944 134.151 349.233C134.151 350.086 134.024 350.801 133.769 351.38C133.513 351.959 133.153 352.396 132.688 352.692C132.228 352.989 131.684 353.137 131.055 353.137C130.658 353.137 130.31 353.084 130.009 352.979C129.708 352.875 129.451 352.733 129.236 352.556C129.022 352.378 128.844 352.184 128.703 351.975H128.621C128.635 352.152 128.651 352.367 128.669 352.617C128.692 352.868 128.703 353.087 128.703 353.273V356.35H127.562V345.508H128.498L128.648 346.615H128.703C128.849 346.387 129.027 346.18 129.236 345.993C129.446 345.802 129.701 345.651 130.002 345.542C130.307 345.428 130.667 345.371 131.082 345.371ZM130.884 346.328C130.364 346.328 129.945 346.428 129.626 346.629C129.312 346.829 129.081 347.13 128.936 347.531C128.79 347.928 128.712 348.427 128.703 349.028V349.247C128.703 349.881 128.771 350.416 128.908 350.854C129.049 351.291 129.28 351.624 129.599 351.852C129.922 352.079 130.355 352.193 130.897 352.193C131.362 352.193 131.75 352.068 132.06 351.817C132.369 351.567 132.6 351.218 132.75 350.771C132.905 350.32 132.982 349.803 132.982 349.22C132.982 348.336 132.809 347.634 132.463 347.114C132.121 346.59 131.595 346.328 130.884 346.328ZM139.654 345.371C140.589 345.371 141.334 345.692 141.89 346.335C142.446 346.978 142.724 347.944 142.724 349.233C142.724 350.086 142.596 350.801 142.341 351.38C142.086 351.959 141.726 352.396 141.261 352.692C140.8 352.989 140.256 353.137 139.627 353.137C139.23 353.137 138.882 353.084 138.581 352.979C138.28 352.875 138.023 352.733 137.809 352.556C137.594 352.378 137.417 352.184 137.275 351.975H137.193C137.207 352.152 137.223 352.367 137.241 352.617C137.264 352.868 137.275 353.087 137.275 353.273V356.35H136.134V345.508H137.07L137.221 346.615H137.275C137.421 346.387 137.599 346.18 137.809 345.993C138.018 345.802 138.273 345.651 138.574 345.542C138.88 345.428 139.24 345.371 139.654 345.371ZM139.456 346.328C138.937 346.328 138.517 346.428 138.198 346.629C137.884 346.829 137.654 347.13 137.508 347.531C137.362 347.928 137.285 348.427 137.275 349.028V349.247C137.275 349.881 137.344 350.416 137.48 350.854C137.622 351.291 137.852 351.624 138.171 351.852C138.494 352.079 138.927 352.193 139.47 352.193C139.935 352.193 140.322 352.068 140.632 351.817C140.942 351.567 141.172 351.218 141.322 350.771C141.477 350.32 141.555 349.803 141.555 349.22C141.555 348.336 141.382 347.634 141.035 347.114C140.693 346.59 140.167 346.328 139.456 346.328ZM147.591 345.371C148.229 345.371 148.776 345.512 149.231 345.795C149.687 346.077 150.036 346.474 150.277 346.984C150.519 347.49 150.64 348.083 150.64 348.762V349.466H145.465C145.479 350.345 145.697 351.015 146.121 351.476C146.545 351.936 147.142 352.166 147.912 352.166C148.386 352.166 148.805 352.123 149.17 352.036C149.535 351.95 149.913 351.822 150.305 351.653V352.651C149.926 352.82 149.55 352.943 149.177 353.021C148.808 353.098 148.37 353.137 147.864 353.137C147.144 353.137 146.515 352.991 145.978 352.699C145.444 352.403 145.03 351.97 144.733 351.4C144.437 350.831 144.289 350.133 144.289 349.309C144.289 348.502 144.424 347.805 144.692 347.217C144.966 346.624 145.349 346.169 145.841 345.85C146.338 345.531 146.921 345.371 147.591 345.371ZM147.577 346.301C146.971 346.301 146.488 346.499 146.128 346.896C145.768 347.292 145.554 347.846 145.485 348.557H149.45C149.446 348.11 149.375 347.718 149.238 347.381C149.106 347.039 148.903 346.775 148.63 346.588C148.356 346.396 148.006 346.301 147.577 346.301ZM156.115 345.371C157.004 345.371 157.676 345.59 158.132 346.027C158.588 346.46 158.815 347.158 158.815 348.119V353H157.694V348.194C157.694 347.57 157.551 347.103 157.264 346.793C156.981 346.483 156.546 346.328 155.958 346.328C155.129 346.328 154.545 346.563 154.208 347.032C153.871 347.502 153.702 348.183 153.702 349.076V353H152.567V345.508H153.483L153.654 346.588H153.716C153.875 346.324 154.078 346.103 154.324 345.925C154.57 345.743 154.846 345.606 155.151 345.515C155.457 345.419 155.778 345.371 156.115 345.371Z" fill="#333333"/>
<defs>
<filter id="filter0_d_108_40" x="0" y="67.5" width="330" height="185" filterUnits="userSpaceOnUse" color-interpolation-filters="sRGB">
<feFlood flood-opacity="0" result="BackgroundImageFix"/>
<feColorMatrix in="SourceAlpha" type="matrix" values="0 0 0 0 0 0 0 0 0 0 0 0 0 0 0 0 0 0 127 0" result="hardAlpha"/>
<feOffset dy="27.5"/>
<feGaussianBlur stdDeviation="27.5"/>
<feComposite in2="hardAlpha" operator="out"/>
<feColorMatrix type="matrix" values="0 0 0 0 0 0 0 0 0 0 0 0 0 0 0 0 0 0 0.1 0"/>
<feBlend mode="normal" in2="BackgroundImageFix" result="effect1_dropShadow_108_40"/>
<feBlend mode="normal" in="SourceGraphic" in2="effect1_dropShadow_108_40" result="shape"/>
</filter>
<filter id="filter1_d_108_40" x="0" y="269.5" width="330" height="185" filterUnits="userSpaceOnUse" color-interpolation-filters="sRGB">
<feFlood flood-opacity="0" result="BackgroundImageFix"/>
<feColorMatrix in="SourceAlpha" type="matrix" values="0 0 0 0 0 0 0 0 0 0 0 0 0 0 0 0 0 0 127 0" result="hardAlpha"/>
<feOffset dy="27.5"/>
<feGaussianBlur stdDeviation="27.5"/>
<feComposite in2="hardAlpha" operator="out"/>
<feColorMatrix type="matrix" values="0 0 0 0 0 0 0 0 0 0 0 0 0 0 0 0 0 0 0.1 0"/>
<feBlend mode="normal" in2="BackgroundImageFix" result="effect1_dropShadow_108_40"/>
<feBlend mode="normal" in="SourceGraphic" in2="effect1_dropShadow_108_40" result="shape"/>
</filter>
</defs>
</svg>
