<svg width="83" height="176" viewBox="0 0 83 176" fill="none" xmlns="http://www.w3.org/2000/svg">
<path d="M32.3411 0.686525V7.32956H25.6034L25.6034 0.686525L32.3411 0.686525Z" fill="#FFDC60"/>
<path d="M32.3411 24.6019V31.2449H25.6034V24.6019L32.3411 24.6019Z" fill="#FFDC60"/>
<path d="M32.2183 49.4682V56.1113H25.4806V49.4682H32.2183Z" fill="#FFDC60"/>
<path d="M32.2186 73.3836V80.0266H25.4809V73.3836H32.2186Z" fill="#FFDC60"/>
<path d="M32.2186 97.2975V103.941H25.4809V97.2975H32.2186Z" fill="#FFDC60"/>
<path d="M32.2186 121.213V127.856H25.4809V121.213H32.2186Z" fill="#FFDC60"/>
<path d="M32.2186 145.128V151.771H25.4809V145.128H32.2186Z" fill="#FFDC60"/>
<path d="M32.2186 169.043V175.687H25.4809V169.043H32.2186Z" fill="#FFDC60"/>
<path d="M32.2186 97.2975V103.941H25.4809V97.2975H32.2186Z" fill="#FFDC60"/>
<path d="M6.7377 0.686529V7.32956H1.06027e-06L1.35479e-06 0.686529L6.7377 0.686529Z" fill="#FFDC60"/>
<path d="M6.7377 24.6019V31.2449H0L2.94514e-07 24.6019H6.7377Z" fill="#FFDC60"/>
<path d="M6.88918 49.4682L6.88918 56.1113H0.151479L0.15148 49.4682H6.88918Z" fill="#FFDC60"/>
<path d="M6.88912 73.3836V80.0266H0.151421L0.151421 73.3836H6.88912Z" fill="#FFDC60"/>
<path d="M6.88914 97.2975L6.88914 103.941H0.151436L0.151436 97.2975H6.88914Z" fill="#FFDC60"/>
<path d="M6.88912 121.213L6.88912 127.856H0.151419L0.151419 121.213H6.88912Z" fill="#FFDC60"/>
<path d="M6.88912 145.128V151.771H0.151418L0.151418 145.128H6.88912Z" fill="#FFDC60"/>
<path d="M6.88912 169.043L6.88912 175.687H0.151417L0.151417 169.043H6.88912Z" fill="#FFDC60"/>
<path d="M6.88914 97.2975L6.88914 103.941H0.151436L0.151436 97.2975H6.88914Z" fill="#FFDC60"/>
<path d="M83 0.68653V7.32956H76.2623V0.68653L83 0.68653Z" fill="#FFDC60"/>
<path d="M83 24.6019V31.2449H76.2623V24.6019L83 24.6019Z" fill="#FFDC60"/>
<path d="M82.8772 49.4682V56.1113H76.1395V49.4682H82.8772Z" fill="#FFDC60"/>
<path d="M82.8775 73.3836V80.0266H76.1398V73.3836H82.8775Z" fill="#FFDC60"/>
<path d="M82.8775 97.2975V103.941H76.1398V97.2975H82.8775Z" fill="#FFDC60"/>
<path d="M82.8775 121.213V127.856H76.1398V121.213H82.8775Z" fill="#FFDC60"/>
<path d="M82.8775 145.128V151.771H76.1398V145.128H82.8775Z" fill="#FFDC60"/>
<path d="M82.8775 169.043V175.687H76.1398V169.043H82.8775Z" fill="#FFDC60"/>
<path d="M82.8775 97.2975V103.941H76.1398V97.2975H82.8775Z" fill="#FFDC60"/>
<path d="M57.3966 0.686524V7.32956H50.6589V0.686523L57.3966 0.686524Z" fill="#FFDC60"/>
<path d="M57.3966 24.6019V31.2449H50.6589V24.6019H57.3966Z" fill="#FFDC60"/>
<path d="M57.548 49.4682V56.1112H50.8103V49.4682H57.548Z" fill="#FFDC60"/>
<path d="M57.548 73.3836V80.0266H50.8103V73.3836H57.548Z" fill="#FFDC60"/>
<path d="M57.548 97.2975V103.941H50.8103V97.2975H57.548Z" fill="#FFDC60"/>
<path d="M57.548 121.213V127.856H50.8103V121.213H57.548Z" fill="#FFDC60"/>
<path d="M57.548 145.128V151.771H50.8103V145.128H57.548Z" fill="#FFDC60"/>
<path d="M57.548 169.043V175.687H50.8103V169.043H57.548Z" fill="#FFDC60"/>
<path d="M57.548 97.2975V103.941H50.8103V97.2975H57.548Z" fill="#FFDC60"/>
</svg>
