<svg width="100" height="100" viewBox="0 0 100 100" fill="none" xmlns="http://www.w3.org/2000/svg">
<circle cx="50" cy="50" r="49" fill="#FFFAE8" stroke="#FFDC60" stroke-width="2"/>
<mask id="path-2-inside-1_10_1795" fill="white">
<path d="M74.3026 55.3518L52.9858 59.3117C52.8815 59.331 52.7755 59.3399 52.6695 59.3381C51.8909 59.3254 48.2696 59.3254 47.491 59.3381C47.385 59.3399 47.279 59.331 47.1747 59.3117L25.8579 55.3518C25.7506 55.3319 25.6402 55.3364 25.5349 55.365C25.4297 55.3937 25.3322 55.4457 25.2498 55.5172C25.1674 55.5888 25.1023 55.678 25.0591 55.7782C25.016 55.8784 24.996 55.987 25.0007 56.096L25.9805 78.9615C25.9874 79.1229 26.0479 79.2773 26.1525 79.4003C26.2571 79.5234 26.3998 79.608 26.5579 79.6408L47.4279 83.9681C47.6691 84.4666 48.0458 84.8871 48.5149 85.1813C48.984 85.4756 49.5265 85.6319 50.0802 85.6321C50.634 85.6319 51.1765 85.4756 51.6456 85.1813C52.1147 84.8871 52.4914 84.4666 52.7326 83.9681L73.6025 79.6408C73.7607 79.608 73.9033 79.5234 74.0079 79.4003C74.1125 79.2773 74.1731 79.1229 74.18 78.9616L75.1598 56.0961C75.1645 55.9871 75.1445 55.8784 75.1013 55.7782C75.0582 55.678 74.993 55.5888 74.9106 55.5173C74.8283 55.4457 74.7308 55.3937 74.6255 55.3651C74.5203 55.3364 74.4099 55.3319 74.3026 55.3518Z"/>
</mask>
<path d="M74.3026 55.3518L73.7549 52.4022L73.7547 52.4023L74.3026 55.3518ZM52.9858 59.3117L53.5335 62.2612L53.5337 62.2612L52.9858 59.3117ZM52.6695 59.3381L52.7205 56.3385L52.7183 56.3385L52.6695 59.3381ZM47.491 59.3381L47.4422 56.3385L47.44 56.3385L47.491 59.3381ZM47.1747 59.3117L46.6268 62.2612L46.627 62.2612L47.1747 59.3117ZM25.8579 55.3518L25.31 58.3013L25.31 58.3013L25.8579 55.3518ZM25.0007 56.096L27.9979 55.9676L27.9979 55.9676L25.0007 56.096ZM25.9805 78.9615L22.9832 79.09V79.09L25.9805 78.9615ZM26.5579 79.6408L25.9488 82.5783L25.9488 82.5783L26.5579 79.6408ZM47.4279 83.9681L50.1284 82.6614L49.4845 81.3308L48.037 81.0306L47.4279 83.9681ZM52.7326 83.9681L52.1235 81.0306L50.676 81.3308L50.0321 82.6614L52.7326 83.9681ZM73.6025 79.6408L74.2116 82.5783L74.2116 82.5783L73.6025 79.6408ZM74.18 78.9616L77.1772 79.09V79.09L74.18 78.9616ZM75.1598 56.0961L72.1625 55.9676L72.1625 55.9676L75.1598 56.0961ZM73.7547 52.4023L52.4379 56.3621L53.5337 62.2612L74.8505 58.3013L73.7547 52.4023ZM52.4381 56.3621C52.5312 56.3448 52.6258 56.3369 52.7205 56.3385L52.6185 62.3376C52.9253 62.3429 53.2318 62.3173 53.5335 62.2612L52.4381 56.3621ZM52.7183 56.3385C51.9072 56.3253 48.2533 56.3253 47.4422 56.3385L47.5398 62.3377C48.2858 62.3255 51.8746 62.3255 52.6207 62.3377L52.7183 56.3385ZM47.44 56.3385C47.5347 56.3369 47.6293 56.3448 47.7224 56.3621L46.627 62.2612C46.9287 62.3173 47.2352 62.3429 47.542 62.3376L47.44 56.3385ZM47.7226 56.3621L26.4058 52.4023L25.31 58.3013L46.6268 62.2612L47.7226 56.3621ZM26.4058 52.4023C25.8549 52.2999 25.288 52.3232 24.7473 52.4703L26.3226 58.2598C25.9925 58.3496 25.6463 58.3638 25.31 58.3013L26.4058 52.4023ZM24.7473 52.4703C24.2067 52.6174 23.7061 52.8846 23.283 53.2519L27.2166 57.7826C26.9583 58.0069 26.6527 58.17 26.3226 58.2598L24.7473 52.4703ZM23.283 53.2519C22.8599 53.6193 22.5251 54.0773 22.3036 54.592L27.8146 56.9644C27.6794 57.2786 27.4749 57.5583 27.2166 57.7826L23.283 53.2519ZM22.3036 54.592C22.082 55.1067 21.9794 55.6647 22.0034 56.2245L27.9979 55.9676C28.0126 56.3094 27.9499 56.6501 27.8146 56.9644L22.3036 54.592ZM22.0034 56.2245L22.9832 79.09L28.9777 78.8331L27.9979 55.9676L22.0034 56.2245ZM22.9832 79.09C23.0187 79.9186 23.3297 80.7116 23.8669 81.3435L28.4382 77.4572C28.7661 77.843 28.956 78.3272 28.9777 78.8331L22.9832 79.09ZM23.8669 81.3435C24.4041 81.9753 25.1367 82.4099 25.9488 82.5783L27.167 76.7032C27.6628 76.8061 28.1102 77.0714 28.4382 77.4572L23.8669 81.3435ZM25.9488 82.5783L46.8188 86.9057L48.037 81.0306L27.167 76.7032L25.9488 82.5783ZM44.7275 85.2749C45.2141 86.2806 45.9742 87.1289 46.9206 87.7226L50.1092 82.6401C50.1175 82.6452 50.1241 82.6526 50.1284 82.6614L44.7275 85.2749ZM46.9206 87.7226C47.867 88.3164 48.9616 88.6316 50.0788 88.6321L50.0817 82.6321C50.0914 82.6321 50.101 82.6349 50.1092 82.6401L46.9206 87.7226ZM50.0817 88.6321C51.1989 88.6316 52.2934 88.3164 53.2399 87.7226L50.0513 82.6401C50.0595 82.6349 50.0691 82.6321 50.0788 82.6321L50.0817 88.6321ZM53.2399 87.7226C54.1863 87.1289 54.9464 86.2806 55.433 85.2749L50.0321 82.6614C50.0364 82.6526 50.043 82.6452 50.0513 82.6401L53.2399 87.7226ZM53.3417 86.9057L74.2116 82.5783L72.9935 76.7033L52.1235 81.0306L53.3417 86.9057ZM74.2116 82.5783C75.0237 82.4099 75.7564 81.9754 76.2936 81.3435L71.7223 77.4572C72.0503 77.0714 72.4976 76.8061 72.9934 76.7033L74.2116 82.5783ZM76.2936 81.3435C76.8307 80.7116 77.1417 79.9186 77.1772 79.09L71.1827 78.8331C71.2044 78.3272 71.3943 77.843 71.7223 77.4572L76.2936 81.3435ZM77.1772 79.09L78.157 56.2245L72.1625 55.9676L71.1827 78.8331L77.1772 79.09ZM78.157 56.2246C78.181 55.6647 78.0784 55.1067 77.8569 54.5921L72.3458 56.9643C72.2105 56.6501 72.1479 56.3094 72.1625 55.9676L78.157 56.2246ZM77.8569 54.5921C77.6354 54.0775 77.3006 53.6194 76.8775 53.252L72.9438 57.7825C72.6854 57.5582 72.481 57.2785 72.3458 56.9643L77.8569 54.5921ZM76.8775 53.252C76.4544 52.8847 75.9539 52.6175 75.4133 52.4703L73.8378 58.2598C73.5077 58.17 73.2021 58.0068 72.9438 57.7825L76.8775 53.252ZM75.4133 52.4703C74.8726 52.3232 74.3058 52.2999 73.7549 52.4022L74.8503 58.3014C74.514 58.3638 74.1679 58.3496 73.8378 58.2598L75.4133 52.4703Z" fill="#333333" mask="url(#path-2-inside-1_10_1795)"/>
<path d="M42.7237 28.6087L43.0811 28.8855V30.8398C43.0818 31.214 43.231 31.5725 43.4958 31.8368C43.7606 32.101 44.1194 32.2494 44.4935 32.2494H47.8978C48.225 32.2493 48.542 32.1357 48.7948 31.9281C49.0476 31.7205 49.2206 31.4317 49.2843 31.1108L49.6331 29.3178C49.9226 29.2378 50.2269 29.2279 50.5209 29.289L50.8755 31.1108C50.9392 31.4317 51.1122 31.7206 51.3651 31.9282C51.6179 32.1358 51.9349 32.2493 52.262 32.2494H55.6663C55.8516 32.2497 56.0352 32.2134 56.2065 32.1427C56.3778 32.072 56.5334 31.9683 56.6646 31.8374C56.7958 31.7065 56.8999 31.551 56.9709 31.3798C57.042 31.2087 57.0786 31.0252 57.0787 30.8399V28.8855L57.4391 28.6087C57.4798 28.5762 57.5128 28.535 57.5357 28.4881C57.5587 28.4413 57.5709 28.3899 57.5716 28.3378V27.718C57.5709 27.6283 57.5347 27.5426 57.471 27.4794C57.4073 27.4162 57.3212 27.3808 57.2315 27.3808H51.8844C51.5955 27.3762 51.3122 27.4602 51.0726 27.6215C50.8329 27.7828 50.6484 28.0137 50.544 28.283C50.2376 28.2397 49.9262 28.2456 49.6216 28.3003C49.5513 28.1095 49.4402 27.9363 49.2959 27.793C49.0232 27.5266 48.6566 27.3785 48.2754 27.3808H42.9283C42.8389 27.3809 42.7532 27.4165 42.69 27.4797C42.6267 27.5429 42.5912 27.6286 42.5911 27.718V28.3378C42.5911 28.39 42.6031 28.4416 42.6261 28.4886C42.6491 28.5355 42.6824 28.5766 42.7237 28.6087ZM51.5414 28.528C51.5803 28.481 51.6292 28.4431 51.6845 28.4172C51.7399 28.3913 51.8002 28.3779 51.8613 28.3781H55.6663C55.7206 28.3778 55.7745 28.3883 55.8248 28.4088C55.8751 28.4294 55.9209 28.4597 55.9595 28.498C55.998 28.5363 56.0287 28.5819 56.0496 28.632C56.0705 28.6822 56.0813 28.736 56.0814 28.7904V30.8398C56.0813 30.9499 56.0376 31.0555 55.9598 31.1333C55.8819 31.2112 55.7764 31.2549 55.6663 31.2549H52.262C52.1656 31.2549 52.0722 31.2212 51.998 31.1596C51.9238 31.098 51.8734 31.0124 51.8556 30.9177L51.4549 28.8711C51.4435 28.811 51.4453 28.7492 51.4602 28.69C51.4752 28.6307 51.5029 28.5755 51.5414 28.528H51.5414ZM44.0785 28.7903C44.0785 28.736 44.0893 28.6822 44.1102 28.632C44.1312 28.5819 44.1618 28.5363 44.2004 28.498C44.2389 28.4597 44.2847 28.4294 44.335 28.4088C44.3853 28.3883 44.4392 28.3778 44.4935 28.3781H48.2985C48.3596 28.3779 48.42 28.3913 48.4753 28.4172C48.5306 28.4431 48.5795 28.481 48.6185 28.528C48.6582 28.5748 48.6866 28.63 48.7016 28.6895C48.7166 28.7489 48.7177 28.8111 48.7049 28.871L48.3072 30.9177C48.2883 31.0124 48.2372 31.0978 48.1626 31.1593C48.088 31.2207 47.9945 31.2545 47.8978 31.2549H44.4935C44.3835 31.2549 44.2779 31.2111 44.2001 31.1333C44.1222 31.0555 44.0785 30.9499 44.0784 30.8398L44.0785 28.7903Z" fill="#333333"/>
<path d="M51.8575 34.9331H48.3031C48.1445 34.9336 47.9926 34.9969 47.8806 35.1092C47.7687 35.2216 47.7058 35.3737 47.7058 35.5322C47.7058 35.6908 47.7687 35.8429 47.8806 35.9553C47.9926 36.0676 48.1445 36.1309 48.3031 36.1314H51.8575C52.0161 36.1309 52.168 36.0676 52.28 35.9553C52.3919 35.8429 52.4548 35.6908 52.4548 35.5322C52.4548 35.3737 52.3919 35.2216 52.28 35.1092C52.168 34.9969 52.0161 34.9336 51.8575 34.9331Z" fill="#333333"/>
<path d="M38.7372 26.0202L40.2937 34.0452C40.735 36.3169 41.9528 38.3643 43.7383 39.8363C45.5238 41.3084 47.7659 42.1135 50.08 42.1135C52.3941 42.1135 54.6361 41.3084 56.4216 39.8363C58.2072 38.3643 59.425 36.3169 59.8662 34.0452L61.247 26.9311L61.4401 25.928C61.7074 23.9503 61.4064 21.9374 60.5724 20.1244C59.7383 18.3114 58.4057 16.7731 56.73 15.6892C56.1281 15.2972 55.4865 14.9697 54.816 14.712C53.6048 14.2407 52.3164 13.9993 51.0168 14H49.1432C47.6428 13.9997 46.1596 14.3206 44.7935 14.9409C43.4273 15.5612 42.2096 16.4667 41.2223 17.5965C40.235 18.7264 39.5009 20.0544 39.0693 21.4914C38.6377 22.9284 38.5185 24.4411 38.7199 25.928L38.7372 26.0202ZM42.1271 26.2191C46.7881 26.2191 50.962 25.1237 53.7725 23.3942C55.3145 24.7517 57.1331 25.7578 59.1023 26.3431L57.6899 33.6215C57.3471 35.3883 56.4003 36.9807 55.0118 38.1256C53.6233 39.2706 51.8797 39.8968 50.08 39.8968C48.2803 39.8968 46.5367 39.2706 45.1482 38.1256C43.7597 36.9807 42.8129 35.3883 42.4701 33.6215L41.0288 26.199C41.392 26.2134 41.7581 26.2191 42.1271 26.2191V26.2191Z" fill="#333333"/>
<path d="M52.6222 56.8864L70.1192 53.6378L69.7531 49.1208C69.6622 48.6923 69.4629 48.2942 69.1742 47.9647C68.8855 47.6352 68.5172 47.3851 68.1043 47.2386L58.9061 43.9698L50.0798 48.6481L41.2534 43.9697L32.0581 47.2385C31.6449 47.385 31.2761 47.6349 30.987 47.9645C30.6978 48.294 30.4979 48.6921 30.4064 49.1208L30.0403 53.6377L47.5373 56.8864C48.4655 56.8749 51.7026 56.8749 52.6222 56.8864Z" fill="#333333"/>
</svg>
