<svg width="100" height="100" viewBox="0 0 100 100" fill="none" xmlns="http://www.w3.org/2000/svg">
<circle cx="50" cy="50" r="49" fill="#FFFAE8" stroke="#FFDC60" stroke-width="2"/>
<path d="M49.0662 20C47.005 20 45.3217 21.6906 45.3217 23.7518H23.7518C21.6368 23.7518 20 25.4538 20 27.5017V48.1228C20 50.2282 21.6906 51.8746 23.7518 51.8746H35.4596L38.6932 56.3991C38.1521 56.9124 37.8143 57.6355 37.8143 58.4333C37.8143 59.9754 39.081 61.2513 40.6232 61.2513C42.1653 61.2513 43.4393 59.9754 43.4393 58.4333C43.4393 57.6382 43.0982 56.9157 42.5586 56.4027L45.7941 51.8746H57.5C59.5612 51.8746 61.2518 50.1988 61.2518 48.1228V33.1285H62.1857C64.2469 33.1285 65.9375 31.4378 65.9375 29.3767V23.7518C65.9375 21.6907 64.2469 20 62.1857 20H49.0662ZM51.8732 25.6249C52.3909 25.6249 52.8107 26.0447 52.8107 26.5624C52.8107 27.0801 52.3909 27.4999 51.8732 27.4999C51.3554 27.4999 50.9357 27.0801 50.9357 26.5624C50.9357 26.0447 51.3554 25.6249 51.8732 25.6249ZM55.6232 25.6249C56.1409 25.6249 56.5607 26.0447 56.5607 26.5624C56.5607 27.0801 56.1409 27.4999 55.6232 27.4999C55.1054 27.4999 54.6857 27.0801 54.6857 26.5624C54.6857 26.0447 55.1054 25.6249 55.6232 25.6249ZM59.3732 25.6249C59.8909 25.6249 60.3107 26.0447 60.3107 26.5624C60.3107 27.0801 59.8909 27.4999 59.3732 27.4999C58.8554 27.4999 58.4357 27.0801 58.4357 26.5624C58.4357 26.0447 58.8554 25.6249 59.3732 25.6249ZM23.7518 25.6268H31.3525C30.1348 26.8189 29.3768 28.4788 29.3768 30.3105C29.3768 32.2318 30.2101 33.9666 31.5338 35.1683C28.1595 35.9006 25.6268 38.9046 25.6268 42.496V49.9978H23.7518C22.6969 49.9978 21.875 49.1521 21.875 48.1228V27.5017C21.875 26.4468 22.7236 25.6216 23.7518 25.6268ZM35.9375 25.6268C38.5374 25.6268 40.6232 27.7108 40.6232 30.3105C40.6232 32.9103 38.5374 34.9961 35.9375 34.9961C33.3376 34.9961 31.2537 32.9103 31.2537 30.3105C31.2537 27.7108 33.3376 25.6268 35.9375 25.6268ZM40.5225 25.6268H45.3217V35.9373C45.3221 36.771 46.3289 37.1897 46.9202 36.602L50.379 33.1285H59.3768V48.1228C59.3768 49.1467 58.5549 49.9978 57.5 49.9978H42.4982V47.5698L42.7747 47.8463C42.9505 48.0233 43.1899 48.1226 43.4393 48.1228H49.9982C51.54 48.1228 52.8088 46.8558 52.8088 45.314C52.8088 43.7722 51.54 42.496 49.9982 42.496H46.6986L43.2324 38.1657C42.5746 37.3434 42.0812 36.5705 41.2604 35.9519C40.9324 35.7048 40.5585 35.5031 40.1324 35.3495C41.5766 34.1445 42.4982 32.3308 42.4982 30.3105C42.4982 28.4786 41.7405 26.819 40.5225 25.6268ZM33.1287 36.8711H37.8143C39.098 36.8711 39.6546 37.0933 40.1324 37.4534C40.6103 37.8135 41.0557 38.4482 41.7657 39.3357L45.5157 44.0195C45.6938 44.2426 45.9645 44.3712 46.25 44.371H49.9982C50.5337 44.371 50.932 44.7784 50.932 45.314C50.932 45.8496 50.5337 46.2478 49.9982 46.2478H43.8275L41.2878 43.7082C40.9214 43.3401 40.3249 43.3401 39.9585 43.7082C39.5904 44.0746 39.5904 44.6693 39.9585 45.0357L40.6232 45.6985V49.9978H31.2537V45.314C31.2557 44.7934 30.8313 44.369 30.3107 44.371C29.7927 44.3728 29.3748 44.7961 29.3768 45.314V49.9978H27.5018V42.496C27.5018 39.3638 29.9963 36.8711 33.1287 36.8711ZM72.4963 49.9978C69.9187 49.9978 67.8125 52.1058 67.8125 54.6834C67.8125 57.2609 69.9187 59.3763 72.4963 59.3763C75.074 59.3763 77.182 57.2609 77.182 54.6834C77.182 52.1058 75.074 49.9978 72.4963 49.9978ZM37.7576 51.8746H43.4888L40.8026 55.6319C40.6794 55.6163 40.5687 55.6187 40.4437 55.6319L37.7576 51.8746ZM48.125 60.3101C47.7159 60.311 47.3537 60.577 47.2314 60.9675L41.6064 78.7797C41.4174 79.3828 41.8661 79.9979 42.4982 79.9992C52.8131 80.0017 63.1269 79.9973 73.4393 79.9973C77.0586 79.9974 80 77.0578 80 73.4386V66.8707C80 63.7709 77.4731 61.2513 74.3732 61.2513H72.4963C70.9676 61.2513 69.8711 61.5812 69.0503 62.1998C68.2295 62.8184 67.7361 63.5912 67.0782 64.4135L66.1627 65.5579L64.967 61.0078C64.8587 60.596 64.4865 60.3102 64.0607 60.3101H48.125ZM48.8098 62.1851H63.3411L64.7034 67.3816L63.6121 68.7457H61.4514L62.1655 65.1825C62.2654 64.6764 61.9369 64.1845 61.4313 64.0821C60.9333 63.9872 60.3705 64.2746 60.2942 64.9939H51.2946C50.9397 64.9945 50.6143 65.1965 50.4559 65.5139L48.222 73.0157C47.9111 73.6384 48.3627 74.3714 49.0588 74.3725H61.2518H66.5472L67.5342 78.1224H43.7781L48.8098 62.1851ZM52.1309 66.8707H59.917L59.5142 68.8629C58.3548 69.2109 57.5 70.2959 57.5 71.5618C57.5 71.8883 57.5587 72.2032 57.663 72.4956H50.5804L52.1309 66.8707Z" fill="#333333"/>
</svg>
