<svg width="471" height="259" viewBox="0 0 471 259" fill="none" xmlns="http://www.w3.org/2000/svg">
<g filter="url(#filter0_d_10_1266)">
<rect x="65" y="47" width="322" height="110" rx="15" fill="white"/>
</g>
<path d="M211.993 132.921C211.993 132.615 211.666 132.493 211.421 132.452L206.295 131.706L203.997 127.06C203.905 126.866 203.731 126.641 203.496 126.641C203.262 126.641 203.088 126.866 202.996 127.06L200.698 131.706L195.572 132.452C195.317 132.493 195 132.615 195 132.921C195 133.105 195.133 133.279 195.255 133.412L198.972 137.027L198.094 142.133C198.084 142.204 198.074 142.266 198.074 142.337C198.074 142.603 198.207 142.848 198.503 142.848C198.646 142.848 198.778 142.797 198.911 142.725L203.496 140.315L208.082 142.725C208.204 142.797 208.347 142.848 208.49 142.848C208.786 142.848 208.909 142.603 208.909 142.337C208.909 142.266 208.909 142.204 208.899 142.133L208.02 137.027L211.727 133.412C211.86 133.279 211.993 133.105 211.993 132.921ZM238.138 132.921C238.138 132.615 237.811 132.493 237.566 132.452L232.44 131.706L230.142 127.06C230.05 126.866 229.877 126.641 229.642 126.641C229.407 126.641 229.233 126.866 229.141 127.06L226.844 131.706L221.717 132.452C221.462 132.493 221.145 132.615 221.145 132.921C221.145 133.105 221.278 133.279 221.401 133.412L225.118 137.027L224.24 142.133C224.229 142.204 224.219 142.266 224.219 142.337C224.219 142.603 224.352 142.848 224.648 142.848C224.791 142.848 224.924 142.797 225.057 142.725L229.642 140.315L234.227 142.725C234.35 142.797 234.493 142.848 234.636 142.848C234.932 142.848 235.054 142.603 235.054 142.337C235.054 142.266 235.054 142.204 235.044 142.133L234.166 137.027L237.873 133.412C238.006 133.279 238.138 133.105 238.138 132.921ZM264.284 132.921C264.284 132.615 263.957 132.493 263.712 132.452L258.585 131.706L256.288 127.06C256.196 126.866 256.022 126.641 255.787 126.641C255.552 126.641 255.379 126.866 255.287 127.06L252.989 131.706L247.863 132.452C247.607 132.493 247.291 132.615 247.291 132.921C247.291 133.105 247.424 133.279 247.546 133.412L251.263 137.027L250.385 142.133C250.375 142.204 250.365 142.266 250.365 142.337C250.365 142.603 250.497 142.848 250.794 142.848C250.937 142.848 251.069 142.797 251.202 142.725L255.787 140.315L260.372 142.725C260.495 142.797 260.638 142.848 260.781 142.848C261.077 142.848 261.2 142.603 261.2 142.337C261.2 142.266 261.2 142.204 261.189 142.133L260.311 137.027L264.018 133.412C264.151 133.279 264.284 133.105 264.284 132.921ZM290.429 132.921C290.429 132.615 290.102 132.493 289.857 132.452L284.731 131.706L282.433 127.06C282.341 126.866 282.168 126.641 281.933 126.641C281.698 126.641 281.524 126.866 281.432 127.06L279.135 131.706L274.008 132.452C273.753 132.493 273.436 132.615 273.436 132.921C273.436 133.105 273.569 133.279 273.692 133.412L277.409 137.027L276.53 142.133C276.52 142.204 276.51 142.266 276.51 142.337C276.51 142.603 276.643 142.848 276.939 142.848C277.082 142.848 277.215 142.797 277.347 142.725L281.933 140.315L286.518 142.725C286.64 142.797 286.783 142.848 286.926 142.848C287.222 142.848 287.345 142.603 287.345 142.337C287.345 142.266 287.345 142.204 287.335 142.133L286.457 137.027L290.164 133.412C290.296 133.279 290.429 133.105 290.429 132.921ZM316.574 132.921C316.574 132.615 316.248 132.493 316.003 132.452L310.876 131.706L308.578 127.06C308.487 126.866 308.313 126.641 308.078 126.641C307.843 126.641 307.67 126.866 307.578 127.06L305.28 131.706L300.154 132.452C299.898 132.493 299.582 132.615 299.582 132.921C299.582 133.105 299.714 133.279 299.837 133.412L303.554 137.027L302.676 142.133C302.666 142.204 302.655 142.266 302.655 142.337C302.655 142.603 302.788 142.848 303.084 142.848C303.227 142.848 303.36 142.797 303.493 142.725L308.078 140.315L312.663 142.725C312.786 142.797 312.929 142.848 313.072 142.848C313.368 142.848 313.49 142.603 313.49 142.337C313.49 142.266 313.49 142.204 313.48 142.133L312.602 137.027L316.309 133.412C316.442 133.279 316.574 133.105 316.574 132.921Z" fill="#FFDC60"/>
<rect x="85" y="57" width="90" height="90" rx="9" fill="#FFF9E6"/>
<path d="M155.945 74.775H104.055C103.331 74.775 102.775 75.4057 102.775 76.1442V127.856C102.775 128.594 103.331 129.225 104.055 129.225H114.285C115.009 129.225 115.565 128.594 115.565 127.856C115.565 127.117 115.009 126.487 114.285 126.487H105.334V85.7518H154.666V126.487H153.24V121.768C153.24 119.449 151.875 117.384 149.823 116.647L146.388 115.412C146.743 114.917 147.041 114.373 147.272 113.791H150.251C150.975 113.791 151.531 113.16 151.531 112.422V109.194C151.531 102.911 146.815 97.7667 140.98 97.7667C135.145 97.7667 130.429 102.911 130.429 109.194V112.422C130.429 113.16 130.985 113.791 131.708 113.791H134.688C134.919 114.373 135.217 114.917 135.572 115.412L132.137 116.647C130.084 117.384 128.72 119.449 128.72 121.768V126.486H124.04C123.316 126.486 122.76 127.117 122.76 127.856C122.76 128.594 123.316 129.225 124.04 129.225H130H151.96H155.945C156.669 129.225 157.225 128.594 157.225 127.856V76.1442C157.225 75.4056 156.669 74.775 155.945 74.775ZM148.972 111.052H147.824C147.825 110.994 147.826 110.935 147.826 110.876V109.494H148.972V111.052ZM132.988 111.052V109.494H134.134V110.876C134.134 110.935 134.135 110.994 134.136 111.052H132.988ZM140.98 101.893C138.021 101.893 135.51 103.931 134.552 106.756H133.309C134.283 103.137 137.363 100.505 140.98 100.505C144.597 100.505 147.677 103.137 148.651 106.756H147.408C146.45 103.931 143.939 101.893 140.98 101.893ZM140.98 110.513C140.256 110.513 139.7 111.143 139.7 111.882V113.064C139.7 113.803 140.256 114.434 140.98 114.434H143.752C143.627 114.55 143.496 114.658 143.36 114.757C143.285 114.798 143.215 114.846 143.15 114.901C142.512 115.311 141.77 115.546 140.98 115.546C140.189 115.546 139.448 115.311 138.81 114.901C138.745 114.846 138.674 114.798 138.6 114.757C137.455 113.921 136.693 112.496 136.693 110.876V109.301C136.693 106.709 138.633 104.631 140.98 104.631C143.326 104.631 145.266 106.709 145.266 109.301V110.876C145.266 111.155 145.243 111.429 145.2 111.695H142.248C142.163 111.04 141.642 110.513 140.98 110.513ZM150.68 126.486H131.28V121.768C131.28 120.608 131.961 119.599 132.953 119.242L137.871 117.474C138.804 117.991 139.861 118.284 140.98 118.284C142.099 118.284 143.156 117.991 144.089 117.474L149.007 119.242C149.999 119.599 150.68 120.608 150.68 121.768V126.486ZM154.666 83.0134H105.334V77.5134H154.666V83.0134Z" fill="#FFDC60" stroke="#FFDC60" stroke-width="0.45"/>
<path d="M118.013 127.856C118.013 128.21 118.144 128.561 118.381 128.817L119.292 126.486C118.948 126.486 118.618 126.636 118.381 126.895L118.547 127.047L118.382 126.894C118.144 127.15 118.013 127.501 118.013 127.856Z" fill="#FFDC60" stroke="#FFDC60" stroke-width="0.45"/>
<path d="M126.422 79.3441H150.251C150.692 79.3441 151.081 79.7382 151.081 80.2634C151.081 80.7886 150.692 81.1826 150.251 81.1826H126.422C125.981 81.1826 125.592 80.7886 125.592 80.2634C125.592 79.7382 125.981 79.3441 126.422 79.3441Z" fill="#FFDC60" stroke="#FFDC60" stroke-width="0.45"/>
<path d="M113.969 78.8941C114.312 78.8941 114.643 79.045 114.88 79.3019L113.969 78.8941ZM113.969 78.8941C113.626 78.8941 113.294 79.045 113.058 79.3019L113.969 78.8941ZM113.058 79.3019C112.822 79.558 112.689 79.9083 112.689 80.2634C112.689 80.6184 112.822 80.9687 113.058 81.2247L113.058 79.3019Z" fill="#FFDC60" stroke="#FFDC60" stroke-width="0.45"/>
<path d="M109.75 78.8941C110.093 78.8941 110.424 79.045 110.661 79.3019L109.75 78.8941ZM109.75 78.8941C109.407 78.8941 109.076 79.045 108.839 79.3019L109.75 78.8941ZM108.839 79.3019C108.603 79.558 108.47 79.9083 108.47 80.2634C108.47 80.6184 108.603 80.9687 108.839 81.2247L108.839 79.3019Z" fill="#FFDC60" stroke="#FFDC60" stroke-width="0.45"/>
<path d="M118.188 78.8941C118.531 78.8941 118.862 79.045 119.099 79.3019L118.188 78.8941ZM118.188 78.8941C117.844 78.8941 117.513 79.045 117.276 79.3019L118.188 78.8941ZM117.276 79.3019C117.04 79.558 116.908 79.9083 116.908 80.2634C116.908 80.6184 117.04 80.9687 117.276 81.2247L117.276 79.3019Z" fill="#FFDC60" stroke="#FFDC60" stroke-width="0.45"/>
<path d="M127.558 102.617V102.64C127.547 103.824 126.659 104.753 125.607 104.753H112.981C111.922 104.753 111.03 103.812 111.03 102.617V93.1503C111.03 91.9553 111.922 91.0147 112.981 91.0147H125.607C126.666 91.0147 127.558 91.9553 127.558 93.1503V102.617ZM125.607 88.2762H112.981C110.476 88.2762 108.47 90.4801 108.47 93.1503V102.617C108.47 105.287 110.477 107.491 112.981 107.491H125.607C128.111 107.491 130.117 105.287 130.117 102.617V93.1503C130.117 90.4801 128.111 88.2762 125.607 88.2762Z" fill="#FFDC60" stroke="#FFDC60" stroke-width="0.45"/>
<path d="M122.575 95.7766L122.575 95.7766L118.544 92.9731L118.544 92.9731C117.824 92.4724 116.906 92.4372 116.154 92.8832L116.154 92.8832C115.405 93.3276 114.949 94.1721 114.949 95.0808V100.688C114.949 101.596 115.405 102.441 116.154 102.885L116.154 102.885C116.504 103.093 116.892 103.197 117.279 103.197C117.721 103.197 118.161 103.062 118.544 102.795L118.544 102.795L122.575 99.992C123.247 99.5251 123.641 98.735 123.641 97.8843C123.641 97.0336 123.247 96.2434 122.575 95.7766ZM120.909 97.8844L117.508 100.249L117.508 95.5195L120.909 97.8844Z" fill="#FFDC60" stroke="#FFDC60" stroke-width="0.45"/>
<path d="M117.501 115.738H109.75C109.026 115.738 108.47 116.368 108.47 117.107C108.47 117.845 109.026 118.476 109.75 118.476H117.501C118.225 118.476 118.781 117.845 118.781 117.107C118.781 116.368 118.225 115.738 117.501 115.738Z" fill="#FFDC60" stroke="#FFDC60" stroke-width="0.45"/>
<path d="M125.233 115.738H122.311C121.588 115.738 121.032 116.368 121.032 117.107C121.032 117.845 121.588 118.476 122.311 118.476H125.233C125.957 118.476 126.513 117.845 126.513 117.107C126.513 116.368 125.957 115.738 125.233 115.738Z" fill="#FFDC60" stroke="#FFDC60" stroke-width="0.45"/>
<path d="M120.865 110.245H109.75C109.026 110.245 108.47 110.876 108.47 111.615C108.47 112.353 109.026 112.984 109.75 112.984H120.865C121.589 112.984 122.145 112.353 122.145 111.615C122.145 110.876 121.589 110.245 120.865 110.245Z" fill="#FFDC60" stroke="#FFDC60" stroke-width="0.45"/>
<path d="M125.272 110.245C125.616 110.245 125.947 110.397 126.183 110.653C126.42 110.909 126.552 111.26 126.552 111.615C126.552 111.97 126.42 112.32 126.184 112.576C125.947 112.833 125.616 112.984 125.272 112.984C124.928 112.984 124.598 112.833 124.361 112.576L125.272 110.245ZM125.272 110.245C124.928 110.245 124.598 110.396 124.361 110.653L125.272 110.245ZM124.361 110.653C124.125 110.909 123.993 111.26 123.993 111.615C123.993 111.97 124.125 112.32 124.361 112.576L124.361 110.653Z" fill="#FFDC60" stroke="#FFDC60" stroke-width="0.45"/>
<path d="M125.233 121.23H109.75C109.026 121.23 108.47 121.861 108.47 122.599C108.47 123.338 109.026 123.969 109.75 123.969H125.233C125.957 123.969 126.513 123.338 126.513 122.599C126.513 121.861 125.957 121.23 125.233 121.23Z" fill="#FFDC60" stroke="#FFDC60" stroke-width="0.45"/>
<defs>
<filter id="filter0_d_10_1266" x="0.121953" y="0.658539" width="470.293" height="258.293" filterUnits="userSpaceOnUse" color-interpolation-filters="sRGB">
<feFlood flood-opacity="0" result="BackgroundImageFix"/>
<feColorMatrix in="SourceAlpha" type="matrix" values="0 0 0 0 0 0 0 0 0 0 0 0 0 0 0 0 0 0 127 0" result="hardAlpha"/>
<feOffset dx="9.26829" dy="27.8049"/>
<feGaussianBlur stdDeviation="37.0732"/>
<feColorMatrix type="matrix" values="0 0 0 0 0 0 0 0 0 0 0 0 0 0 0 0 0 0 0.1 0"/>
<feBlend mode="normal" in2="BackgroundImageFix" result="effect1_dropShadow_10_1266"/>
<feBlend mode="normal" in="SourceGraphic" in2="effect1_dropShadow_10_1266" result="shape"/>
</filter>
</defs>
</svg>
