<svg width="444" height="239" viewBox="0 0 444 239" fill="none" xmlns="http://www.w3.org/2000/svg">
<g filter="url(#filter0_d_8_154)">
<rect x="65" y="47" width="295" height="90" rx="15" fill="white"/>
</g>
<rect x="81.2983" y="55" width="74.006" height="74.006" rx="9" fill="#FFF9E6"/>
<path d="M139.445 69.775H97.1578C96.5419 69.775 96.0733 70.3109 96.0733 70.9325V113.073C96.0733 113.695 96.5419 114.231 97.1578 114.231H105.495C106.111 114.231 106.579 113.695 106.579 113.073C106.579 112.452 106.111 111.916 105.495 111.916H98.2423V78.8036H138.36V111.916H137.281V108.112C137.281 106.207 136.16 104.508 134.47 103.9L131.722 102.912C131.994 102.526 132.224 102.104 132.405 101.653H134.805C135.421 101.653 135.889 101.117 135.889 100.496V97.866C135.889 92.7254 132.03 88.5115 127.249 88.5115C122.468 88.5115 118.609 92.7254 118.609 97.866V100.496C118.609 101.117 119.078 101.653 119.694 101.653H122.093C122.275 102.104 122.504 102.526 122.776 102.912L120.029 103.9C118.338 104.508 117.217 106.207 117.217 108.112V111.916H113.444C112.828 111.916 112.36 112.452 112.36 113.073C112.36 113.695 112.828 114.231 113.444 114.231H118.301H136.197H139.445C140.061 114.231 140.529 113.695 140.529 113.073V70.9325C140.529 70.3108 140.061 69.775 139.445 69.775ZM133.72 99.3384H132.869C132.869 99.3045 132.87 99.2706 132.87 99.2365V98.1519H133.72V99.3384ZM120.778 99.3384V98.1519H121.629V99.2365C121.629 99.2706 121.629 99.3045 121.629 99.3384H120.778ZM127.249 91.874C124.827 91.874 122.774 93.5352 121.981 95.8369H121.052C121.858 92.9304 124.341 90.8262 127.249 90.8262C130.158 90.8262 132.641 92.9304 133.446 95.8369H132.517C131.724 93.5352 129.671 91.874 127.249 91.874ZM127.249 98.8986C126.633 98.8986 126.165 99.4345 126.165 100.056V101.02C126.165 101.641 126.633 102.177 127.249 102.177H129.4C129.324 102.243 129.246 102.305 129.166 102.364C129.105 102.398 129.047 102.437 128.993 102.483C128.48 102.812 127.884 103 127.249 103C126.614 103 126.019 102.812 125.506 102.483C125.452 102.437 125.394 102.398 125.332 102.364C124.411 101.69 123.798 100.543 123.798 99.2365V97.9527C123.798 95.8599 125.363 94.189 127.249 94.189C129.135 94.189 130.701 95.8599 130.701 97.9527V99.2365C130.701 99.4495 130.684 99.6584 130.652 99.8621H128.318C128.233 99.3271 127.8 98.8986 127.249 98.8986ZM135.112 111.916H119.386V108.112C119.386 107.183 119.932 106.377 120.722 106.093L124.712 104.659C125.474 105.077 126.336 105.315 127.249 105.315C128.162 105.315 129.024 105.077 129.786 104.659L133.777 106.093C134.567 106.377 135.112 107.183 135.112 108.112V111.916ZM138.36 76.4887H98.2423V72.0899H138.36V76.4887Z" fill="#FFDC60" stroke="#FFDC60" stroke-width="0.45"/>
<path d="M110.349 112.262C110.148 112.043 109.867 111.916 109.576 111.916C109.283 111.916 109.003 112.043 108.802 112.262L108.968 112.414L108.803 112.261C108.602 112.478 108.491 112.775 108.491 113.073C108.491 113.372 108.602 113.668 108.803 113.885C109.003 114.102 109.283 114.231 109.576 114.231C109.868 114.231 110.149 114.102 110.349 113.885C110.549 113.668 110.66 113.373 110.66 113.073C110.66 112.774 110.549 112.479 110.349 112.262Z" fill="#FFDC60" stroke="#FFDC60" stroke-width="0.45"/>
<path d="M115.386 73.5819H134.805C135.138 73.5819 135.439 73.881 135.439 74.2893C135.439 74.6976 135.138 74.9968 134.805 74.9968H115.386C115.052 74.9968 114.751 74.6976 114.751 74.2893C114.751 73.881 115.052 73.5819 115.386 73.5819Z" fill="#FFDC60" stroke="#FFDC60" stroke-width="0.45"/>
<path d="M105.237 73.1319C105.529 73.1319 105.81 73.2601 106.01 73.4775L105.237 73.1319ZM105.237 73.1319C104.945 73.1319 104.664 73.2601 104.464 73.4775L105.237 73.1319ZM105.237 75.4468C105.529 75.4468 105.81 75.3184 106.01 75.101L104.464 73.4776C104.264 73.6943 104.153 73.9899 104.153 74.2893C104.153 74.5886 104.264 74.8843 104.464 75.101C104.664 75.3182 104.945 75.4468 105.237 75.4468Z" fill="#FFDC60" stroke="#FFDC60" stroke-width="0.45"/>
<path d="M101.799 73.1319C102.091 73.1319 102.372 73.2601 102.572 73.4775L101.799 73.1319ZM101.799 73.1319C101.508 73.1319 101.227 73.2601 101.026 73.4775L101.799 73.1319ZM101.799 75.4468C102.091 75.4468 102.372 75.3184 102.572 75.101L101.026 73.4776C100.827 73.6943 100.715 73.9899 100.715 74.2893C100.715 74.5886 100.827 74.8843 101.026 75.101C101.227 75.3182 101.507 75.4468 101.799 75.4468Z" fill="#FFDC60" stroke="#FFDC60" stroke-width="0.45"/>
<path d="M109.448 73.4776C109.248 73.2601 108.967 73.1319 108.675 73.1319M109.448 73.4776L109.283 73.6301L109.448 73.4775C109.448 73.4776 109.448 73.4776 109.448 73.4776ZM109.448 73.4776C109.648 73.6943 109.76 73.9899 109.76 74.2893C109.76 74.5886 109.648 74.8843 109.448 75.1009C109.248 75.3184 108.967 75.4468 108.675 75.4468C108.383 75.4468 108.102 75.3182 107.902 75.101C107.702 74.8843 107.591 74.5886 107.591 74.2893C107.591 73.9899 107.702 73.6943 107.902 73.4776L108.675 73.1319M108.675 73.1319C108.383 73.1319 108.102 73.2601 107.902 73.4775L108.675 73.1319Z" fill="#FFDC60" stroke="#FFDC60" stroke-width="0.45"/>
<path d="M116.27 92.5061V92.5244C116.261 93.4697 115.553 94.2049 114.722 94.2049H104.432C103.596 94.2049 102.884 93.4602 102.884 92.5061V84.7912C102.884 83.8371 103.596 83.0925 104.432 83.0925H114.722C115.558 83.0925 116.27 83.8371 116.27 84.7912V92.5061ZM114.722 80.7776H104.432C102.365 80.7776 100.715 82.5955 100.715 84.7912V92.5061C100.715 94.7018 102.365 96.5198 104.432 96.5198H114.722C116.788 96.5198 118.439 94.7018 118.439 92.5061V84.7912C118.439 82.5955 116.788 80.7776 114.722 80.7776Z" fill="#FFDC60" stroke="#FFDC60" stroke-width="0.45"/>
<path d="M112.275 86.8971L112.275 86.8971L108.989 84.6125L108.989 84.6125C108.389 84.1952 107.624 84.1658 106.997 84.5376L106.997 84.5376C106.373 84.9078 105.994 85.6102 105.994 86.3643V90.9335C105.994 91.6876 106.373 92.39 106.997 92.7602L106.997 92.7602C107.289 92.9333 107.612 93.02 107.935 93.02C108.304 93.02 108.67 92.907 108.989 92.6853L108.989 92.6853L112.275 90.4007C112.275 90.4007 112.275 90.4007 112.275 90.4007C112.834 90.012 113.161 89.3549 113.161 88.6489C113.161 87.9429 112.834 87.2858 112.275 86.8971ZM110.82 88.649L108.163 90.4961L108.163 86.8014L110.82 88.649Z" fill="#FFDC60" stroke="#FFDC60" stroke-width="0.45"/>
<path d="M108.116 103.157H101.799C101.184 103.157 100.715 103.692 100.715 104.314C100.715 104.936 101.184 105.471 101.799 105.471H108.116C108.732 105.471 109.201 104.936 109.201 104.314C109.201 103.692 108.732 103.157 108.116 103.157Z" fill="#FFDC60" stroke="#FFDC60" stroke-width="0.45"/>
<path d="M114.417 103.157H112.036C111.42 103.157 110.951 103.692 110.951 104.314C110.951 104.936 111.42 105.471 112.036 105.471H114.417C115.033 105.471 115.501 104.936 115.501 104.314C115.501 103.692 115.033 103.157 114.417 103.157Z" fill="#FFDC60" stroke="#FFDC60" stroke-width="0.45"/>
<path d="M110.857 98.6808H101.799C101.184 98.6808 100.715 99.2167 100.715 99.8382C100.715 100.46 101.184 100.996 101.799 100.996H110.857C111.473 100.996 111.942 100.46 111.942 99.8382C111.942 99.2167 111.473 98.6808 110.857 98.6808Z" fill="#FFDC60" stroke="#FFDC60" stroke-width="0.45"/>
<path d="M114.449 98.6808C114.741 98.6808 115.022 98.8092 115.222 99.0265C115.422 99.2432 115.534 99.5389 115.534 99.8382C115.534 100.138 115.422 100.433 115.222 100.65C115.022 100.867 114.741 100.996 114.449 100.996C114.156 100.996 113.876 100.867 113.676 100.65C113.476 100.433 113.365 100.138 113.365 99.8382C113.365 99.5389 113.476 99.2432 113.676 99.0265L114.449 98.6808ZM114.449 98.6808C114.156 98.6808 113.876 98.8091 113.676 99.0264L114.449 98.6808Z" fill="#FFDC60" stroke="#FFDC60" stroke-width="0.45"/>
<path d="M114.417 107.632H101.799C101.184 107.632 100.715 108.168 100.715 108.79C100.715 109.411 101.184 109.947 101.799 109.947H114.417C115.033 109.947 115.501 109.411 115.501 108.79C115.501 108.168 115.033 107.632 114.417 107.632Z" fill="#FFDC60" stroke="#FFDC60" stroke-width="0.45"/>
<path d="M177 113L179.021 119.219H185.56L180.269 123.062L182.29 129.281L177 125.438L171.71 129.281L173.731 123.062L168.44 119.219H174.979L177 113Z" fill="#FFDC60"/>
<path d="M210 113L212.021 119.219H218.56L213.269 123.062L215.29 129.281L210 125.438L204.71 129.281L206.731 123.062L201.44 119.219H207.979L210 113Z" fill="#FFDC60"/>
<path d="M243 113L245.021 119.219H251.56L246.269 123.062L248.29 129.281L243 125.438L237.71 129.281L239.731 123.062L234.44 119.219H240.979L243 113Z" fill="#FFDC60"/>
<path d="M276 113L278.021 119.219H284.56L279.269 123.062L281.29 129.281L276 125.438L270.71 129.281L272.731 123.062L267.44 119.219H273.979L276 113Z" fill="#FFDC60"/>
<path d="M309 113L311.021 119.219H317.56L312.269 123.062L314.29 129.281L309 125.438L303.71 129.281L305.731 123.062L300.44 119.219H306.979L309 113Z" fill="#FFDC60"/>
<defs>
<filter id="filter0_d_8_154" x="0.121953" y="0.658539" width="443.293" height="238.293" filterUnits="userSpaceOnUse" color-interpolation-filters="sRGB">
<feFlood flood-opacity="0" result="BackgroundImageFix"/>
<feColorMatrix in="SourceAlpha" type="matrix" values="0 0 0 0 0 0 0 0 0 0 0 0 0 0 0 0 0 0 127 0" result="hardAlpha"/>
<feOffset dx="9.26829" dy="27.8049"/>
<feGaussianBlur stdDeviation="37.0732"/>
<feColorMatrix type="matrix" values="0 0 0 0 0 0 0 0 0 0 0 0 0 0 0 0 0 0 0.1 0"/>
<feBlend mode="normal" in2="BackgroundImageFix" result="effect1_dropShadow_8_154"/>
<feBlend mode="normal" in="SourceGraphic" in2="effect1_dropShadow_8_154" result="shape"/>
</filter>
</defs>
</svg>
