<svg width="90" height="90" viewBox="0 0 90 90" fill="none" xmlns="http://www.w3.org/2000/svg">
<rect width="90" height="90" rx="9" fill="#E0FFF0"/>
<mask id="path-2-outside-1_10_1257" maskUnits="userSpaceOnUse" x="16.9999" y="17" width="56" height="56" fill="black">
<rect fill="white" x="16.9999" y="17" width="56" height="56"/>
<path d="M-nan -nanL69.1919 18H20.8079C20.0634 18.0009 19.3497 18.297 18.8233 18.8234C18.2969 19.3498 18.0007 20.0635 17.9999 20.808V58.824C18.0007 59.5685 18.2969 60.2822 18.8233 60.8086C19.3497 61.335 20.0634 61.6311 20.8079 61.632H36.0465C38.0864 61.632 39.6648 63.42 39.4116 65.4442C39.2531 66.7119 38.3874 67.7656 37.2239 68.2933C36.1217 68.7933 35.0553 69.3706 34.0328 70.0214C33.84 70.15 33.6936 70.3372 33.6154 70.5554C33.5371 70.7736 33.5311 71.0111 33.5983 71.233C33.6655 71.4548 33.8022 71.6491 33.9883 71.7873C34.1745 71.9254 34.4001 72 34.6319 72H55.3679C55.5997 72 55.8253 71.9254 56.0114 71.7873C56.1975 71.6491 56.3343 71.4548 56.4015 71.233C56.4686 71.0111 56.4626 70.7736 56.3844 70.5554C56.3062 70.3372 56.1598 70.15 55.967 70.0214C54.9445 69.3706 53.8781 68.7933 52.7759 68.2933C51.6124 67.7656 50.7467 66.7119 50.5881 65.4442C50.335 63.42 51.9133 61.632 53.9533 61.632H69.1919C69.9363 61.6311 70.6501 61.335 71.1765 60.8086C71.7029 60.2822 71.999 59.5685 71.9999 58.824V20.808C71.999 20.0635 71.7029 19.3498 71.1765 18.8234C70.6501 18.297 69.9363 18.0009 69.1919 18L-nan -nanZM-nan -nanL20.8079 20.16H69.1919C69.3637 20.1602 69.5284 20.2285 69.6499 20.35C69.7714 20.4715 69.8397 20.6362 69.8399 20.808V41.832C69.8399 46.8026 65.8104 50.832 60.8399 50.832H29.1599C24.1893 50.832 20.1599 46.8026 20.1599 41.832V20.808C20.16 20.6362 20.2284 20.4715 20.3499 20.35C20.4713 20.2285 20.6361 20.1602 20.8079 20.16L-nan -nanZM39.8159 69.84C39.6658 69.84 39.628 69.6388 39.7689 69.5871C41.3492 69.0082 43.1828 68.544 44.9999 68.544C46.2894 68.544 46.1124 69.84 44.8229 69.84H39.8159ZM48.1791 63.5863C48.3743 65.1464 46.9223 66.4261 45.3505 66.3882C45.1169 66.3826 44.8833 66.3826 44.6498 66.3882C43.0781 66.4262 41.6261 65.1468 41.821 63.5868C41.9606 62.4701 42.9099 61.632 44.0353 61.632H45.9649C47.0902 61.632 48.0393 62.4698 48.1791 63.5863ZM69.8399 58.824C69.8397 58.9958 69.7714 59.1605 69.6499 59.282C69.5284 59.4035 69.3637 59.4718 69.1919 59.472H20.8079C20.6361 59.4718 20.4713 59.4035 20.3499 59.282C20.2284 59.1605 20.16 58.9958 20.1599 58.824C20.1599 55.6031 22.771 52.992 25.9919 52.992H64.0079C67.2288 52.992 69.8399 55.6031 69.8399 58.824Z"/>
</mask>
<path d="M-nan -nanL69.1919 18H20.8079C20.0634 18.0009 19.3497 18.297 18.8233 18.8234C18.2969 19.3498 18.0007 20.0635 17.9999 20.808V58.824C18.0007 59.5685 18.2969 60.2822 18.8233 60.8086C19.3497 61.335 20.0634 61.6311 20.8079 61.632H36.0465C38.0864 61.632 39.6648 63.42 39.4116 65.4442C39.2531 66.7119 38.3874 67.7656 37.2239 68.2933C36.1217 68.7933 35.0553 69.3706 34.0328 70.0214C33.84 70.15 33.6936 70.3372 33.6154 70.5554C33.5371 70.7736 33.5311 71.0111 33.5983 71.233C33.6655 71.4548 33.8022 71.6491 33.9883 71.7873C34.1745 71.9254 34.4001 72 34.6319 72H55.3679C55.5997 72 55.8253 71.9254 56.0114 71.7873C56.1975 71.6491 56.3343 71.4548 56.4015 71.233C56.4686 71.0111 56.4626 70.7736 56.3844 70.5554C56.3062 70.3372 56.1598 70.15 55.967 70.0214C54.9445 69.3706 53.8781 68.7933 52.7759 68.2933C51.6124 67.7656 50.7467 66.7119 50.5881 65.4442C50.335 63.42 51.9133 61.632 53.9533 61.632H69.1919C69.9363 61.6311 70.6501 61.335 71.1765 60.8086C71.7029 60.2822 71.999 59.5685 71.9999 58.824V20.808C71.999 20.0635 71.7029 19.3498 71.1765 18.8234C70.6501 18.297 69.9363 18.0009 69.1919 18L-nan -nanZM-nan -nanL20.8079 20.16H69.1919C69.3637 20.1602 69.5284 20.2285 69.6499 20.35C69.7714 20.4715 69.8397 20.6362 69.8399 20.808V41.832C69.8399 46.8026 65.8104 50.832 60.8399 50.832H29.1599C24.1893 50.832 20.1599 46.8026 20.1599 41.832V20.808C20.16 20.6362 20.2284 20.4715 20.3499 20.35C20.4713 20.2285 20.6361 20.1602 20.8079 20.16L-nan -nanZM39.8159 69.84C39.6658 69.84 39.628 69.6388 39.7689 69.5871C41.3492 69.0082 43.1828 68.544 44.9999 68.544C46.2894 68.544 46.1124 69.84 44.8229 69.84H39.8159ZM48.1791 63.5863C48.3743 65.1464 46.9223 66.4261 45.3505 66.3882C45.1169 66.3826 44.8833 66.3826 44.6498 66.3882C43.0781 66.4262 41.6261 65.1468 41.821 63.5868C41.9606 62.4701 42.9099 61.632 44.0353 61.632H45.9649C47.0902 61.632 48.0393 62.4698 48.1791 63.5863ZM69.8399 58.824C69.8397 58.9958 69.7714 59.1605 69.6499 59.282C69.5284 59.4035 69.3637 59.4718 69.1919 59.472H20.8079C20.6361 59.4718 20.4713 59.4035 20.3499 59.282C20.2284 59.1605 20.16 58.9958 20.1599 58.824C20.1599 55.6031 22.771 52.992 25.9919 52.992H64.0079C67.2288 52.992 69.8399 55.6031 69.8399 58.824Z" fill="#58D498"/>
<path d="M20.8079 18V17.595L20.8074 17.595L20.8079 18ZM17.9999 20.808L17.5949 20.8075V20.808H17.9999ZM17.9999 58.824H17.5949L17.5949 58.8245L17.9999 58.824ZM20.8079 61.632L20.8074 62.037H20.8079V61.632ZM34.0328 70.0214L33.8153 69.6797L33.8081 69.6845L34.0328 70.0214ZM34.6319 72L34.6318 72.405H34.6319V72ZM55.3679 72V72.405H55.3679L55.3679 72ZM55.967 70.0214L56.1917 69.6844L56.1844 69.6798L55.967 70.0214ZM69.1919 61.632V62.037H69.1923L69.1919 61.632ZM71.9999 58.824L72.4049 58.8245V58.824H71.9999ZM71.9999 20.808H72.4049V20.8075L71.9999 20.808ZM69.1919 20.16L69.1923 19.755H69.1919V20.16ZM69.8399 20.808H70.2449V20.8076L69.8399 20.808ZM20.1599 20.808L19.7549 20.8076V20.808H20.1599ZM69.1919 59.472V59.877H69.1923L69.1919 59.472ZM20.8079 59.472L20.8075 59.877H20.8079V59.472ZM44.6498 66.3882L44.64 65.9834L44.6498 66.3882ZM45.3505 66.3882L45.3602 65.9833L45.3505 66.3882ZM39.7689 69.5871L39.6296 69.2069L39.7689 69.5871ZM52.7759 68.2933L52.9432 67.9245L52.7759 68.2933ZM69.1919 17.595H20.8079V18.405H69.1919V17.595ZM20.8074 17.595C19.9557 17.596 19.1391 17.9348 18.5369 18.537L19.1096 19.1098C19.5602 18.6592 20.1711 18.4057 20.8083 18.405L20.8074 17.595ZM18.5369 18.537C17.9346 19.1393 17.5959 19.9558 17.5949 20.8075L18.4049 20.8085C18.4056 20.1713 18.6591 19.5603 19.1096 19.1098L18.5369 18.537ZM17.5949 20.808V58.824H18.4049V20.808H17.5949ZM17.5949 58.8245C17.5959 59.6762 17.9346 60.4927 18.5369 61.095L19.1096 60.5222C18.6591 60.0717 18.4056 59.4607 18.4049 58.8235L17.5949 58.8245ZM18.5369 61.095C19.1391 61.6972 19.9557 62.036 20.8074 62.037L20.8083 61.227C20.1711 61.2263 19.5602 60.9728 19.1096 60.5222L18.5369 61.095ZM20.8079 62.037H36.0465V61.227H20.8079V62.037ZM37.0566 67.9245C35.937 68.4323 34.8539 69.0187 33.8153 69.6798L34.2503 70.3631C35.2567 69.7225 36.3063 69.1542 37.3912 68.6622L37.0566 67.9245ZM33.8081 69.6845C33.543 69.8613 33.3417 70.1187 33.2341 70.4187L33.9966 70.6921C34.0455 70.5558 34.137 70.4388 34.2575 70.3584L33.8081 69.6845ZM33.2341 70.4187C33.1265 70.7187 33.1183 71.0453 33.2107 71.3503L33.9859 71.1156C33.9439 70.977 33.9477 70.8285 33.9966 70.6921L33.2341 70.4187ZM33.2107 71.3503C33.303 71.6554 33.4911 71.9226 33.747 72.1125L34.2297 71.462C34.1134 71.3757 34.0279 71.2543 33.9859 71.1156L33.2107 71.3503ZM33.747 72.1125C34.0029 72.3024 34.3132 72.405 34.6318 72.405L34.6319 71.595C34.487 71.595 34.346 71.5484 34.2297 71.462L33.747 72.1125ZM34.6319 72.405H55.3679V71.595H34.6319V72.405ZM55.3679 72.405C55.6866 72.405 55.9968 72.3024 56.2528 72.1125L55.7701 71.462C55.6537 71.5484 55.5127 71.595 55.3678 71.595L55.3679 72.405ZM56.2528 72.1125C56.5087 71.9226 56.6967 71.6554 56.7891 71.3503L56.0138 71.1156C55.9719 71.2543 55.8864 71.3757 55.7701 71.462L56.2528 72.1125ZM56.7891 71.3503C56.8814 71.0453 56.8732 70.7187 56.7656 70.4187L56.0032 70.6921C56.0521 70.8285 56.0558 70.977 56.0138 71.1156L56.7891 71.3503ZM56.7656 70.4187C56.658 70.1187 56.4568 69.8613 56.1916 69.6845L55.7423 70.3584C55.8628 70.4388 55.9543 70.5558 56.0032 70.6921L56.7656 70.4187ZM56.1844 69.6798C55.1459 69.0187 54.0627 68.4323 52.9432 67.9245L52.6086 68.6622C53.6935 69.1542 54.7431 69.7225 55.7495 70.3631L56.1844 69.6798ZM53.9533 62.037H69.1919V61.227H53.9533V62.037ZM69.1923 62.037C70.0441 62.036 70.8606 61.6972 71.4629 61.095L70.8901 60.5222C70.4395 60.9728 69.8286 61.2263 69.1914 61.227L69.1923 62.037ZM71.4629 61.095C72.0651 60.4927 72.4039 59.6762 72.4049 58.8245L71.5949 58.8235C71.5941 59.4607 71.3407 60.0717 70.8901 60.5222L71.4629 61.095ZM72.4049 58.824V20.808H71.5949V58.824H72.4049ZM72.4049 20.8075C72.4039 19.9558 72.0651 19.1393 71.4629 18.537L70.8901 19.1098C71.3407 19.5603 71.5941 20.1713 71.5949 20.8085L72.4049 20.8075ZM71.4629 18.537C70.8606 17.9348 70.0441 17.596 69.1923 17.595L69.1914 18.405C69.8286 18.4057 70.4395 18.6592 70.8901 19.1098L71.4629 18.537ZM20.8079 20.565H69.1919V19.755H20.8079V20.565ZM69.1915 20.565C69.256 20.5651 69.3179 20.5907 69.3635 20.6364L69.9363 20.0636C69.7389 19.8663 69.4714 19.7553 69.1923 19.755L69.1915 20.565ZM69.3635 20.6364C69.4091 20.682 69.4348 20.7439 69.4349 20.8084L70.2449 20.8076C70.2446 20.5285 70.1336 20.2609 69.9363 20.0636L69.3635 20.6364ZM69.4349 20.808V41.832H70.2449V20.808H69.4349ZM60.8399 50.427H29.1599V51.237H60.8399V50.427ZM20.5649 41.832V20.808H19.7549V41.832H20.5649ZM20.5649 20.8084C20.5649 20.7439 20.5906 20.682 20.6362 20.6364L20.0635 20.0636C19.8661 20.2609 19.7552 20.5285 19.7549 20.8076L20.5649 20.8084ZM20.6362 20.6364C20.6819 20.5907 20.7437 20.5651 20.8083 20.565L20.8075 19.755C20.5284 19.7553 20.2608 19.8663 20.0635 20.0636L20.6362 20.6364ZM39.9082 69.9674C41.4634 69.3977 43.2474 68.949 44.9999 68.949V68.139C43.1181 68.139 41.2349 68.6187 39.6296 69.2069L39.9082 69.9674ZM44.8229 69.435H39.8159V70.245H44.8229V69.435ZM45.3602 65.9833C45.1202 65.9776 44.88 65.9776 44.64 65.9834L44.6595 66.7931C44.8866 66.7876 45.1137 66.7876 45.3407 66.7931L45.3602 65.9833ZM44.0353 62.037H45.9649V61.227H44.0353V62.037ZM69.4349 58.8236C69.4348 58.8881 69.4091 58.95 69.3635 58.9956L69.9363 59.5684C70.1336 59.3711 70.2446 59.1035 70.2449 58.8244L69.4349 58.8236ZM69.3635 58.9956C69.3179 59.0413 69.256 59.0669 69.1915 59.067L69.1923 59.877C69.4714 59.8767 69.7389 59.7657 69.9363 59.5684L69.3635 58.9956ZM69.1919 59.067H20.8079V59.877H69.1919V59.067ZM20.8083 59.067C20.7437 59.0669 20.6819 59.0413 20.6362 58.9956L20.0635 59.5684C20.2608 59.7657 20.5284 59.8767 20.8075 59.877L20.8083 59.067ZM20.6362 58.9956C20.5906 58.95 20.5649 58.8881 20.5649 58.8236L19.7549 58.8244C19.7552 59.1035 19.8661 59.3711 20.0635 59.5684L20.6362 58.9956ZM25.9919 53.397H64.0079V52.587H25.9919V53.397ZM64.0079 53.397C67.0051 53.397 69.4349 55.8268 69.4349 58.824H70.2449C70.2449 55.3794 67.4525 52.587 64.0079 52.587V53.397ZM44.64 65.9834C43.2527 66.0168 42.066 64.8927 42.2229 63.637L41.4192 63.5366C41.1862 65.401 42.9035 66.8355 44.6595 66.7931L44.64 65.9834ZM45.3407 66.7931C47.0969 66.8354 48.8143 65.4005 48.5809 63.536L47.7772 63.6366C47.9344 64.8923 46.7477 66.0168 45.3602 65.9833L45.3407 66.7931ZM44.9999 68.949C45.2596 68.949 45.387 69.0146 45.437 69.0566C45.4787 69.0916 45.48 69.1173 45.4772 69.1372C45.471 69.1826 45.3553 69.435 44.8229 69.435V70.245C45.58 70.245 46.1975 69.8494 46.2798 69.2468C46.3213 68.9427 46.2057 68.6444 45.9581 68.4364C45.7189 68.2354 45.3849 68.139 44.9999 68.139V68.949ZM29.1599 50.427C24.413 50.427 20.5649 46.5789 20.5649 41.832H19.7549C19.7549 47.0262 23.9656 51.237 29.1599 51.237V50.427ZM20.5649 58.824C20.5649 55.8268 22.9946 53.397 25.9919 53.397V52.587C22.5473 52.587 19.7549 55.3794 19.7549 58.824H20.5649ZM39.8159 69.435C39.9541 69.435 40.0597 69.5422 40.0814 69.6586C40.0917 69.7138 40.0855 69.7781 40.0531 69.8389C40.0184 69.904 39.963 69.9473 39.9082 69.9674L39.6296 69.2069C39.0376 69.4237 39.2409 70.245 39.8159 70.245V69.435ZM42.2229 63.637C42.3371 62.7229 43.1141 62.037 44.0353 62.037V61.227C42.7056 61.227 41.584 62.2172 41.4192 63.5366L42.2229 63.637ZM52.9432 67.9245C51.8911 67.4473 51.1289 66.5044 50.99 65.3939L50.1863 65.4944C50.3645 66.9193 51.3337 68.0839 52.6086 68.6622L52.9432 67.9245ZM69.4349 41.832C69.4349 46.5789 65.5868 50.427 60.8399 50.427V51.237C66.0341 51.237 70.2449 47.0262 70.2449 41.832H69.4349ZM39.0097 65.3939C38.8709 66.5044 38.1087 67.4473 37.0566 67.9245L37.3912 68.6622C38.666 68.0839 39.6353 66.9193 39.8135 65.4944L39.0097 65.3939ZM36.0465 62.037C37.8428 62.037 39.2327 63.6115 39.0097 65.3939L39.8135 65.4944C40.0969 63.2285 38.3301 61.227 36.0465 61.227V62.037ZM45.9649 62.037C46.8859 62.037 47.6628 62.7227 47.7772 63.6366L48.5809 63.536C48.4158 62.2168 47.2944 61.227 45.9649 61.227V62.037ZM50.99 65.3939C50.7671 63.6115 52.1569 62.037 53.9533 62.037V61.227C51.6697 61.227 49.9029 63.2285 50.1863 65.4944L50.99 65.3939Z" fill="#58D498" mask="url(#path-2-outside-1_10_1257)"/>
<path d="M43.2717 57.5146H46.7277C47.0678 57.5146 47.394 57.3795 47.6345 57.139C47.875 56.8984 48.0101 56.5722 48.0101 56.2321C48.0101 55.892 47.875 55.5658 47.6345 55.3252C47.394 55.0847 47.0678 54.9496 46.7277 54.9496H43.2717C42.9315 54.9496 42.6053 55.0847 42.3648 55.3252C42.1243 55.5658 41.9892 55.892 41.9892 56.2321C41.9892 56.5722 42.1243 56.8984 42.3648 57.139C42.6053 57.3795 42.9315 57.5146 43.2717 57.5146Z" fill="#58D498" stroke="#58D498" stroke-width="0.405"/>
<mask id="path-5-outside-2_10_1257" maskUnits="userSpaceOnUse" x="25.2079" y="22.832" width="40" height="25" fill="black">
<rect fill="white" x="25.2079" y="22.832" width="40" height="25"/>
<path d="M-nan -nanL29.0159 45H47.6249C49.7908 45 51.8292 45.9843 53.904 46.6058C54.0248 46.642 54.1466 46.6754 54.2693 46.7058C55.484 47.0073 56.7527 47.0173 57.9718 46.7348C59.191 46.4524 60.3261 45.8856 61.2844 45.0807C62.2427 44.2758 62.997 43.2557 63.4858 42.1036C63.9746 40.9515 64.1839 39.7001 64.0967 38.4517C64.0095 37.2033 63.6283 35.9932 62.9841 34.9202C62.3399 33.8473 61.4511 32.9419 60.3902 32.278C58.5972 31.1561 56.8799 29.4785 56.8799 27.3634V26.64C56.8791 25.8956 56.583 25.1818 56.0565 24.6554C55.5301 24.129 54.8164 23.8329 54.0719 23.832H29.0159C28.2714 23.8329 27.5577 24.129 27.0312 24.6554C26.5048 25.1818 26.2087 25.8956 26.2079 26.64V42.192C26.2087 42.9365 26.5048 43.6502 27.0312 44.1767C27.5577 44.7031 28.2714 44.9992 29.0159 45L-nan -nanZM-nan -nanL28.3679 42.192V38.034C28.3679 35.7376 30.2295 33.876 32.5259 33.876H45.3357C47.2237 33.876 48.4673 36.3393 48.2793 38.218C48.065 40.3589 46.5902 42.84 44.4385 42.84H29.0159C28.8441 42.8399 28.6794 42.7715 28.5579 42.65C28.4364 42.5286 28.3681 42.3638 28.3679 42.192L-nan -nanZM28.3679 31.014C28.3679 30.6263 28.6822 30.312 29.0699 30.312H54.2325C54.5017 30.312 54.7199 30.5302 54.7199 30.7994C54.7199 31.0342 54.552 31.234 54.3236 31.2888C53.9979 31.3668 53.6775 31.4656 53.3643 31.5845C53.1483 31.6665 52.9205 31.716 52.6895 31.716H29.0699C28.6822 31.716 28.3679 31.4017 28.3679 31.014ZM61.9559 39.006C61.9559 40.1488 61.617 41.2659 60.9821 42.2161C60.3472 43.1663 59.4448 43.9069 58.389 44.3442C57.3332 44.7815 56.1715 44.896 55.0507 44.673C53.9298 44.4501 52.9003 43.8998 52.0922 43.0917C51.2842 42.2836 50.7339 41.2541 50.5109 40.1333C50.288 39.0124 50.4024 37.8507 50.8397 36.7949C51.277 35.7391 52.0176 34.8367 52.9678 34.2018C53.918 33.5669 55.0351 33.228 56.1779 33.228C57.7098 33.2298 59.1784 33.8391 60.2616 34.9223C61.3448 36.0055 61.9541 37.4741 61.9559 39.006ZM-nan -nanL29.0159 25.992H54.0719C54.2437 25.9922 54.4084 26.0605 54.5299 26.182C54.6514 26.3035 54.7197 26.4682 54.7199 26.64C54.7199 27.4751 54.0429 28.152 53.2079 28.152H29.8799C29.0448 28.152 28.3679 27.4751 28.3679 26.64C28.3681 26.4682 28.4364 26.3035 28.5579 26.182C28.6794 26.0605 28.8441 25.9922 29.0159 25.992L-nan -nanZ"/>
</mask>
<path d="M-nan -nanL29.0159 45H47.6249C49.7908 45 51.8292 45.9843 53.904 46.6058C54.0248 46.642 54.1466 46.6754 54.2693 46.7058C55.484 47.0073 56.7527 47.0173 57.9718 46.7348C59.191 46.4524 60.3261 45.8856 61.2844 45.0807C62.2427 44.2758 62.997 43.2557 63.4858 42.1036C63.9746 40.9515 64.1839 39.7001 64.0967 38.4517C64.0095 37.2033 63.6283 35.9932 62.9841 34.9202C62.3399 33.8473 61.4511 32.9419 60.3902 32.278C58.5972 31.1561 56.8799 29.4785 56.8799 27.3634V26.64C56.8791 25.8956 56.583 25.1818 56.0565 24.6554C55.5301 24.129 54.8164 23.8329 54.0719 23.832H29.0159C28.2714 23.8329 27.5577 24.129 27.0312 24.6554C26.5048 25.1818 26.2087 25.8956 26.2079 26.64V42.192C26.2087 42.9365 26.5048 43.6502 27.0312 44.1767C27.5577 44.7031 28.2714 44.9992 29.0159 45L-nan -nanZM-nan -nanL28.3679 42.192V38.034C28.3679 35.7376 30.2295 33.876 32.5259 33.876H45.3357C47.2237 33.876 48.4673 36.3393 48.2793 38.218C48.065 40.3589 46.5902 42.84 44.4385 42.84H29.0159C28.8441 42.8399 28.6794 42.7715 28.5579 42.65C28.4364 42.5286 28.3681 42.3638 28.3679 42.192L-nan -nanZM28.3679 31.014C28.3679 30.6263 28.6822 30.312 29.0699 30.312H54.2325C54.5017 30.312 54.7199 30.5302 54.7199 30.7994C54.7199 31.0342 54.552 31.234 54.3236 31.2888C53.9979 31.3668 53.6775 31.4656 53.3643 31.5845C53.1483 31.6665 52.9205 31.716 52.6895 31.716H29.0699C28.6822 31.716 28.3679 31.4017 28.3679 31.014ZM61.9559 39.006C61.9559 40.1488 61.617 41.2659 60.9821 42.2161C60.3472 43.1663 59.4448 43.9069 58.389 44.3442C57.3332 44.7815 56.1715 44.896 55.0507 44.673C53.9298 44.4501 52.9003 43.8998 52.0922 43.0917C51.2842 42.2836 50.7339 41.2541 50.5109 40.1333C50.288 39.0124 50.4024 37.8507 50.8397 36.7949C51.277 35.7391 52.0176 34.8367 52.9678 34.2018C53.918 33.5669 55.0351 33.228 56.1779 33.228C57.7098 33.2298 59.1784 33.8391 60.2616 34.9223C61.3448 36.0055 61.9541 37.4741 61.9559 39.006ZM-nan -nanL29.0159 25.992H54.0719C54.2437 25.9922 54.4084 26.0605 54.5299 26.182C54.6514 26.3035 54.7197 26.4682 54.7199 26.64C54.7199 27.4751 54.0429 28.152 53.2079 28.152H29.8799C29.0448 28.152 28.3679 27.4751 28.3679 26.64C28.3681 26.4682 28.4364 26.3035 28.5579 26.182C28.6794 26.0605 28.8441 25.9922 29.0159 25.992L-nan -nanZ" fill="#58D498"/>
<path d="M54.2693 46.7058L54.3669 46.3128L54.2693 46.7058ZM56.8799 26.64H57.2849L57.2849 26.6396L56.8799 26.64ZM54.0719 23.832L54.0723 23.427H54.0719V23.832ZM29.0159 23.832V23.427L29.0154 23.427L29.0159 23.832ZM26.2079 26.64L25.8029 26.6396V26.64H26.2079ZM26.2079 42.192H25.8029L25.8029 42.1925L26.2079 42.192ZM29.0159 42.84L29.0155 43.245H29.0159V42.84ZM61.9559 39.006H62.3609V39.0056L61.9559 39.006ZM56.1779 33.228L56.1783 32.823H56.1779V33.228ZM54.0719 25.992L54.0723 25.587H54.0719V25.992ZM53.3643 31.5845L53.2205 31.2058L53.3643 31.5845ZM54.3236 31.2888L54.2293 30.8949L54.3236 31.2888ZM53.904 46.6058L53.7878 46.9938L53.904 46.6058ZM29.0159 45.405H47.6249V44.595H29.0159V45.405ZM53.7878 46.9938C53.9148 47.0318 54.0428 47.0669 54.1718 47.0989L54.3669 46.3128C54.2505 46.2839 54.1349 46.2522 54.0202 46.2179L53.7878 46.9938ZM54.1718 47.0989C55.4484 47.4158 56.7818 47.4262 58.0632 47.1294L57.8804 46.3403C56.7235 46.6083 55.5195 46.5989 54.3669 46.3128L54.1718 47.0989ZM58.0632 47.1294C59.3447 46.8325 60.5377 46.2368 61.5449 45.3908L61.0239 44.7706C60.1145 45.5344 59.0374 46.0722 57.8804 46.3403L58.0632 47.1294ZM61.5449 45.3908C62.5521 44.5448 63.3449 43.4726 63.8586 42.2617L63.113 41.9454C62.6491 43.0387 61.9333 44.0068 61.0239 44.7706L61.5449 45.3908ZM63.8586 42.2617C64.3723 41.0509 64.5924 39.7356 64.5007 38.4235L63.6927 38.4799C63.7754 39.6646 63.5768 40.8521 63.113 41.9454L63.8586 42.2617ZM64.5007 38.4235C64.4091 37.1113 64.0084 35.8395 63.3313 34.7118L62.6369 35.1287C63.2481 36.1469 63.6099 37.2952 63.6927 38.4799L64.5007 38.4235ZM63.3313 34.7118C62.6543 33.584 61.7201 32.6325 60.6051 31.9347L60.1754 32.6214C61.1821 33.2513 62.0256 34.1105 62.6369 35.1287L63.3313 34.7118ZM57.2849 27.3634V26.64H56.4749V27.3634H57.2849ZM57.2849 26.6396C57.2839 25.7879 56.9452 24.9713 56.3429 24.369L55.7701 24.9418C56.2207 25.3923 56.4742 26.0033 56.4749 26.6405L57.2849 26.6396ZM56.3429 24.369C55.7406 23.7667 54.9241 23.428 54.0723 23.427L54.0714 24.237C54.7087 24.2377 55.3196 24.4912 55.7701 24.9418L56.3429 24.369ZM54.0719 23.427H29.0159V24.237H54.0719V23.427ZM29.0154 23.427C28.1637 23.428 27.3471 23.7667 26.7449 24.369L27.3176 24.9418C27.7682 24.4912 28.3791 24.2377 29.0163 24.237L29.0154 23.427ZM26.7449 24.369C26.1426 24.9713 25.8038 25.7879 25.8029 26.6396L26.6129 26.6405C26.6136 26.0033 26.867 25.3924 27.3176 24.9418L26.7449 24.369ZM25.8029 26.64V42.192H26.6129V26.64H25.8029ZM25.8029 42.1925C25.8038 43.0442 26.1426 43.8608 26.7449 44.4631L27.3176 43.8903C26.867 43.4397 26.6136 42.8288 26.6129 42.1916L25.8029 42.1925ZM26.7449 44.4631C27.3471 45.0653 28.1637 45.4041 29.0154 45.405L29.0163 44.595C28.3791 44.5943 27.7682 44.3409 27.3176 43.8903L26.7449 44.4631ZM28.7729 42.192V38.034H27.9629V42.192H28.7729ZM32.5259 34.281H45.3357V33.471H32.5259V34.281ZM44.4385 42.435H29.0159V43.245H44.4385V42.435ZM29.0163 42.435C28.9518 42.435 28.8899 42.4093 28.8442 42.3637L28.2715 42.9364C28.4688 43.1338 28.7364 43.2448 29.0155 43.245L29.0163 42.435ZM28.8442 42.3637C28.7986 42.318 28.773 42.2562 28.7729 42.1916L27.9629 42.1924C27.9632 42.4715 28.0742 42.7391 28.2715 42.9364L28.8442 42.3637ZM29.0699 30.717H54.2325V29.907H29.0699V30.717ZM54.2293 30.8949C53.8868 30.977 53.5498 31.0808 53.2205 31.2058L53.508 31.9631C53.8051 31.8503 54.109 31.7566 54.418 31.6826L54.2293 30.8949ZM52.6895 31.311H29.0699V32.121H52.6895V31.311ZM61.5509 39.006C61.5509 40.0687 61.2358 41.1075 60.6454 41.9911L61.3189 42.4411C61.9983 41.4243 62.3609 40.2289 62.3609 39.006H61.5509ZM60.6454 41.9911C60.055 42.8747 59.2158 43.5634 58.234 43.97L58.544 44.7184C59.6738 44.2504 60.6395 43.4579 61.3189 42.4411L60.6454 41.9911ZM58.234 43.97C57.2523 44.3767 56.1719 44.4831 55.1297 44.2758L54.9716 45.0702C56.171 45.3088 57.4142 45.1864 58.544 44.7184L58.234 43.97ZM55.1297 44.2758C54.0874 44.0685 53.13 43.5567 52.3786 42.8053L51.8058 43.3781C52.6706 44.2428 53.7723 44.8317 54.9716 45.0702L55.1297 44.2758ZM52.3786 42.8053C51.6272 42.0539 51.1154 41.0965 50.9081 40.0543L50.1137 40.2123C50.3523 41.4117 50.9411 42.5134 51.8058 43.3781L52.3786 42.8053ZM50.9081 40.0543C50.7008 39.012 50.8072 37.9317 51.2139 36.9499L50.4655 36.6399C49.9976 37.7697 49.8751 39.0129 50.1137 40.2123L50.9081 40.0543ZM51.2139 36.9499C51.6206 35.9681 52.3092 35.1289 53.1928 34.5385L52.7428 33.8651C51.726 34.5445 50.9335 35.5101 50.4655 36.6399L51.2139 36.9499ZM53.1928 34.5385C54.0764 33.9482 55.1152 33.633 56.1779 33.633V32.823C54.955 32.823 53.7596 33.1857 52.7428 33.8651L53.1928 34.5385ZM56.1774 33.633C57.6021 33.6347 58.9679 34.2013 59.9752 35.2087L60.548 34.6359C59.389 33.4769 57.8175 32.8249 56.1783 32.823L56.1774 33.633ZM59.9752 35.2087C60.9826 36.216 61.5493 37.5819 61.5509 39.0065L62.3609 39.0056C62.359 37.3664 61.707 35.795 60.548 34.6359L59.9752 35.2087ZM29.0159 26.397H54.0719V25.587H29.0159V26.397ZM54.0715 26.397C54.136 26.3971 54.1979 26.4228 54.2435 26.4684L54.8163 25.8956C54.6189 25.6983 54.3514 25.5873 54.0723 25.587L54.0715 26.397ZM54.2435 26.4684C54.2892 26.514 54.3148 26.5759 54.3149 26.6404L55.1249 26.6396C55.1246 26.3605 55.0136 26.093 54.8163 25.8956L54.2435 26.4684ZM53.2079 27.747H29.8799V28.557H53.2079V27.747ZM28.7729 26.6404C28.773 26.5759 28.7986 26.514 28.8442 26.4684L28.2715 25.8956C28.0742 26.093 27.9632 26.3605 27.9629 26.6396L28.7729 26.6404ZM28.8442 26.4684C28.8899 26.4228 28.9518 26.3971 29.0163 26.397L29.0155 25.587C28.7364 25.5873 28.4688 25.6983 28.2715 25.8956L28.8442 26.4684ZM29.0699 31.311C28.9059 31.311 28.7729 31.1781 28.7729 31.014H27.9629C27.9629 31.6254 28.4585 32.121 29.0699 32.121V31.311ZM53.2205 31.2058C53.0415 31.2738 52.8627 31.311 52.6895 31.311V32.121C52.9784 32.121 53.255 32.0592 53.508 31.9631L53.2205 31.2058ZM54.3149 30.7994C54.3149 30.8346 54.2877 30.8809 54.2293 30.8949L54.418 31.6826C54.8163 31.5872 55.1249 31.2339 55.1249 30.7994H54.3149ZM54.2325 30.717C54.278 30.717 54.3149 30.7539 54.3149 30.7994H55.1249C55.1249 30.3066 54.7254 29.907 54.2325 29.907V30.717ZM29.0699 29.907C28.4585 29.907 27.9629 30.4027 27.9629 31.014H28.7729C28.7729 30.85 28.9059 30.717 29.0699 30.717V29.907ZM45.3357 34.281C46.0869 34.281 46.7591 34.7715 47.2411 35.5547C47.7214 36.3354 47.9609 37.3328 47.8763 38.1776L48.6823 38.2583C48.7857 37.2245 48.4974 36.051 47.9309 35.1303C47.3661 34.2122 46.4725 33.471 45.3357 33.471V34.281ZM28.7729 38.034C28.7729 35.9613 30.4532 34.281 32.5259 34.281V33.471C30.0058 33.471 27.9629 35.514 27.9629 38.034H28.7729ZM60.6051 31.9347C58.8318 30.8251 57.2849 29.2529 57.2849 27.3634H56.4749C56.4749 29.7042 58.3626 31.487 60.1754 32.6214L60.6051 31.9347ZM54.3149 26.64C54.3149 27.2514 53.8193 27.747 53.2079 27.747V28.557C54.2666 28.557 55.1249 27.6988 55.1249 26.64H54.3149ZM47.8763 38.1776C47.776 39.18 47.3784 40.2644 46.7612 41.0892C46.1438 41.9141 45.3446 42.435 44.4385 42.435V43.245C45.6841 43.245 46.6981 42.5254 47.4097 41.5745C48.1213 40.6235 48.5683 39.3969 48.6823 38.2583L47.8763 38.1776ZM29.8799 27.747C29.2685 27.747 28.7729 27.2514 28.7729 26.64H27.9629C27.9629 27.6988 28.8212 28.557 29.8799 28.557V27.747ZM47.6249 45.405C48.6481 45.405 49.654 45.6376 50.6782 45.9566C51.1903 46.116 51.7003 46.2948 52.2191 46.4753C52.7354 46.6548 53.2596 46.8356 53.7878 46.9938L54.0202 46.2179C53.5111 46.0653 53.0024 45.89 52.4852 45.7102C51.9706 45.5312 51.4466 45.3475 50.919 45.1832C49.8638 44.8546 48.7676 44.595 47.6249 44.595V45.405Z" fill="#58D498" mask="url(#path-5-outside-2_10_1257)"/>
<path d="M39.5982 35.6173H30.8502C30.5101 35.6173 30.1839 35.7524 29.9433 35.993C29.7028 36.2335 29.5677 36.5597 29.5677 36.8998C29.5677 37.24 29.7028 37.5662 29.9433 37.8067C30.1839 38.0472 30.5101 38.1823 30.8502 38.1823H39.5982C39.9383 38.1823 40.2646 38.0472 40.5051 37.8067C40.7456 37.5662 40.8807 37.24 40.8807 36.8998C40.8807 36.5597 40.7456 36.2335 40.5051 35.993C40.2646 35.7524 39.9383 35.6173 39.5982 35.6173Z" fill="#58D498" stroke="#58D498" stroke-width="0.405"/>
<path d="M54.695 41.9584L54.695 41.9584C54.962 42.1364 55.286 42.2078 55.6031 42.1586C55.9202 42.1094 56.2073 41.9431 56.4077 41.6926L56.4078 41.6925L59.8631 37.3733C59.8633 37.3731 59.8634 37.373 59.8635 37.3728C59.9695 37.2415 60.0485 37.0906 60.0961 36.9287C60.1437 36.7666 60.1588 36.5967 60.1406 36.4288C60.1223 36.2608 60.0711 36.0981 59.9897 35.95C59.9084 35.802 59.7987 35.6714 59.6668 35.5659C59.5348 35.4603 59.3834 35.3819 59.221 35.3351C59.0587 35.2882 58.8887 35.2739 58.7209 35.293C58.553 35.312 58.3906 35.3641 58.2429 35.4461C58.0953 35.5281 57.9654 35.6383 57.8606 35.7706C57.8605 35.7707 57.8604 35.7708 57.8603 35.7709L56.3502 37.6582C55.665 38.5144 54.439 38.7048 53.5265 38.0968C53.3866 38.0018 53.2293 37.9355 53.0637 37.9015C52.8977 37.8675 52.7267 37.8667 52.5604 37.8991C52.3941 37.9316 52.236 37.9967 52.095 38.0906C51.954 38.1846 51.833 38.3055 51.739 38.4464C51.6451 38.5874 51.58 38.7456 51.5475 38.9118C51.515 39.0781 51.5157 39.2492 51.5497 39.4151C51.5837 39.5811 51.6502 39.7387 51.7454 39.8788C51.8405 40.0186 51.9622 40.1383 52.1037 40.2309L54.695 41.9584Z" fill="#58D498" stroke="#58D498" stroke-width="0.405"/>
</svg>
