<svg width="70" height="70" viewBox="0 0 70 70" fill="none" xmlns="http://www.w3.org/2000/svg">
<rect x="5.77603" y="8.54215" width="56.6642" height="56.6642" rx="14.471" fill="#58D498" stroke="white" stroke-width="0.490543"/>
<rect x="14.9664" y="0.300395" width="56.6642" height="56.6642" rx="14.471" transform="rotate(15 14.9664 0.300395)" fill="#FFDC60" stroke="white" stroke-width="0.490543"/>
<circle cx="33.9354" cy="36.7317" r="19.3244" fill="#FFFAE8" stroke="#FFDC60" stroke-width="2.19071"/>
<path d="M33.0351 37.6957C33.0351 38.2325 32.834 38.7498 32.4715 39.1457C32.109 39.5416 31.6114 39.7874 31.0766 39.8346L30.0029 39.4438L29.7409 39.3493C29.4492 39.6601 29.0933 39.9037 28.698 40.0631C28.3027 40.2226 27.8774 40.2941 27.4517 40.2727C27.0259 40.2941 26.6007 40.2226 26.2053 40.0631C25.81 39.9037 25.4542 39.6601 25.1624 39.3493L24.9004 39.4438L23.8267 39.8346C23.372 39.7944 22.942 39.6103 22.599 39.3091C22.256 39.0078 22.018 38.6052 21.9194 38.1595C21.8208 37.7138 21.8667 37.2483 22.0506 36.8305C22.2345 36.4127 22.5467 36.0643 22.9419 35.836C22.8025 35.6227 22.7279 35.3736 22.7272 35.1188C22.7272 34.777 22.8629 34.4493 23.1046 34.2077C23.3462 33.966 23.6739 33.8303 24.0157 33.8303V32.1123C24.0157 31.201 24.3777 30.327 25.0221 29.6826C25.6664 29.0383 26.5404 28.6763 27.4517 28.6763C28.3629 28.6763 29.2369 29.0383 29.8813 29.6826C30.5257 30.327 30.8877 31.201 30.8877 32.1123V33.8303C31.2294 33.8303 31.5571 33.966 31.7987 34.2077C32.0404 34.4493 32.1762 34.777 32.1762 35.1188C32.1755 35.3736 32.1009 35.6227 31.9614 35.836C32.2879 36.0245 32.559 36.2956 32.7474 36.622C32.9359 36.9485 33.0351 37.3188 33.0351 37.6957Z" fill="#57565C"/>
<path d="M46.3492 26.9581V32.9711C46.3485 33.1987 46.2578 33.4168 46.0969 33.5778C45.9359 33.7387 45.7178 33.8294 45.4902 33.8301H41.1952L38.6182 35.5481V33.8301H35.1822C34.9546 33.8294 34.7365 33.7387 34.5756 33.5778C34.4146 33.4168 34.3239 33.1987 34.3232 32.9711V26.9581C34.3239 26.7305 34.4146 26.5124 34.5756 26.3515C34.7365 26.1905 34.9546 26.0998 35.1822 26.0991H45.4902C45.7178 26.0998 45.9359 26.1905 46.0969 26.3515C46.2578 26.5124 46.3485 26.7305 46.3492 26.9581Z" fill="#00CCB3"/>
<path d="M39.456 37.9061C39.5972 37.93 39.7301 37.9889 39.8427 38.0773C39.9553 38.1658 40.0441 38.2809 40.1008 38.4124C40.1576 38.5438 40.1806 38.6874 40.1677 38.83C40.1549 38.9726 40.1066 39.1097 40.0273 39.2289L39.048 40.7021H36.471L36.1747 39.5167C36.159 39.4534 36.158 39.3874 36.1716 39.3237C36.1852 39.26 36.2132 39.2003 36.2533 39.149C36.2935 39.0977 36.3447 39.0561 36.4033 39.0276C36.4618 38.999 36.5261 38.9841 36.5913 38.9841H37.33L37.8798 38.1595C37.9714 38.0207 38.1013 37.9115 38.2539 37.8452C38.4063 37.7789 38.5748 37.7583 38.7388 37.7858L39.456 37.9061Z" fill="#FFC477"/>
<path d="M39.0482 40.7017L36.0417 48.0031H35.1827L34.5557 45.3488L36.4712 40.7017H39.0482Z" fill="#ED539D"/>
<path d="M34.5553 45.3491L35.1824 48.0034H33.4644L34.5553 45.3491Z" fill="#ED539D"/>
<path d="M31.0766 39.8347L32.1547 40.2255C32.557 40.372 32.9165 40.6163 33.2007 40.9365C33.4849 41.2567 33.6848 41.6427 33.7825 42.0595L34.5556 45.3495L33.4646 48.0038H32.6056L31.7466 44.9973C31.7567 45.474 31.5899 45.9376 31.2785 46.2986C31.0256 46.6043 30.8874 46.9886 30.8877 47.3853V48.0038H27.4517V42.8498L30.0029 39.4438L31.0766 39.8347Z" fill="#ED539D"/>
<path d="M30.0028 39.4436L27.4516 42.8495L24.9004 39.4436L25.1624 39.3491C25.4541 39.6599 25.81 39.9035 26.2053 40.0629C26.6006 40.2224 27.0259 40.2939 27.4516 40.2725C27.8773 40.2939 28.3026 40.2224 28.6979 40.0629C29.0932 39.9035 29.4491 39.6599 29.7408 39.3491L30.0028 39.4436Z" fill="#E6E7E8"/>
<path d="M23.8265 39.8347L24.9002 39.4438L27.4515 42.8498V48.0038H21.4385V42.5062C21.4392 41.9773 21.6023 41.4614 21.9057 41.0282C22.2092 40.5949 22.6382 40.2653 23.135 40.0838L23.8265 39.8347Z" fill="#ED539D"/>
<path d="M29.7406 39.3492C29.4488 39.66 29.093 39.9035 28.6977 40.063C28.3023 40.2224 27.8771 40.294 27.4513 40.2726C27.0256 40.294 26.6003 40.2224 26.205 40.063C25.8097 39.9035 25.4538 39.66 25.1621 39.3492L26.1628 38.9841V37.2661H28.7398V38.9841L29.7406 39.3492Z" fill="#FFC477"/>
<path d="M28.7401 37.2661V38.2626C28.3378 38.4548 27.8975 38.5546 27.4516 38.5546C27.0057 38.5546 26.5654 38.4548 26.1631 38.2626V37.2661H28.7401Z" fill="#FFB655"/>
<path d="M30.4583 33.8301V34.6891C30.4594 35.0073 30.4086 35.3236 30.308 35.6254V35.6297C30.181 36.0164 29.9765 36.3732 29.707 36.6782C29.4374 36.9832 29.1085 37.23 28.7403 37.4035C28.1798 37.6686 27.5511 37.7544 26.9401 37.6491C26.329 37.5438 25.7653 37.2525 25.3258 36.8151C25.0458 36.5365 24.8239 36.2052 24.6727 35.8403C24.5216 35.4753 24.4443 35.0841 24.4453 34.6891V32.3827C24.7164 32.4984 25.0098 32.5527 25.3043 32.5416C26.7346 32.5416 27.3101 31.6826 28.7403 31.6826C29.7797 31.6826 29.9128 32.1336 30.4583 32.3827V33.8301Z" fill="#FFC477"/>
<path d="M26.5924 33.4004H25.7334V34.2594H26.5924V33.4004Z" fill="#EE8700"/>
<path d="M29.1695 33.4004H28.3105V34.2594H29.1695V33.4004Z" fill="#EE8700"/>
<path d="M27.4516 36.4067C27.1099 36.4067 26.7821 36.2709 26.5405 36.0293C26.2989 35.7876 26.1631 35.4599 26.1631 35.1182H27.0221C27.0221 35.2321 27.0674 35.3413 27.1479 35.4219C27.2284 35.5024 27.3377 35.5477 27.4516 35.5477C27.5655 35.5477 27.6747 35.5024 27.7553 35.4219C27.8358 35.3413 27.8811 35.2321 27.8811 35.1182H28.7401C28.7401 35.4599 28.6043 35.7876 28.3627 36.0293C28.121 36.2709 27.7933 36.4067 27.4516 36.4067Z" fill="#EE8700"/>
<path d="M24.4449 48.0034H23.5859V47.3849C23.5852 47.0872 23.4814 46.7988 23.2921 46.5689C22.9183 46.1313 22.7173 45.5723 22.7269 44.9969C22.7278 44.6382 22.8049 44.2839 22.9529 43.9572C23.101 43.6305 23.3168 43.339 23.5859 43.102V42.4199H24.4449V43.2789C24.4449 43.3928 24.3996 43.502 24.319 43.5826C23.9093 43.9923 23.5859 44.3157 23.5859 44.9969C23.576 45.3738 23.7082 45.7407 23.9561 46.0247C24.2713 46.408 24.444 46.8887 24.4449 47.3849V48.0034Z" fill="#EA348B"/>
<path d="M30.458 48.0034H31.317V47.3849C31.3177 47.0872 31.4215 46.7988 31.6108 46.5689C31.9846 46.1313 32.1856 45.5723 32.176 44.9969C32.1751 44.6382 32.098 44.2839 31.95 43.9572C31.8019 43.6305 31.5861 43.339 31.317 43.102V42.4199H30.458V43.2789C30.4581 43.3928 30.5033 43.502 30.5839 43.5826C30.9936 43.9923 31.317 44.3157 31.317 44.9969C31.3268 45.3738 31.1947 45.7407 30.9468 46.0247C30.6316 46.408 30.4589 46.8887 30.458 47.3849V48.0034Z" fill="#EA348B"/>
<path d="M44.2019 27.8169H38.189V28.6759H44.2019V27.8169Z" fill="#00B39D"/>
<path d="M44.2022 29.5352H36.4712V30.3942H44.2022V29.5352Z" fill="#00B39D"/>
<path d="M43.3432 31.2529H36.4712V32.1119H43.3432V31.2529Z" fill="#00B39D"/>
<path d="M37.3302 27.8169H36.4712V28.6759H37.3302V27.8169Z" fill="#00B39D"/>
</svg>
