<svg width="70" height="70" viewBox="0 0 70 70" fill="none" xmlns="http://www.w3.org/2000/svg">
<rect x="5.77628" y="8.54215" width="56.6642" height="56.6642" rx="14.471" fill="#58D498" stroke="white" stroke-width="0.490543"/>
<rect x="14.9662" y="0.300395" width="56.6642" height="56.6642" rx="14.471" transform="rotate(15 14.9662 0.300395)" fill="#FFDC60" stroke="white" stroke-width="0.490543"/>
<circle cx="33.9351" cy="36.7317" r="19.3244" fill="#FFFAE8" stroke="#FFDC60" stroke-width="2.19071"/>
<path d="M32.0933 32.5757H35.9503C36.564 32.5757 37.1526 32.8195 37.5866 33.2535C38.0207 33.6875 38.2645 34.2761 38.2645 34.8899V37.9755H29.7791V34.8899C29.7791 34.2761 30.0229 33.6875 30.4569 33.2535C30.8909 32.8195 31.4795 32.5757 32.0933 32.5757Z" fill="#57B7EB"/>
<path d="M38.2645 37.2041V37.9755H29.7791V34.8899C29.7791 34.2761 30.0229 33.6875 30.4569 33.2535C30.8909 32.8195 31.4795 32.5757 32.0933 32.5757H32.479V34.8899C32.479 36.381 33.6877 37.2041 35.1789 37.2041H38.2645Z" fill="#4891D3"/>
<path d="M35.1789 25.6333H32.8647C31.5866 25.6333 30.5505 26.6694 30.5505 27.9475C30.5505 29.2256 31.5866 30.2617 32.8647 30.2617H35.1789C36.457 30.2617 37.4931 29.2256 37.4931 27.9475C37.4931 26.6694 36.457 25.6333 35.1789 25.6333Z" fill="#4891D3"/>
<path d="M37.2193 29.0429C37.1113 29.2416 36.9748 29.4235 36.8143 29.5829C36.6003 29.7988 36.3456 29.97 36.0648 30.0866C35.7841 30.2031 35.4829 30.2626 35.1789 30.2617H32.8647C32.251 30.2617 31.6624 30.0179 31.2284 29.5839C30.7943 29.1499 30.5505 28.5613 30.5505 27.9475C30.5515 27.334 30.7956 26.7459 31.2294 26.3121C31.6632 25.8783 32.2512 25.6342 32.8647 25.6333H34.0411C34.0269 25.6966 34.0204 25.7613 34.0218 25.8262C34.0218 26.6361 34.882 27.315 36.0468 27.5078C36.235 27.5376 36.4065 27.6336 36.5302 27.7786C36.6539 27.9235 36.7219 28.1079 36.7217 28.2985C36.7212 28.4045 36.7418 28.5095 36.7822 28.6075C36.8226 28.7055 36.882 28.7945 36.957 28.8693C37.0314 28.9448 37.1207 29.0039 37.2193 29.0429Z" fill="#2D72BC"/>
<path d="M31.7076 36.4326H29.7791V37.9754H31.7076V36.4326Z" fill="#F9E109"/>
<path d="M35.1787 32.9613L34.0216 34.1184L32.8645 32.9613V31.8042H35.1787V32.9613Z" fill="#FCBC04"/>
<path d="M35.1787 32.3712C34.8166 32.6953 34.362 32.8976 33.8789 32.9497C34.1613 33.1413 34.4828 33.2677 34.82 33.32L34.0216 34.1184L32.8645 32.9613V31.8042H35.1787V32.3712Z" fill="#E59730"/>
<path d="M34.0217 32.5756C33.408 32.5756 32.8193 32.3318 32.3853 31.8978C31.9513 31.4638 31.7075 30.8752 31.7075 30.2614V28.3329H32.1596C32.5054 28.333 32.8479 28.2648 33.1674 28.1325C33.4869 28.0001 33.7772 27.8061 34.0217 27.5615C34.2662 27.8061 34.5565 28.0001 34.876 28.1325C35.1956 28.2648 35.538 28.333 35.8839 28.3329H36.3359V30.2614C36.3359 30.8752 36.0921 31.4638 35.6581 31.8978C35.2241 32.3318 34.6355 32.5756 34.0217 32.5756Z" fill="#F9E109"/>
<path d="M32.4789 29.0812V29.49C32.479 29.9004 32.5882 30.3034 32.7953 30.6577C33.0024 31.0119 33.3 31.3047 33.6576 31.5061C34.0152 31.7075 34.4199 31.8101 34.8302 31.8035C35.2405 31.7969 35.6417 31.6814 35.9927 31.4687C35.7299 31.8991 35.3336 32.2318 34.8641 32.4161C34.3947 32.6003 33.8779 32.626 33.3925 32.4893C32.9071 32.3525 32.4797 32.0608 32.1755 31.6586C31.8713 31.2564 31.7069 30.7657 31.7075 30.2614V28.3329H32.1588C32.8574 28.3328 33.5275 28.0554 34.0217 27.5615C34.516 28.0554 35.186 28.3328 35.8847 28.3329H36.3359V29.1043H35.8847C35.186 29.1042 34.516 28.8268 34.0217 28.3329C33.6059 28.7484 33.0626 29.0119 32.4789 29.0812Z" fill="#FCBC04"/>
<path d="M36.3359 35.2759V37.2044H35.5645V36.0473C35.5645 35.8427 35.6457 35.6465 35.7904 35.5018C35.9351 35.3571 36.1313 35.2759 36.3359 35.2759Z" fill="#4891D3"/>
<path d="M31.7076 36.4326V37.9754H30.9362V37.5897C30.9355 37.3853 30.8541 37.1895 30.7096 37.0449C30.565 36.9004 30.3691 36.8189 30.1648 36.8183H29.7791V36.4326H31.7076Z" fill="#FCBC04"/>
<path d="M36.3359 37.9754H38.2644V36.4326H36.3359V37.9754Z" fill="#F9E109"/>
<path d="M36.3359 36.4326V37.9754H37.1073V37.5897C37.108 37.3853 37.1894 37.1895 37.3339 37.0449C37.4785 36.9004 37.6744 36.8189 37.8787 36.8183H38.2644V36.4326H36.3359Z" fill="#FCBC04"/>
<path d="M33.2502 30.2616C33.4632 30.2616 33.6359 30.089 33.6359 29.8759C33.6359 29.6629 33.4632 29.4902 33.2502 29.4902C33.0372 29.4902 32.8645 29.6629 32.8645 29.8759C32.8645 30.089 33.0372 30.2616 33.2502 30.2616Z" fill="#2D72BC"/>
<path d="M34.7932 30.2616C35.0062 30.2616 35.1789 30.089 35.1789 29.8759C35.1789 29.6629 35.0062 29.4902 34.7932 29.4902C34.5801 29.4902 34.4075 29.6629 34.4075 29.8759C34.4075 30.089 34.5801 30.2616 34.7932 30.2616Z" fill="#2D72BC"/>
<path d="M40.9643 31.0331H39.0358C38.9336 31.0331 38.8354 30.9925 38.7631 30.9201C38.6908 30.8478 38.6501 30.7497 38.6501 30.6474C38.6501 30.5451 38.6908 30.447 38.7631 30.3747C38.8354 30.3024 38.9336 30.2617 39.0358 30.2617H40.9643C41.0666 30.2617 41.1648 30.3024 41.2371 30.3747C41.3094 30.447 41.35 30.5451 41.35 30.6474C41.35 30.7497 41.3094 30.8478 41.2371 30.9201C41.1648 30.9925 41.0666 31.0331 40.9643 31.0331Z" fill="#F9E109"/>
<path d="M38.2644 29.4902C38.1774 29.4904 38.0929 29.4612 38.0246 29.4072C37.9563 29.3533 37.9083 29.2779 37.8883 29.1933C37.8683 29.1086 37.8774 29.0197 37.9144 28.9409C37.9513 28.8621 38.0137 28.7981 38.0916 28.7593L39.6344 27.9879C39.6797 27.9653 39.7291 27.9518 39.7796 27.9482C39.8302 27.9447 39.8809 27.9511 39.929 27.9671C39.977 27.9832 40.0215 28.0085 40.0597 28.0417C40.098 28.075 40.1294 28.1154 40.152 28.1607C40.1746 28.2061 40.1881 28.2554 40.1917 28.3059C40.1953 28.3565 40.1888 28.4072 40.1728 28.4553C40.1567 28.5034 40.1314 28.5478 40.0982 28.5861C40.0649 28.6243 40.0245 28.6557 39.9792 28.6783L38.4364 29.4497C38.3829 29.4764 38.3241 29.4902 38.2644 29.4902Z" fill="#F9E109"/>
<path d="M39.8072 33.3472C39.7475 33.3471 39.6886 33.3333 39.6351 33.3067L38.0923 32.5353C38.0008 32.4895 37.9312 32.4093 37.8988 32.3122C37.8664 32.2152 37.8738 32.1092 37.9195 32.0177C37.9653 31.9261 38.0455 31.8564 38.1426 31.824C38.2396 31.7917 38.3456 31.7991 38.4372 31.8449L39.98 32.6163C40.0578 32.6551 40.1203 32.7191 40.1572 32.7978C40.1941 32.8766 40.2033 32.9655 40.1833 33.0502C40.1632 33.1349 40.1152 33.2103 40.047 33.2642C39.9786 33.3181 39.8942 33.3473 39.8072 33.3472Z" fill="#F9E109"/>
<path d="M29.0076 31.0331H27.0791C26.9768 31.0331 26.8786 30.9925 26.8063 30.9201C26.734 30.8478 26.6934 30.7497 26.6934 30.6474C26.6934 30.5451 26.734 30.447 26.8063 30.3747C26.8786 30.3024 26.9768 30.2617 27.0791 30.2617H29.0076C29.1098 30.2617 29.208 30.3024 29.2803 30.3747C29.3526 30.447 29.3933 30.5451 29.3933 30.6474C29.3933 30.7497 29.3526 30.8478 29.2803 30.9201C29.208 30.9925 29.1098 31.0331 29.0076 31.0331Z" fill="#F9E109"/>
<path d="M29.7789 29.4902C29.7192 29.4902 29.6603 29.4764 29.6068 29.4497L28.064 28.6783C28.0187 28.6557 27.9783 28.6243 27.9451 28.5861C27.9118 28.5478 27.8865 28.5034 27.8704 28.4553C27.8544 28.4072 27.848 28.3565 27.8516 28.3059C27.8551 28.2554 27.8686 28.2061 27.8912 28.1607C27.9139 28.1154 27.9452 28.075 27.9835 28.0417C28.0218 28.0085 28.0662 27.9832 28.1143 27.9671C28.1623 27.9511 28.2131 27.9447 28.2636 27.9482C28.3142 27.9518 28.3635 27.9653 28.4088 27.9879L29.9517 28.7593C30.0295 28.7981 30.092 28.8621 30.1289 28.9409C30.1658 29.0197 30.175 29.1086 30.155 29.1933C30.1349 29.2779 30.0869 29.3533 30.0186 29.4072C29.9503 29.4612 29.8659 29.4904 29.7789 29.4902Z" fill="#F9E109"/>
<path d="M28.2363 33.3472C28.1493 33.3473 28.0648 33.3181 27.9966 33.2642C27.9282 33.2103 27.8802 33.1349 27.8602 33.0502C27.8402 32.9655 27.8494 32.8766 27.8863 32.7978C27.9232 32.7191 27.9856 32.6551 28.0635 32.6163L29.6063 31.8449C29.6516 31.8222 29.701 31.8087 29.7515 31.8051C29.8021 31.8016 29.8528 31.808 29.9009 31.824C29.949 31.8401 29.9934 31.8655 30.0317 31.8987C30.0699 31.9319 30.1013 31.9723 30.1239 32.0177C30.1466 32.063 30.1601 32.1123 30.1636 32.1629C30.1672 32.2134 30.1608 32.2642 30.1447 32.3122C30.1287 32.3603 30.1033 32.4048 30.0701 32.443C30.0369 32.4813 29.9964 32.5126 29.9511 32.5353L28.4083 33.3067C28.3549 33.3333 28.296 33.3471 28.2363 33.3472Z" fill="#F9E109"/>
<path d="M45.2071 32.8071V37.8674C45.2073 38.974 44.8411 40.0495 44.1657 40.926L40.7176 45.4117C40.4385 45.7755 40.2567 46.2043 40.1892 46.6577C40.1217 47.1112 40.1708 47.5744 40.3319 48.0036H34.0874C34.1377 46.8623 34.3334 45.7321 34.6698 44.6403L34.9398 43.7648C35.2706 42.7255 35.8598 41.7872 36.6523 41.0379L38.4844 39.2058C38.6542 39.0276 38.8837 38.9181 39.1291 38.8982C39.3745 38.8783 39.6187 38.9493 39.8151 39.0978C39.9199 39.183 40.0057 39.2892 40.0669 39.4097C40.128 39.5301 40.1632 39.6621 40.1701 39.797C40.177 39.9319 40.1555 40.0667 40.107 40.1928C40.0584 40.3189 39.9839 40.4333 39.8883 40.5288L42.7541 37.6669L43.1976 32.7646C43.2162 32.5167 43.3228 32.2836 43.4983 32.1075C43.6737 31.9314 43.9064 31.8238 44.1542 31.8042C44.2899 31.7981 44.4254 31.8196 44.5526 31.8671C44.6798 31.9147 44.796 31.9876 44.8944 32.0812C44.9927 32.1749 45.0711 32.2875 45.1249 32.4122C45.1786 32.5369 45.2066 32.6712 45.2071 32.8071Z" fill="#F9E109"/>
<path d="M37.8711 45.3039C38.2329 45.3043 38.5898 45.2202 38.9133 45.0581C39.2367 44.896 39.5178 44.6606 39.7341 44.3705L42.1717 41.1229C43.1447 39.8264 43.7063 38.2679 43.7839 36.6488L44.0115 31.8236L44.0157 31.8186C44.1609 31.7922 44.3101 31.7978 44.4529 31.8352C44.5956 31.8726 44.7284 31.9407 44.842 32.035C44.9556 32.1292 45.0472 32.2472 45.1102 32.3806C45.1733 32.514 45.2064 32.6596 45.2071 32.8072V37.8676C45.2073 38.9741 44.8411 40.0496 44.1657 40.9262L40.7176 45.4119C40.4385 45.7756 40.2567 46.2044 40.1892 46.6579C40.1217 47.1114 40.1708 47.5746 40.3319 48.0038H34.0874C34.0923 47.8904 34.0987 47.777 34.1067 47.6636C34.1326 47.2782 34.2408 46.9029 34.4238 46.5628C34.6069 46.2227 34.8607 45.9257 35.1681 45.6919C35.4755 45.458 35.8294 45.2927 36.2061 45.207C36.5827 45.1213 36.9733 45.1173 37.3516 45.1951L37.8711 45.3039Z" fill="#FCBC04"/>
<path d="M39.8888 39.1653C39.7989 39.075 39.6918 39.0035 39.5739 38.9551C39.456 38.9067 39.3297 38.8823 39.2022 38.8833C39.3426 39.0681 39.4114 39.2975 39.3958 39.5291C39.3802 39.7606 39.2813 39.9787 39.1174 40.143L37.5703 41.6901C37.417 41.8435 37.3308 42.0516 37.3308 42.2686C37.3308 42.4856 37.417 42.6937 37.5703 42.8472L39.8884 40.5287C40.0692 40.348 40.1708 40.1028 40.1709 39.8471C40.171 39.5914 40.0695 39.3461 39.8888 39.1653Z" fill="#FCBC04"/>
<path d="M22.8364 32.8071V37.8674C22.8363 38.974 23.2025 40.0495 23.8778 40.926L27.326 45.4117C27.605 45.7755 27.7869 46.2043 27.8543 46.6577C27.9218 47.1112 27.8727 47.5744 27.7117 48.0036H33.9562C33.9058 46.8623 33.7101 45.7321 33.3738 44.6403L33.1038 43.7648C32.773 42.7255 32.1838 41.7872 31.3913 41.0379L29.5592 39.2058C29.3893 39.0276 29.1598 38.9181 28.9144 38.8982C28.669 38.8783 28.4249 38.9493 28.2285 39.0978C28.1236 39.183 28.0379 39.2892 27.9767 39.4097C27.9155 39.5301 27.8803 39.6621 27.8734 39.797C27.8665 39.9319 27.8881 40.0667 27.9366 40.1928C27.9851 40.3189 28.0596 40.4333 28.1552 40.5288L25.2895 37.6669L24.8459 32.7646C24.8274 32.5167 24.7207 32.2836 24.5453 32.1075C24.3699 31.9314 24.1372 31.8238 23.8894 31.8042C23.7537 31.7981 23.6182 31.8196 23.491 31.8671C23.3638 31.9147 23.2475 31.9876 23.1492 32.0812C23.0508 32.1749 22.9724 32.2875 22.9187 32.4122C22.8649 32.5369 22.837 32.6712 22.8364 32.8071Z" fill="#F9E109"/>
<path d="M30.1724 45.3039C29.8107 45.3043 29.4538 45.2202 29.1303 45.0581C28.8068 44.896 28.5257 44.6606 28.3095 44.3705L25.8719 41.1229C24.8989 39.8264 24.3373 38.2679 24.2597 36.6488L24.0321 31.8236L24.0279 31.8186C23.8827 31.7922 23.7335 31.7978 23.5907 31.8352C23.4479 31.8726 23.3151 31.9407 23.2015 32.035C23.088 32.1292 22.9964 32.2472 22.9333 32.3806C22.8703 32.514 22.8372 32.6596 22.8364 32.8072V37.8676C22.8363 38.9741 23.2025 40.0496 23.8778 40.9262L27.326 45.4119C27.605 45.7756 27.7869 46.2044 27.8543 46.6579C27.9218 47.1114 27.8727 47.5746 27.7117 48.0038H33.9562C33.9513 47.8904 33.9449 47.777 33.9369 47.6636C33.911 47.2782 33.8028 46.9029 33.6197 46.5628C33.4366 46.2227 33.1829 45.9257 32.8755 45.6919C32.5681 45.458 32.2141 45.2927 31.8375 45.207C31.4609 45.1213 31.0703 45.1173 30.692 45.1951L30.1724 45.3039Z" fill="#FCBC04"/>
<path d="M28.1549 39.1658C28.2448 39.0755 28.3519 39.004 28.4697 38.9556C28.5876 38.9072 28.714 38.8828 28.8414 38.8838C28.701 39.0686 28.6323 39.298 28.6479 39.5296C28.6635 39.7611 28.7624 39.9792 28.9263 40.1435L30.4729 41.6906C30.6263 41.844 30.7125 42.0521 30.7125 42.2691C30.7125 42.4861 30.6263 42.6942 30.4729 42.8477L28.1549 40.5292C27.9741 40.3484 27.8726 40.1032 27.8726 39.8475C27.8726 39.5918 27.9741 39.3466 28.1549 39.1658Z" fill="#FCBC04"/>
</svg>
