<svg width="70" height="70" viewBox="0 0 70 70" fill="none" xmlns="http://www.w3.org/2000/svg">
<rect x="5.77603" y="8.54215" width="56.6642" height="56.6642" rx="14.471" fill="#FFDC60" stroke="white" stroke-width="0.490543"/>
<rect x="14.9664" y="0.300395" width="56.6642" height="56.6642" rx="14.471" transform="rotate(15 14.9664 0.300395)" fill="#58D498" stroke="white" stroke-width="0.490543"/>
<circle cx="33.9354" cy="36.7322" r="19.3244" fill="#FFFAE8" stroke="#FFDC60" stroke-width="2.19071"/>
<path d="M44.8751 40.8541C44.8221 41.0655 44.7262 41.2638 44.5935 41.4368C44.4609 41.6098 44.2942 41.7537 44.1037 41.8598C44.0703 41.5977 43.9728 41.3478 43.8199 41.1323C43.667 40.9168 43.4634 40.7423 43.2271 40.6241C42.9907 40.5059 42.7289 40.4478 42.4648 40.4547C42.2007 40.4617 41.9423 40.5337 41.7125 40.6642C41.701 40.5948 41.6956 40.5245 41.6964 40.4542C41.6964 40.0257 41.8666 39.6147 42.1696 39.3118C42.4726 39.0087 42.8835 38.8385 43.312 38.8385C43.3296 38.8379 43.3472 38.8392 43.3645 38.8426C43.3287 38.9728 43.311 39.1074 43.312 39.2424C43.3112 39.6618 43.4741 40.0649 43.7661 40.3659C44.058 40.6669 44.456 40.8421 44.8751 40.8541Z" fill="#CFF09E"/>
<path d="M45.7357 43.2816V46.9168H44.9279V44.8972C44.9279 44.5758 44.8002 44.2676 44.5729 44.0404C44.3457 43.8131 44.0375 43.6855 43.7161 43.6855H42.5044C42.9329 43.6855 43.3438 43.5153 43.6468 43.2122C43.9498 42.9093 44.12 42.4983 44.12 42.0698C44.1207 42.2839 44.206 42.489 44.3573 42.6403C44.5087 42.7917 44.7138 42.877 44.9279 42.8776H45.663C45.7119 43.0067 45.7365 43.1436 45.7357 43.2816Z" fill="#CFF09E"/>
<path d="M36.797 40.8541C36.7439 41.0655 36.6481 41.2638 36.5154 41.4368C36.3827 41.6098 36.216 41.7537 36.0256 41.8598C35.9921 41.5977 35.8947 41.3478 35.7418 41.1323C35.5889 40.9168 35.3853 40.7423 35.1489 40.6241C34.9126 40.5059 34.6508 40.4478 34.3866 40.4547C34.1225 40.4617 33.8641 40.5337 33.6344 40.6642C33.6228 40.5948 33.6174 40.5245 33.6182 40.4542C33.6182 40.0257 33.7885 39.6147 34.0915 39.3118C34.3944 39.0087 34.8054 38.8385 35.2339 38.8385C35.2515 38.8379 35.2691 38.8392 35.2864 38.8426C35.2506 38.9728 35.2329 39.1074 35.2339 39.2424C35.2331 39.6618 35.396 40.0649 35.688 40.3659C35.9799 40.6669 36.3778 40.8421 36.797 40.8541Z" fill="#CFF09E"/>
<path d="M34.4262 43.6852H33.2145C33.0765 43.6844 32.9396 43.709 32.8105 43.7579V43.2813C32.8115 43.0847 32.8585 42.891 32.9479 42.7158C33.0727 43.0041 33.2792 43.2495 33.5419 43.4218C33.8046 43.5941 34.112 43.6857 34.4262 43.6852Z" fill="#CFF09E"/>
<path d="M28.7189 40.8541C28.6658 41.0655 28.57 41.2638 28.4373 41.4368C28.3046 41.6098 28.1379 41.7537 27.9474 41.8598C27.914 41.5977 27.8166 41.3478 27.6636 41.1323C27.5108 40.9168 27.3071 40.7423 27.0708 40.6241C26.8345 40.5059 26.5727 40.4478 26.3085 40.4547C26.0444 40.4617 25.786 40.5337 25.5563 40.6642C25.5447 40.5948 25.5393 40.5245 25.5401 40.4542C25.5401 40.0257 25.7103 39.6147 26.0133 39.3118C26.3163 39.0087 26.7273 38.8385 27.1558 38.8385C27.1734 38.8379 27.191 38.8392 27.2083 38.8426C27.1725 38.9728 27.1548 39.1074 27.1558 39.2424C27.155 39.6618 27.3179 40.0649 27.6098 40.3659C27.9018 40.6669 28.2997 40.8421 28.7189 40.8541Z" fill="#CFF09E"/>
<path d="M29.5789 43.2816V46.9168H28.7711V44.8972C28.7711 44.5758 28.6434 44.2676 28.4162 44.0404C28.189 43.8131 27.8807 43.6855 27.5594 43.6855H26.3477C26.7762 43.6855 27.1871 43.5153 27.4901 43.2122C27.7931 42.9093 27.9633 42.4983 27.9633 42.0698C27.9639 42.2839 28.0493 42.489 28.2006 42.6403C28.352 42.7917 28.5571 42.877 28.7711 42.8776H29.5062C29.5552 43.0067 29.5798 43.1436 29.5789 43.2816Z" fill="#CFF09E"/>
<path d="M27.8179 42.7323C27.7109 42.9708 27.5476 43.1798 27.342 43.3412C27.1363 43.5026 26.8946 43.6117 26.6375 43.659C26.3804 43.7062 26.1156 43.6903 25.866 43.6127C25.6164 43.535 25.3894 43.3978 25.2045 43.213C25.0197 43.0281 24.8825 42.8011 24.8048 42.5515C24.7271 42.3019 24.7113 42.0371 24.7586 41.78C24.8058 41.5229 24.9149 41.2812 25.0763 41.0755C25.2377 40.8699 25.4467 40.7066 25.6852 40.5996C25.5896 40.8073 25.54 41.0333 25.5398 41.262C25.5398 41.6905 25.71 42.1015 26.0131 42.4044C26.316 42.7075 26.727 42.8777 27.1555 42.8777C27.3842 42.8775 27.6101 42.8279 27.8179 42.7323Z" fill="#CFF09E"/>
<path d="M28.7712 44.8973V47.7247H27.1556C26.9416 47.7253 26.7365 47.8106 26.5851 47.962C26.4337 48.1133 26.3484 48.3184 26.3478 48.5325H23.9243V44.8973C23.9243 44.5759 24.052 44.2677 24.2792 44.0405C24.5065 43.8132 24.8147 43.6855 25.136 43.6855H26.4205C26.5022 43.9223 26.656 44.1275 26.8602 44.2724C27.0645 44.4173 27.3091 44.4946 27.5595 44.4934H28.6985C28.7475 44.6224 28.7721 44.7593 28.7712 44.8973Z" fill="#CFF09E"/>
<path d="M30.3868 45.3013H22.3086V46.9169H30.3868V45.3013Z" fill="#A8DBA8"/>
<path d="M35.8965 42.7323C35.7896 42.9708 35.6262 43.1798 35.4206 43.3412C35.2149 43.5026 34.9732 43.6117 34.7161 43.659C34.459 43.7062 34.1942 43.6903 33.9446 43.6127C33.695 43.535 33.468 43.3978 33.2832 43.213C33.0983 43.0281 32.9612 42.8011 32.8835 42.5515C32.8058 42.3019 32.7899 42.0371 32.8372 41.78C32.8845 41.5229 32.9935 41.2812 33.155 41.0755C33.3164 40.8699 33.5253 40.7066 33.7639 40.5996C33.6683 40.8073 33.6187 41.0333 33.6185 41.262C33.6185 41.6905 33.7887 42.1015 34.0917 42.4044C34.3946 42.7075 34.8056 42.8777 35.2341 42.8777C35.4628 42.8775 35.6887 42.8279 35.8965 42.7323Z" fill="#CFF09E"/>
<path d="M36.8494 44.8973V47.7247H35.2337C35.0197 47.7253 34.8146 47.8106 34.6632 47.962C34.5119 48.1133 34.4266 48.3184 34.4259 48.5325H32.0024V44.8973C32.0024 44.5759 32.1301 44.2677 32.3574 44.0405C32.5846 43.8132 32.8928 43.6855 33.2142 43.6855H34.4986C34.5803 43.9223 34.7341 44.1275 34.9383 44.2724C35.1426 44.4173 35.3872 44.4946 35.6376 44.4934H36.7767C36.8256 44.6224 36.8502 44.7593 36.8494 44.8973Z" fill="#CFF09E"/>
<path d="M38.4649 45.3013H30.3867V46.9169H38.4649V45.3013Z" fill="#A8DBA8"/>
<path d="M32.0026 45.3012V44.8973C32.0026 44.5759 32.1303 44.2677 32.3575 44.0405C32.5847 43.8132 32.893 43.6855 33.2143 43.6855H27.5596C27.8809 43.6855 28.1891 43.8132 28.4164 44.0405C28.6436 44.2677 28.7713 44.5759 28.7713 44.8973V45.3012H32.0026Z" fill="#79BD9A"/>
<path d="M40.0807 45.3012V44.8973C40.0807 44.5759 40.2084 44.2677 40.4356 44.0405C40.6629 43.8132 40.9711 43.6855 41.2924 43.6855H35.6377C35.959 43.6855 36.2673 43.8132 36.4945 44.0405C36.7218 44.2677 36.8494 44.5759 36.8494 44.8973V45.3012H40.0807Z" fill="#79BD9A"/>
<path d="M43.7158 43.6855C44.0372 43.6855 44.3454 43.8132 44.5726 44.0405C44.7999 44.2677 44.9276 44.5759 44.9276 44.8973V45.3012H45.7354V43.6855H43.7158Z" fill="#79BD9A"/>
<path d="M23.9242 44.8973C23.9242 44.5759 24.0519 44.2677 24.2791 44.0405C24.5064 43.8132 24.8146 43.6855 25.136 43.6855H22.3086V45.3012H23.9242V44.8973Z" fill="#79BD9A"/>
<path d="M43.9746 42.7323C43.8677 42.9708 43.7043 43.1798 43.4987 43.3412C43.2931 43.5026 43.0513 43.6117 42.7942 43.659C42.5371 43.7062 42.2724 43.6903 42.0227 43.6127C41.7732 43.535 41.5462 43.3978 41.3613 43.213C41.1765 43.0281 41.0393 42.8011 40.9616 42.5515C40.8839 42.3019 40.868 42.0371 40.9153 41.78C40.9626 41.5229 41.0716 41.2812 41.2331 41.0755C41.3945 40.8699 41.6035 40.7066 41.842 40.5996C41.7464 40.8073 41.6968 41.0333 41.6966 41.262C41.6966 41.6905 41.8668 42.1015 42.1698 42.4044C42.4728 42.7075 42.8837 42.8777 43.3122 42.8777C43.5409 42.8775 43.7669 42.8279 43.9746 42.7323Z" fill="#CFF09E"/>
<path d="M44.928 44.8973V47.7247H43.3123C43.0983 47.7253 42.8932 47.8106 42.7418 47.962C42.5905 48.1133 42.5052 48.3184 42.5045 48.5325H40.0811V44.8973C40.0811 44.5759 40.2087 44.2677 40.436 44.0405C40.6632 43.8132 40.9714 43.6855 41.2928 43.6855H42.5772C42.6589 43.9223 42.8127 44.1275 43.017 44.2724C43.2213 44.4173 43.4658 44.4946 43.7163 44.4934H44.8553C44.9042 44.6224 44.9288 44.7593 44.928 44.8973Z" fill="#CFF09E"/>
<path d="M45.7352 45.3013H38.4648V46.9169H45.7352V45.3013Z" fill="#A8DBA8"/>
<path d="M29.5792 25.9133V27.5289C29.5789 28.1125 29.6936 28.6904 29.9168 29.2296C30.1399 29.7688 30.4672 30.2587 30.8799 30.6713C31.2925 31.084 31.7824 31.4112 32.3216 31.6344C32.8608 31.8576 33.4387 31.9723 34.0222 31.972H40.8887V34.3954H27.1558V25.1055H40.8887V25.9133H29.5792Z" fill="#CFF09E"/>
<path d="M34.0222 37.2231C34.4683 37.2231 34.83 36.8614 34.83 36.4152C34.83 35.9691 34.4683 35.6074 34.0222 35.6074C33.576 35.6074 33.2144 35.9691 33.2144 36.4152C33.2144 36.8614 33.576 37.2231 34.0222 37.2231Z" fill="#79BD9A"/>
<path d="M32.0024 27.1245V31.1636H34.4259L32.0024 27.1245Z" fill="#A8DBA8"/>
<path d="M29.5791 31.1636H32.0026V27.1245L29.5791 31.1636Z" fill="#79BD9A"/>
<path d="M46.1394 43.6854V43.2815C46.1386 42.9172 46.0146 42.5639 45.7877 42.2789C45.5608 41.9939 45.2442 41.7939 44.8893 41.7115C45.0909 41.4594 45.2292 41.1626 45.2924 40.846C45.3557 40.5295 45.3422 40.2024 45.253 39.8922C45.1638 39.5819 45.0015 39.2976 44.7798 39.063C44.558 38.8283 44.2832 38.6503 43.9785 38.5438C43.6738 38.4373 43.3479 38.4054 43.0283 38.4507C42.7087 38.496 42.4046 38.6174 42.1416 38.8045C41.8785 38.9916 41.6641 39.239 41.5164 39.526C41.3686 39.813 41.2919 40.1313 41.2925 40.4541V40.4638C41.0794 40.6212 40.8998 40.8196 40.7643 41.0473C40.6288 41.2751 40.5402 41.5275 40.5036 41.79C40.4669 42.0524 40.483 42.3195 40.5509 42.5756C40.6189 42.8317 40.7372 43.0717 40.8991 43.2815H38.0612C38.0604 42.9172 37.9364 42.5639 37.7095 42.2789C37.4826 41.9939 37.166 41.7939 36.8111 41.7115C37.0127 41.4594 37.151 41.1626 37.2142 40.846C37.2775 40.5295 37.2639 40.2024 37.1748 39.8922C37.0855 39.5819 36.9233 39.2976 36.7015 39.063C36.4798 38.8283 36.205 38.6503 35.9003 38.5438C35.5956 38.4373 35.2697 38.4054 34.9501 38.4507C34.6305 38.496 34.3264 38.6174 34.0634 38.8045C33.8003 38.9916 33.5859 39.239 33.4382 39.526C33.2904 39.813 33.2137 40.1313 33.2143 40.4541V40.4638C33.0011 40.6212 32.8216 40.8196 32.6861 41.0473C32.5506 41.2751 32.462 41.5275 32.4253 41.79C32.3887 42.0524 32.4048 42.3195 32.4727 42.5756C32.5407 42.8317 32.659 43.0717 32.8209 43.2815H29.983C29.9822 42.9172 29.8582 42.5639 29.6313 42.2789C29.4044 41.9939 29.0878 41.7939 28.7329 41.7115C28.9345 41.4594 29.0728 41.1626 29.136 40.846C29.1993 40.5295 29.1857 40.2024 29.0965 39.8922C29.0073 39.5819 28.8451 39.2976 28.6233 39.063C28.4016 38.8283 28.1268 38.6503 27.8221 38.5438C27.5173 38.4373 27.1915 38.4054 26.8719 38.4507C26.5523 38.496 26.2482 38.6174 25.9851 38.8045C25.7221 38.9916 25.5077 39.239 25.36 39.526C25.2122 39.813 25.1355 40.1313 25.1361 40.4541V40.4638C24.9229 40.6212 24.7434 40.8196 24.6079 41.0473C24.4724 41.2751 24.3837 41.5275 24.3471 41.79C24.3105 42.0524 24.3266 42.3195 24.3945 42.5756C24.4624 42.8317 24.5808 43.0717 24.7427 43.2815H22.3087C22.2016 43.2815 22.0988 43.3241 22.0231 43.3998C21.9473 43.4755 21.9048 43.5783 21.9048 43.6854C21.9048 43.7925 21.9473 43.8953 22.0231 43.971C22.0988 44.0467 22.2016 44.0893 22.3087 44.0893H23.745C23.5996 44.3338 23.5221 44.6127 23.5204 44.8971H22.3087C22.2016 44.8971 22.0988 44.9397 22.0231 45.0154C21.9473 45.0912 21.9048 45.1939 21.9048 45.301V48.5323C21.9048 48.6395 21.9473 48.7422 22.0231 48.8179C22.0988 48.8937 22.2016 48.9362 22.3087 48.9362C22.4158 48.9362 22.5186 48.8937 22.5943 48.8179C22.6701 48.7422 22.7126 48.6395 22.7126 48.5323V47.3206H23.5204V48.5323C23.5204 48.6395 23.563 48.7422 23.6387 48.8179C23.7145 48.8937 23.8172 48.9362 23.9243 48.9362C24.0315 48.9362 24.1342 48.8937 24.2099 48.8179C24.2857 48.7422 24.3283 48.6395 24.3283 48.5323V47.3206H28.3674V48.5323C28.3674 48.6395 28.4099 48.7422 28.4857 48.8179C28.5614 48.8937 28.6642 48.9362 28.7713 48.9362C28.8784 48.9362 28.9811 48.8937 29.0569 48.8179C29.1326 48.7422 29.1752 48.6395 29.1752 48.5323V47.3206H29.983V48.5323C29.983 48.6395 30.0256 48.7422 30.1013 48.8179C30.177 48.8937 30.2798 48.9362 30.3869 48.9362C30.494 48.9362 30.5968 48.8937 30.6725 48.8179C30.7483 48.7422 30.7908 48.6395 30.7908 48.5323V47.3206H31.5986V48.5323C31.5986 48.6395 31.6412 48.7422 31.717 48.8179C31.7927 48.8937 31.8954 48.9362 32.0026 48.9362C32.1097 48.9362 32.2124 48.8937 32.2882 48.8179C32.3639 48.7422 32.4065 48.6395 32.4065 48.5323V47.3206H36.4456V48.5323C36.4456 48.6395 36.4882 48.7422 36.5639 48.8179C36.6396 48.8937 36.7424 48.9362 36.8495 48.9362C36.9566 48.9362 37.0594 48.8937 37.1351 48.8179C37.2108 48.7422 37.2534 48.6395 37.2534 48.5323V47.3206H38.0612V48.5323C38.0612 48.6395 38.1038 48.7422 38.1795 48.8179C38.2553 48.8937 38.358 48.9362 38.4651 48.9362C38.5723 48.9362 38.675 48.8937 38.7507 48.8179C38.8265 48.7422 38.869 48.6395 38.869 48.5323V47.3206H39.6769V48.5323C39.6769 48.6395 39.7194 48.7422 39.7952 48.8179C39.8709 48.8937 39.9737 48.9362 40.0808 48.9362C40.1879 48.9362 40.2907 48.8937 40.3664 48.8179C40.4421 48.7422 40.4847 48.6395 40.4847 48.5323V47.3206H44.5238V48.5323C44.5238 48.6395 44.5664 48.7422 44.6421 48.8179C44.7178 48.8937 44.8206 48.9362 44.9277 48.9362C45.0348 48.9362 45.1376 48.8937 45.2133 48.8179C45.2891 48.7422 45.3316 48.6395 45.3316 48.5323V47.3206H45.7355C45.8427 47.3206 45.9454 47.278 46.0211 47.2023C46.0969 47.1266 46.1394 47.0238 46.1394 46.9167V45.301C46.1394 45.1939 46.0969 45.0912 46.0211 45.0154C45.9454 44.9397 45.8427 44.8971 45.7355 44.8971H45.3316C45.33 44.6127 45.2524 44.3338 45.107 44.0893H45.7355C45.8427 44.0893 45.9454 44.0467 46.0211 43.971C46.0969 43.8953 46.1394 43.7925 46.1394 43.6854ZM43.3121 39.2424C43.6334 39.2424 43.9416 39.3701 44.1689 39.5973C44.3961 39.8245 44.5238 40.1328 44.5238 40.4541C44.5211 40.7046 44.4401 40.948 44.292 41.1501C44.1032 40.7637 43.7927 40.4501 43.4082 40.2576C43.0237 40.065 42.5866 40.0042 42.1642 40.0845C42.2418 39.8408 42.3947 39.6279 42.601 39.4766C42.8073 39.3252 43.0562 39.2432 43.3121 39.2424ZM42.5042 40.858C42.7439 40.858 42.9782 40.9291 43.1774 41.0622C43.3767 41.1954 43.532 41.3846 43.6237 41.6061C43.7155 41.8275 43.7394 42.0711 43.6927 42.3062C43.6459 42.5412 43.5305 42.7571 43.3611 42.9266C43.1916 43.0961 42.9757 43.2115 42.7407 43.2582C42.5056 43.305 42.2619 43.281 42.0406 43.1892C41.8191 43.0975 41.6299 42.9422 41.4967 42.743C41.3636 42.5437 41.2925 42.3094 41.2925 42.0698C41.2925 41.7484 41.4202 41.4402 41.6474 41.2129C41.8747 40.9857 42.1829 40.858 42.5042 40.858ZM39.273 44.8971V44.0893H39.9014C39.7561 44.3338 39.6785 44.6127 39.6769 44.8971H39.273ZM38.4651 44.0893V44.8971H37.2534C37.2517 44.6127 37.1742 44.3338 37.0288 44.0893H38.4651ZM32.4065 44.8971C32.4065 44.6829 32.4916 44.4774 32.6431 44.3259C32.7946 44.1744 33.0001 44.0893 33.2143 44.0893H35.6378C35.852 44.0893 36.0575 44.1744 36.209 44.3259C36.3605 44.4774 36.4456 44.6829 36.4456 44.8971H32.4065ZM31.1947 44.8971V44.0893H31.8232C31.6779 44.3338 31.6003 44.6127 31.5986 44.8971H31.1947ZM37.2534 43.2815H36.0312C36.2148 43.0437 36.3425 42.7676 36.4048 42.4737H36.4456C36.6598 42.4737 36.8653 42.5588 37.0168 42.7103C37.1683 42.8618 37.2534 43.0673 37.2534 43.2815ZM35.2338 39.2424C35.5552 39.2424 35.8634 39.3701 36.0907 39.5973C36.3179 39.8245 36.4456 40.1328 36.4456 40.4541C36.4429 40.7046 36.3618 40.948 36.2137 41.1501C36.025 40.7637 35.7145 40.4501 35.33 40.2576C34.9455 40.065 34.5084 40.0042 34.0859 40.0845C34.1636 39.8408 34.3165 39.6279 34.5228 39.4766C34.729 39.3252 34.978 39.2432 35.2338 39.2424ZM34.426 40.858C34.6657 40.858 34.9 40.9291 35.0992 41.0622C35.2985 41.1954 35.4538 41.3846 35.5455 41.6061C35.6372 41.8275 35.6612 42.0711 35.6145 42.3062C35.5677 42.5412 35.4523 42.7571 35.2828 42.9266C35.1134 43.0961 34.8975 43.2115 34.6624 43.2582C34.4274 43.305 34.1837 43.281 33.9623 43.1892C33.7409 43.0975 33.5516 42.9422 33.4185 42.743C33.2853 42.5437 33.2143 42.3094 33.2143 42.0698C33.2143 41.7484 33.342 41.4402 33.5692 41.2129C33.7964 40.9857 34.1047 40.858 34.426 40.858ZM30.3869 44.0893V44.8971H29.1752C29.1735 44.6127 29.096 44.3338 28.9506 44.0893H30.3869ZM29.1752 43.2815H27.9529C28.1366 43.0437 28.2642 42.7676 28.3266 42.4737H28.3674C28.5816 42.4737 28.7871 42.5588 28.9386 42.7103C29.0901 42.8618 29.1752 43.0673 29.1752 43.2815ZM27.1556 39.2424C27.477 39.2424 27.7852 39.3701 28.0124 39.5973C28.2397 39.8245 28.3674 40.1328 28.3674 40.4541C28.3647 40.7046 28.2836 40.948 28.1355 41.1501C27.9468 40.7637 27.6362 40.4501 27.2518 40.2576C26.8673 40.065 26.4302 40.0042 26.0077 40.0845C26.0853 39.8408 26.2383 39.6279 26.4445 39.4766C26.6508 39.3252 26.8998 39.2432 27.1556 39.2424ZM26.3478 40.858C26.5874 40.858 26.8218 40.9291 27.021 41.0622C27.2203 41.1954 27.3756 41.3846 27.4673 41.6061C27.559 41.8275 27.583 42.0711 27.5363 42.3062C27.4895 42.5412 27.3741 42.7571 27.2046 42.9266C27.0352 43.0961 26.8193 43.2115 26.5842 43.2582C26.3491 43.305 26.1055 43.281 25.8841 43.1892C25.6627 43.0975 25.4734 42.9422 25.3403 42.743C25.2071 42.5437 25.1361 42.3094 25.1361 42.0698C25.1361 41.7484 25.2637 41.4402 25.491 41.2129C25.7182 40.9857 26.0265 40.858 26.3478 40.858ZM25.1361 44.0893H27.5595C27.7738 44.0893 27.9792 44.1744 28.1307 44.3259C28.2823 44.4774 28.3674 44.6829 28.3674 44.8971H24.3283C24.3283 44.6829 24.4134 44.4774 24.5649 44.3259C24.7164 44.1744 24.9218 44.0893 25.1361 44.0893ZM22.7126 45.705H29.983V46.5128H22.7126V45.705ZM30.7908 45.705H38.0612V46.5128H30.7908V45.705ZM45.3316 46.5128H38.869V45.705H45.3316V46.5128ZM44.5238 44.8971H40.4847C40.4847 44.6829 40.5698 44.4774 40.7213 44.3259C40.8728 44.1744 41.0783 44.0893 41.2925 44.0893H43.716C43.9302 44.0893 44.1357 44.1744 44.2872 44.3259C44.4387 44.4774 44.5238 44.6829 44.5238 44.8971ZM44.1094 43.2815C44.293 43.0437 44.4207 42.7676 44.483 42.4737H44.5238C44.738 42.4737 44.9435 42.5588 45.095 42.7103C45.2465 42.8618 45.3316 43.0673 45.3316 43.2815H44.1094Z" fill="#3B8686"/>
<path d="M25.944 25.5095H26.7518V33.9916H26.3479C26.2407 33.9916 26.138 34.0342 26.0623 34.1099C25.9865 34.1857 25.944 34.2884 25.944 34.3955C25.944 34.5026 25.9865 34.6054 26.0623 34.6811C26.138 34.7569 26.2407 34.7994 26.3479 34.7994H33.6183V35.2777C33.3488 35.3729 33.1216 35.5604 32.977 35.807C32.8324 36.0535 32.7795 36.3433 32.8279 36.625C32.8762 36.9067 33.0226 37.1623 33.2411 37.3465C33.4597 37.5308 33.7363 37.6318 34.0222 37.6318C34.308 37.6318 34.5847 37.5308 34.8032 37.3465C35.0217 37.1623 35.1681 36.9067 35.2165 36.625C35.2648 36.3433 35.212 36.0535 35.0673 35.807C34.9227 35.5604 34.6956 35.3729 34.4261 35.2777V34.7994H41.6965C41.8036 34.7994 41.9063 34.7569 41.9821 34.6811C42.0578 34.6054 42.1004 34.5026 42.1004 34.3955C42.1004 34.2884 42.0578 34.1857 41.9821 34.1099C41.9063 34.0342 41.8036 33.9916 41.6965 33.9916H41.2926V25.5095H42.1004C42.2075 25.5095 42.3103 25.4669 42.386 25.3912C42.4617 25.3154 42.5043 25.2127 42.5043 25.1056C42.5043 24.9984 42.4617 24.8957 42.386 24.82C42.3103 24.7442 42.2075 24.7017 42.1004 24.7017H25.944C25.8368 24.7017 25.7341 24.7442 25.6583 24.82C25.5826 24.8957 25.54 24.9984 25.54 25.1056C25.54 25.2127 25.5826 25.3154 25.6583 25.3912C25.7341 25.4669 25.8368 25.5095 25.944 25.5095ZM34.0222 36.819C33.9423 36.819 33.8642 36.7953 33.7978 36.7509C33.7314 36.7065 33.6796 36.6434 33.649 36.5697C33.6184 36.4959 33.6104 36.4146 33.626 36.3363C33.6416 36.2579 33.6801 36.1859 33.7366 36.1295C33.793 36.073 33.865 36.0345 33.9434 36.0189C34.0217 36.0033 34.103 36.0113 34.1767 36.0419C34.2505 36.0725 34.3136 36.1243 34.358 36.1907C34.4024 36.2571 34.4261 36.3352 34.4261 36.4151C34.4261 36.5222 34.3835 36.625 34.3078 36.7007C34.232 36.7764 34.1293 36.819 34.0222 36.819ZM40.4847 25.5095V33.9916H27.5596V25.5095H40.4847Z" fill="#3B8686"/>
<path d="M29.2278 31.3632C29.263 31.4254 29.3141 31.4771 29.3758 31.513C29.4375 31.549 29.5077 31.568 29.5792 31.568H34.4261C34.4976 31.568 34.5678 31.549 34.6295 31.513C34.6913 31.4769 34.7424 31.4252 34.7776 31.363C34.8128 31.3007 34.8308 31.2303 34.8299 31.1588C34.8289 31.0873 34.8091 31.0173 34.7722 30.9561L32.3488 26.9169C32.3102 26.8608 32.2585 26.8149 32.1982 26.7832C32.1379 26.7514 32.0708 26.7349 32.0026 26.7349C31.9345 26.7349 31.8674 26.7514 31.807 26.7832C31.7467 26.8149 31.6951 26.8608 31.6565 26.9169L29.233 30.9561C29.1962 31.0174 29.1763 31.0874 29.1753 31.1589C29.1744 31.2305 29.1925 31.301 29.2278 31.3632ZM32.4065 30.7602V28.5831L33.7124 30.7602H32.4065ZM31.5987 28.5831V30.7602H30.2929L31.5987 28.5831Z" fill="#3B8686"/>
<path d="M28.3675 29.9527C28.4318 29.9527 28.4952 29.9373 28.5524 29.9079C28.6096 29.8784 28.6589 29.8358 28.6963 29.7834L30.7159 26.9561C30.7733 26.8688 30.7947 26.7627 30.7755 26.6601C30.7564 26.5574 30.6983 26.4661 30.6133 26.4054C30.5283 26.3446 30.4231 26.3192 30.3198 26.3344C30.2165 26.3495 30.123 26.4041 30.0591 26.4867L28.0395 29.3141C27.9964 29.3744 27.9708 29.4455 27.9654 29.5194C27.96 29.5934 27.9751 29.6674 28.009 29.7333C28.0428 29.7992 28.0942 29.8546 28.1575 29.8933C28.2207 29.932 28.2934 29.9525 28.3675 29.9527Z" fill="#3B8686"/>
<path d="M35.2952 30.1669C35.352 30.2579 35.4426 30.3227 35.5471 30.3469C35.6516 30.3712 35.7615 30.3529 35.8526 30.2961C35.9436 30.2393 36.0084 30.1487 36.0326 30.0442C36.0569 29.9397 36.0386 29.8298 35.9818 29.7387L33.9623 26.5074C33.9342 26.4623 33.8974 26.4232 33.8542 26.3923C33.811 26.3614 33.7621 26.3394 33.7104 26.3274C33.6586 26.3154 33.605 26.3137 33.5525 26.3224C33.5002 26.3311 33.45 26.3501 33.4049 26.3782C33.3598 26.4063 33.3207 26.443 33.2898 26.4862C33.2589 26.5294 33.2368 26.5783 33.2248 26.6301C33.2128 26.6819 33.2111 26.7355 33.2198 26.7879C33.2286 26.8403 33.2475 26.8905 33.2756 26.9356L35.2952 30.1669Z" fill="#3B8686"/>
<path d="M36.8497 27.1252H39.2732C39.3803 27.1252 39.483 27.0826 39.5588 27.0069C39.6345 26.9312 39.6771 26.8284 39.6771 26.7213C39.6771 26.6142 39.6345 26.5114 39.5588 26.4357C39.483 26.3599 39.3803 26.3174 39.2732 26.3174H36.8497C36.7426 26.3174 36.6398 26.3599 36.5641 26.4357C36.4884 26.5114 36.4458 26.6142 36.4458 26.7213C36.4458 26.8284 36.4884 26.9312 36.5641 27.0069C36.6398 27.0826 36.7426 27.1252 36.8497 27.1252Z" fill="#3B8686"/>
<path d="M36.8497 28.7409H39.2732C39.3803 28.7409 39.483 28.6984 39.5588 28.6226C39.6345 28.5469 39.6771 28.4441 39.6771 28.337C39.6771 28.2299 39.6345 28.1271 39.5588 28.0514C39.483 27.9757 39.3803 27.9331 39.2732 27.9331H36.8497C36.7426 27.9331 36.6398 27.9757 36.5641 28.0514C36.4884 28.1271 36.4458 28.2299 36.4458 28.337C36.4458 28.4441 36.4884 28.5469 36.5641 28.6226C36.6398 28.6984 36.7426 28.7409 36.8497 28.7409Z" fill="#3B8686"/>
<path d="M39.273 29.5483H37.6573C37.5502 29.5483 37.4475 29.5909 37.3717 29.6666C37.296 29.7424 37.2534 29.8451 37.2534 29.9523C37.2534 30.0594 37.296 30.1621 37.3717 30.2379C37.4475 30.3136 37.5502 30.3562 37.6573 30.3562H39.273C39.3801 30.3562 39.4828 30.3136 39.5586 30.2379C39.6343 30.1621 39.6769 30.0594 39.6769 29.9523C39.6769 29.8451 39.6343 29.7424 39.5586 29.6666C39.4828 29.5909 39.3801 29.5483 39.273 29.5483Z" fill="#3B8686"/>
<path d="M36.4454 31.9719H39.2728C39.3799 31.9719 39.4827 31.9293 39.5584 31.8536C39.6341 31.7778 39.6767 31.6751 39.6767 31.568C39.6767 31.4609 39.6341 31.3581 39.5584 31.2824C39.4827 31.2066 39.3799 31.1641 39.2728 31.1641H36.4454C36.3383 31.1641 36.2355 31.2066 36.1598 31.2824C36.0841 31.3581 36.0415 31.4609 36.0415 31.568C36.0415 31.6751 36.0841 31.7778 36.1598 31.8536C36.2355 31.9293 36.3383 31.9719 36.4454 31.9719Z" fill="#3B8686"/>
<path d="M34.0221 32.376H29.983C29.8759 32.376 29.7731 32.4185 29.6974 32.4943C29.6217 32.57 29.5791 32.6728 29.5791 32.7799C29.5791 32.887 29.6217 32.9898 29.6974 33.0655C29.7731 33.1412 29.8759 33.1838 29.983 33.1838H34.0221C34.1292 33.1838 34.232 33.1412 34.3077 33.0655C34.3835 32.9898 34.426 32.887 34.426 32.7799C34.426 32.6728 34.3835 32.57 34.3077 32.4943C34.232 32.4185 34.1292 32.376 34.0221 32.376Z" fill="#3B8686"/>
</svg>
