<svg width="151" height="151" viewBox="0 0 151 151" fill="none" xmlns="http://www.w3.org/2000/svg">
<rect x="12.1132" y="18.047" width="122.145" height="122.145" rx="14.471" fill="#FFDC60" stroke="white" stroke-width="0.490543"/>
<rect x="31.9139" y="0.300395" width="122.145" height="122.145" rx="14.471" transform="rotate(15 31.9139 0.300395)" fill="#58D498" stroke="white" stroke-width="0.490543"/>
<circle cx="72.8142" cy="78.8142" r="42.7188" fill="#FFFAE8" stroke="#FFDC60" stroke-width="2.19071"/>
<path d="M55.7394 99.7621L60.3616 98.8372C60.444 98.8207 60.5294 98.8289 60.6071 98.8607C60.6848 98.8925 60.7514 98.9466 60.7985 99.0162L63.4282 102.927L64.8687 96.8362L56.6153 97.6311L55.7394 99.7621Z" fill="#FFDD00"/>
<path d="M72.1524 99.0162C72.1995 98.9466 72.2661 98.8925 72.3438 98.8607C72.4215 98.8289 72.5069 98.8207 72.5893 98.8372L77.2115 99.7621L76.3335 97.6311L67.0145 96.8362L69.5227 102.927L72.1524 99.0162Z" fill="#FFDD00"/>
<path d="M72.0906 77.7507C72.0314 77.7803 71.9661 77.7958 71.8998 77.7958C71.8336 77.7958 71.7683 77.7803 71.7091 77.7507L61.4802 72.1014V79.4811C61.6038 80.065 61.9064 85.1944 71.903 85.1944C81.84 85.1944 83.2614 80.065 83.3914 79.479V72.0992L72.0906 77.7507Z" fill="#40BDFF"/>
<path d="M82.3259 72.632V79.479C82.198 80.0543 80.8235 85.009 71.3682 85.188H71.903C81.84 85.188 83.2614 80.0586 83.3914 79.4726V72.0992L82.3259 72.632Z" fill="#2197F7"/>
<path d="M65.9788 95.8899L70.1002 96.2415V90.2747L65.9788 90.6263C65.9547 90.6284 65.9304 90.6284 65.9063 90.6263L61.7849 90.2747V96.2415L65.9063 95.8899H65.9788Z" fill="#FFDD00"/>
<path d="M83.3914 89.1389L70.9526 90.2023V96.3162L83.3914 97.3796V89.1389Z" fill="#EFFAFE"/>
<path d="M93.5331 86.0447C92.8358 86.0452 92.1673 86.3225 91.6743 86.8155C91.1812 87.3086 90.904 87.9771 90.9034 88.6744V91.7302C90.9034 92.4277 91.1805 93.0965 91.6736 93.5897C92.1668 94.0829 92.8357 94.3599 93.5331 94.3599C94.2305 94.3599 94.8994 94.0829 95.3926 93.5897C95.8857 93.0965 96.1628 92.4277 96.1628 91.7302V88.6744C96.1622 87.9771 95.885 87.3086 95.3919 86.8155C94.8989 86.3225 94.2304 86.0452 93.5331 86.0447Z" fill="#EB5639"/>
<path d="M93.5331 86.0447C93.2429 86.0453 92.9548 86.0943 92.6807 86.1896C93.1986 86.3674 93.6482 86.7023 93.9667 87.1477C94.2853 87.5931 94.457 88.1268 94.4579 88.6744V91.7302C94.457 92.2778 94.2853 92.8115 93.9667 93.2569C93.6482 93.7023 93.1986 94.0372 92.6807 94.215C93.0764 94.3521 93.4992 94.3925 93.9137 94.3327C94.3282 94.273 94.7223 94.1149 95.0632 93.8716C95.4041 93.6284 95.6818 93.3071 95.8731 92.9345C96.0644 92.562 96.1637 92.149 96.1628 91.7302V88.6744C96.1622 87.9771 95.885 87.3086 95.3919 86.8155C94.8989 86.3225 94.2303 86.0452 93.5331 86.0447Z" fill="#D84936"/>
<path d="M96.0625 65.4505L73.6058 54.0112L50.7229 65.4505L73.6058 76.892L96.0625 65.4505Z" fill="#2197F7"/>
<path d="M73.6058 54.0112L71.9926 54.8168L92.866 65.4505L71.9926 76.0865L73.6058 76.892L96.0625 65.4505L73.6058 54.0112Z" fill="#228ED6"/>
<path d="M60.9326 90.2023L49.5572 89.1389V97.3796L60.9326 96.3141V90.2023Z" fill="#EFFAFE"/>
<path d="M69.0347 90.3665V96.1523L70.1002 96.2418V90.2749L69.0347 90.3665Z" fill="#EFC803"/>
<path d="M82.326 89.2305V97.2879L83.3915 97.3796V89.1389L82.326 89.2305Z" fill="#E4EBED"/>
<path d="M49.5572 89.1389V89.2391L59.8671 90.2023V96.3141L49.5572 97.2794V97.3796L60.9326 96.3141V90.2023L49.5572 89.1389Z" fill="#E4EBED"/>
<path d="M47.8205 65.9278L59.4516 71.7391V79.5067C59.4492 79.5358 59.4492 79.565 59.4516 79.594C59.4963 79.8626 60.6727 86.1512 71.8946 86.1512C83.1166 86.1512 84.2929 79.8626 84.3376 79.594C84.34 79.565 84.34 79.5358 84.3376 79.5067V71.7391L92.1457 67.8415V85.1304C91.2968 85.2583 90.5218 85.6861 89.9612 86.3362C89.4006 86.9864 89.0914 87.8159 89.0898 88.6743V91.7302C89.0912 92.5302 89.3596 93.3069 89.8526 93.9369C90.3456 94.567 91.0349 95.0143 91.8111 95.208L89.1623 99.7109C89.0905 99.8327 89.07 99.978 89.1054 100.115C89.1408 100.252 89.2291 100.369 89.3509 100.441C89.4727 100.513 89.618 100.533 89.7549 100.498C89.8917 100.462 90.009 100.374 90.0807 100.252L92.1457 96.7424V99.99C92.1457 100.131 92.2018 100.267 92.3017 100.367C92.4016 100.467 92.5372 100.523 92.6785 100.523C92.8197 100.523 92.9553 100.467 93.0552 100.367C93.1551 100.267 93.2112 100.131 93.2112 99.99V96.7509L95.274 100.259C95.3458 100.38 95.463 100.469 95.5999 100.504C95.7368 100.539 95.8821 100.519 96.0039 100.447C96.1257 100.375 96.214 100.258 96.2494 100.121C96.2847 99.9844 96.2643 99.8391 96.1925 99.7173L93.5436 95.2144C94.3198 95.0207 95.0091 94.5733 95.5021 93.9433C95.9951 93.3132 96.2636 92.5366 96.265 91.7366V88.6743C96.2634 87.8162 95.9546 86.9869 95.3944 86.3368C94.8342 85.6868 94.0597 85.2588 93.2112 85.1304V67.3087L95.9815 65.9278C96.0699 65.8835 96.1442 65.8155 96.1961 65.7314C96.2481 65.6473 96.2756 65.5504 96.2756 65.4515C96.2756 65.3527 96.2481 65.2558 96.1961 65.1717C96.1442 65.0875 96.0699 65.0195 95.9815 64.9752L72.1397 53.0565C72.0656 53.0193 71.9839 53 71.901 53C71.8181 53 71.7364 53.0193 71.6623 53.0565L47.8205 64.9752C47.7321 65.0195 47.6578 65.0875 47.6059 65.1717C47.5539 65.2558 47.5264 65.3527 47.5264 65.4515C47.5264 65.5504 47.5539 65.6473 47.6059 65.7314C47.6578 65.8155 47.7321 65.8835 47.8205 65.9278ZM83.2785 79.4555C83.172 79.935 81.7868 85.0857 71.8946 85.0857C61.9534 85.0857 60.6215 79.9862 60.5107 79.4555V72.2719L71.6581 77.8445C71.7322 77.8816 71.8139 77.9009 71.8967 77.9009C71.9796 77.9009 72.0613 77.8816 72.1354 77.8445L83.2828 72.2719L83.2785 79.4555ZM95.1952 88.6743V91.7302C95.1946 92.3992 94.9286 93.0406 94.4556 93.5137C93.9825 93.9868 93.3411 94.2528 92.6721 94.2533C92.0031 94.2528 91.3616 93.9868 90.8886 93.5137C90.4155 93.0406 90.1495 92.3992 90.1489 91.7302V88.6743C90.1489 88.0051 90.4148 87.3634 90.8879 86.8902C91.3611 86.417 92.0029 86.1512 92.6721 86.1512C93.3412 86.1512 93.983 86.417 94.4562 86.8902C94.9294 87.3634 95.1952 88.0051 95.1952 88.6743ZM71.901 54.1284L94.5452 65.4505L71.901 76.7726L49.2568 65.4505L71.901 54.1284Z" fill="#263238"/>
<path d="M48.1103 98.3726L54.4267 97.8335L53.4784 100.133C53.4419 100.222 53.4302 100.319 53.4446 100.414C53.459 100.51 53.4989 100.599 53.5601 100.674C53.6213 100.748 53.7015 100.804 53.7922 100.837C53.8829 100.869 53.9806 100.876 54.0751 100.857L59.1299 99.8452L62.0067 104.122C62.059 104.205 62.133 104.272 62.2208 104.315C62.3085 104.359 62.4066 104.377 62.5041 104.369C62.6017 104.36 62.695 104.325 62.7738 104.267C62.8526 104.208 62.9138 104.13 62.9508 104.039L65.9044 96.8639H65.947H65.9896L68.9389 104.039C68.9756 104.128 69.0359 104.206 69.1134 104.264C69.1908 104.321 69.2825 104.357 69.3786 104.367C69.4746 104.376 69.5715 104.36 69.6589 104.318C69.7462 104.277 69.8207 104.213 69.8745 104.133L72.7535 99.8473L77.8082 100.86C77.9027 100.878 78.0004 100.871 78.0911 100.839C78.1818 100.806 78.262 100.75 78.3232 100.676C78.3844 100.601 78.4243 100.512 78.4387 100.417C78.4531 100.321 78.4414 100.224 78.4049 100.135L77.4566 97.8356L83.7751 98.3748H83.8198C83.9611 98.3748 84.0967 98.3186 84.1966 98.2187C84.2965 98.1188 84.3526 97.9833 84.3526 97.842V88.6786C84.3526 88.6049 84.3372 88.532 84.3076 88.4645C84.2779 88.397 84.2346 88.3364 84.1803 88.2866C84.126 88.2367 84.062 88.1986 83.9922 88.1748C83.9225 88.1509 83.8486 88.1418 83.7751 88.148L65.9342 89.6674L48.104 88.1437C48.0305 88.1375 47.9566 88.1467 47.8868 88.1705C47.8171 88.1944 47.753 88.2324 47.6987 88.2823C47.6445 88.3322 47.6011 88.3928 47.5715 88.4603C47.5418 88.5277 47.5265 88.6006 47.5264 88.6744V97.8377C47.5258 97.9124 47.5409 97.9864 47.5706 98.0548C47.6004 98.1233 47.6443 98.1847 47.6993 98.2352C47.7544 98.2856 47.8194 98.3239 47.8902 98.3476C47.961 98.3713 48.036 98.3798 48.1103 98.3726ZM62.337 102.701L59.8203 98.9565C59.7616 98.8689 59.6783 98.8006 59.5808 98.7604C59.4833 98.7202 59.376 98.7099 59.2726 98.7306L54.8529 99.6193L55.6307 97.7333L64.711 96.9576L62.337 102.701ZM72.6086 98.7306C72.5052 98.7096 72.3978 98.7198 72.3003 98.76C72.2027 98.8003 72.1194 98.8687 72.0609 98.9565L69.542 102.701L67.1766 96.947L76.2569 97.7227L77.0347 99.6086L72.6086 98.7306ZM71.0486 90.3003L83.2764 89.2561V97.2624L76.6703 96.6976L71.0486 96.2182V90.3003ZM61.8853 90.4005L65.8916 90.7436C65.9221 90.7463 65.9527 90.7463 65.9832 90.7436L69.9831 90.4005V96.1351L65.9768 95.792H65.8852L61.8853 96.1265V90.4005ZM48.592 89.2646L60.8198 90.3003V96.2182L48.592 97.2624V89.2646Z" fill="#263238"/>
<path d="M51.6564 71.0614H50.804V70.209C50.804 70.1524 50.7815 70.0982 50.7416 70.0583C50.7016 70.0183 50.6474 69.9958 50.5909 69.9958C50.5343 69.9958 50.4801 70.0183 50.4402 70.0583C50.4002 70.0982 50.3778 70.1524 50.3778 70.209V71.0614H49.5254C49.4688 71.0614 49.4146 71.0838 49.3747 71.1238C49.3347 71.1637 49.3123 71.2179 49.3123 71.2745C49.3123 71.331 49.3347 71.3852 49.3747 71.4251C49.4146 71.4651 49.4688 71.4876 49.5254 71.4876H50.3778V72.34C50.3778 72.3965 50.4002 72.4507 50.4402 72.4907C50.4801 72.5306 50.5343 72.5531 50.5909 72.5531C50.6474 72.5531 50.7016 72.5306 50.7416 72.4907C50.7815 72.4507 50.804 72.3965 50.804 72.34V71.4876H51.6564C51.7129 71.4876 51.7671 71.4651 51.8071 71.4251C51.847 71.3852 51.8695 71.331 51.8695 71.2745C51.8695 71.2179 51.847 71.1637 51.8071 71.1238C51.7671 71.0838 51.7129 71.0614 51.6564 71.0614Z" fill="#FFDD00"/>
<path d="M90.283 77.8488H89.4306V76.9964C89.4306 76.9399 89.4082 76.8857 89.3682 76.8457C89.3282 76.8058 89.274 76.7833 89.2175 76.7833C89.161 76.7833 89.1068 76.8058 89.0668 76.8457C89.0269 76.8857 89.0044 76.9399 89.0044 76.9964V77.8488H88.152C88.0955 77.8488 88.0413 77.8713 88.0013 77.9113C87.9614 77.9512 87.9389 78.0054 87.9389 78.0619C87.9389 78.1185 87.9614 78.1727 88.0013 78.2126C88.0413 78.2526 88.0955 78.275 88.152 78.275H89.0044V79.1274C89.0044 79.184 89.0269 79.2382 89.0668 79.2781C89.1068 79.3181 89.161 79.3406 89.2175 79.3406C89.274 79.3406 89.3282 79.3181 89.3682 79.2781C89.4082 79.2382 89.4306 79.184 89.4306 79.1274V78.275H90.283C90.3395 78.275 90.3937 78.2526 90.4337 78.2126C90.4737 78.1727 90.4961 78.1185 90.4961 78.0619C90.4961 78.0054 90.4737 77.9512 90.4337 77.9113C90.3937 77.8713 90.3395 77.8488 90.283 77.8488Z" fill="#FFDD00"/>
<path d="M87.0312 54.8422H86.1788V53.9898C86.1788 53.9333 86.1564 53.8791 86.1164 53.8391C86.0764 53.7992 86.0222 53.7767 85.9657 53.7767C85.9092 53.7767 85.855 53.7992 85.815 53.8391C85.7751 53.8791 85.7526 53.9333 85.7526 53.9898V54.8422H84.9002C84.8437 54.8422 84.7895 54.8647 84.7495 54.9047C84.7096 54.9446 84.6871 54.9988 84.6871 55.0553C84.6871 55.1119 84.7096 55.1661 84.7495 55.206C84.7895 55.246 84.8437 55.2684 84.9002 55.2684H85.7526V56.1209C85.7526 56.1774 85.7751 56.2316 85.815 56.2715C85.855 56.3115 85.9092 56.334 85.9657 56.334C86.0222 56.334 86.0764 56.3115 86.1164 56.2715C86.1564 56.2316 86.1788 56.1774 86.1788 56.1209V55.2684H87.0312C87.0877 55.2684 87.1419 55.246 87.1819 55.206C87.2219 55.1661 87.2443 55.1119 87.2443 55.0553C87.2443 54.9988 87.2219 54.9446 87.1819 54.9047C87.1419 54.8647 87.0877 54.8422 87.0312 54.8422Z" fill="#40BDFF"/>
<path d="M53.7872 56.4597C53.5343 56.4597 53.2871 56.3847 53.0768 56.2442C52.8665 56.1037 52.7026 55.904 52.6059 55.6704C52.5091 55.4367 52.4838 55.1797 52.5331 54.9316C52.5824 54.6836 52.7042 54.4558 52.883 54.277C53.0619 54.0981 53.2897 53.9764 53.5377 53.927C53.7857 53.8777 54.0428 53.903 54.2765 53.9998C54.5101 54.0966 54.7098 54.2605 54.8503 54.4707C54.9908 54.681 55.0658 54.9282 55.0658 55.1811C55.0658 55.5202 54.9311 55.8454 54.6913 56.0852C54.4515 56.325 54.1263 56.4597 53.7872 56.4597ZM53.7872 54.3287C53.6186 54.3287 53.4538 54.3787 53.3136 54.4723C53.1734 54.566 53.0642 54.6991 52.9996 54.8549C52.9351 55.0106 52.9182 55.182 52.9511 55.3474C52.984 55.5127 53.0652 55.6646 53.1844 55.7838C53.3036 55.903 53.4555 55.9842 53.6209 56.0171C53.7862 56.05 53.9576 56.0331 54.1134 55.9686C54.2691 55.9041 54.4022 55.7948 54.4959 55.6547C54.5896 55.5145 54.6396 55.3497 54.6396 55.1811C54.6396 54.955 54.5498 54.7382 54.3899 54.5783C54.23 54.4185 54.0132 54.3287 53.7872 54.3287Z" fill="#40BDFF"/>
<path d="M50.5909 86.5965C50.338 86.5965 50.0908 86.5215 49.8805 86.381C49.6702 86.2406 49.5064 86.0409 49.4096 85.8072C49.3128 85.5736 49.2875 85.3165 49.3368 85.0685C49.3862 84.8204 49.5079 84.5926 49.6868 84.4138C49.8656 84.235 50.0934 84.1132 50.3414 84.0639C50.5895 84.0145 50.8465 84.0399 51.0802 84.1366C51.3138 84.2334 51.5135 84.3973 51.654 84.6076C51.7945 84.8178 51.8695 85.065 51.8695 85.3179C51.8695 85.657 51.7348 85.9822 51.495 86.222C51.2552 86.4618 50.93 86.5965 50.5909 86.5965ZM50.5909 84.4655C50.4223 84.4655 50.2575 84.5155 50.1173 84.6092C49.9771 84.7028 49.8679 84.836 49.8033 84.9917C49.7388 85.1475 49.7219 85.3189 49.7548 85.4842C49.7877 85.6496 49.8689 85.8015 49.9881 85.9207C50.1073 86.0399 50.2592 86.1211 50.4246 86.1539C50.5899 86.1868 50.7613 86.17 50.9171 86.1054C51.0728 86.0409 51.206 85.9317 51.2996 85.7915C51.3933 85.6513 51.4433 85.4865 51.4433 85.3179C51.4433 85.0918 51.3535 84.875 51.1936 84.7152C51.0338 84.5553 50.8169 84.4655 50.5909 84.4655Z" fill="#FFDD00"/>
<path d="M92.785 59.9269C92.5321 59.9269 92.2849 59.8519 92.0746 59.7114C91.8644 59.5709 91.7005 59.3712 91.6037 59.1375C91.5069 58.9039 91.4816 58.6468 91.5309 58.3988C91.5803 58.1508 91.7021 57.9229 91.8809 57.7441C92.0597 57.5653 92.2875 57.4435 92.5355 57.3942C92.7836 57.3449 93.0407 57.3702 93.2743 57.467C93.5079 57.5637 93.7076 57.7276 93.8481 57.9379C93.9886 58.1481 94.0636 58.3954 94.0636 58.6482C94.0636 58.9874 93.9289 59.3126 93.6891 59.5524C93.4493 59.7921 93.1241 59.9269 92.785 59.9269ZM92.785 57.7958C92.6164 57.7958 92.4516 57.8458 92.3114 57.9395C92.1712 58.0332 92.062 58.1663 91.9975 58.322C91.933 58.4778 91.9161 58.6492 91.949 58.8145C91.9819 58.9799 92.063 59.1318 92.1822 59.251C92.3015 59.3702 92.4533 59.4514 92.6187 59.4843C92.784 59.5172 92.9554 59.5003 93.1112 59.4358C93.2669 59.3712 93.4001 59.262 93.4937 59.1218C93.5874 58.9816 93.6374 58.8168 93.6374 58.6482C93.6374 58.4222 93.5476 58.2054 93.3877 58.0455C93.2279 57.8856 93.0111 57.7958 92.785 57.7958Z" fill="#FFDD00"/>
<path d="M98.6452 74.0363H98.0932L98.4832 73.6464C98.5181 73.6056 98.5364 73.5532 98.5343 73.4995C98.5322 73.4459 98.51 73.395 98.472 73.3571C98.4341 73.3191 98.3832 73.2969 98.3296 73.2948C98.276 73.2927 98.2235 73.311 98.1827 73.3459L97.7928 73.7359V73.1839C97.7928 73.1274 97.7703 73.0732 97.7304 73.0332C97.6904 72.9933 97.6362 72.9708 97.5797 72.9708C97.5231 72.9708 97.4689 72.9933 97.429 73.0332C97.389 73.0732 97.3666 73.1274 97.3666 73.1839V73.7359L96.9766 73.3523C96.9358 73.3174 96.8834 73.2991 96.8297 73.3012C96.7761 73.3033 96.7252 73.3255 96.6873 73.3635C96.6493 73.4014 96.6271 73.4523 96.625 73.5059C96.623 73.5595 96.6412 73.612 96.6761 73.6528L97.0661 74.0427H96.5142C96.4576 74.0427 96.4034 74.0652 96.3635 74.1051C96.3235 74.1451 96.3011 74.1993 96.3011 74.2558C96.3011 74.3123 96.3235 74.3666 96.3635 74.4065C96.4034 74.4465 96.4576 74.4689 96.5142 74.4689H97.0661L96.6761 74.844C96.6412 74.8848 96.623 74.9372 96.625 74.9908C96.6271 75.0445 96.6493 75.0953 96.6873 75.1333C96.7252 75.1712 96.7761 75.1935 96.8297 75.1955C96.8834 75.1976 96.9358 75.1794 96.9766 75.1445L97.3666 74.7545V75.3064C97.3666 75.3629 97.389 75.4171 97.429 75.4571C97.4689 75.4971 97.5231 75.5195 97.5797 75.5195C97.6362 75.5195 97.6904 75.4971 97.7304 75.4571C97.7703 75.4171 97.7928 75.3629 97.7928 75.3064V74.7545L98.1827 75.1445C98.2235 75.1794 98.276 75.1976 98.3296 75.1955C98.3832 75.1935 98.4341 75.1712 98.472 75.1333C98.51 75.0953 98.5322 75.0445 98.5343 74.9908C98.5364 74.9372 98.5181 74.8848 98.4832 74.844L98.0932 74.454H98.6452C98.7017 74.454 98.7559 74.4316 98.7959 74.3916C98.8358 74.3516 98.8583 74.2974 98.8583 74.2409C98.8583 74.1844 98.8358 74.1302 98.7959 74.0902C98.7559 74.0503 98.7017 74.0278 98.6452 74.0278V74.0363Z" fill="#40BDFF"/>
<path d="M85.7525 100.949H85.2006L85.5906 100.559C85.6255 100.518 85.6437 100.466 85.6417 100.412C85.6396 100.359 85.6174 100.308 85.5794 100.27C85.5415 100.232 85.4906 100.21 85.4369 100.208C85.3833 100.205 85.3309 100.224 85.2901 100.259L84.9001 100.649V100.097C84.9001 100.04 84.8777 99.9859 84.8377 99.946C84.7978 99.906 84.7435 99.8835 84.687 99.8835C84.6305 99.8835 84.5763 99.906 84.5363 99.946C84.4964 99.9859 84.4739 100.04 84.4739 100.097V100.649L84.0839 100.259C84.0432 100.224 83.9907 100.205 83.9371 100.208C83.8835 100.21 83.8326 100.232 83.7947 100.27C83.7567 100.308 83.7345 100.359 83.7324 100.412C83.7303 100.466 83.7486 100.518 83.7835 100.559L84.1735 100.949H83.6215C83.565 100.949 83.5108 100.972 83.4708 101.011C83.4309 101.051 83.4084 101.106 83.4084 101.162C83.4084 101.219 83.4309 101.273 83.4708 101.313C83.5108 101.353 83.565 101.375 83.6215 101.375H84.1735L83.7835 101.765C83.7486 101.806 83.7303 101.858 83.7324 101.912C83.7345 101.966 83.7567 102.017 83.7947 102.055C83.8326 102.092 83.8835 102.115 83.9371 102.117C83.9907 102.119 84.0432 102.101 84.0839 102.066L84.4739 101.676V102.228C84.4739 102.284 84.4964 102.338 84.5363 102.378C84.5763 102.418 84.6305 102.441 84.687 102.441C84.7435 102.441 84.7978 102.418 84.8377 102.378C84.8777 102.338 84.9001 102.284 84.9001 102.228V101.676L85.2901 102.066C85.3309 102.101 85.3833 102.119 85.4369 102.117C85.4906 102.115 85.5415 102.092 85.5794 102.055C85.6174 102.017 85.6396 101.966 85.6417 101.912C85.6437 101.858 85.6255 101.806 85.5906 101.765L85.2006 101.375H85.7525C85.8091 101.375 85.8633 101.353 85.9032 101.313C85.9432 101.273 85.9656 101.219 85.9656 101.162C85.9656 101.106 85.9432 101.051 85.9032 101.011C85.8633 100.972 85.8091 100.949 85.7525 100.949Z" fill="#40BDFF"/>
<path d="M49.3441 100.949H48.7943L49.1843 100.559C49.217 100.518 49.2335 100.467 49.2307 100.415C49.2279 100.362 49.206 100.313 49.1691 100.276C49.1323 100.239 49.083 100.216 49.0308 100.213C48.9786 100.21 48.927 100.226 48.886 100.259L48.496 100.649V100.097C48.496 100.04 48.4735 99.9859 48.4336 99.946C48.3936 99.906 48.3394 99.8835 48.2829 99.8835C48.2264 99.8835 48.1722 99.906 48.1322 99.946C48.0922 99.9859 48.0698 100.04 48.0698 100.097V100.649L47.6798 100.259C47.639 100.224 47.5866 100.205 47.533 100.208C47.4793 100.21 47.4284 100.232 47.3905 100.27C47.3525 100.308 47.3303 100.359 47.3282 100.412C47.3262 100.466 47.3444 100.518 47.3793 100.559L47.7693 100.949H47.2131C47.1566 100.949 47.1024 100.972 47.0624 101.011C47.0225 101.051 47 101.106 47 101.162C47 101.219 47.0225 101.273 47.0624 101.313C47.1024 101.353 47.1566 101.375 47.2131 101.375H47.765L47.3751 101.765C47.3401 101.806 47.3219 101.858 47.324 101.912C47.326 101.966 47.3483 102.017 47.3862 102.055C47.4242 102.092 47.4751 102.115 47.5287 102.117C47.5823 102.119 47.6348 102.101 47.6755 102.066L48.0655 101.676V102.228C48.0655 102.284 48.088 102.338 48.1279 102.378C48.1679 102.418 48.2221 102.441 48.2786 102.441C48.3351 102.441 48.3893 102.418 48.4293 102.378C48.4693 102.338 48.4917 102.284 48.4917 102.228V101.676L48.886 102.066C48.9267 102.101 48.9792 102.119 49.0328 102.117C49.0864 102.115 49.1373 102.092 49.1753 102.055C49.2132 102.017 49.2354 101.966 49.2375 101.912C49.2396 101.858 49.2213 101.806 49.1864 101.765L48.7965 101.375H49.3484C49.4049 101.375 49.4591 101.353 49.4991 101.313C49.539 101.273 49.5615 101.219 49.5615 101.162C49.5615 101.106 49.539 101.051 49.4991 101.011C49.4591 100.972 49.4049 100.949 49.3484 100.949H49.3441Z" fill="#40BDFF"/>
</svg>
