<svg width="70" height="70" viewBox="0 0 70 70" fill="none" xmlns="http://www.w3.org/2000/svg">
<rect x="5.77628" y="8.54215" width="56.6642" height="56.6642" rx="14.471" fill="#FFDC60" stroke="white" stroke-width="0.490543"/>
<rect x="14.9662" y="0.300395" width="56.6642" height="56.6642" rx="14.471" transform="rotate(15 14.9662 0.300395)" fill="#58D498" stroke="white" stroke-width="0.490543"/>
<circle cx="33.9351" cy="36.7317" r="19.3244" fill="#FFFAE8" stroke="#FFDC60" stroke-width="2.19071"/>
<path d="M28.5897 28.0435H21.9043V35.5645H28.5897V28.0435Z" fill="#31C292"/>
<path d="M42.6809 41.31C42.5891 40.5739 42.303 39.8755 41.852 39.2865C41.4009 38.6976 40.8013 38.2393 40.1145 37.9589L35.2751 35.9823L34.0216 35.5645L32.7681 35.9823L27.9179 37.9794C27.234 38.261 26.6371 38.7191 26.1882 39.3068C25.7393 39.8946 25.4544 40.591 25.3627 41.3248L24.4114 48.9352H43.6318L42.6809 41.31Z" fill="#576CD3"/>
<path d="M34.8136 39.3247H33.2293L32.1682 48.935H35.8747L34.8136 39.3247Z" fill="#31C292"/>
<path d="M28.2278 48.9354C28.1683 48.9354 28.1094 48.9227 28.0552 48.8981C28.0009 48.8735 27.9525 48.8377 27.9133 48.7928C27.874 48.7481 27.8448 48.6954 27.8275 48.6384C27.8103 48.5814 27.8054 48.5214 27.8132 48.4623L28.5931 42.6126C28.6004 42.5582 28.6183 42.5058 28.6458 42.4584C28.6733 42.4109 28.7099 42.3692 28.7535 42.3359C28.7971 42.3026 28.8468 42.2782 28.8998 42.2641C28.9528 42.25 29.0082 42.2464 29.0625 42.2537C29.1169 42.2609 29.1693 42.2788 29.2168 42.3063C29.2643 42.3338 29.3059 42.3705 29.3392 42.414C29.3726 42.4576 29.3969 42.5073 29.4111 42.5604C29.4252 42.6134 29.4287 42.6687 29.4215 42.7231L28.6415 48.5727C28.6281 48.673 28.5788 48.7651 28.5028 48.8318C28.4267 48.8984 28.329 48.9353 28.2278 48.9354Z" fill="#4B64BF"/>
<path d="M39.815 48.9354C39.7138 48.9353 39.6162 48.8984 39.5401 48.8318C39.464 48.7651 39.4147 48.673 39.4013 48.5727L38.6213 42.7231C38.6141 42.6687 38.6176 42.6134 38.6317 42.5604C38.6458 42.5073 38.6703 42.4576 38.7036 42.414C38.7369 42.3705 38.7786 42.3338 38.826 42.3063C38.8735 42.2788 38.9259 42.2609 38.9803 42.2537C39.0347 42.2464 39.09 42.25 39.143 42.2641C39.196 42.2782 39.2457 42.3026 39.2893 42.3359C39.3329 42.3692 39.3695 42.4109 39.397 42.4584C39.4245 42.5058 39.4424 42.5582 39.4497 42.6126L40.2296 48.4623C40.2443 48.5722 40.2147 48.6833 40.1474 48.7713C40.0801 48.8594 39.9806 48.917 39.8707 48.9317C39.8522 48.9342 39.8336 48.9354 39.815 48.9354Z" fill="#4B64BF"/>
<path d="M31.9318 43.9209C31.8291 43.9208 31.73 43.8828 31.6535 43.8142C31.577 43.7457 31.5284 43.6513 31.5171 43.5492L31.0992 39.7887C31.087 39.6786 31.119 39.568 31.1882 39.4815C31.2575 39.395 31.3582 39.3395 31.4684 39.3273C31.5785 39.315 31.689 39.3471 31.7755 39.4163C31.8621 39.4855 31.9176 39.5863 31.9298 39.6964L32.3476 43.4569C32.3599 43.5671 32.3279 43.6776 32.2586 43.7641C32.1894 43.8506 32.0887 43.9061 31.9785 43.9183C31.963 43.9201 31.9474 43.9209 31.9318 43.9209Z" fill="#F4CF9B"/>
<path d="M36.1115 43.9209C36.0958 43.9209 36.0803 43.9201 36.0648 43.9183C35.9547 43.9061 35.8539 43.8506 35.7847 43.7641C35.7155 43.6776 35.6834 43.5671 35.6957 43.4569L36.1135 39.6964C36.1257 39.5863 36.1812 39.4855 36.2677 39.4163C36.3543 39.3471 36.4648 39.315 36.5749 39.3273C36.685 39.3395 36.7859 39.395 36.8551 39.4815C36.9243 39.568 36.9563 39.6786 36.9441 39.7887L36.5262 43.5492C36.5149 43.6513 36.4663 43.7457 36.3898 43.8142C36.3133 43.8828 36.2142 43.9208 36.1115 43.9209Z" fill="#F4CF9B"/>
<path d="M36.5284 43.5034H31.5144V48.9353H36.5284V43.5034Z" fill="#F1BC75"/>
<path d="M34.0216 46.0103C33.9108 46.0103 33.8045 45.9663 33.7261 45.888C33.6478 45.8096 33.6038 45.7033 33.6038 45.5925V45.1747C33.6038 45.0638 33.6478 44.9576 33.7261 44.8792C33.8045 44.8009 33.9108 44.7568 34.0216 44.7568C34.1324 44.7568 34.2387 44.8009 34.3171 44.8792C34.3954 44.9576 34.4394 45.0638 34.4394 45.1747V45.5925C34.4394 45.7033 34.3954 45.8096 34.3171 45.888C34.2387 45.9663 34.1324 46.0103 34.0216 46.0103Z" fill="#F9DBB7"/>
<path d="M34.8572 47.6819H33.1859C33.0751 47.6819 32.9688 47.6378 32.8904 47.5595C32.8121 47.4811 32.7681 47.3749 32.7681 47.264C32.7681 47.1532 32.8121 47.0469 32.8904 46.9686C32.9688 46.8902 33.0751 46.8462 33.1859 46.8462H34.8572C34.9681 46.8462 35.0744 46.8902 35.1527 46.9686C35.2311 47.0469 35.2751 47.1532 35.2751 47.264C35.2751 47.3749 35.2311 47.4811 35.1527 47.5595C35.0744 47.6378 34.9681 47.6819 34.8572 47.6819Z" fill="#F9DBB7"/>
<path d="M45.3031 28.0435H40.289C39.8275 28.0435 39.4534 28.4176 39.4534 28.8791V34.7288C39.4534 35.1904 39.8275 35.5645 40.289 35.5645H45.3031C45.7646 35.5645 46.1387 35.1904 46.1387 34.7288V28.8791C46.1387 28.4176 45.7646 28.0435 45.3031 28.0435Z" fill="#46C89D"/>
<path d="M39.4534 30.1326H46.1387V28.8791C46.1387 28.6575 46.0507 28.4449 45.894 28.2882C45.7372 28.1315 45.5247 28.0435 45.3031 28.0435H40.289C40.0674 28.0435 39.8549 28.1315 39.6981 28.2882C39.5414 28.4449 39.4534 28.6575 39.4534 28.8791V30.1326Z" fill="#00B378"/>
<path d="M41.9603 32.2214H41.1246C41.0138 32.2214 40.9075 32.1774 40.8292 32.099C40.7508 32.0207 40.7068 31.9144 40.7068 31.8036C40.7068 31.6927 40.7508 31.5865 40.8292 31.5081C40.9075 31.4298 41.0138 31.3857 41.1246 31.3857H41.9603C42.0711 31.3857 42.1774 31.4298 42.2558 31.5081C42.3341 31.5865 42.3781 31.6927 42.3781 31.8036C42.3781 31.9144 42.3341 32.0207 42.2558 32.099C42.1774 32.1774 42.0711 32.2214 41.9603 32.2214Z" fill="#BDECDC"/>
<path d="M41.9603 33.8933H41.1246C41.0138 33.8933 40.9075 33.8493 40.8292 33.7709C40.7508 33.6926 40.7068 33.5863 40.7068 33.4755C40.7068 33.3646 40.7508 33.2583 40.8292 33.18C40.9075 33.1016 41.0138 33.0576 41.1246 33.0576H41.9603C42.0711 33.0576 42.1774 33.1016 42.2558 33.18C42.3341 33.2583 42.3781 33.3646 42.3781 33.4755C42.3781 33.5863 42.3341 33.6926 42.2558 33.7709C42.1774 33.8493 42.0711 33.8933 41.9603 33.8933Z" fill="#BDECDC"/>
<path d="M44.4674 32.2214H43.6317C43.5209 32.2214 43.4146 32.1774 43.3362 32.099C43.2579 32.0207 43.2139 31.9144 43.2139 31.8036C43.2139 31.6927 43.2579 31.5865 43.3362 31.5081C43.4146 31.4298 43.5209 31.3857 43.6317 31.3857H44.4674C44.5782 31.3857 44.6845 31.4298 44.7628 31.5081C44.8412 31.5865 44.8852 31.6927 44.8852 31.8036C44.8852 31.9144 44.8412 32.0207 44.7628 32.099C44.6845 32.1774 44.5782 32.2214 44.4674 32.2214Z" fill="#BDECDC"/>
<path d="M44.4674 33.8933H43.6317C43.5209 33.8933 43.4146 33.8493 43.3362 33.7709C43.2579 33.6926 43.2139 33.5863 43.2139 33.4755C43.2139 33.3646 43.2579 33.2583 43.3362 33.18C43.4146 33.1016 43.5209 33.0576 43.6317 33.0576H44.4674C44.5782 33.0576 44.6845 33.1016 44.7628 33.18C44.8412 33.2583 44.8852 33.3646 44.8852 33.4755C44.8852 33.5863 44.8412 33.6926 44.7628 33.7709C44.6845 33.8493 44.5782 33.8933 44.4674 33.8933Z" fill="#BDECDC"/>
<path d="M23.9934 28.0435V30.5505L25.2469 29.7148L26.5004 30.5505V28.0435H23.9934Z" fill="#F9DBB7"/>
<path d="M26.9185 32.6394H23.5758C23.465 32.6394 23.3587 32.5954 23.2803 32.517C23.202 32.4387 23.158 32.3324 23.158 32.2215C23.158 32.1107 23.202 32.0044 23.2803 31.9261C23.3587 31.8477 23.465 31.8037 23.5758 31.8037H26.9185C27.0293 31.8037 27.1356 31.8477 27.2139 31.9261C27.2923 32.0044 27.3363 32.1107 27.3363 32.2215C27.3363 32.3324 27.2923 32.4387 27.2139 32.517C27.1356 32.5954 27.0293 32.6394 26.9185 32.6394Z" fill="#BDECDC"/>
<path d="M26.9185 34.3108H23.5758C23.465 34.3108 23.3587 34.2667 23.2803 34.1884C23.202 34.1101 23.158 34.0038 23.158 33.8929C23.158 33.7821 23.202 33.6758 23.2803 33.5975C23.3587 33.5191 23.465 33.4751 23.5758 33.4751H26.9185C27.0293 33.4751 27.1356 33.5191 27.2139 33.5975C27.2923 33.6758 27.3363 33.7821 27.3363 33.8929C27.3363 34.0038 27.2923 34.1101 27.2139 34.1884C27.1356 34.2667 27.0293 34.3108 26.9185 34.3108Z" fill="#BDECDC"/>
<path d="M38.2 40.9963V37.1769L35.2751 35.9823L34.0216 35.5645L32.7681 35.9823L29.8433 37.1866V40.9963L34.0216 36.818L38.2 40.9963Z" fill="#3F589E"/>
<path d="M34.0214 39.7426C34.9445 39.7426 35.6928 38.9943 35.6928 38.0712C35.6928 37.1482 34.9445 36.3999 34.0214 36.3999C33.0984 36.3999 32.3501 37.1482 32.3501 38.0712C32.3501 38.9943 33.0984 39.7426 34.0214 39.7426Z" fill="#59CEA7"/>
<path d="M30.2612 28.4616V32.746C30.2612 33.2275 30.3801 33.7016 30.6073 34.1261C30.8345 34.5507 31.163 34.9126 31.5637 35.1797L32.8629 36.0458C33.2061 36.2745 33.6093 36.3967 34.0217 36.3967C34.4342 36.3967 34.8374 36.2745 35.1806 36.0458L36.4798 35.1796C36.8805 34.9126 37.209 34.5507 37.4362 34.1261C37.6634 33.7016 37.7823 33.2275 37.7823 32.746V27.626L30.2612 28.4616Z" fill="#FCDCC8"/>
<path d="M34.0217 24.7007H39.4536V25.1185C39.4536 26.1159 39.0574 27.0724 38.3522 27.7776C37.6469 28.4828 36.6905 28.879 35.6931 28.879H33.908C33.4142 28.879 32.9252 28.9763 32.469 29.1653C32.0127 29.3543 31.5982 29.6312 31.249 29.9805L30.2612 30.9682V28.4612C30.2612 27.4638 30.6574 26.5073 31.3626 25.8021C32.0679 25.0969 33.0244 24.7007 34.0217 24.7007Z" fill="#D7A25B"/>
<path d="M25.247 28.4613C26.1701 28.4613 26.9184 27.713 26.9184 26.79C26.9184 25.8669 26.1701 25.1187 25.247 25.1187C24.324 25.1187 23.5757 25.8669 23.5757 26.79C23.5757 27.713 24.324 28.4613 25.247 28.4613Z" fill="#EFB465"/>
<path d="M41.1246 29.2966C41.0138 29.2966 40.9075 29.2525 40.8292 29.1742C40.7508 29.0958 40.7068 28.9896 40.7068 28.8787V27.2074C40.7068 27.0966 40.7508 26.9903 40.8292 26.9119C40.9075 26.8336 41.0138 26.7896 41.1246 26.7896C41.2355 26.7896 41.3417 26.8336 41.4201 26.9119C41.4984 26.9903 41.5425 27.0966 41.5425 27.2074V28.8787C41.5425 28.9896 41.4984 29.0958 41.4201 29.1742C41.3417 29.2525 41.2355 29.2966 41.1246 29.2966Z" fill="#59CEA7"/>
<path d="M44.4676 29.2966C44.3568 29.2966 44.2505 29.2525 44.1722 29.1742C44.0938 29.0958 44.0498 28.9896 44.0498 28.8787V27.2074C44.0498 27.0966 44.0938 26.9903 44.1722 26.9119C44.2505 26.8336 44.3568 26.7896 44.4676 26.7896C44.5785 26.7896 44.6848 26.8336 44.7631 26.9119C44.8414 26.9903 44.8855 27.0966 44.8855 27.2074V28.8787C44.8855 28.9896 44.8414 29.0958 44.7631 29.1742C44.6848 29.2525 44.5785 29.2966 44.4676 29.2966Z" fill="#59CEA7"/>
</svg>
