<svg width="78" height="81" viewBox="0 0 78 81" fill="none" xmlns="http://www.w3.org/2000/svg">
<path d="M37.007 52.4675H39.3094V55.2408H41.01V80.4499H43.0507V76.629H71.2838V80.4499H73.3245V55.2408H75.0252V52.4675H77.3275V50.8977H37.007V52.4675Z" fill="#333333"/>
<path d="M54.5709 47.6681L56.6327 36.2685L61.489 48.4732H51.5047V49.7291H63.3403L57.055 33.9332L59.6557 19.5541L57.6476 19.1909L52.5627 47.3049L54.5709 47.6681Z" fill="#333333"/>
<path d="M44.2483 49.7292H49.3858V48.4734H45.1921C44.9843 48.9661 44.6574 49.3962 44.2483 49.7292Z" fill="#333333"/>
<path d="M25.9165 21.4693C27.19 21.7605 28.1411 22.8981 28.1411 24.2599C28.1411 25.3013 27.5836 26.2102 26.7526 26.7117C27.4805 27.8433 28.6057 29.1858 30.1546 29.9268C32.1616 28.6809 33.4985 26.4581 33.4985 23.922C33.4985 20.5444 31.1278 17.7223 27.9597 17.0249C26.3683 18.1106 26.001 20.4174 25.9165 21.4693Z" fill="#333333"/>
<path d="M26.4346 30.986C27.3919 30.986 28.3043 30.7947 29.1367 30.4497C27.63 29.5478 26.5518 28.1911 25.8529 27.0666C25.6667 27.1047 25.4739 27.1247 25.2765 27.1247C23.6942 27.1247 22.4116 25.842 22.4116 24.2598C22.4116 23.0074 23.2166 21.9455 24.3364 21.556C24.3924 20.6175 24.6576 18.4952 25.8776 16.8818C22.2371 17.1662 19.3706 20.2082 19.3706 23.9219C19.3706 27.8234 22.5335 30.986 26.4346 30.986Z" fill="#333333"/>
<path d="M21.4044 31.5292C18.7241 30.8608 14.8389 32.3166 13.2581 36.9137C11.1217 43.2474 10.6624 47.37 11.4743 54.3445C12.1447 57.7943 13.9712 59.1307 15.978 59.6204C16.3043 59.7257 16.6497 59.7861 17.007 59.802C17.6112 59.8728 18.2168 59.8891 18.7983 59.8816C19.3245 59.875 19.7967 59.859 20.2166 59.8109H28.8661L30.247 77.0465C30.4116 79.1006 32.1292 80.6579 34.1546 80.6578C34.2598 80.6578 34.3659 80.6536 34.4722 80.6451C36.6328 80.472 38.244 78.5803 38.0708 76.4198L36.4008 55.5731C36.2373 53.5338 34.5348 51.962 32.4888 51.962H22.5122C22.5243 49.9301 22.7552 47.8523 23.0693 45.8574L17.2705 39.4371C16.6916 38.7961 16.3967 37.968 16.4408 37.1052C16.4847 36.2426 16.8618 35.4487 17.5026 34.8698C18.0983 34.3321 18.8676 34.0359 19.6696 34.0359C20.5833 34.0359 21.458 34.4245 22.07 35.1021L24.5986 37.9017C24.9534 35.0732 23.7584 32.1159 21.4044 31.5292Z" fill="#333333"/>
<path d="M0.509336 44.4059C0.103389 44.5583 -0.102033 45.0108 0.0503615 45.4166L6.59869 62.8558C6.61681 62.904 6.64042 62.9483 6.66641 62.9906C7.28149 64.337 10.5322 65.4153 14.7224 65.6915V66.2472H16.0567V72.857L6.87341 75.6827V76.8392C6.28505 77.1294 5.87929 77.7335 5.87929 78.434C5.87929 79.4165 6.6758 80.213 7.65839 80.213C8.64095 80.213 9.43746 79.4165 9.43746 78.434C9.43746 77.735 9.03334 77.1318 8.44693 76.8409L16.0567 74.4995V76.8392C15.4683 77.1294 15.0626 77.7335 15.0626 78.434C15.0626 79.4165 15.8591 80.2131 16.8417 80.2131C17.8242 80.2131 18.6207 79.4165 18.6207 78.434C18.6207 77.7335 18.2149 77.1293 17.6265 76.8392V74.4995L25.2363 76.841C24.6499 77.1319 24.2458 77.735 24.2458 78.434C24.2458 79.4165 25.0423 80.2131 26.0249 80.2131C27.0075 80.2131 27.804 79.4165 27.804 78.434C27.804 77.7335 27.3982 77.1293 26.8097 76.8392V75.6827L17.6265 72.8571V66.2472H18.9609V65.6915C23.6226 65.3843 27.1237 64.0843 27.1237 62.5268C27.1237 61.0175 12.44 60.7837 7.88881 61.8252L4.36906 52.4518C5.86984 54.7933 7.41643 56.121 8.45795 55.7299C10.13 55.102 2.90106 35.8503 1.22905 36.4782C-0.133774 36.9899 -0.210819 40.286 0.888062 44.3662C0.763861 44.3495 0.634667 44.3588 0.509336 44.4059Z" fill="#333333"/>
<path d="M17.9865 35.4059C16.9573 36.3356 16.8763 37.924 17.8063 38.9534L26.7945 48.905C27.2707 49.4322 27.9479 49.7331 28.6583 49.7331H42.2109C43.598 49.7331 44.7226 48.6087 44.7226 47.2214C44.7226 45.8342 43.598 44.7098 42.2109 44.7098H29.7743L21.5339 35.5863C20.6046 34.5572 19.0161 34.4762 17.9865 35.4059Z" fill="#333333"/>
<path d="M26.5138 25.4977C27.1975 24.814 27.1975 23.7055 26.5138 23.0218C25.8301 22.3381 24.7216 22.3381 24.0379 23.0218C23.3542 23.7055 23.3542 24.814 24.0379 25.4977C24.7216 26.1814 25.8301 26.1814 26.5138 25.4977Z" fill="#333333"/>
<path d="M30.5743 30.7936C30.5743 30.9146 30.611 31.027 30.6725 31.122C30.7811 31.2897 30.969 31.4019 31.1826 31.4019H32.5169C32.8515 31.4019 33.1252 31.1282 33.1252 30.7936C33.1252 30.459 32.8515 30.1853 32.5169 30.1853H31.1826C31.0918 30.1853 31.0064 30.2068 30.9289 30.2429C30.7205 30.3396 30.5743 30.5498 30.5743 30.7936Z" fill="#333333"/>
<path d="M44.3045 20.8258C46.6696 20.8258 48.8495 20.0361 50.5977 18.7077L54.0307 21.8593L51.8227 17.6132C53.6145 15.7429 54.7175 13.2075 54.7175 10.4129C54.7175 4.66201 50.0554 0 44.3045 0C38.5537 0 33.8916 4.66201 33.8916 10.4129C33.8916 16.1638 38.5537 20.8258 44.3045 20.8258ZM49.4194 9.28789C50.0408 9.28789 50.5444 9.79157 50.5444 10.4129C50.5444 11.0342 50.0408 11.5379 49.4194 11.5379C48.7981 11.5379 48.2944 11.0342 48.2944 10.4129C48.2944 9.79157 48.7981 9.28789 49.4194 9.28789ZM44.3045 9.28789C44.9259 9.28789 45.4295 9.79157 45.4295 10.4129C45.4295 11.0342 44.9259 11.5379 44.3045 11.5379C43.6832 11.5379 43.1795 11.0342 43.1795 10.4129C43.1795 9.79157 43.6832 9.28789 44.3045 9.28789ZM39.1896 9.28789C39.811 9.28789 40.3147 9.79157 40.3147 10.4129C40.3147 11.0342 39.811 11.5379 39.1896 11.5379C38.5683 11.5379 38.0646 11.0342 38.0646 10.4129C38.0646 9.79157 38.5683 9.28789 39.1896 9.28789Z" fill="#FFDC60"/>
<path d="M11.4265 17.995C12.8249 17.995 14.1101 17.5235 15.1439 16.7383L17.1785 18.6062L15.8713 16.0921C16.9304 14.9861 17.5847 13.4892 17.5847 11.8369C17.5847 8.43579 14.8276 5.67871 11.4265 5.67871C8.02561 5.67871 5.2685 8.43579 5.2685 11.8369C5.2685 15.2379 8.02561 17.995 11.4265 17.995ZM14.4515 11.1715C14.819 11.1715 15.1168 11.4694 15.1168 11.8368C15.1168 12.2042 14.819 12.5021 14.4515 12.5021C14.0841 12.5021 13.7862 12.2042 13.7862 11.8368C13.7862 11.4694 14.0841 11.1715 14.4515 11.1715ZM11.4266 11.1715C11.794 11.1715 12.0919 11.4694 12.0919 11.8368C12.0919 12.2042 11.794 12.5021 11.4266 12.5021C11.0592 12.5021 10.7613 12.2042 10.7613 11.8368C10.7613 11.4694 11.0592 11.1715 11.4266 11.1715ZM8.4017 11.1715C8.76915 11.1715 9.06703 11.4694 9.06703 11.8368C9.06703 12.2042 8.76915 12.5021 8.4017 12.5021C8.03427 12.5021 7.73639 12.2042 7.73639 11.8368C7.73639 11.4694 8.03424 11.1715 8.4017 11.1715Z" fill="#58D498"/>
</svg>
