<svg width="83" height="175" viewBox="0 0 83 175" fill="none" xmlns="http://www.w3.org/2000/svg">
<path d="M32.3411 1.39381e-06V6.64304H25.6034L25.6034 1.10344e-06L32.3411 1.39381e-06Z" fill="#58D498"/>
<path d="M32.3411 23.9154V30.5584H25.6034V23.9154L32.3411 23.9154Z" fill="#58D498"/>
<path d="M32.2183 48.7817V55.4247H25.4806V48.7817H32.2183Z" fill="#58D498"/>
<path d="M32.2186 72.6971V79.3401H25.4809V72.6971H32.2186Z" fill="#58D498"/>
<path d="M32.2186 96.611V103.254H25.4809V96.611H32.2186Z" fill="#58D498"/>
<path d="M32.2186 120.526V127.169H25.4809V120.526H32.2186Z" fill="#58D498"/>
<path d="M32.2186 144.442V151.085H25.4809V144.442H32.2186Z" fill="#58D498"/>
<path d="M32.2186 168.357V175H25.4809V168.357H32.2186Z" fill="#58D498"/>
<path d="M32.2186 96.611V103.254H25.4809V96.611H32.2186Z" fill="#58D498"/>
<path d="M6.7377 5.43992e-06V6.64304H1.06027e-06L1.35479e-06 5.14954e-06L6.7377 5.43992e-06Z" fill="#58D498"/>
<path d="M6.7377 23.9154V30.5584H0L2.94514e-07 23.9154H6.7377Z" fill="#58D498"/>
<path d="M6.88918 48.7817L6.88918 55.4247H0.151479L0.15148 48.7817H6.88918Z" fill="#58D498"/>
<path d="M6.88912 72.6971V79.3401H0.151421L0.151421 72.6971H6.88912Z" fill="#58D498"/>
<path d="M6.88914 96.611L6.88914 103.254H0.151436L0.151436 96.611H6.88914Z" fill="#58D498"/>
<path d="M6.88912 120.526L6.88912 127.169H0.151419L0.151419 120.526H6.88912Z" fill="#58D498"/>
<path d="M6.88912 144.442V151.085H0.151418L0.151418 144.442H6.88912Z" fill="#58D498"/>
<path d="M6.88912 168.357L6.88912 175H0.151417L0.151417 168.357H6.88912Z" fill="#58D498"/>
<path d="M6.88914 96.611L6.88914 103.254H0.151436L0.151436 96.611H6.88914Z" fill="#58D498"/>
<path d="M83 6.54335e-06V6.64304H76.2623V6.25298e-06L83 6.54335e-06Z" fill="#58D498"/>
<path d="M83 23.9154V30.5584H76.2623V23.9154L83 23.9154Z" fill="#58D498"/>
<path d="M82.8772 48.7817V55.4247H76.1395V48.7817H82.8772Z" fill="#58D498"/>
<path d="M82.8775 72.6971V79.3401H76.1398V72.6971H82.8775Z" fill="#58D498"/>
<path d="M82.8775 96.611V103.254H76.1398V96.611H82.8775Z" fill="#58D498"/>
<path d="M82.8775 120.526V127.169H76.1398V120.526H82.8775Z" fill="#58D498"/>
<path d="M82.8775 144.442V151.085H76.1398V144.442H82.8775Z" fill="#58D498"/>
<path d="M82.8775 168.357V175H76.1398V168.357H82.8775Z" fill="#58D498"/>
<path d="M82.8775 96.611V103.254H76.1398V96.611H82.8775Z" fill="#58D498"/>
<path d="M57.3966 2.90376e-07V6.64303H50.6589V0L57.3966 2.90376e-07Z" fill="#58D498"/>
<path d="M57.3966 23.9154V30.5584H50.6589V23.9154H57.3966Z" fill="#58D498"/>
<path d="M57.548 48.7817V55.4247H50.8103V48.7817H57.548Z" fill="#58D498"/>
<path d="M57.548 72.6971V79.3401H50.8103V72.6971H57.548Z" fill="#58D498"/>
<path d="M57.548 96.611V103.254H50.8103V96.611H57.548Z" fill="#58D498"/>
<path d="M57.548 120.526V127.169H50.8103V120.526H57.548Z" fill="#58D498"/>
<path d="M57.548 144.442V151.085H50.8103V144.442H57.548Z" fill="#58D498"/>
<path d="M57.548 168.357V175H50.8103V168.357H57.548Z" fill="#58D498"/>
<path d="M57.548 96.611V103.254H50.8103V96.611H57.548Z" fill="#58D498"/>
</svg>
