<svg width="646" height="720" viewBox="0 0 646 720" fill="none" xmlns="http://www.w3.org/2000/svg">
<path d="M484 485H545.355C600.584 485 645.355 529.772 645.355 585V660.209H549C513.101 660.209 484 631.107 484 595.209V485Z" fill="#58D598"/>
<path d="M559.788 687.242C559.788 655.209 585.756 629.242 617.788 629.242H645.355V656.809C645.355 688.841 619.388 714.809 587.355 714.809H559.788V687.242Z" fill="#FFDC60"/>
<rect x="0.680664" y="570.448" width="8.02058" height="8.02058" fill="#58D498"/>
<rect x="29.5552" y="570.448" width="8.02058" height="8.02058" fill="#58D498"/>
<rect x="58.428" y="570.448" width="8.02058" height="8.02058" fill="#58D498"/>
<rect x="87.3027" y="570.448" width="8.02058" height="8.02058" fill="#58D498"/>
<rect x="116.177" y="570.448" width="8.02058" height="8.02058" fill="#58D498"/>
<rect x="145.052" y="570.448" width="8.02058" height="8.02058" fill="#58D498"/>
<rect x="58.428" y="570.448" width="8.02058" height="8.02058" fill="#58D498"/>
<rect x="0.680664" y="596.114" width="8.02058" height="8.02058" fill="#58D498"/>
<rect x="29.5552" y="596.114" width="8.02058" height="8.02058" fill="#58D498"/>
<rect x="58.428" y="596.114" width="8.02058" height="8.02058" fill="#58D498"/>
<rect x="87.3027" y="596.114" width="8.02058" height="8.02058" fill="#58D498"/>
<rect x="116.177" y="596.114" width="8.02058" height="8.02058" fill="#58D498"/>
<rect x="145.052" y="596.114" width="8.02058" height="8.02058" fill="#58D498"/>
<rect x="58.428" y="596.114" width="8.02058" height="8.02058" fill="#58D498"/>
<rect x="0.680664" y="626.592" width="8.02058" height="8.02058" fill="#58D498"/>
<rect x="29.5552" y="626.592" width="8.02058" height="8.02058" fill="#58D498"/>
<rect x="58.428" y="626.592" width="8.02058" height="8.02058" fill="#58D498"/>
<rect x="87.3027" y="626.592" width="8.02058" height="8.02058" fill="#58D498"/>
<rect x="116.177" y="626.592" width="8.02058" height="8.02058" fill="#58D498"/>
<rect x="145.052" y="626.592" width="8.02058" height="8.02058" fill="#58D498"/>
<rect x="58.428" y="626.592" width="8.02058" height="8.02058" fill="#58D498"/>
<rect x="0.680664" y="655.466" width="8.02058" height="8.02058" fill="#58D498"/>
<rect x="29.5552" y="655.466" width="8.02058" height="8.02058" fill="#58D498"/>
<rect x="58.428" y="655.466" width="8.02058" height="8.02058" fill="#58D498"/>
<rect x="87.3027" y="655.466" width="8.02058" height="8.02058" fill="#58D498"/>
<rect x="116.177" y="655.466" width="8.02058" height="8.02058" fill="#58D498"/>
<rect x="145.052" y="655.466" width="8.02058" height="8.02058" fill="#58D498"/>
<rect x="58.428" y="655.466" width="8.02058" height="8.02058" fill="#58D498"/>
<rect x="0.680664" y="681.132" width="8.02058" height="8.02058" fill="#58D498"/>
<rect x="29.5552" y="681.132" width="8.02058" height="8.02058" fill="#58D498"/>
<rect x="58.428" y="681.132" width="8.02058" height="8.02058" fill="#58D498"/>
<rect x="87.3027" y="681.132" width="8.02058" height="8.02058" fill="#58D498"/>
<rect x="116.177" y="681.132" width="8.02058" height="8.02058" fill="#58D498"/>
<rect x="145.052" y="681.132" width="8.02058" height="8.02058" fill="#58D498"/>
<rect x="58.428" y="681.132" width="8.02058" height="8.02058" fill="#58D498"/>
<rect x="0.680664" y="711.61" width="8.02058" height="8.02058" fill="#58D498"/>
<rect x="29.5552" y="711.61" width="8.02058" height="8.02058" fill="#58D498"/>
<rect x="58.428" y="711.61" width="8.02058" height="8.02058" fill="#58D498"/>
<rect x="87.3027" y="711.61" width="8.02058" height="8.02058" fill="#58D498"/>
<rect x="116.177" y="711.61" width="8.02058" height="8.02058" fill="#58D498"/>
<rect x="145.052" y="711.61" width="8.02058" height="8.02058" fill="#58D498"/>
<rect x="58.428" y="711.61" width="8.02058" height="8.02058" fill="#58D498"/>
<rect x="64" width="543" height="640" rx="100" fill="#FFDC60"/>
</svg>
