<svg width="162" height="41" viewBox="0 0 162 41" fill="none" xmlns="http://www.w3.org/2000/svg">
<path d="M60.8041 9.8208H51.8605C51.5644 9.82061 51.278 9.92618 51.0528 10.1185C50.8277 10.3108 50.6786 10.5771 50.6325 10.8696L47.0153 33.8035C46.9987 33.9099 47.0053 34.0187 47.0347 34.1223C47.0642 34.2259 47.1157 34.3219 47.1858 34.4037C47.2559 34.4854 47.3429 34.5511 47.4408 34.596C47.5387 34.6409 47.6451 34.6641 47.7528 34.664H52.0226C52.3189 34.6641 52.6055 34.5584 52.8306 34.3658C53.0558 34.1732 53.2048 33.9066 53.2506 33.6138L54.2262 27.4282C54.272 27.1357 54.4207 26.8692 54.6456 26.6767C54.8705 26.4842 55.1568 26.3783 55.4528 26.3781H58.2841C64.1755 26.3781 67.5756 23.5272 68.4636 17.8778C68.8637 15.4062 68.4806 13.4642 67.3232 12.1041C66.0521 10.6107 63.7975 9.8208 60.8041 9.8208ZM61.8359 18.1969C61.3468 21.4061 58.8948 21.4061 56.5239 21.4061H55.1743L56.1211 15.4127C56.1488 15.2374 56.2382 15.0777 56.3732 14.9624C56.5081 14.847 56.6798 14.7837 56.8573 14.7837H57.4759C59.091 14.7837 60.6145 14.7837 61.4017 15.7043C61.8712 16.2536 62.0151 17.0696 61.8359 18.1969ZM87.5383 18.0936H83.2554C83.0779 18.0936 82.9062 18.1569 82.7712 18.2722C82.6363 18.3876 82.5469 18.5473 82.5192 18.7226L82.3295 19.9205L82.0301 19.4863C81.1029 18.1407 79.0353 17.6908 76.9717 17.6908C72.239 17.6908 68.1968 21.2753 67.4095 26.3036C67.0002 28.8118 67.5821 31.2102 69.005 32.8828C70.3101 34.4207 72.1775 35.0615 74.3994 35.0615C78.2128 35.0615 80.3274 32.6095 80.3274 32.6095L80.1365 33.7995C80.1194 33.9059 80.1257 34.0148 80.1548 34.1185C80.1839 34.2223 80.2351 34.3185 80.305 34.4005C80.3748 34.4825 80.4617 34.5485 80.5594 34.5937C80.6572 34.639 80.7637 34.6625 80.8714 34.6627H84.7292C85.0255 34.6628 85.3121 34.557 85.5373 34.3645C85.7624 34.1719 85.9114 33.9052 85.9572 33.6125L88.2719 18.9541C88.289 18.8479 88.2827 18.7393 88.2537 18.6358C88.2247 18.5323 88.1735 18.4363 88.1037 18.3545C88.034 18.2726 87.9473 18.2069 87.8497 18.1619C87.752 18.1168 87.6458 18.0935 87.5383 18.0936ZM81.5684 26.4291C81.1552 28.8759 79.2132 30.5184 76.7363 30.5184C75.4927 30.5184 74.4988 30.1196 73.8606 29.3637C73.2277 28.613 72.987 27.5446 73.1884 26.3546C73.5742 23.9287 75.5489 22.2326 77.9878 22.2326C79.204 22.2326 80.1927 22.6367 80.8439 23.3991C81.4965 24.1693 81.7554 25.2443 81.5684 26.4291ZM110.348 18.0936H106.044C105.841 18.0939 105.641 18.1437 105.462 18.2388C105.283 18.3338 105.129 18.4711 105.015 18.6389L99.0791 27.3825L96.563 18.9802C96.4858 18.724 96.3281 18.4994 96.1133 18.3397C95.8985 18.18 95.638 18.0937 95.3703 18.0936H91.1411C91.0224 18.0933 90.9053 18.1213 90.7996 18.1754C90.6939 18.2294 90.6027 18.308 90.5335 18.4044C90.4643 18.5009 90.4191 18.6125 90.4017 18.7299C90.3844 18.8474 90.3953 18.9672 90.4336 19.0796L95.1742 32.9914L90.7174 39.2829C90.6382 39.3945 90.5912 39.5257 90.5816 39.6621C90.572 39.7986 90.6001 39.9351 90.6629 40.0566C90.7257 40.1782 90.8208 40.2801 90.9376 40.3512C91.0545 40.4223 91.1887 40.4599 91.3255 40.4599H95.624C95.8247 40.4602 96.0225 40.4118 96.2004 40.3188C96.3783 40.2259 96.531 40.0912 96.6454 39.9263L110.96 19.264C111.038 19.1522 111.083 19.0213 111.092 18.8855C111.1 18.7497 111.071 18.6142 111.008 18.4936C110.945 18.373 110.85 18.272 110.734 18.2015C110.617 18.1309 110.484 18.0936 110.348 18.0936Z" fill="#253B80"/>
<path d="M124.598 9.82064H115.653C115.357 9.82077 115.071 9.92647 114.846 10.1187C114.621 10.311 114.472 10.5772 114.426 10.8695L110.809 33.8033C110.792 33.9096 110.799 34.0182 110.828 34.1217C110.857 34.2252 110.908 34.3212 110.978 34.403C111.048 34.4848 111.135 34.5504 111.232 34.5955C111.33 34.6405 111.436 34.6638 111.544 34.6638H116.134C116.341 34.6635 116.541 34.5893 116.699 34.4546C116.856 34.3199 116.96 34.1334 116.992 33.9289L118.019 27.4281C118.064 27.1356 118.213 26.8691 118.438 26.6766C118.663 26.484 118.949 26.3781 119.245 26.378H122.075C127.968 26.378 131.367 23.5271 132.256 17.8776C132.657 15.406 132.272 13.464 131.114 12.104C129.844 10.6105 127.591 9.82064 124.598 9.82064ZM125.63 18.1967C125.142 21.4059 122.69 21.4059 120.318 21.4059H118.969L119.917 15.4125C119.945 15.2372 120.034 15.0774 120.168 14.962C120.303 14.8466 120.475 14.7833 120.652 14.7835H121.271C122.885 14.7835 124.409 14.7835 125.197 15.7042C125.666 16.2534 125.809 17.0695 125.63 18.1967ZM151.331 18.0934H147.05C146.873 18.0929 146.701 18.1561 146.566 18.2716C146.431 18.387 146.342 18.547 146.315 18.7224L146.126 19.9203L145.825 19.4862C144.898 18.1405 142.832 17.6906 140.768 17.6906C136.035 17.6906 131.994 21.2752 131.207 26.3034C130.799 28.8117 131.378 31.2101 132.801 32.8827C134.109 34.4206 135.974 35.0614 138.196 35.0614C142.009 35.0614 144.124 32.6093 144.124 32.6093L143.933 33.7994C143.916 33.906 143.922 34.0151 143.951 34.119C143.981 34.2229 144.032 34.3193 144.102 34.4013C144.172 34.4834 144.259 34.5493 144.358 34.5944C144.456 34.6395 144.562 34.6627 144.67 34.6625H148.527C148.823 34.6623 149.109 34.5564 149.334 34.3639C149.559 34.1714 149.708 33.9049 149.754 33.6124L152.07 18.9539C152.086 18.8474 152.079 18.7386 152.05 18.635C152.02 18.5314 151.968 18.4354 151.898 18.3537C151.828 18.2719 151.741 18.2063 151.643 18.1614C151.545 18.1165 151.438 18.0933 151.331 18.0934ZM145.361 26.429C144.95 28.8757 143.006 30.5183 140.529 30.5183C139.288 30.5183 138.291 30.1194 137.653 29.3635C137.02 28.6129 136.782 27.5445 136.981 26.3544C137.369 23.9286 139.341 22.2324 141.78 22.2324C142.996 22.2324 143.985 22.6365 144.636 23.3989C145.291 24.1692 145.55 25.2441 145.361 26.429ZM156.38 10.4497L152.709 33.8033C152.692 33.9096 152.699 34.0182 152.728 34.1217C152.757 34.2252 152.808 34.3212 152.878 34.403C152.948 34.4848 153.035 34.5504 153.132 34.5955C153.23 34.6405 153.336 34.6638 153.444 34.6638H157.134C157.748 34.6638 158.268 34.2192 158.362 33.6137L161.982 10.6811C161.999 10.5748 161.993 10.4662 161.963 10.3626C161.934 10.259 161.883 10.1629 161.813 10.0811C161.743 9.99917 161.657 9.93338 161.559 9.8882C161.461 9.84302 161.355 9.81953 161.247 9.81934H157.115C156.937 9.81996 156.766 9.88374 156.631 9.99924C156.497 10.1147 156.407 10.2744 156.38 10.4497Z" fill="#179BD7"/>
<path d="M9.87577 39.1205L10.5597 34.7762L9.0362 34.7409H1.76123L6.81696 2.68422C6.83201 2.58627 6.88176 2.497 6.95714 2.43266C7.03251 2.36833 7.12849 2.33322 7.22759 2.33375H19.4942C23.5665 2.33375 26.3769 3.18116 27.8441 4.85376C28.532 5.63841 28.9701 6.45836 29.182 7.3607C29.4043 8.30751 29.4082 9.43871 29.1911 10.8184L29.1754 10.9191V11.8031L29.8633 12.1928C30.3884 12.4589 30.8604 12.8187 31.256 13.2547C31.8445 13.9256 32.2251 14.7782 32.3859 15.7891C32.552 16.8288 32.4971 18.0659 32.2251 19.4665C31.9112 21.0776 31.4038 22.4808 30.7186 23.629C30.1139 24.6576 29.301 25.5485 28.3319 26.2445C27.4217 26.8905 26.3402 27.3809 25.1175 27.6948C23.9327 28.0034 22.5818 28.159 21.1001 28.159H20.1455C19.4628 28.159 18.7998 28.4049 18.2793 28.8456C17.7596 29.291 17.4148 29.9064 17.3064 30.5823L17.2344 30.9733L16.0261 38.6301L15.9712 38.9113C15.9568 39.0002 15.9319 39.0447 15.8953 39.0747C15.8598 39.1038 15.8156 39.1199 15.7698 39.1205H9.87577Z" fill="#253B80"/>
<path d="M30.5139 11.0212C30.4773 11.2553 30.4354 11.4946 30.3883 11.7405C28.7707 20.046 23.2363 22.9151 16.168 22.9151H12.5691C11.7046 22.9151 10.9762 23.5429 10.8415 24.3955L8.99892 36.0815L8.47713 39.394C8.45634 39.5254 8.46428 39.6597 8.50039 39.7878C8.5365 39.9158 8.59993 40.0345 8.68631 40.1357C8.77269 40.2368 8.87997 40.3181 9.00076 40.3738C9.12155 40.4295 9.25298 40.4584 9.38601 40.4585H15.7691C16.525 40.4585 17.1671 39.9093 17.2861 39.1638L17.3488 38.8395L18.5507 31.2128L18.6278 30.7943C18.7455 30.0463 19.3889 29.497 20.1448 29.497H21.0994C27.2838 29.497 32.125 26.9861 33.54 19.7203C34.1311 16.6851 33.8251 14.1507 32.261 12.3682C31.7653 11.8168 31.1732 11.3604 30.5139 11.0212Z" fill="#179BD7"/>
<path d="M28.821 10.3465C28.3044 10.1971 27.779 10.0804 27.2477 9.99732C26.198 9.836 25.1372 9.75859 24.0752 9.76585H14.4606C14.0948 9.76556 13.7408 9.89619 13.4628 10.1341C13.1849 10.372 13.0012 10.7016 12.945 11.0631L10.8997 24.0176L10.8408 24.3956C10.9045 23.9832 11.1138 23.6072 11.4306 23.3357C11.7475 23.0641 12.1511 22.915 12.5683 22.9152H16.1673C23.2356 22.9152 28.77 20.0447 30.3876 11.7405C30.436 11.4947 30.4766 11.2554 30.5132 11.0213C30.0863 10.7974 29.6414 10.6098 29.1832 10.4603C29.0631 10.4204 28.9423 10.3825 28.821 10.3465Z" fill="#222D65"/>
<path d="M12.9456 11.0629C13.0013 10.7013 13.1849 10.3716 13.463 10.1338C13.7411 9.89598 14.0953 9.76582 14.4612 9.76696H24.0757C25.2148 9.76696 26.278 9.8415 27.2483 9.99843C27.905 10.1016 28.5525 10.256 29.1851 10.4601C29.6624 10.6183 30.1057 10.8053 30.5151 11.0211C30.9963 7.95181 30.5111 5.86204 28.8516 3.96974C27.0221 1.88651 23.72 0.994629 19.4947 0.994629H7.22811C6.365 0.994629 5.62874 1.62234 5.49535 2.4763L0.386006 34.8625C0.362208 35.0129 0.371262 35.1666 0.412547 35.3131C0.453832 35.4597 0.526367 35.5955 0.625162 35.7113C0.723958 35.8272 0.84667 35.9202 0.984857 35.9841C1.12304 36.048 1.27343 36.0811 1.42566 36.0813H8.99879L10.9002 24.0174L12.9456 11.0629Z" fill="#253B80"/>
</svg>
