<svg width="144" height="50" viewBox="0 0 144 50" fill="none" xmlns="http://www.w3.org/2000/svg">
<path d="M36.4946 4.05648C36.6711 8.05208 40.1273 23.2995 40.1273 23.2995C41.3974 26.3877 42.491 23.2995 42.491 23.2995C46.6724 10.7733 38.1273 3.51417 38.1273 3.51417C35.9459 2.24074 36.4946 4.05648 36.4946 4.05648ZM86.1096 1.87952C86.1096 1.87952 90.293 4.78374 86.1096 5.32798C86.1096 5.32798 70.4784 7.14276 58.8474 18.0382C58.8474 18.0382 41.3974 33.2827 34.8562 49.9856C34.8562 49.9856 32.6748 49.9856 33.4048 46.7192C34.131 43.4518 38.4908 29.1089 57.9361 11.5025C57.9361 11.5025 76.6619 -5.56357 86.1096 1.87952Z" fill="#FF4600"/>
<path d="M6.5875 26.0474C7.27797 26.1928 7.89805 26.2641 8.8084 26.2641C12.3736 26.2641 14.7758 23.9735 14.7758 21.0644C14.7758 18.4473 12.9204 17.5033 10.5201 17.5033C9.46223 17.5033 8.66182 17.5765 8.15264 17.72L6.5875 26.0474ZM4.5855 14.7031C6.07832 14.338 8.29922 14.1213 10.4825 14.1213C12.7767 14.1213 15.1789 14.5923 16.7797 15.8667C18.1993 16.9571 19.0363 18.5542 19.0363 20.7388C19.0363 23.646 17.6525 26.0117 15.9051 27.3921C13.9407 28.9554 11.1354 29.7193 8.224 29.7193C7.34934 29.7193 6.5875 29.6085 5.93174 29.5372L4.14768 38.8096H0L4.5855 14.7031Z" fill="black"/>
<path d="M30.2814 24.1547C29.8455 24.0439 29.3006 23.9736 28.5359 23.9736C24.6409 23.9736 21.5829 28.3747 21.5829 32.4108C21.5829 34.2622 22.2743 35.7909 24.1317 35.7909C26.1317 35.7909 28.5359 33.3201 29.3729 28.8101L30.2814 24.1547ZM28.5716 38.8097C28.5716 37.753 28.7162 36.337 28.8638 34.844H28.7905C27.044 38.0824 24.6765 39.2085 22.4199 39.2085C19.254 39.2085 17.1768 36.7358 17.1768 33.1737C17.1768 27.1379 21.3997 20.7014 29.6632 20.7014C31.5919 20.7014 33.6672 21.0646 35.051 21.5009L33.1947 30.7366C32.6836 33.3538 32.3933 36.7002 32.4666 38.8097H28.5716Z" fill="black"/>
<path d="M59.141 31.7914C59.141 34.2246 60.4149 35.9382 62.5992 35.9382C65.7661 35.9382 67.8781 31.5727 67.8781 28.0462C67.8781 26.2267 67.0391 23.9726 64.4932 23.9726C61.1074 23.9726 59.141 28.4826 59.141 31.7914ZM72.2456 28.0116C72.2456 34.0454 68.0584 39.2075 62.0177 39.2075C57.5383 39.2075 54.7744 36.1174 54.7744 31.8983C54.7744 25.9011 58.9597 20.7014 65.0024 20.7014C69.7701 20.7014 72.2456 24.119 72.2456 28.0116Z" fill="black"/>
<path d="M73.043 38.8096L75.3372 26.5916C75.7731 24.4821 76.0277 22.6278 76.2466 21.102H80.0346L79.6334 24.2653H79.7048C81.3413 21.9005 83.5998 20.7013 86.0753 20.7013C88.6222 20.7013 90.5885 22.23 90.5885 25.5744C90.5885 26.3729 90.4457 27.6088 90.2625 28.4825L88.33 38.8096H84.0714L85.9625 28.81C86.0753 28.1559 86.1833 27.3921 86.1833 26.7005C86.1833 25.2093 85.6375 24.1546 83.9634 24.1546C82.0347 24.1546 79.5582 26.4808 78.7944 30.6286L77.2659 38.8096H73.043Z" fill="black"/>
<path d="M101.869 23.8643C99.2102 23.8643 97.4647 26.2271 96.9556 28.3742C101.322 28.4099 104.127 27.8281 104.127 25.6839C104.127 24.5569 103.217 23.8643 101.869 23.8643ZM105.91 37.7901C104.161 38.6984 101.798 39.208 99.648 39.208C94.7385 39.208 92.371 36.192 92.371 31.8641C92.371 26.519 96.2998 20.7019 102.416 20.7019C105.91 20.7019 108.131 22.7007 108.131 25.6839C108.131 30.2276 103.364 31.6811 96.5206 31.5366C96.4464 32.1541 96.592 33.3533 96.9932 34.0449C97.6856 35.2461 98.9556 35.8636 100.633 35.8636C102.637 35.8636 104.235 35.354 105.513 34.7L105.91 37.7901Z" fill="black"/>
<path d="M118.355 23.8643C115.7 23.8643 113.951 26.2271 113.442 28.3742C117.809 28.4099 120.614 27.8281 120.614 25.6839C120.614 24.5569 119.703 23.8643 118.355 23.8643ZM122.396 37.7901C120.65 38.6984 118.284 39.208 116.138 39.208C111.225 39.208 108.857 36.192 108.857 31.8641C108.857 26.519 112.786 20.7019 118.902 20.7019C122.396 20.7019 124.621 22.7007 124.621 25.6839C124.621 30.2276 119.85 31.6811 113.007 31.5366C112.932 32.1541 113.078 33.3533 113.48 34.0449C114.172 35.2461 115.445 35.8636 117.119 35.8636C119.123 35.8636 120.722 35.354 122 34.7L122.396 37.7901Z" fill="black"/>
<path d="M124.872 38.8096L126.946 27.9007C127.418 25.3923 127.673 22.6654 127.852 21.102H131.53C131.421 22.3013 131.313 23.5371 131.13 24.8115H131.238C132.445 22.4467 134.369 20.7013 136.774 20.7013C137.103 20.7013 137.429 20.7388 137.722 20.7388L136.883 24.8837C136.665 24.8462 136.373 24.8462 136.081 24.8462C133.058 24.8462 131.13 27.9007 130.441 31.6815L129.093 38.8096H124.872Z" fill="black"/>
<path d="M140.942 22.7218H141.252C141.571 22.7218 141.781 22.5446 141.781 22.2768C141.781 21.9753 141.56 21.8433 141.242 21.8433C141.095 21.8433 140.991 21.8539 140.942 21.8655V22.7218ZM140.638 21.6535C140.792 21.6256 141.013 21.6054 141.219 21.6054C141.541 21.6054 141.755 21.6709 141.897 21.798C142.013 21.9011 142.081 22.062 142.081 22.2469C142.081 22.5513 141.889 22.7574 141.642 22.8393V22.8509C141.821 22.9125 141.926 23.0811 141.986 23.3238C142.062 23.6475 142.117 23.8758 142.167 23.9673H141.852C141.815 23.896 141.762 23.6985 141.702 23.4067C141.63 23.083 141.5 22.9636 141.226 22.952H140.942V23.9673H140.638V21.6535Z" fill="black"/>
<path d="M141.335 20.7014C140.177 20.7014 139.237 21.6406 139.237 22.7965C139.237 23.9524 140.177 24.8926 141.335 24.8926C142.492 24.8926 143.432 23.9524 143.432 22.7965C143.432 21.6406 142.492 20.7014 141.335 20.7014ZM141.335 21.0251C142.313 21.0251 143.106 21.8159 143.106 22.7965C143.106 23.7762 142.313 24.5699 141.335 24.5699C140.354 24.5699 139.559 23.7762 139.559 22.7965C139.559 21.8159 140.354 21.0251 141.335 21.0251Z" fill="black"/>
</svg>
