<svg width="142" height="37" viewBox="0 0 142 37" fill="none" xmlns="http://www.w3.org/2000/svg">
<path d="M45.9825 28.6134L47.7454 24.5189C49.6505 25.9406 52.1812 26.6799 54.6834 26.6799C56.5317 26.6799 57.6975 25.969 57.6975 24.8885C57.669 21.8744 46.6365 24.2345 46.5512 16.6709C46.5227 12.8323 49.9349 9.8751 54.7687 9.8751C57.6406 9.8751 60.5125 10.586 62.5598 12.2067L60.9106 16.3866C59.0339 15.1923 56.7023 14.3393 54.4844 14.3393C52.9774 14.3393 51.9822 15.0502 51.9822 15.9601C52.0106 18.9173 63.1285 17.2965 63.2422 24.5189C63.2422 28.4428 59.9154 31.2009 55.1384 31.2009C51.6409 31.2009 48.4278 30.3764 45.9825 28.6134ZM113.628 23.0403C112.747 24.5757 111.097 25.6278 109.192 25.6278C106.377 25.6278 104.103 23.353 104.103 20.538C104.103 17.723 106.377 15.4483 109.192 15.4483C111.097 15.4483 112.747 16.5003 113.628 18.0358L118.49 15.3345C116.671 12.093 113.173 9.8751 109.192 9.8751C103.306 9.8751 98.5294 14.6521 98.5294 20.538C98.5294 26.424 103.306 31.2009 109.192 31.2009C113.202 31.2009 116.671 29.0115 118.49 25.7415L113.628 23.0403ZM65.6876 1.03198H71.7725V30.8029H65.6876V1.03198ZM120.879 1.03198V30.8029H126.964V21.8744L134.186 30.8029H141.977L132.793 20.1968L141.295 10.3016H133.845L126.964 18.5192V1.03198H120.879ZM89.8569 23.0971C88.9754 24.5473 87.1556 25.6278 85.1083 25.6278C82.2933 25.6278 80.0185 23.353 80.0185 20.538C80.0185 17.723 82.2933 15.4483 85.1083 15.4483C87.1556 15.4483 88.9754 16.5856 89.8569 18.0642V23.0971ZM89.8569 10.3016V12.7185C88.8616 11.0409 86.3879 9.8751 83.8003 9.8751C78.4546 9.8751 74.2463 14.5952 74.2463 20.5096C74.2463 26.424 78.4546 31.2009 83.8003 31.2009C86.3879 31.2009 88.8616 30.0351 89.8569 28.3575V30.7744H95.9418V10.3016H89.8569Z" fill="#17284D"/>
<path d="M8.3651 23.0685C8.3651 25.1442 6.68746 26.8219 4.61175 26.8219C2.53603 26.8219 0.858398 25.1442 0.858398 23.0685C0.858398 20.9928 2.53603 19.3152 4.61175 19.3152H8.3651V23.0685ZM10.2418 23.0685C10.2418 20.9928 11.9194 19.3152 13.9951 19.3152C16.0708 19.3152 17.7485 20.9928 17.7485 23.0685V32.4519C17.7485 34.5276 16.0708 36.2052 13.9951 36.2052C11.9194 36.2052 10.2418 34.5276 10.2418 32.4519V23.0685Z" fill="#E01E5A"/>
<path d="M13.9952 7.99864C11.9195 7.99864 10.2419 6.32101 10.2419 4.24529C10.2419 2.16958 11.9195 0.491943 13.9952 0.491943C16.0709 0.491943 17.7486 2.16958 17.7486 4.24529V7.99864H13.9952ZM13.9952 9.90375C16.0709 9.90375 17.7486 11.5814 17.7486 13.6571C17.7486 15.7328 16.0709 17.4104 13.9952 17.4104H4.58343C2.50771 17.4104 0.830078 15.7328 0.830078 13.6571C0.830078 11.5814 2.50771 9.90375 4.58343 9.90375H13.9952Z" fill="#36C5F0"/>
<path d="M29.0367 13.6569C29.0367 11.5811 30.7143 9.90351 32.79 9.90351C34.8658 9.90351 36.5434 11.5811 36.5434 13.6569C36.5434 15.7326 34.8658 17.4102 32.79 17.4102H29.0367V13.6569ZM27.16 13.6569C27.16 15.7326 25.4824 17.4102 23.4067 17.4102C21.331 17.4102 19.6533 15.7326 19.6533 13.6569V4.24505C19.6533 2.16933 21.331 0.491699 23.4067 0.491699C25.4824 0.491699 27.16 2.16933 27.16 4.24505V13.6569Z" fill="#2EB67D"/>
<path d="M23.4067 28.6986C25.4824 28.6986 27.16 30.3762 27.16 32.4519C27.16 34.5276 25.4824 36.2052 23.4067 36.2052C21.331 36.2052 19.6533 34.5276 19.6533 32.4519V28.6986H23.4067ZM23.4067 26.8219C21.331 26.8219 19.6533 25.1442 19.6533 23.0685C19.6533 20.9928 21.331 19.3152 23.4067 19.3152H32.8185C34.8942 19.3152 36.5718 20.9928 36.5718 23.0685C36.5718 25.1442 34.8942 26.8219 32.8185 26.8219H23.4067Z" fill="#ECB22E"/>
</svg>
