<svg width="90" height="13" viewBox="0 0 90 13" fill="none" xmlns="http://www.w3.org/2000/svg">
<path d="M12.5357 5.30273C12.5357 5.07673 12.2946 4.98633 12.1138 4.95619L8.33203 4.40625L6.637 0.978516C6.5692 0.83538 6.44113 0.669643 6.26786 0.669643C6.09459 0.669643 5.96652 0.83538 5.89872 0.978516L4.20368 4.40625L0.421875 4.95619C0.233538 4.98633 0 5.07673 0 5.30273C0 5.43834 0.0979353 5.56641 0.188337 5.66434L2.93052 8.33119L2.28265 12.0979C2.27511 12.1507 2.26758 12.1959 2.26758 12.2486C2.26758 12.4445 2.36551 12.6253 2.58398 12.6253C2.68945 12.6253 2.78739 12.5876 2.88532 12.5349L6.26786 10.757L9.65039 12.5349C9.74079 12.5876 9.84626 12.6253 9.95173 12.6253C10.1702 12.6253 10.2606 12.4445 10.2606 12.2486C10.2606 12.1959 10.2606 12.1507 10.2531 12.0979L9.60519 8.33119L12.3398 5.66434C12.4378 5.56641 12.5357 5.43834 12.5357 5.30273ZM31.8233 5.30273C31.8233 5.07673 31.5822 4.98633 31.4014 4.95619L27.6196 4.40625L25.9246 0.978516C25.8568 0.83538 25.7287 0.669643 25.5555 0.669643C25.3822 0.669643 25.2541 0.83538 25.1863 0.978516L23.4913 4.40625L19.7095 4.95619C19.5211 4.98633 19.2876 5.07673 19.2876 5.30273C19.2876 5.43834 19.3855 5.56641 19.4759 5.66434L22.2181 8.33119L21.5702 12.0979C21.5627 12.1507 21.5552 12.1959 21.5552 12.2486C21.5552 12.4445 21.6531 12.6253 21.8716 12.6253C21.977 12.6253 22.075 12.5876 22.1729 12.5349L25.5555 10.757L28.938 12.5349C29.0284 12.5876 29.1339 12.6253 29.2393 12.6253C29.4578 12.6253 29.5482 12.4445 29.5482 12.2486C29.5482 12.1959 29.5482 12.1507 29.5407 12.0979L28.8928 8.33119L31.6274 5.66434C31.7254 5.56641 31.8233 5.43834 31.8233 5.30273ZM51.1109 5.30273C51.1109 5.07673 50.8698 4.98633 50.689 4.95619L46.9072 4.40625L45.2122 0.978516C45.1444 0.83538 45.0163 0.669643 44.843 0.669643C44.6698 0.669643 44.5417 0.83538 44.4739 0.978516L42.7789 4.40625L38.9971 4.95619C38.8087 4.98633 38.5752 5.07673 38.5752 5.30273C38.5752 5.43834 38.6731 5.56641 38.7635 5.66434L41.5057 8.33119L40.8578 12.0979C40.8503 12.1507 40.8428 12.1959 40.8428 12.2486C40.8428 12.4445 40.9407 12.6253 41.1592 12.6253C41.2646 12.6253 41.3626 12.5876 41.4605 12.5349L44.843 10.757L48.2256 12.5349C48.316 12.5876 48.4215 12.6253 48.5269 12.6253C48.7454 12.6253 48.8358 12.4445 48.8358 12.2486C48.8358 12.1959 48.8358 12.1507 48.8283 12.0979L48.1804 8.33119L50.915 5.66434C51.013 5.56641 51.1109 5.43834 51.1109 5.30273ZM70.3985 5.30273C70.3985 5.07673 70.1574 4.98633 69.9766 4.95619L66.1948 4.40625L64.4998 0.978516C64.432 0.83538 64.3039 0.669643 64.1306 0.669643C63.9574 0.669643 63.8293 0.83538 63.7615 0.978516L62.0665 4.40625L58.2847 4.95619C58.0963 4.98633 57.8628 5.07673 57.8628 5.30273C57.8628 5.43834 57.9607 5.56641 58.0511 5.66434L60.7933 8.33119L60.1454 12.0979C60.1379 12.1507 60.1304 12.1959 60.1304 12.2486C60.1304 12.4445 60.2283 12.6253 60.4468 12.6253C60.5522 12.6253 60.6502 12.5876 60.7481 12.5349L64.1306 10.757L67.5132 12.5349C67.6036 12.5876 67.7091 12.6253 67.8145 12.6253C68.033 12.6253 68.1234 12.4445 68.1234 12.2486C68.1234 12.1959 68.1234 12.1507 68.1159 12.0979L67.468 8.33119L70.2026 5.66434C70.3006 5.56641 70.3985 5.43834 70.3985 5.30273ZM89.6861 5.30273C89.6861 5.07673 89.445 4.98633 89.2642 4.95619L85.4824 4.40625L83.7874 0.978516C83.7196 0.83538 83.5915 0.669643 83.4182 0.669643C83.245 0.669643 83.1169 0.83538 83.0491 0.978516L81.3541 4.40625L77.5723 4.95619C77.3839 4.98633 77.1504 5.07673 77.1504 5.30273C77.1504 5.43834 77.2483 5.56641 77.3387 5.66434L80.0809 8.33119L79.433 12.0979C79.4255 12.1507 79.418 12.1959 79.418 12.2486C79.418 12.4445 79.5159 12.6253 79.7344 12.6253C79.8398 12.6253 79.9378 12.5876 80.0357 12.5349L83.4182 10.757L86.8008 12.5349C86.8912 12.5876 86.9966 12.6253 87.1021 12.6253C87.3206 12.6253 87.411 12.4445 87.411 12.2486C87.411 12.1959 87.411 12.1507 87.4035 12.0979L86.7556 8.33119L89.4902 5.66434C89.5882 5.56641 89.6861 5.43834 89.6861 5.30273Z" fill="#FFDC60"/>
</svg>
