<svg width="50" height="50" viewBox="0 0 50 50" fill="none" xmlns="http://www.w3.org/2000/svg">
<rect x="1" y="1" width="48" height="48" rx="14" fill="#58D498" stroke="white" stroke-width="2"/>
<path d="M36.5853 16.0103C35.6022 16.7038 34.5137 17.2341 33.3617 17.581C32.7435 16.8701 31.9218 16.3662 31.0078 16.1375C30.0938 15.9089 29.1316 15.9664 28.2514 16.3023C27.3712 16.6383 26.6154 17.2365 26.0862 18.016C25.557 18.7955 25.28 19.7188 25.2926 20.6608V21.6874C23.4885 21.7342 21.7008 21.3341 20.0888 20.5227C18.4768 19.7113 17.0904 18.5138 16.0532 17.0369C16.0532 17.0369 11.9468 26.2764 21.1862 30.3828C19.072 31.8179 16.5533 32.5375 14 32.436C23.2394 37.569 34.5321 32.436 34.5321 20.63C34.5311 20.3441 34.5036 20.0588 34.4499 19.778C35.4977 18.7447 36.2371 17.4401 36.5853 16.0103Z" fill="white"/>
</svg>
