<svg width="43" height="43" viewBox="0 0 43 43" fill="none" xmlns="http://www.w3.org/2000/svg">
<path d="M21.7674 41.5349C32.6847 41.5349 41.5349 32.6847 41.5349 21.7674C41.5349 10.8502 32.6847 2 21.7674 2C10.8502 2 2 10.8502 2 21.7674C2 32.6847 10.8502 41.5349 21.7674 41.5349Z" stroke="#10098F" stroke-width="2.37209" stroke-miterlimit="10" stroke-linecap="round" stroke-linejoin="round"/>
<path d="M21.7676 24.5918C25.6666 24.5918 28.8274 21.431 28.8274 17.532C28.8274 13.6329 25.6666 10.4722 21.7676 10.4722C17.8685 10.4722 14.7078 13.6329 14.7078 17.532C14.7078 21.431 17.8685 24.5918 21.7676 24.5918Z" stroke="#10098F" stroke-width="2.37209" stroke-miterlimit="10" stroke-linecap="round" stroke-linejoin="round"/>
<path d="M6.80054 34.6166C9.34207 28.8276 14.9899 24.7329 21.7673 24.7329C28.5447 24.7329 34.3338 28.8276 36.7341 34.6166" stroke="#10098F" stroke-width="2.37209" stroke-miterlimit="10" stroke-linecap="round" stroke-linejoin="round"/>
</svg>
