<svg width="50" height="50" viewBox="0 0 50 50" fill="none" xmlns="http://www.w3.org/2000/svg">
<rect x="1" y="1" width="48" height="48" rx="14" stroke="#58D498" stroke-width="2"/>
<path d="M39.3709 17.2997C39.2089 16.6526 38.879 16.0597 38.4146 15.5809C37.9501 15.102 37.3675 14.7543 36.7256 14.5727C34.3804 14 24.9994 14 24.9994 14C24.9994 14 15.6185 14 13.2732 14.6272C12.6313 14.8088 12.0487 15.1566 11.5843 15.6354C11.1198 16.1142 10.79 16.7071 10.628 17.3542C10.1988 19.7343 9.98883 22.1488 10.0008 24.5672C9.98548 27.0039 10.1954 29.4368 10.628 31.8348C10.8066 32.4618 11.1438 33.0321 11.6072 33.4907C12.0706 33.9493 12.6444 34.2806 13.2732 34.4527C15.6185 35.0799 24.9994 35.0799 24.9994 35.0799C24.9994 35.0799 34.3804 35.0799 36.7256 34.4527C37.3675 34.2711 37.9501 33.9233 38.4146 33.4445C38.879 32.9657 39.2089 32.3728 39.3709 31.7257C39.7968 29.3635 40.0067 26.9675 39.9981 24.5672C40.0134 22.1306 39.8034 19.6977 39.3709 17.2997V17.2997Z" stroke="#58D498" stroke-width="2" stroke-linecap="round" stroke-linejoin="round"/>
<path d="M21.9316 29.0258L29.7718 24.5671L21.9316 20.1084V29.0258Z" stroke="#58D498" stroke-width="2" stroke-linecap="round" stroke-linejoin="round"/>
</svg>
